<svg id="Layer_1" data-name="Layer 1" xmlns="http://www.w3.org/2000/svg" viewBox="0 0 870.63 945.96"><defs><style>.cls-1{fill:#fff;}</style></defs><path class="cls-1" d="M1438.41,838.73c-1.21,4.19-2,8.61-3.71,12.54-6.66,15.15-19.2,21.29-34.87,16.52-7.59-2.3-14.83-6-22.16-9.29-5.13-2.28-10-5.49-15.27-7.17-11.44-3.66-21.09-10.74-30.82-17.69-52.89-37.78-106.07-75.12-158.42-113.77-27.48-20.28-56.56-37.36-85.32-55.18C1039,634.44,993.53,599.27,954,555.61c-.86-1-1.78-1.85-2.75-2.85a18.12,18.12,0,0,0-7.36,10.41c-2.15,7.11-4.21,14.29-5.66,21.59-2.58,13-8.32,24.64-12.93,36.76-9.11,24-18.42,47.89-31.35,69.88-4.81,8.18-9.45,16.48-14.21,24.7-7.51,13-17.66,23.41-28,33.65-21.82,21.61-43.49,43.39-65.48,64.79-8.35,8.14-17.53,15.26-26.07,23.18-7.58,7-14.86,14.46-22.16,21.84-12.13,12.25-23.59,25.37-36.37,36.76C676.09,919.09,651.83,943.41,627,967a7.44,7.44,0,0,1-3.08,2.13c-7.42,1.63-13.2,6.33-18.84,11.35q-3.3,2.93-6.48,6c-6.22,6.06-13,11.16-21.23,13.37h-2.73c-.21-.8-.19-2-.68-2.33-3.19-2.21-2-4.8-.6-7.29a28.12,28.12,0,0,1,3.56-4.93c8.8-9.6,17.8-19,26.5-28.73q72-80.34,137.94-166.59c23.32-30.57,46-61.61,65-95.62,14.11-25.25,28-50.68,38.8-77.8,13.57-33.92,26.24-68.24,34.68-104.19,1.43-6.12,2.68-12.3,4.11-18.91-3.2,1-5.86,1.67-8.37,2.72-23.14,9.69-46.2,19.59-69.39,29.14-18.74,7.71-37.63,15-56.42,22.51-28.38,11.41-55.09,26.56-81.22,42.95-13.92,8.73-27.55,18-41.38,26.94a26.76,26.76,0,0,1-7.75,3.6c-10.22,2.58-19-1.55-27-7.82-10.72-8.36-17-20.76-24.58-32v-5.91c2.6-6.5,7.23-11,12.75-14.34,36.18-21.81,71.68-45,109.36-63.77,16.35-8.13,33.3-14.89,50.14-21.8,10-4.12,20.44-7.22,30.62-11a33.29,33.29,0,0,0,7.9-4.19c4.71-3.42,5.88-7.85,3.56-13.47-1.34-3.23-3.35-6.12-4.94-9.24-12-23.55-24-47.15-36.14-70.66-3.93-7.62-8.36-14.93-12.29-22.55A18.77,18.77,0,0,0,719,335.3c-8-3.17-16.06-6-24.13-8.82-6.76-2.38-13.15-5.4-18.27-11-6.68-7.29-5.6-17.71,3-22,5.23-2.59,11.22-3.85,17-4.62,11.39-1.52,22.57.93,33.79,3.05,17.94,3.38,34.72.49,49.74-11.72,14.09-11.45,28.64-22.31,45.13-29.36,14-6,26.54-14.93,39.81-22.39a346.94,346.94,0,0,1,33-16.34c9.12-3.93,14.11-10.79,14.8-20.9.61-8.79.15-17.68,0-26.53-.31-14.27-.56-28.56-1.29-42.82a127.62,127.62,0,0,0-2.82-21.83c-1-4.62-3.8-8.82-6-13.1s-5.05-8.51-6.89-13.09c-5.88-14.62,3.79-20.6,13.5-19.93,11.78.82,22.17,6,31.45,13.74C953.45,78.12,964,90.55,969,107.09c2.29,7.56,2.43,15.92,3.34,23.95,1,9.25,1.67,18.57,2.91,27.79.41,3,2.15,5.86,3.44,9.19l3.64-1.88c14.93-7.74,29.56-16.27,44.87-23a338.58,338.58,0,0,1,43.87-15.59c28-8,54.92,16.25,58.28,43.85,2.31,19,3.79,38,1.9,57.05-1.59,16.13-3.78,32.2-5.67,48.3-1.4,11.94-2.58,23.92-4.18,35.83-1.1,8.26-3,16.4-4,24.66a92,92,0,0,0-.91,18.22c.39,5.4,3.37,7.09,8.26,6.61,27.49-2.69,54.94-6.08,82.48-7.79,24.83-1.53,49.77-1.22,74.66-1.67a9,9,0,0,1,3.61.84c18.67,8.2,34.48,20.75,47.73,37.1,5.37,6.62,6.17,16.41,2.33,24.55S1325,427.73,1317.15,427a13,13,0,0,1-5.85-1.72c-8-5.39-17.06-6.14-25.94-6.17-15.32-.05-30.66.89-46,1.56-11,.49-22,.78-33,2-16.48,1.77-33,3.64-49.33,6.52-37.17,6.56-74.25,13.73-111.36,20.68-18.43,3.45-36.91,6.64-55.25,10.58-8.86,1.91-17.48,5.22-26.14,8.1a4.75,4.75,0,0,0-2.59,3.14c-2.11,12.57-4,25.18-6,37.78a14.91,14.91,0,0,0-.28,2.19c.13,18.9-2.53,14.59,12.47,20.85,10.56,4.41,21.42,8.05,31.82,12.86,4.9,2.26,9,6.48,13.53,9.75,6.88,5,13.53,10.43,20.73,14.8,31.48,19.09,63,38.19,94.77,56.62,21.59,12.5,42.63,25.74,61.58,42.63,13.49,12,28.77,21,43.93,30.2,26.22,15.92,52.16,32.42,78.58,48a342.94,342.94,0,0,0,59.35,27.47c11.63,4.12,22.31,10.3,32.47,17.59,5.77,4.14,11.24,8.8,17.11,12.77,8.69,5.89,14.88,13.54,16.63,24.79ZM1071.82,370.2c-1.13-1.08-1.92-1.77-2.65-2.52-13.14-13.53-18.51-30-15.67-49.43,1.75-11.88,4.39-23.63,5.68-35.56q4.18-38.83,7.3-77.79c1-12.55-3.62-15.74-14.3-10.4-5.54,2.77-10.69,6.47-16.22,9.3-10.43,5.36-21,10.34-31.52,15.56-3,1.48-5.89,3.15-8.76,4.89-11.45,6.92-17.36,16.87-17.14,31.73.6,41.72.49,83.46.69,125.18,0,6.53,1.75,8.27,7.81,8.15a21.29,21.29,0,0,0,3.38-.35c7.47-1.36,14.93-2.84,22.42-4.1,10.75-1.82,21.55-3.36,32.29-5.26C1054.3,378,1063.34,375.77,1071.82,370.2ZM914.65,275.52c-4.12,1.21-7.44,1.93-10.59,3.16-17.63,6.88-33.27,18-49.23,28.22-16.48,10.57-32.12,22.7-48,34.34a83.3,83.3,0,0,0-10.73,9.63c-3.33,3.48-3.21,6.46-.46,10.47a33,33,0,0,1,2.5,4.37q16.05,33.32,32,66.69c1.19,2.48,2.44,3.13,5.06,2.41,10-2.75,20-5.28,30.11-7.67,8.54-2,17.06-4.05,24.79-8.74,8.69-5.28,13.43-13.13,14.1-24a194.83,194.83,0,0,1,2.41-21.46c3.93-22.48,8-44.93,8.49-67.88C915.31,295.46,914.84,285.89,914.65,275.52Z" transform="translate(-567.79 -53.91)"/></svg>