<svg id="Layer_1" data-name="Layer 1" xmlns="http://www.w3.org/2000/svg" viewBox="0 0 453.6 251.58"><defs><style>.cls-1{fill:#fff;}</style></defs><path class="cls-1" d="M476.8,375.79H23.2V124.21H476.8Zm-98.3-196.1.78-.12a10.83,10.83,0,0,0,.36-2.16c-.11-4.12-.43-8.23-.41-12.34,0-4.87-2.25-7.73-6.88-8.92a9.76,9.76,0,0,1-1.9-1c2.58-1,4.95-1.78,7.12-2.91,1.11-.59,1.86-.73,2.81,0a24.65,24.65,0,0,0,3.22,2.31,2.11,2.11,0,0,0,1.82-.26c.21-.14.13-1.22-.17-1.59-.68-.84-1.69-1.43-2.37-2.28a7.6,7.6,0,0,1-1.92-3.18c-.41-2.87-1.27-3.93-4.19-4.17a36.5,36.5,0,0,1-4.57-.5c-.54-.11-1.06-.77-1.38-1.31A1.34,1.34,0,0,1,371,140c1.53-1.14,3.13-2.18,5.28-3.64a20.21,20.21,0,0,0,0,3.22,10.13,10.13,0,0,0,.93,2c.51-.58,1.26-1.09,1.47-1.77a26.41,26.41,0,0,0,.63-4.06l2.5,2a8.52,8.52,0,0,0,2,1.46,5.44,5.44,0,0,0,2.06-.13c-.3-.58-.45-1.35-.92-1.72-1.36-1.07-3-1.85-4.25-3a14.39,14.39,0,0,1-2.16-3.06c-.42-.63-.76-1.31-1.13-2-.38.71-1.11,1.45-1.05,2.13a3.53,3.53,0,0,1-2.32,3.78,13.44,13.44,0,0,0-2.19,1.24c-1.24.91-2.3.6-3.43-.22a16.72,16.72,0,0,0-3.53-2.16,2.89,2.89,0,0,1-2.17-2.92c0-.67-.79-1.31-1.22-2-.41.76-1.25,1.6-1.13,2.27a2.41,2.41,0,0,1-1.25,2.78c-1.5,1-3,2.1-4.44,3.13-.81.57-1.91,1.2-.82,2.21.36.34,1.74,0,2.38-.48a40.92,40.92,0,0,0,3.8-3.43,22.19,22.19,0,0,0,.3,3.93c.21.71.94,1.27,1.43,1.9.42-.63,1.12-1.23,1.21-1.9a31.54,31.54,0,0,0,.05-4.24l.55-.34a41.15,41.15,0,0,1,3.91,4.37c.87,1.31-.4,3.09-2,3.16-1.81.08-3.64,0-5.44.24-.64.07-1.21.68-1.82,1,.59.31,1.18.88,1.78.91,2,.09,4-.05,6.07,0,.44,0,.88.44,1.31.68a4.62,4.62,0,0,1-1.07,1,3.46,3.46,0,0,1-1.44.21c-3.27.09-6.53.08-9.78.33-.65.05-1.21,1.13-1.82,1.74.66.31,1.32.92,2,.89,3.34-.12,6.69-.42,10-.6.94-.06,2.28-.17,2,1.3-.11.59-1.3,1.31-2.05,1.36-1.87.13-3.77-.23-5.64-.11-.78,0-1.52.81-2.28,1.24.61.5,1.16,1.29,1.84,1.42a23.4,23.4,0,0,0,3.75.07c1.39,0,2.77.14,4.15.22l.12.75a7.85,7.85,0,0,1-1.66.89c-4.4,1.07-6.54,4.08-7,8.35-.42,4.1-.67,8.22-.83,12.34,0,.71.71,1.45,1.09,2.18.53-.72,1.38-1.37,1.51-2.15a40.83,40.83,0,0,0,.39-5.65c.14-4.88-.55-4,4.84-4.19,1.47,0,2.1.6,2.14,2.13.08,3.15.3,6.29.56,9.42.05.57.58,1.09.89,1.64.34-.55,1-1.07,1-1.64.17-2.58.22-5.16.24-7.75,0-4,0-3.88,4-4,2-.06,2.52.71,2.61,2.51.13,2.79.44,5.57.76,8.35A8,8,0,0,0,378.5,179.69ZM180.63,349c2.72,3,5.85.58,8.69,1.47a43.53,43.53,0,0,1-13.76,17c5.4-1.67,9.05-5.54,12.86-10.06.54,2.26,1,4,1.36,5.73s.71,3.44,1,5a17.78,17.78,0,0,1,3.48-1c3.56-.24,7.13-.3,10.69-.47a24.35,24.35,0,0,0,2.64-.45c-2.15-2.84-.38-4.8.86-6.83.35-.58,1.05-1,1.36-1.56a1.87,1.87,0,0,0,0-1.6c-1.25-1.66-4.38-2.16-6.49-1.69a106.34,106.34,0,0,1-11.33,1.92c-2.39.26-2.77-.57-1.68-2.66a10,10,0,0,0,.95-2.09c.42-1.74,1.63-2.22,3.21-2.32q4.92-.33,9.83-.78a20.58,20.58,0,0,0,2.43-.51l0-.78-3.68-1a15.37,15.37,0,0,0,.83-2.64c.36-2.64,1.95-3.31,4.38-3.19,2.23.11,4.48-.09,6.71-.2a16.07,16.07,0,0,0,2.21-.48c-3.82-3.64-7.68-.85-11.62-1.2a22.64,22.64,0,0,1,1.91-3.4c1-1.24.64-1.91-.52-2.68a7.09,7.09,0,0,0-5.81-1c-1.56.37-3.11.83-4.69,1.08-3,.47-6,.82-9,1.22l-.15.54c1.05.25,2.09.52,3.14.75.52.11,1.5.07,1.53.22a12.73,12.73,0,0,1,.24,3.88c-.08.51-1.16,1.16-1.83,1.23-3.76.38-7.53.59-11.29.88-.9.07-1.8.25-3.06.44a4.77,4.77,0,0,0,5,1.93c1.52-.21,3-.6,4.53-.83,2-.32,4.06-.56,6.38-.87-.39,1.63-.72,2.83-1,4.05a2.71,2.71,0,0,1-2.89,2.44C185.83,348.6,183.47,348.82,180.63,349Zm264.56-1.93c.65,1.63.05,2.33-1.6,2.46-3.63.29-7.25.63-10.87,1-.57.05-1.13.17-1.7.27l0,.84c4.67,2.16,9.42-1.24,14.09-.46.41,3.06.39,3.1-2.37,3.39-1.53.17-3.07.25-4.59.44a4,4,0,0,0-1.13.54l.08.68c1.26.08,2.52.25,3.77.21s2.71-.28,4.19-.44c0,.95.1,1.56.09,2.18-.07,3.53-.25,3.66-3.68,2.93a3.2,3.2,0,0,0-.92.18c1.16,1.27,2.09,2.37,3.11,3.39a20.39,20.39,0,0,0,2,1.59c.57-.75,1.53-1.45,1.65-2.26a34.26,34.26,0,0,0,.23-6.24c-.07-1.56.42-2.11,2-2.14,2.48-.05,5-.31,7.47-.48a8.6,8.6,0,0,1-.44-2.22c.2-2.25.87-2.75,3.23-2.72,2,0,4.05,0,6.07,0l.22-1a20.68,20.68,0,0,0-3.6-1.35,23.75,23.75,0,0,0-4.06-.05c1.16-2.35,1-3-1.33-3.86a6.36,6.36,0,0,0-2.82-.09c-1.66.23-3.28.72-4.94.87a2.15,2.15,0,0,1-1.76-1c-.37-1.1.18-1.79,1.5-1.86,2.29-.14,4.56-.43,6.34-.61a19,19,0,0,1,1.69-3.08c1.56-1.84,1.46-2.63-.83-3.43a6.45,6.45,0,0,0-2.67-.17c-1.84.2-3.66.54-5.54.82-.53-2-.15-3,1.93-3,4.34-.08,8.67-.27,13-.45.76,0,1.51-.21,2.77-.4a6.27,6.27,0,0,0-5.91-2c-3.7.52-7.42,1-10.94,1.41-.29-1.51-.15-3-.83-3.78s-2.24-.95-3.4-1.38l-.42.55c.22.77.44,1.55.65,2.32.6,2.19.35,2.57-1.9,2.79q-6.57.64-13.14,1.31a5.11,5.11,0,0,0-1.2.49,4.89,4.89,0,0,0,4.95,1.31c3.8-.75,7.62-1.37,11.4-2,.7,3.19.63,3.38-2,3.7-2.08.25-4.18.3-6.11.44.79,2.37,1.55,4.62,2.17,6.45l6-.82c.83,2.41,0,3.23-2.05,3.23a19.35,19.35,0,0,0-2.51.23c-1.3.18-2.6.39-3.9.58C439.43,348.56,442.36,346.56,445.19,347.1ZM451.33,247l1,0a19.15,19.15,0,0,0,.66-2.74,66.7,66.7,0,0,0,.52-7.32c0-1.82.79-2.3,2.37-2.3,3.14,0,6.29,0,9.44-.11a25.86,25.86,0,0,0,3.11-.48c-1.75-1.94-3.29-2.55-5.25-2.27-3.09.44-6.18.82-9.24,1.22-.71-3.53-.61-3.67,2.38-4.14,1.11-.17,2.23-.28,3.31-.54a6.62,6.62,0,0,0,1.58-.86c-2.58-1.93-5-.25-7.29-.35-.59-4-.57-4.08,3.17-4.39,1.36-.11,2.71-.15,4.19-.23-1.75-3.87-.48-5.91,3.39-6.07,1.19-.05,2.38-.1,3.56-.21a18.48,18.48,0,0,0,2.11-.47c-2.62-3.06-5.52-.89-8.22-1.21a12.69,12.69,0,0,1,.26-1.29c.67-2.19-.41-3.6-2.75-3.53a12,12,0,0,0-1.64.35c-1.26.24-2.52.46-3.9.71a23,23,0,0,1,0-2.66c.36-2.51-1.18-3.67-3.63-2.87.27,2,.55,4,.82,6.09l-6.34,1,.07.69h5.77c.75,3.05.61,3.23-2.22,3.6-2.3.3-4.59.66-6.89,1,3,2.85,6.16-.06,9.14.7.6,3.37.57,3.4-2.52,3.92-1.29.21-2.58.47-3.87.71l.12,1.08c1.58-.07,3.15-.18,4.73-.2.57,0,1.41-.05,1.66.29,1,1.3-.1,3.74-1.77,4.05s-3.28.57-5.25.9c2.34,2.36,4.81.53,6.89,1.16.5,3,.37,3.2-2.31,3.47l-1.25.11-7.21.75a4.77,4.77,0,0,0,5.25,1.7c1.81-.4,3.63-.78,6-1.29Zm-259.9-24.12c-1.34,7.71-6.06,13-12,17.36a3,3,0,0,0,1.34-.16c.52-.19,1-.42,1.53-.66,6.38-3.16,9.79-8.56,11.38-15.27a2.21,2.21,0,0,1,2.37-2c2.93-.11,5.86-.35,8.79-.57.63,0,1.25-.23,2-.37-.54-1.09-1.21-1.85-1.26-2.65-.26-4.29,1.31-5.93,5.53-5.94,1.47,0,2.93.14,4.4.16a25.12,25.12,0,0,0,2.51-.24c-2.79-4.71-7-1.54-10.54-2.52.62-1.51,1.23-2.82,1.68-4.18.18-.56.31-1.53,0-1.81a5.32,5.32,0,0,0-5.15-1.57c-3,.73-6,1.38-9,1.85-2.71.43-5.48.57-8.38.85.79,1.93,2.3,1.8,3.72,1.68,2.87-.26,2.87-.29,2.87,2.63,0,.42,0,.85,0,1.26.1,1.15-.42,1.64-1.55,1.73-4,.29-7.95.63-11.92,1-.62.05-1.25.12-2.37.24,2,1.68,3.56,2.32,5.6,2,3.21-.48,6.44-.82,9.64-1.22a4.85,4.85,0,0,1,.24.9c0,4.95-.52,5.45-5.46,5.69-1.61.08-3.23.21-4.84.32C185.1,224.89,188.29,222.28,191.43,222.89ZM44.48,139l.68.31c.37,3.47.84,6.94,1.07,10.42.21,3.08-.68,5.71-3.7,7.27-.45.23-.72,1.17-.73,1.79-.07,3.85-.08,7.7,0,11.54a5.72,5.72,0,0,0,.86,1.92c.69-.38,1.58-.61,2-1.18a4,4,0,0,0,.45-2.19c.15-4-.6-8.06,1.21-11.86.27-.58.91-1.31,1.42-1.35a2.1,2.1,0,0,1,1.72,1c1.45,4.59,2.9,9.21,2.39,14.15a2.89,2.89,0,0,0,0,1.44,5.74,5.74,0,0,0,1.15,1.22c.37-.42,1-.81,1.07-1.27.3-2.4.95-4.9.55-7.2-.71-4.08-.51-8.65-4.36-11.62a1.76,1.76,0,0,1-.61-1.06c-.44-3.34-.92-6.68-1.17-10a11.79,11.79,0,0,1,.79-3.4c1.11.83,2.24,1.66,3.34,2.52.14.11.14.39.26.56,1,1.57,1.94,3.18,3,4.67.38.51,1.15.72,1.73,1.07l.71-.53c-.75-1.59-1.41-3.24-2.28-4.76s-2.5-3-3-4.67c-.79-2.78-2.51-4.83-4.18-7a14.55,14.55,0,0,0-2.2-1.93l-.55.14c.69,4.39-2.21,6.79-4.68,9.56a37.5,37.5,0,0,0-4,6.22c-.22.37.17,1.09.28,1.65.51-.22,1.22-.29,1.5-.68,1.08-1.51,1.95-3.17,3-4.68A16.2,16.2,0,0,1,44.48,139ZM465.15,293.78l0-1c-.78-.17-1.56-.37-2.34-.52a37.05,37.05,0,0,1-14.54-5.7c-1.51-1.05-2.39-2.06-1.76-4.09.57-1.84,0-4.43,1.16-5.55s3.66-.81,5.57-1.21c.55-.12,1.5-.53,1.5-.79,0-3,2.24-4.31,4-6.08a1.63,1.63,0,0,0,.17-1.55c-1-1.52-3.85-2-5.63-1.4s-3.53,1-5.76,1.65c.27-2.16.53-3.79.66-5.43,0-.54-.1-1.44-.44-1.6a26.49,26.49,0,0,0-3.58-1.23c.45,2.34.81,4.31,1.22,6.27s-.55,2.53-2.22,2.68c-2.39.21-4.79.46-7.16.69,1.47,3.08,2.94,6.18,4.39,9.19a22.26,22.26,0,0,1,3.32-1c.37-.06,1.21.62,1.19.93-.07,1.61-.35,3.2-.58,4.93-3.9-1.73-6-6.3-10.5-5.17,2.76,2.08,5.55,4.23,8.38,6.33,1.22.9,1.2,2,.18,2.76a70.28,70.28,0,0,1-6.66,4.59,36,36,0,0,1-4.58,2l.24.51c4.85-.59,9.33-2.05,12.61-6,.91-1.1,1.5-1.08,2.53-.2,2.49,2.13,5.06,4.17,7.65,6.18a3.42,3.42,0,0,0,2,.91C459.14,294.61,462.14,294.16,465.15,293.78Zm-95.81-85.14.1.91c.93.07,1.87.11,2.8.21s2.1-.26,2.1,1.33-1.21,1.19-2.1,1.33l-4.2.67.11.95c1.38,0,2.77,0,4.15,0,1,0,1.83-.11,2,1.21s-.77,1.58-1.82,1.67-2.07.23-3.1.34l0,1c1.12.14,2.24.22,3.34.43.53.1,1.47.53,1.44.68-.11.67-.35,1.66-.82,1.85-2.59,1-3.5,3.16-3.63,5.62-.29,5.64-.45,11.28-.6,16.91a6,6,0,0,0,.57,1.79h.81a26.71,26.71,0,0,0,.61-3.63c.12-3.28.12-6.56.14-9.84,0-1,.22-1.61,1.41-1.57s1.69.33,1.73,1.55c.1,3.14.27,6.27.44,9.41.06,1.27.18,2.54.27,3.81l.89.14a11.05,11.05,0,0,0,.77-2.83c0-3.49-.09-7-.4-10.45-.13-1.58.59-1.77,1.75-1.91s1.72.5,1.79,1.69q.33,5.74.78,11.49a11.76,11.76,0,0,0,.59,2.12l.8-.07a14.08,14.08,0,0,0,.29-2.47c-.33-5.44-.83-10.86-1-16.3-.12-2.83-.44-5.18-3.93-5.55-.37,0-.84-.85-.93-1.36a1.65,1.65,0,0,1,.57-1.38c1.59-1,3.26-1.83,5-2.79l2.43.57.33-.62-1.6-2c-.3-.37-.88-.75-.85-1.09.3-3.3-1.83-4-4.42-4.33-1.24-.14-1.83-.67-1.73-2.05,0-.58-.56-1.21-.86-1.82-.35.59-1,1.18-1,1.77,0,1.66-.72,2.21-2.31,2.15A11.56,11.56,0,0,0,369.34,208.64Zm5.88,156.7.52.26c.39-.53,1-1,1.13-1.6a47.78,47.78,0,0,0,1.23-6.57c.24-2.73.92-4.44,4.15-5,3.42-.63,3.7-.92,5.12,2.41.41,1,.71,2,1.15,2.93a15.23,15.23,0,0,0,1.13,1.78l.72-.25a12.22,12.22,0,0,0-.62-2.81c-.9-1.89-2-3.68-3-5.54a3.6,3.6,0,0,1-.54-1.89c.59-5.07.05-5.76-5.11-6.2-1.06-.09-2.17,0-2.13-1.62s1.25-1.17,2.13-1.34c.27-.05.55-.09.83-.12,1.77-.25,3.09-.93,3-3s-1.25-2.75-3.14-2.85a22.08,22.08,0,0,1-3.18-.63l.06-.64a40.18,40.18,0,0,0,5.21-2.35c2.54-1.59,3.06-3.16,2.16-4.45-1.42,1.27-2.69,2.86-4.33,3.78-3,1.69-3.29,1.39-3.62-2-.12-1.24-.45-2.45-.68-3.68l-.77.06a15,15,0,0,0-.23,2.1,30.19,30.19,0,0,1,.3,3.12c0,.5-.61,1.36-1,1.37-2.32.06-4.44-.5-5.79-2.65-.31-.49-.65-1-1-1.44a2.18,2.18,0,0,0-.46,2c1.61,3.52,5.22,3.38,8.31,4.46a25.27,25.27,0,0,1-4.1,1.2,2.49,2.49,0,0,0-2.1,2.92,2.56,2.56,0,0,0,2.53,2.57,9.19,9.19,0,0,1,2.49.31c.62.24,1.07.93,1.6,1.43-.55.47-1.06,1.28-1.66,1.36-1.86.23-3.77.09-5.64.28a24.27,24.27,0,0,0-3.51.86l.12.8a20,20,0,0,0,2.56.16c1.74-.08,3.48-.38,5.22-.36,1.06,0,2.8-.95,2.91,1.2s-1.61,1.49-2.73,1.6c-2.5.24-5,.36-7.52.63a6.7,6.7,0,0,0-1.77.73l.19.71c.73,0,1.47,0,2.19,0,2.51-.14,5-.32,7.54-.48,1-.06,2-.14,2,1.4,0,1.24-.23,1.94-1.72,1.95-2.16,0-4.32.27-6.47.5a11.71,11.71,0,0,0-2.13.61l.11.66H377C376.4,357.88,375.81,361.61,375.22,365.34Zm-15.76-82.17,0,1.07c1.86.09,3.74.12,5.6.27,3.46.28,6.95.47,10.37,1,1,.17,1.85,1.48,2.77,2.27-1,.53-1.9,1.41-2.92,1.52-3.89.41-7.8.55-11.71.83a20.71,20.71,0,0,0-2.42.47c.37.51.45.72.61.82a1.47,1.47,0,0,0,.77.29c4.91-.47,9.87-.72,14.72-1.57,1.86-.33,2.65-.29,3.26,1.49,1,2.91,2.09,5.78,3.18,8.66a24.11,24.11,0,0,0,1.21,2.29c.27-.91.49-1.26.42-1.52a39.43,39.43,0,0,0-1.79-6.23c-1.68-3.72-2.86-7.34-2.16-11.58.47-2.9-1.46-4.66-4.38-5.05a11.12,11.12,0,0,1-2.69-.39,2.1,2.1,0,0,1-1.15-1.57c0-.49.79-1.19,1.36-1.36a19.92,19.92,0,0,1,2.91-.26c2.85-.36,3.71-1.16,3.91-4,.18-2.36.14-4.75.11-7.13,0-.48-.44-.95-.71-1.5-.39.32-.54.39-.59.5a2.76,2.76,0,0,0-.26.78c-.37,3.41-.37,3.41-3.88,3.33h-.63c-2.81,0-2.77,0-2.59-2.84a21.9,21.9,0,0,0-.21-3.12h-.84a10.93,10.93,0,0,0-.43,1.91c-.26,4.18-.24,4.19-4.42,4.11-.42,0-.84-.07-1.26,0-1.26.08-1.75-.46-1.72-1.73a18.07,18.07,0,0,0-.37-2.8l-.64,0c-.18.41-.52.83-.51,1.24.09,3,.08,6,.46,8.94.22,1.75,1.81,2.36,3.49,2.41a18.61,18.61,0,0,1,3.34,0c.58.12,1,1,1.5,1.47-.5.42-1,1.15-1.5,1.18-2.09.12-4.2,0-6.3,0a8.6,8.6,0,0,0-2.05.57l.09.76a25.31,25.31,0,0,0,2.58.34c3.84.14,7.69.15,11.52.38s5.28,2.46,3.86,6.56c-2.68-3-6.33-2.74-9.74-3S362.79,282.26,359.46,283.17ZM104.83,245.26l.85.36a11,11,0,0,0,1.45-2.66c1.46-6.61,2.83-13.24,4.17-19.87.19-.93.11-1.69,1.39-1.91a62.37,62.37,0,0,0,7.52-1.69c1.39-.41,1.86-.14,2.14,1.23q2.07,10.38,4.29,20.73a12.79,12.79,0,0,0,1.4,2.79c.16-1.07.64-2.19.44-3.18q-2.07-10.27-4.42-20.5a7.69,7.69,0,0,1,.57-5.31c1.94-4.35,1-9.55-4.63-10.35-4.69-.67-9.45-.86-14.19-1.18a8,8,0,0,0-2.19.49l0,.73a11.46,11.46,0,0,0,2.18.62c1.11.11,2.25-.08,3.35.07a1.74,1.74,0,0,1,1.23,1c.82,3.66.07,4.56-3.64,4.54-1.19,0-2.38-.08-3.57,0a11.18,11.18,0,0,0-2,.51l0,.63a10.37,10.37,0,0,0,2,.58c1.32.14,2.65.11,4,.18,3.25.18,3.3.19,3,3.33-.39,3.61.4,3.38-3.8,3.4-1.14,0-2.29.22-4,.39,2.47,2.48,5.09.83,7.44,1.76-.59,4-1,7.94-1.81,11.83S105.87,241.43,104.83,245.26ZM464,162.76c-.53,1.23-.87,1.9-1.13,2.61a5.68,5.68,0,0,1-5.21,4.19,90.47,90.47,0,0,1-10.67.1c-3.5-.21-4.7-1.69-5.23-5.13-.21-1.4.14-2.08,1.61-2.27,3.26-.41,6.5-.9,9.75-1.39.9-.14,1.77-.42,3.11-.74-1.68-1.67-3.2-1.48-4.69-1.25-2.55.41-5.09.93-7.64,1.33-.85.13-2,.8-2.23-.9-.17-1.4.17-2.31,1.76-2.42a12,12,0,0,0,2.06-.35c1.89-.48,3.76-1,5.63-1.49l-.16-.77c-2.89-1.95-6,1.2-8.86,0,.06-1.2.13-2.29.2-3.52l9-2.33c-1.62-1.06-2.66-1.83-3.78-2.42a1.65,1.65,0,0,0-1.51.09c-2.65,3-6.37,3.88-9.9,5.15a5.53,5.53,0,0,0-1.08.7l.12.41,4.18-.26c.82,3.13.83,3.13-2,3.74-1.45.31-2.92.58-4.69.93,2.34,2.26,4.85.48,7,1.07.51,3.05.39,3.26-2.39,3.68-2.55.39-5.12.73-7.69,1-1.13.14-2.28.16-3.42.24l0,.87c4.44,1.87,9-.82,13.49-.49.11,1.07.16,1.9.3,2.72.65,3.82,2.36,5.8,6.17,6.39a46.59,46.59,0,0,0,16.69-.34c1.47-.3,2.64-1.1,2.36-2.88S464.48,165.29,464,162.76Zm-164-9.62a16.63,16.63,0,0,0,3-1.46c2-1.61,2.54-1.69,3.95.53,1.18,1.88,1.95,4,3,6,.22.42.74.7,1.12,1,.33-.47,1-1,.91-1.38-.44-1.58-.75-3.38-1.74-4.58-2.76-3.33-4.56-6.83-3.66-11.29a3.27,3.27,0,0,0,0-1.46,25.83,25.83,0,0,0-1.55-4.46c-.27-.53-1.31-.67-2-1a12.74,12.74,0,0,0,.15,2.4c.37,1.44,1,2.82,1.26,4.27.06.34-1.32,1.38-1.57,1.24a31.69,31.69,0,0,1-3.87-2.71,16.88,16.88,0,0,1-1.37-1.31,10.44,10.44,0,0,0-1,1.76,5.07,5.07,0,0,0-.14,1.66c0,5.86,0,11.73-.08,17.6a8.73,8.73,0,0,1-1.14,3.45c-1.59,3.16-3.36,6.24-4.9,9.44-.3.61.13,1.58.21,2.39.69-.53,1.62-.92,2-1.62.68-1.19,1-2.61,1.57-3.86.19-.4,1-.93,1.22-.81a2.24,2.24,0,0,1,1,1.38,9.76,9.76,0,0,1-.08,2.08c0,1.25,0,2.5,0,3.76,3.19-2,.88-5.57,2.93-8.11a8.55,8.55,0,0,1,1.58,1.53c.93,1.55,1.64,3.24,2.63,4.75.37.58,1.27.82,1.93,1.21a6.35,6.35,0,0,0,.27-2,15.58,15.58,0,0,0-5.72-8.79,3.39,3.39,0,0,1-1.34-3c.1-3.07.06-6.15.14-9.23.07-2.68.23-5.37.38-8.69,1.49,1,3,1.52,3.49,2.51C304,149,300.55,150.19,300,153.14ZM293.15,327.3l-.81.28c.12,2.25.12,4.52.42,6.75.22,1.64,1.15,2.86,3.1,2.75,1.24-.07,1.49.68,1.5,1.74,0,2.73,0,5.46.19,8.19a29.75,29.75,0,0,0,.71,3.93l.65-.53c.78.26,1.9.31,2.26.85a4,4,0,0,1,.42,2.77,29,29,0,0,1-1.58,3.64,11.19,11.19,0,0,0-.41,2l.7.39c1.16-1.35,2.33-2.69,3.58-4.15,1.94,2.54,1.77,6.17,4.26,8.19l1-.42c-.56-1.88-1-3.8-1.7-5.64-.91-2.44-2.53-4.55-2.22-7.48a7.77,7.77,0,0,0-3.9-7.94c-1.58-.93-1.56-2.34-1.31-3.85a2.18,2.18,0,0,1,2.41-2.09,2,2,0,0,0,1.52-.93,28.53,28.53,0,0,0,1.73-6.12c.1-.89-1-1.92-1.54-2.89l-.71.32a3.91,3.91,0,0,1,0,1.37,2.85,2.85,0,0,1-1,1.51c-.44.22-1.16-.09-1.75-.16a6.26,6.26,0,0,1,.3-2c.56-1.1,1.4-2.06,2-3.16a11.15,11.15,0,0,0,.67-2.28l-.68-.28c-.75,1-1.53,1.9-2.23,2.89s-1.46,1-2.36.14a12.15,12.15,0,0,0-2.3-1.73,1.13,1.13,0,0,0-1.08.18,1.21,1.21,0,0,0,0,1.11c.53.82,1.21,1.53,1.78,2.33s1.95,1.84.62,2.8-2.53.5-3.17-1.15A6.28,6.28,0,0,0,293.15,327.3ZM103.61,370.23l1.08.13a11.94,11.94,0,0,0,.43-2.42c-.24-8.2.74-16.16,4.16-23.73a2.74,2.74,0,0,1,2.76-2,81.82,81.82,0,0,0,8.57-.55c1.56-.19,2.19.21,2.36,1.73.84,7.85,1.73,15.69,2.62,23.53.14,1.27.39,2.53.59,3.8l.83-.05a8,8,0,0,0,.44-2.31c-1-8.88-2.08-17.76-3.1-26.64a5,5,0,0,1,.19-2.21c2.12-5.55-.12-9.39-6-9.91-4.1-.37-8.23-.53-12.35-.7a9.51,9.51,0,0,0-2.4.53l.06.85c1.37.12,2.74.3,4.11.35s1.83.64,1.69,2-.2,2.25-1.85,2.12a25,25,0,0,0-3.77-.08c-.43,0-.84.51-1.25.78.4.31.79.8,1.23.87a23.69,23.69,0,0,0,2.92,0c2.68,0,2.92.33,2.39,2.88-.29,1.42-1.2,1.68-2.46,1.67s-2.55.14-3.82.22v1l5.17.57C103.85,351.65,103,360.84,103.61,370.23Zm91.92-81.44a48.7,48.7,0,0,0-5-4.67,18.21,18.21,0,0,0-4.67-1.92c-.24-.09-.66.35-1,.55.2.33.35.88.61.94,3.27.77,4.93,3.51,7.12,5.63,1.27,1.23,1.09,2.08,0,3.3a26.12,26.12,0,0,1-13,8.05c-.66.16-1.29.42-2.46.81a8.09,8.09,0,0,0,1.26.39,14.42,14.42,0,0,0,1.47,0,21.48,21.48,0,0,0,15-7c1.11-1.19,1.81-1.11,2.82.09a70.35,70.35,0,0,0,4.83,5.24c3.35,3.27,10.4,3.93,14.53,1.44.08,0,.06-.26.13-.63-1.07-.34-2.16-.76-3.28-1a35.12,35.12,0,0,1-14.68-7.78,2.41,2.41,0,0,1-.77-2c1.05-2.8,2.26-5.55,3.52-8.28s.9-3.72-1.64-5a2.14,2.14,0,0,0-1.54-.26c-.28.13-.35.94-.33,1.44A19.52,19.52,0,0,1,195.53,288.79Zm-79.4-18.73-.83-.09a33.38,33.38,0,0,0-1.91,5.37c-.75,4.1-.06,5.07,3.84,6.65a26.93,26.93,0,0,1,4.74,2.2,53.86,53.86,0,0,1,4.82,4.11c-6.17,2.81-11.27-.77-16.67-.76a4.26,4.26,0,0,0,1.56,1.81c5.13,2.74,10.39,4.54,16.15,1.43a44.32,44.32,0,0,1,1.89,15,41.06,41.06,0,0,0,.33,4.43l.89,0a6.31,6.31,0,0,0,.71-1.78c.33-5.68.25-11.35-1.37-16.85a3.66,3.66,0,0,1,.78-3.94c2.89-3.35,2.12-8.92-1.54-11a16,16,0,0,0-9.26-2.16c-.5,0-1,.55-1.45.84a4.65,4.65,0,0,0,1.26.83c2.3.58,4.66,1,6.92,1.65a4.52,4.52,0,0,1,3.3,5.7,18,18,0,0,1-1.77,3.13c-2.47-3.3-5.87-4.86-9.38-6.31-4.26-1.75-4.73-3-3.1-7.22a3.42,3.42,0,0,0,.4-1.19A11.17,11.17,0,0,0,116.13,270.06Zm-67.3-.72c.16,2.79,2.24,3.47,3.54,4.82s3.3,2.71,3,5.22c-3-1.58-5.72-3-8.4-4.53a2.32,2.32,0,0,1-.77-1.63c-.09-1,.17-2.1.05-3.12a21.16,21.16,0,0,0-1-3.27c-2.29,3.92-2.91,19.18-.86,21.26l1.68-11.18c.37,0,.72-.11.89,0,2.51,1.85,5.06,3.66,7.43,5.68a2.58,2.58,0,0,1,.08,2.43c-1.72,2.93-3.65,5.74-5.48,8.61-.67,1.05-1.28,2.15-1.92,3.22l.69.54,9.38-10.09c.2,5.17.37,10,.57,14.75,0,1.18.17,2.37.26,3.56l.68,0a8.24,8.24,0,0,0,.42-1.14,45.46,45.46,0,0,0-.38-18.87,40.78,40.78,0,0,1-1.13-6.07,8,8,0,0,0-2.71-5.69c-1.4-1.25-2.82-2.48-4.27-3.66A9.22,9.22,0,0,0,48.83,269.34ZM53,214.48a61.81,61.81,0,0,0-6-4,2.92,2.92,0,0,1-2-3.13c0-1.57.29-3.44-1.14-4.9-1.79,3.23-.77,37.08,1.4,40.91V211.29c1.39,1,2.47,1.76,3.47,2.59,3.09,2.57,3.26,3.86,1.05,7.28-.5.77-1,1.53-1.55,2.29l.41.34,3.87-3.39c1.36,4.07,2.56,7.68,4,11.89a10.71,10.71,0,0,0,.19-2.11c-.59-3.71-1.29-7.41-1.82-11.13a4.76,4.76,0,0,1,.36-3.11c3.57-5,.61-10.51-4.06-13.88.45,1,.62,1.54.89,2,.51.83,1.12,1.6,1.61,2.44C55.14,209,54.89,212.76,53,214.48Zm246.64,44.38-1,0a23.06,23.06,0,0,0-.29,2.59c0,1.82.2,3.63.2,5.45,0,2.16-.48,2.45-3.13,2.43-1.72,0-2.36-.73-2.13-2.47a30.24,30.24,0,0,0,0-3.81h-.88c-.2,2.45-.51,4.9-.59,7.36-.12,4.18.38,5.08,4.25,6.53,1.74.65,2.27,1.58,2.06,3.23a18.67,18.67,0,0,0-.24,2.08c0,2.21,0,4.41,0,6.61l.84.06c.32-1.47.65-2.95,1-4.42l.65-.23c1.24,2.28,2.52,4.53,3.65,6.86.14.29-.42,1.06-.82,1.45-.89.87-1.89,1.64-2.84,2.44l.48.54c.58-.19,1.18-.35,1.74-.58,2.6-1.07,2.59-1.07,3.87,1.59.51,1,1.1,2.07,1.65,3.1l.73-.33a26.67,26.67,0,0,1-1.16-3.16c-.38-1.56-1.38-3.77-.71-4.65,2.53-3.39,2.43-6.87,1.43-10.56a10.43,10.43,0,0,0-1.29-2.25l-.64.27c-.15,3.57,2.5,7.43-.73,10.83a3.7,3.7,0,0,1-.67-.53q-2.52-3.81-5-7.65a3.89,3.89,0,0,1-.45-1.16c-.54-2.18,1-2.93,2.54-3.71,5.75-2.83,6.18-6.27,5.46-11.95a6.82,6.82,0,0,0-.77-1.62c-.57,2-.54,4.18-1.59,5-1.22.91-3.37.57-5.63.83Zm-107-88.44v-4.71c0-2.81,0-2.81,2.89-3,.73,1.8-.54,4.05,1.3,5.68a31.52,31.52,0,0,0,.64-4.64,2.3,2.3,0,0,1,1-1.64c2.65-1,3.46-.2,3,2.59-.31,1.9-.4,3.83-.59,5.76l.76.09c1.57-2.88,1.78-6.06,1.53-9.81,2.09.35,4.9.13,5.36,1.06.76,1.55.24,3.9-.25,5.79-.13.51-2.06.55-3.26.83a28.73,28.73,0,0,0,2.17,3.72,2.14,2.14,0,0,0,1.94,0,44,44,0,0,0,2.45-5.63c.39-1.1.33-2.36.71-3.47.75-2.22-.33-4.11-2.69-4.31a8.39,8.39,0,0,0-2.28.2c-3.12.6-6.23,1.24-9.62,1.93l2.39-3.9c1.81-.37,3.87-.74,5.9-1.24.48-.12.86-.68,1.29-1a5.41,5.41,0,0,0-1.55-.79,5.17,5.17,0,0,0-1.85.23c-2.31.54-4.61,1.14-6.92,1.65-1.5.33-3,.55-4.54.82v.76l4.23.43c-.06,3.56-.34,3.73-6.84,4C190,164.93,191.34,169.68,192.72,170.42Zm-88.86,4.51.85-.06a16.23,16.23,0,0,0,.42-2.36c.47-10.82.89-21.64,1.38-32.46,0-.59.52-1.15.8-1.73a6.2,6.2,0,0,1,.88,1.79,27.84,27.84,0,0,1,.1,3.77q-.08,13.51-.16,27a13.61,13.61,0,0,0,.15,2.71c.08.43.61.77.94,1.15.33-.44.89-.85.94-1.31a26.86,26.86,0,0,0-.08-3.35c-.15-4-.45-8-.41-11.93.08-6.29.43-12.57.56-18.86a3.45,3.45,0,0,0-.86-2.4c-1-.91-5.79-.06-7.27,1.3,3.24-.06,2.66,2.11,2.63,3.94,0,1.47-.1,2.94-.17,4.41-.38,8.72-.77,17.44-1.12,26.17A9.43,9.43,0,0,0,103.86,174.93Zm80.8-25.48a5.59,5.59,0,0,1,.4,1.57c-.43,4.57-.8,9.15-1.42,13.69-.28,2-.44,3.81,1.53,5.56a8.61,8.61,0,0,0,1.17-2.51c.32-5.72,1.09-11.5.52-17.14-.29-2.85,0-4.84,1.58-6.94a21.94,21.94,0,0,0,1.94-3c.21-.42.18-1.38-.1-1.57a23.86,23.86,0,0,0-3-1.56c-.6,2-.76,3.76-1.58,5.11-2.34,3.86-4.95,7.56-7.47,11.32-.58.86-1.22,1.69-1.83,2.54l.44.37C180,155.27,182.12,152.31,184.66,149.45Zm-57.39,1.94.8.31a5.75,5.75,0,0,0,.94-1.91,21.46,21.46,0,0,0-.22-3.75c-.62-5.17-.63-5.17-5.83-5.61-.07,0-.16,0-.2,0-.63-.42-1.24-.85-1.86-1.27a7,7,0,0,1,2.07-1c1.23-.16,2.52.09,3.76-.05a5.94,5.94,0,0,0,1.86-.94c-.67-.33-1.35-.93-2-.93-4,0-8,.15-11.94.27-.75,0-1.5.17-2.25.26l-.07.71a9.72,9.72,0,0,0,1.92.61,14.78,14.78,0,0,1,2.49,0,8.81,8.81,0,0,1,2.15,1.38,6.93,6.93,0,0,1-2.18,1c-3.29.22-4.6,1.44-4.59,4.65a36.91,36.91,0,0,0,.29,4.82,5.91,5.91,0,0,0,1,1.8c.6-.58.73-.91.72-1.24-.06-2-.24-4.05-.2-6.08,0-1.65,1.45-2.47,3.93-2.45,1.7,0,1.53,1.34,1.58,2.41.11,2.23.08,4.47.22,6.7,0,.53.53,1,.82,1.53.3-.54.87-1.08.87-1.61,0-2.38-.2-4.75-.25-7.12,0-.59.21-1.67.41-1.69a12,12,0,0,1,4.1.08c.56.14,1.09,1.36,1.19,2.15C127,146.69,127.11,149.05,127.27,151.39Zm63.87-7a37.76,37.76,0,0,1-1.25,3.65c-.52,1.15-1.08,2.68.14,3.15,1.55.61,1.46-1.38,2.06-2.27.51-.73.89-1.85,1.58-2.09a29.87,29.87,0,0,1,4.9-.9c1,2.66-.66,5.62,1.12,8l.71,0v-8.54l8.2-1.19-.5,3.49c1.73-.65,3.26-1.14,4.69-1.83a1.58,1.58,0,0,0,.5-1.47c-1-1.5-4-2.42-5.82-1.92-1.08.3-2.16.59-3.25.84-2.93.68-2.93.67-3.57-2.25,0-.11.06-.25.11-.42,1.38-.41,2.82-.76,4.18-1.29.56-.21,1-.82,1.44-1.26-.63-.26-1.32-.83-1.88-.72-2.19.4-4.34,1-6.5,1.57-1.14.29-2.27.62-4,1.08,2.27,1.28,5.68.65,4.59,4.3C195.36,145.45,193,145.55,191.14,144.37ZM58,350.05c1-2.32.25-8.89-1.13-10.78a20.09,20.09,0,0,0-3.92-3.95,3.1,3.1,0,0,1-1.34-3.46,20.66,20.66,0,0,0-.6-6.32c-.15-.73-1.06-1.32-1.62-2l-.65.44a11.43,11.43,0,0,1,.75,2,44.82,44.82,0,0,1,.71,4.88,1.57,1.57,0,0,1-.81,1.24c-1.55.47-4.3-2.08-4.23-3.73a7.25,7.25,0,0,0-.31-1.7l-.77.09c-.7,8.1-1.21,16.2.5,24.26h.63V332.44c4.74.64,3.53,3.85,3.06,6.76A3.22,3.22,0,0,0,49.41,338c.66-1.94,1.75-1.66,3.22-.87,2.25,1.22,3.73,2.86,4,5.49.16,1.74.4,3.47.69,5.19A17.18,17.18,0,0,0,58,350.05ZM436.25,245.13l.91.09a42.29,42.29,0,0,0,.79-4.7c.26-3.75.39-7.51.54-11.26,0-.47,0-1.16-.25-1.38-1.42-1.1-.67-2,.1-3s1.57-2,2.26-3c.37-.57.95-1.62.75-1.85a10.2,10.2,0,0,0-2.6-1.92c-.12-.07-.87.49-.9.8-.4,3.8-2.86,6.43-5.09,9.18-1.83,2.26-3.78,4.41-5.48,6.37l8.39-5.75.59.21c-.41,3.64-.62,7.33-1.33,10.91A5.94,5.94,0,0,0,436.25,245.13ZM129.65,154.6v-.67c-.34-.16-.68-.45-1-.45-5.44,0-10.89,0-16.34.11-.39,0-.77.56-1.16.86.37.33.74.93,1.12.94,1.6,0,3.21-.19,4.81-.21a8.08,8.08,0,0,1,1.85.41l-.07.71a17.22,17.22,0,0,0-3.77.42c-.93.32-2.31,1.18-2.36,1.88-.2,3,0,6,.1,8.92,0,.1.32.19.92.52a28,28,0,0,0,.56-3.27c.07-1.11-.08-2.23-.12-3.35-.07-1.82.56-2.94,2.63-2.91,2.23,0,4.46-.08,6.69-.11s3.12.8,3.12,3.15c0,1.26-.1,2.52,0,3.76,0,.44.58.83.89,1.24.32-.38.9-.74.93-1.14a26.48,26.48,0,0,0,.1-5.83c-.39-2.5-2.22-3.41-4.75-3a8.72,8.72,0,0,1-2.59-.37l.09-.88ZM305,235.31l1-.55a13.58,13.58,0,0,0-1.75-3.13,12.35,12.35,0,0,1-3.42-9.36c.08-4.47.18-8.94.21-13.41a15.75,15.75,0,0,0-.41-2.52l-.81.07c-.09.71-.25,1.43-.27,2.15-.12,4.26-.41,8.53-.23,12.79.16,3.7-.61,6.81-3.43,9.38a19.57,19.57,0,0,0-2.41,3.35l.68.59c.82-.76,1.6-1.56,2.45-2.27.69-.59,1.47-1.08,2.21-1.61a16.31,16.31,0,0,1,.41,2.75c0,2.37-.18,4.75-.2,7.12a7.86,7.86,0,0,0,.5,1.9l.93-.07V230.3l.88-.22Zm6.14,3.07,1.3-.19c-.33-4-.42-8-1.05-12-.67-4.18-1.32-8.17.63-12.26,1.18-2.49.18-5.06-1.21-7.34-.2-.33-.7-.48-1.44-1a8.46,8.46,0,0,0,.32,1.78c1.21,2.34,1,4.71.4,7.15-.34,1.46-.94,1.77-2.14.82a9.22,9.22,0,0,0-1.85-1.35,11.55,11.55,0,0,0-2.38-.49,10.7,10.7,0,0,0,1.09,2,8.66,8.66,0,0,0,1.79,1.43c1.59,1.12,1.67,2.42.63,4a16.72,16.72,0,0,0-1,1.94l.41.28,2.45-1C309.78,227.7,310.44,233,311.11,238.38ZM365.31,221c2.15-2.79,2.07-3.68,0-4.5-.61,1.43-1.18,2.87-1.84,4.26a71.71,71.71,0,0,0-3.56,7.47c-.58,1.73-.31,3.74-.45,6.14,3.16-1.63,1.61-4.11,2.25-5.88s1.17-3.9,1.71-5.73c2.27.14,2.86,1.26,2.81,2.84a8.81,8.81,0,0,1-.35,2.68c-1.82,4.88-1.32,9.91-1.1,14.92a6.4,6.4,0,0,0,.63,1.81l.83,0a20.78,20.78,0,0,0,.24-3.42,35.14,35.14,0,0,1,1.17-13.87C368.64,224.53,368.05,223,365.31,221Zm-244.2,123.8-.65-.11a3.81,3.81,0,0,0-.54,1c-.6,3.14-.59,3.15-3.79,3.12-.42,0-.84,0-1.26,0-1.87.1-3.46,0-2.69-2.66.1-.37-.52-.94-.8-1.42-.3.48-.82.94-.86,1.44-.11,1.67-.06,3.35-.06,5,0,5.47,1.67,7,7.05,6.57a3.69,3.69,0,0,0,1.41-.33c.6-.32,1.38-.68,1.6-1.22C122,352.46,121.89,348.63,121.11,344.81Zm.19-182.66a16.28,16.28,0,0,1,.58,2.39c.34,3.27.54,6.55.94,9.81.08.64.8,1.21,1.23,1.82.24-.65.75-1.33.67-1.94-.45-3.74-.89-7.49-1.67-11.17a4,4,0,0,0-2.44-2.6c-1.7-.37-3,.79-3.53,2.57a6,6,0,0,0-.19,1.45c0,3.08-.1,6.15-.06,9.23a26.12,26.12,0,0,0,.41,3.15h.63a16.89,16.89,0,0,0,.39-2.31c.09-3.15.13-6.29.14-9.44C118.41,163.4,119.05,162.28,121.3,162.15Zm166.43,85.62L289,248c.22-1.13.48-2.26.64-3.4q1.27-9.31,2.48-18.65c.06-.49,0-1.27-.28-1.45a1.85,1.85,0,0,0-1.55.09c-1.92,1-3.8,2.08-5.66,3.19a4.5,4.5,0,0,0-.92,1.13l.44.62c.84-.45,1.69-.89,2.53-1.35s1.75-1,2.63-1.45l.71.36c-.52,3.89-1.08,7.77-1.52,11.67C288.14,241.76,288,244.77,287.73,247.77Zm-246.07,107-.93.18a33.91,33.91,0,0,1,.41,4.47c-.18,6,3.9,7.07,8.32,5.5a3,3,0,0,0,1.72-2c.25-3.1.21-6.22.23-9.34a3.46,3.46,0,0,0-.46-1.13,4.37,4.37,0,0,0-.45,2.32c0,5.31,0,5.31-5.22,6l-.21,0c-1.82.57-2.52-.17-2.63-2A29.28,29.28,0,0,0,41.66,354.82ZM444.93,139.68l-.06-1c-2.13-2-4.48.87-6.86,0l1.52-2.73c-.41-.28-.67-.5-1-.66-2.21-1.13-2.22-.95-2.94,1.35a31.47,31.47,0,0,1-2.8,5.75,25,25,0,0,1-2.17,2.88,8.57,8.57,0,0,0,5.51-3.76,2.63,2.63,0,0,1,2.92-1.27A32.39,32.39,0,0,0,444.93,139.68Zm4.62-5.75c.27,4.62-3,7.27-4.54,10.78a17.89,17.89,0,0,0,4.48-3.66,3.28,3.28,0,0,1,3.47-1.4,22,22,0,0,0,6-.53c.45-.07.8-.76,1.19-1.17-.52-.27-1-.76-1.56-.76a15.6,15.6,0,0,0-2.66.46l-4.59.83,1.89-3.09ZM294,205.85l-1-1.5a6.54,6.54,0,0,0-.93,1.82c-.34,2.2-.42,4.44-.83,6.62a6.91,6.91,0,0,1-1.48,3.45,49,49,0,0,1-4.62,3.53,4.66,4.66,0,0,0-.83,1.47,4.57,4.57,0,0,0,1.82-.07,13.89,13.89,0,0,0,3.53-2.2c1.33-1.26,3-2.65,3.42-4.28C293.8,212.05,293.71,209.17,294,205.85ZM177.79,281.32c.32.12.47.23.57.2,5-1.66,8.43-5.39,11.72-9.17,1.09-1.25-.82-2-1.76-2.43-.48-.23-1.84.15-1.89.42-.61,3.17-2.87,5.23-4.87,7.43C180.43,279,179.1,280.1,177.79,281.32ZM199,267.12l-.46.84c2.74,2.28,5.44,4.63,8.26,6.81.59.45,1.64.31,2.47.44a9,9,0,0,0,.29-2.74,2.71,2.71,0,0,0-1.39-1.7C205.14,269.47,202.06,268.32,199,267.12Zm231-46.39a3.28,3.28,0,0,0,.91-.22c4.06-2.38,6.87-6,9.77-9.61a1.26,1.26,0,0,0-.08-1.26,35.52,35.52,0,0,0-3-2.17C436.76,213.27,433.16,216.8,430,220.73Zm-68.59-15.58-.39.94a15.8,15.8,0,0,0,1.83,1c3.14,1.29,3.67,3.48,1.34,6A14.5,14.5,0,0,1,362,214.7l-3.2,2.28.33.7c.55-.1,1.25,0,1.63-.32a46,46,0,0,0,5.58-4.92c1.66-1.88,1.49-4.43-.28-5.55A23.13,23.13,0,0,0,361.37,205.15Zm-302.75-43h0a7.2,7.2,0,0,0,0,2.08c.18.54.77.95,1.17,1.42a7.54,7.54,0,0,0,1-1.33,6.82,6.82,0,0,0,.74-2.33,3.53,3.53,0,0,0-.52-2.17c-.32-.44-1.16-.5-1.77-.73-.24.67-.51,1.33-.7,2A4,4,0,0,0,58.62,162.14Zm393-20.08-.63.8a28.85,28.85,0,0,0,2.79,3.24c.47.42,1.43.3,2.17.42-.07-.82.16-2-.28-2.37A24.18,24.18,0,0,0,451.61,142.06ZM35.75,163.92a12.7,12.7,0,0,0,1-3c0-.55-.64-1.27-1.18-1.67a1.5,1.5,0,0,0-1.4.33C33.16,160.77,34.05,163.24,35.75,163.92Zm.8-8.72c2.09-.79,2-2.39,1.77-3.88-.07-.48-.79-.86-1.21-1.29-.57.59-1.63,1.19-1.62,1.78A12.26,12.26,0,0,0,36.55,155.2ZM436.12,143l-.58.76a22.11,22.11,0,0,0,2,2.75c.38.39,1.17.39,1.77.56,0-.76.37-1.89,0-2.22A16.29,16.29,0,0,0,436.12,143ZM58.83,155l.75.33c.43-.67,1.26-1.38,1.2-2s-.9-1.39-1.41-2.07l-.54.28Zm143.59-8a2.82,2.82,0,0,0,3.17,1.82,1.68,1.68,0,0,0,.35-1.34C205,146,203.78,146.43,202.42,147Zm.44,3.07-.44.85a2.38,2.38,0,0,0,2.75,1.74c.24,0,.4-.72.59-1.1Zm-86.35-2.27L115,149.1c.6.34,1.19.9,1.82.94s1.13-.52,1.69-.82Zm80.24,3.46c-.18-2.83-1.14-3.32-3.72-2.19Zm-4.55,1.72,3.39,1.41c.12-.47.5-1.14.32-1.39C195.08,151.87,194,151.79,192.2,152.94Zm-67.88-4.77-2,1.1c.48.34,1,.95,1.45.94a7.18,7.18,0,0,0,2.14-.74Zm-1.62-3.62-.2,1.26c1,.08,1.89.18,2.84.2.07,0,.16-.57.23-.88Z" transform="translate(-23.2 -124.21)"/><path d="M378.5,179.69a8,8,0,0,1-.72-1.92c-.32-2.78-.63-5.56-.76-8.35-.09-1.8-.62-2.57-2.61-2.51-4,.13-4,0-4,4,0,2.59-.07,5.17-.24,7.75,0,.57-.64,1.09-1,1.64-.31-.55-.84-1.07-.89-1.64-.26-3.13-.48-6.27-.56-9.42,0-1.53-.67-2.17-2.14-2.13-5.39.16-4.7-.69-4.84,4.19a40.83,40.83,0,0,1-.39,5.65c-.13.78-1,1.43-1.51,2.15-.38-.73-1.12-1.47-1.09-2.18.16-4.12.41-8.24.83-12.34.44-4.27,2.58-7.28,7-8.35a7.85,7.85,0,0,0,1.66-.89l-.12-.75c-1.38-.08-2.76-.18-4.15-.22a23.4,23.4,0,0,1-3.75-.07c-.68-.13-1.23-.92-1.84-1.42.76-.43,1.5-1.19,2.28-1.24,1.87-.12,3.77.24,5.64.11.75,0,1.94-.77,2.05-1.36.29-1.47-1.05-1.36-2-1.3-3.35.18-6.7.48-10,.6-.65,0-1.31-.58-2-.89.61-.61,1.17-1.69,1.82-1.74,3.25-.25,6.51-.24,9.78-.33a3.46,3.46,0,0,0,1.44-.21,4.62,4.62,0,0,0,1.07-1c-.43-.24-.87-.67-1.31-.68-2-.05-4.05.09-6.07,0-.6,0-1.19-.6-1.78-.91.61-.36,1.18-1,1.82-1,1.8-.19,3.63-.16,5.44-.24,1.61-.07,2.88-1.85,2-3.16a41.15,41.15,0,0,0-3.91-4.37l-.55.34a31.54,31.54,0,0,1-.05,4.24c-.09.67-.79,1.27-1.21,1.9-.49-.63-1.22-1.19-1.43-1.9a22.19,22.19,0,0,1-.3-3.93,40.92,40.92,0,0,1-3.8,3.43c-.64.45-2,.82-2.38.48-1.09-1,0-1.64.82-2.21,1.49-1,2.94-2.11,4.44-3.13a2.41,2.41,0,0,0,1.25-2.78c-.12-.67.72-1.51,1.13-2.27.43.66,1.19,1.3,1.22,2a2.89,2.89,0,0,0,2.17,2.92,16.72,16.72,0,0,1,3.53,2.16c1.13.82,2.19,1.13,3.43.22a13.44,13.44,0,0,1,2.19-1.24,3.53,3.53,0,0,0,2.32-3.78c-.06-.68.67-1.42,1.05-2.13.37.66.71,1.34,1.13,2a14.39,14.39,0,0,0,2.16,3.06c1.29,1.15,2.89,1.93,4.25,3,.47.37.62,1.14.92,1.72a5.44,5.44,0,0,1-2.06.13,8.52,8.52,0,0,1-2-1.46l-2.5-2a26.41,26.41,0,0,1-.63,4.06c-.21.68-1,1.19-1.47,1.77a10.13,10.13,0,0,1-.93-2,20.21,20.21,0,0,1,0-3.22c-2.15,1.46-3.75,2.5-5.28,3.64a1.34,1.34,0,0,0-.19,1.26c.32.54.84,1.2,1.38,1.31a36.5,36.5,0,0,0,4.57.5c2.92.24,3.78,1.3,4.19,4.17a7.6,7.6,0,0,0,1.92,3.18c.68.85,1.69,1.44,2.37,2.28.3.37.38,1.45.17,1.59a2.11,2.11,0,0,1-1.82.26,24.65,24.65,0,0,1-3.22-2.31c-.95-.74-1.7-.6-2.81,0-2.17,1.13-4.54,1.88-7.12,2.91a9.76,9.76,0,0,0,1.9,1c4.63,1.19,6.91,4,6.88,8.92,0,4.11.3,8.22.41,12.34a10.83,10.83,0,0,1-.36,2.16Zm-8.12-21.47c0,1.93,0,3.72,0,5.5,0,.29.25.81.42.82a42.79,42.79,0,0,0,4.93.31c.19,0,.6-1,.53-1.42C375.75,160.06,374.34,158.81,370.38,158.22Zm-9.11,6.41a13.79,13.79,0,0,0,1.4.18c5,.13,5,.12,4.39-4.75-.2-1.64-1.36-2.28-2.69-1.28A7,7,0,0,0,361.27,164.63Zm15.84-17,.53-.76c-.43-.6-.8-1.66-1.28-1.71a28.36,28.36,0,0,0-5,.09c-.2,0-.53.5-.51.75a.93.93,0,0,0,.6.69C373.35,147,375.23,147.33,377.11,147.63Zm-1.81,2.83-.11-.94a38.27,38.27,0,0,0-4.13-.32c-.25,0-.62,1-.66,1.48,0,.3.56,1,.75.94C372.55,151.31,373.92,150.86,375.3,150.46Z" transform="translate(-23.2 -124.21)"/><path d="M180.63,349c2.84-.21,5.2-.43,7.55-.53a2.71,2.71,0,0,0,2.89-2.44c.24-1.22.57-2.42,1-4.05-2.32.31-4.36.55-6.38.87-1.52.23-3,.62-4.53.83a4.77,4.77,0,0,1-5-1.93c1.26-.19,2.16-.37,3.06-.44,3.76-.29,7.53-.5,11.29-.88.67-.07,1.75-.72,1.83-1.23a12.73,12.73,0,0,0-.24-3.88c0-.15-1-.11-1.53-.22-1.05-.23-2.09-.5-3.14-.75l.15-.54c3-.4,6-.75,9-1.22,1.58-.25,3.13-.71,4.69-1.08a7.09,7.09,0,0,1,5.81,1c1.16.77,1.53,1.44.52,2.68a22.64,22.64,0,0,0-1.91,3.4c3.94.35,7.8-2.44,11.62,1.2a16.07,16.07,0,0,1-2.21.48c-2.23.11-4.48.31-6.71.2-2.43-.12-4,.55-4.38,3.19a15.37,15.37,0,0,1-.83,2.64l3.68,1,0,.78a20.58,20.58,0,0,1-2.43.51q-4.91.45-9.83.78c-1.58.1-2.79.58-3.21,2.32a10,10,0,0,1-.95,2.09c-1.09,2.09-.71,2.92,1.68,2.66a106.34,106.34,0,0,0,11.33-1.92c2.11-.47,5.24,0,6.49,1.69a1.87,1.87,0,0,1,0,1.6c-.31.59-1,1-1.36,1.56-1.24,2-3,4-.86,6.83a24.35,24.35,0,0,1-2.64.45c-3.56.17-7.13.23-10.69.47a17.78,17.78,0,0,0-3.48,1c-.31-1.52-.64-3.24-1-5s-.82-3.47-1.36-5.73c-3.81,4.52-7.46,8.39-12.86,10.06a43.53,43.53,0,0,0,13.76-17C186.48,349.61,183.35,352.06,180.63,349Zm11.18,12.63h.05a13.28,13.28,0,0,1,.12,1.88c-.09,1.73.48,2.41,2.34,2s3.88-.5,5.82-.73c3.4-.4,3.45-.43,4.25-3.76.1-.41.2-.82.27-1.23.36-2.43-.25-3.18-2.65-2.94-2.92.28-5.84.64-8.73,1.14-.56.1-1.17.93-1.42,1.56A6,6,0,0,0,191.81,361.66ZM202.07,341c-2.47.21-4.41.35-6.34.57-.42,0-1,.33-1.17.65-.6,1.67-1.08,3.4-1.76,5.63,2.74-.28,5.06-.48,7.37-.78a1.29,1.29,0,0,0,.78-.84C201.35,344.6,201.65,343,202.07,341Zm-6.62-1.15c1.62-.15,3.13-.26,4.64-.43a3.19,3.19,0,0,0,2.67-4.53,1.66,1.66,0,0,0-1.16-1c-2.22.09-4.43.34-6.15.49Z" transform="translate(-23.2 -124.21)"/><path d="M445.19,347.1c-2.83-.54-5.76,1.46-8.53-.82,1.3-.19,2.6-.4,3.9-.58a19.35,19.35,0,0,1,2.51-.23c2,0,2.88-.82,2.05-3.23l-6,.82c-.62-1.83-1.38-4.08-2.17-6.45,1.93-.14,4-.19,6.11-.44,2.61-.32,2.68-.51,2-3.7-3.78.66-7.6,1.28-11.4,2a4.89,4.89,0,0,1-4.95-1.31,5.11,5.11,0,0,1,1.2-.49q6.57-.68,13.14-1.31c2.25-.22,2.5-.6,1.9-2.79-.21-.77-.43-1.55-.65-2.32l.42-.55c1.16.43,2.67.56,3.4,1.38s.54,2.27.83,3.78c3.52-.45,7.24-.89,10.94-1.41a6.27,6.27,0,0,1,5.91,2c-1.26.19-2,.37-2.77.4-4.33.18-8.66.37-13,.45-2.08,0-2.46,1-1.93,3,1.88-.28,3.7-.62,5.54-.82a6.45,6.45,0,0,1,2.67.17c2.29.8,2.39,1.59.83,3.43a19,19,0,0,0-1.69,3.08c-1.78.18-4.05.47-6.34.61-1.32.07-1.87.76-1.5,1.86a2.15,2.15,0,0,0,1.76,1c1.66-.15,3.28-.64,4.94-.87a6.36,6.36,0,0,1,2.82.09c2.3.84,2.49,1.51,1.33,3.86a23.75,23.75,0,0,1,4.06.05,20.68,20.68,0,0,1,3.6,1.35l-.22,1c-2,0-4,0-6.07,0-2.36,0-3,.47-3.23,2.72a8.6,8.6,0,0,0,.44,2.22c-2.51.17-5,.43-7.47.48-1.56,0-2.05.58-2,2.14a34.26,34.26,0,0,1-.23,6.24c-.12.81-1.08,1.51-1.65,2.26a20.39,20.39,0,0,1-2-1.59c-1-1-1.95-2.12-3.11-3.39a3.2,3.2,0,0,1,.92-.18c3.43.73,3.61.6,3.68-2.93,0-.62-.05-1.23-.09-2.18-1.48.16-2.83.4-4.19.44s-2.51-.13-3.77-.21l-.08-.68a4,4,0,0,1,1.13-.54c1.52-.19,3.06-.27,4.59-.44,2.76-.29,2.78-.33,2.37-3.39-4.67-.78-9.42,2.62-14.09.46l0-.84c.57-.1,1.13-.22,1.7-.27,3.62-.33,7.24-.67,10.87-1C445.24,349.43,445.84,348.73,445.19,347.1Zm2.2-6.55a39.32,39.32,0,0,0,5.37-.84c.52-.16.84-1.28,1-2,.1-.33-.31-1.16-.48-1.15a17.72,17.72,0,0,0-5.12.47C447.67,337.19,447.7,339.05,447.39,340.55Zm7,10.08a2.6,2.6,0,0,0-.7-.25c-1.19,0-2.38,0-3.56.12-2.91.19-3.15.57-2.16,3.5a22.82,22.82,0,0,1,3.49-.36C453.58,353.74,454.34,352.68,454.42,350.63Zm-.54-4.78a45.12,45.12,0,0,0-5.13.71c-.51.12-.83,1-1.24,1.5.48.32,1,.9,1.45.9,1.53,0,3.06-.19,4.59-.28,1-.06,2-.28,1.67-1.5C455.05,346.55,454.17,346.13,453.88,345.85Zm-8.74-8.7-5.23,1c0,3.13,0,3.13,3.23,2.84C445.61,340.8,445.75,340.56,445.14,337.15Z" transform="translate(-23.2 -124.21)"/><path d="M451.33,247V235c-2.4.51-4.22.89-6,1.29a4.77,4.77,0,0,1-5.25-1.7l7.21-.75,1.25-.11c2.68-.27,2.81-.46,2.31-3.47-2.08-.63-4.55,1.2-6.89-1.16,2-.33,3.61-.59,5.25-.9s2.78-2.75,1.77-4.05c-.25-.34-1.09-.3-1.66-.29-1.58,0-3.15.13-4.73.2l-.12-1.08c1.29-.24,2.58-.5,3.87-.71,3.09-.52,3.12-.55,2.52-3.92-3-.76-6.12,2.15-9.14-.7,2.3-.33,4.59-.69,6.89-1,2.83-.37,3-.55,2.22-3.6H445l-.07-.69,6.34-1c-.27-2.05-.55-4.06-.82-6.09,2.45-.8,4,.36,3.63,2.87a23,23,0,0,0,0,2.66c1.38-.25,2.64-.47,3.9-.71a12,12,0,0,1,1.64-.35c2.34-.07,3.42,1.34,2.75,3.53a12.69,12.69,0,0,0-.26,1.29c2.7.32,5.6-1.85,8.22,1.21a18.48,18.48,0,0,1-2.11.47c-1.18.11-2.37.16-3.56.21-3.87.16-5.14,2.2-3.39,6.07-1.48.08-2.83.12-4.19.23-3.74.31-3.76.36-3.17,4.39,2.29.1,4.71-1.58,7.29.35a6.62,6.62,0,0,1-1.58.86c-1.08.26-2.2.37-3.31.54-3,.47-3.09.61-2.38,4.14,3.06-.4,6.15-.78,9.24-1.22,2-.28,3.5.33,5.25,2.27a25.86,25.86,0,0,1-3.11.48c-3.15.08-6.3.11-9.44.11-1.58,0-2.38.48-2.37,2.3a66.7,66.7,0,0,1-.52,7.32,19.15,19.15,0,0,1-.66,2.74Zm3-31.24c3.71.06,4.78-.57,4.84-2.37,0-1.14-.58-1.69-1.49-1.34-1.38.53-3.81-.86-4,1.94A4.48,4.48,0,0,0,454.37,215.77Zm4,1.55c-4.46-.51-5.35.28-4.39,3.75C457.92,220.93,458.14,220.76,458.39,217.32Z" transform="translate(-23.2 -124.21)"/><path d="M191.43,222.89c-3.14-.61-6.33,2-8.87-1.57,1.61-.11,3.23-.24,4.84-.32,4.94-.24,5.43-.74,5.46-5.69a4.85,4.85,0,0,0-.24-.9c-3.2.4-6.43.74-9.64,1.22-2,.31-3.65-.33-5.6-2,1.12-.12,1.75-.19,2.37-.24,4-.33,7.94-.67,11.92-1,1.13-.09,1.65-.58,1.55-1.73,0-.41,0-.84,0-1.26,0-2.92,0-2.89-2.87-2.63-1.42.12-2.93.25-3.72-1.68,2.9-.28,5.67-.42,8.38-.85,3-.47,6-1.12,9-1.85a5.32,5.32,0,0,1,5.15,1.57c.31.28.18,1.25,0,1.81-.45,1.36-1.06,2.67-1.68,4.18,3.57,1,7.75-2.19,10.54,2.52a25.12,25.12,0,0,1-2.51.24c-1.47,0-2.93-.17-4.4-.16-4.22,0-5.79,1.65-5.53,5.94,0,.8.72,1.56,1.26,2.65-.79.14-1.41.32-2,.37-2.93.22-5.86.46-8.79.57a2.21,2.21,0,0,0-2.37,2c-1.59,6.71-5,12.11-11.38,15.27-.5.24-1,.47-1.53.66a3,3,0,0,1-1.34.16C185.37,235.84,190.09,230.6,191.43,222.89Zm3-2.62c2.26-.15,4.13-.26,6-.4a4.94,4.94,0,0,0,1.45-.21c.47-.19,1.14-.51,1.23-.88a31.92,31.92,0,0,0,.65-4.35c0-.34-.31-1.05-.44-1-2.49.19-5,.45-7.44.74-.12,0-.26.32-.3.51C195.23,216.4,194.88,218.17,194.46,220.27ZM196,206.1l.28,5.61c2.38-.18,4.84-.35,7.3-.6a1.19,1.19,0,0,0,.79-.81,21.47,21.47,0,0,0,.36-3.91c0-.39-.76-1.13-1.12-1.1C201,205.49,198.33,205.84,196,206.1Z" transform="translate(-23.2 -124.21)"/><path d="M44.48,139a16.2,16.2,0,0,0-2.13,2.09c-1.09,1.51-2,3.17-3,4.68-.28.39-1,.46-1.5.68-.11-.56-.5-1.28-.28-1.65a37.5,37.5,0,0,1,4-6.22c2.47-2.77,5.37-5.17,4.68-9.56l.55-.14a14.55,14.55,0,0,1,2.2,1.93c1.67,2.14,3.39,4.19,4.18,7,.49,1.7,2.06,3.06,3,4.67s1.53,3.17,2.28,4.76l-.71.53c-.58-.35-1.35-.56-1.73-1.07-1.1-1.49-2-3.1-3-4.67-.12-.17-.12-.45-.26-.56-1.1-.86-2.23-1.69-3.34-2.52a11.79,11.79,0,0,0-.79,3.4c.25,3.35.73,6.69,1.17,10a1.76,1.76,0,0,0,.61,1.06c3.85,3,3.65,7.54,4.36,11.62.4,2.3-.25,4.8-.55,7.2-.06.46-.7.85-1.07,1.27a5.74,5.74,0,0,1-1.15-1.22,2.89,2.89,0,0,1,0-1.44c.51-4.94-.94-9.56-2.39-14.15a2.1,2.1,0,0,0-1.72-1c-.51,0-1.15.77-1.42,1.35-1.81,3.8-1.06,7.88-1.21,11.86a4,4,0,0,1-.45,2.19c-.43.57-1.32.8-2,1.18a5.72,5.72,0,0,1-.86-1.92c-.08-3.84-.07-7.69,0-11.54,0-.62.28-1.56.73-1.79,3-1.56,3.91-4.19,3.7-7.27-.23-3.48-.7-6.95-1.07-10.42Z" transform="translate(-23.2 -124.21)"/><path d="M465.15,293.78c-3,.38-6,.83-9,1.09a3.42,3.42,0,0,1-2-.91c-2.59-2-5.16-4-7.65-6.18-1-.88-1.62-.9-2.53.2-3.28,4-7.76,5.43-12.61,6l-.24-.51a36,36,0,0,0,4.58-2,70.28,70.28,0,0,0,6.66-4.59c1-.79,1-1.86-.18-2.76-2.83-2.1-5.62-4.25-8.38-6.33,4.46-1.13,6.6,3.44,10.5,5.17.23-1.73.51-3.32.58-4.93,0-.31-.82-1-1.19-.93a22.26,22.26,0,0,0-3.32,1c-1.45-3-2.92-6.11-4.39-9.19,2.37-.23,4.77-.48,7.16-.69,1.67-.15,2.61-.83,2.22-2.68s-.77-3.93-1.22-6.27a26.49,26.49,0,0,1,3.58,1.23c.34.16.48,1.06.44,1.6-.13,1.64-.39,3.27-.66,5.43,2.23-.63,4-1,5.76-1.65s4.63-.12,5.63,1.4a1.63,1.63,0,0,1-.17,1.55c-1.72,1.77-4,3.11-4,6.08,0,.26-.95.67-1.5.79-1.91.4-4.45.08-5.57,1.21s-.59,3.71-1.16,5.55c-.63,2,.25,3,1.76,4.09a37.05,37.05,0,0,0,14.54,5.7c.78.15,1.56.35,2.34.52ZM447.38,275c1.5-.27,2.8-.41,4.05-.76s2.57-5.07,1.81-6a1.89,1.89,0,0,0-1.29-.44c-4-.11-4.56.45-4.57,4.44Zm-2.17-5.75c-7,.77-5.68.35-4.46,5.55.12.53,1,1.34,1.37,1.25,1.09-.29,2.74-.75,2.95-1.5C445.53,272.92,445.21,271.1,445.21,269.21Z" transform="translate(-23.2 -124.21)"/><path d="M369.34,208.64a11.56,11.56,0,0,1,2.62-.51c1.59.06,2.29-.49,2.31-2.15,0-.59.65-1.18,1-1.77.3.61.9,1.24.86,1.82-.1,1.38.49,1.91,1.73,2.05,2.59.29,4.72,1,4.42,4.33,0,.34.55.72.85,1.09l1.6,2-.33.62-2.43-.57c-1.77,1-3.44,1.81-5,2.79a1.65,1.65,0,0,0-.57,1.38c.09.51.56,1.32.93,1.36,3.49.37,3.81,2.72,3.93,5.55.22,5.44.72,10.86,1,16.3a14.08,14.08,0,0,1-.29,2.47l-.8.07a11.76,11.76,0,0,1-.59-2.12q-.45-5.74-.78-11.49c-.07-1.19-.49-1.85-1.79-1.69s-1.88.33-1.75,1.91c.31,3.47.38,7,.4,10.45a11.05,11.05,0,0,1-.77,2.83l-.89-.14c-.09-1.27-.21-2.54-.27-3.81-.17-3.14-.34-6.27-.44-9.41,0-1.22-.66-1.51-1.73-1.55s-1.41.59-1.41,1.57c0,3.28,0,6.56-.14,9.84a26.71,26.71,0,0,1-.61,3.63h-.81a6,6,0,0,1-.57-1.79c.15-5.63.31-11.27.6-16.91.13-2.46,1-4.57,3.63-5.62.47-.19.71-1.18.82-1.85,0-.15-.91-.58-1.44-.68-1.1-.21-2.22-.29-3.34-.43l0-1c1-.11,2.07-.25,3.1-.34s2-.23,1.82-1.67-1-1.25-2-1.21c-1.38.05-2.77,0-4.15,0l-.11-.95,4.2-.67c.89-.14,2.09.25,2.1-1.33s-1.2-1.23-2.1-1.33-1.87-.14-2.8-.21Zm6.5,17c.34,2.69.87,3.34,2.53,2.55.54-.25.9-1.35.94-2.08.07-1.39,0-3.12-1.9-3C376.85,223.07,376.36,224.71,375.84,225.61ZM374.35,229c0-2.17.09-3.55-.05-4.91,0-.37-.77-.68-1.18-1a23.87,23.87,0,0,0-1.67,4.25C371.39,227.61,373.05,228.27,374.35,229Zm5.86-16.79c-.69-1.84-1.71-2.57-3-2.22a1.54,1.54,0,0,0-1,1,1.47,1.47,0,0,0,.88,1.13A19.68,19.68,0,0,0,380.21,212.2Zm-.73,2.86-.1-.69c-.63-.17-1.25-.38-1.88-.51-1.25-.25-1.45.61-1.29,1.47.08.43.82,1.14,1,1.07A13.31,13.31,0,0,0,379.48,215.06Z" transform="translate(-23.2 -124.21)"/><path d="M375.22,365.34c.59-3.73,1.18-7.46,1.8-11.4H366.94l-.11-.66a11.71,11.71,0,0,1,2.13-.61c2.15-.23,4.31-.48,6.47-.5,1.49,0,1.7-.71,1.72-1.95,0-1.54-.94-1.46-2-1.4-2.51.16-5,.34-7.54.48-.72,0-1.46,0-2.19,0l-.19-.71a6.7,6.7,0,0,1,1.77-.73c2.5-.27,5-.39,7.52-.63,1.12-.11,2.85.47,2.73-1.6s-1.85-1.19-2.91-1.2c-1.74,0-3.48.28-5.22.36a20,20,0,0,1-2.56-.16l-.12-.8A24.27,24.27,0,0,1,370,343c1.87-.19,3.78-.05,5.64-.28.6-.08,1.11-.89,1.66-1.36-.53-.5-1-1.19-1.6-1.43a9.19,9.19,0,0,0-2.49-.31,2.56,2.56,0,0,1-2.53-2.57,2.49,2.49,0,0,1,2.1-2.92,25.27,25.27,0,0,0,4.1-1.2c-3.09-1.08-6.7-.94-8.31-4.46a2.18,2.18,0,0,1,.46-2c.33.48.67.95,1,1.44,1.35,2.15,3.47,2.71,5.79,2.65.36,0,.95-.87,1-1.37a30.19,30.19,0,0,0-.3-3.12,15,15,0,0,1,.23-2.1l.77-.06c.23,1.23.56,2.44.68,3.68.33,3.35.62,3.65,3.62,2,1.64-.92,2.91-2.51,4.33-3.78.9,1.29.38,2.86-2.16,4.45a40.18,40.18,0,0,1-5.21,2.35l-.06.64a22.08,22.08,0,0,0,3.18.63c1.89.1,3.08.8,3.14,2.85s-1.25,2.78-3,3c-.28,0-.56.07-.83.12-.88.17-2.09-.24-2.13,1.34s1.07,1.53,2.13,1.62c5.16.44,5.7,1.13,5.11,6.2a3.6,3.6,0,0,0,.54,1.89c1,1.86,2.07,3.65,3,5.54a12.22,12.22,0,0,1,.62,2.81l-.72.25a15.23,15.23,0,0,1-1.13-1.78c-.44-1-.74-2-1.15-2.93-1.42-3.33-1.7-3-5.12-2.41-3.23.6-3.91,2.31-4.15,5a47.78,47.78,0,0,1-1.23,6.57c-.14.59-.74,1.07-1.13,1.6Zm5.2-21.15c-.21.16-1.09.5-1.31,1.09-.42,1.12.07,2,1.43,2.17a25.57,25.57,0,0,1,2.8.72c1.37.39,1.77-.26,1.64-1.5C384.72,344.19,382.78,344.44,380.42,344.19Zm-5.12-4.95c.89-.89,1.77-1.35,1.85-1.93.18-1.18,0-2.46-1.83-2.2-1.23.19-3.1-.21-3.05,1.55C372.29,337.45,374,338.21,375.3,339.24Zm5.6-4.95c-.95,1-1.8,1.48-1.94,2.13-.21,1,.08,2.14,1.62,2,1.2-.11,2.86.17,2.82-1.57C383.38,336.13,382.06,335.43,380.9,334.29Zm2.28,16.29,0-.87a11.61,11.61,0,0,0-3-.79c-.47,0-.95.91-1.43,1.41.5.38,1,1.12,1.49,1.09A13.46,13.46,0,0,0,383.18,350.58Z" transform="translate(-23.2 -124.21)"/><path d="M359.46,283.17c3.33-.91,6.78-.42,10.15-.12s7.06.07,9.74,3c1.42-4.1.08-6.33-3.86-6.56s-7.68-.24-11.52-.38a25.31,25.31,0,0,1-2.58-.34l-.09-.76a8.6,8.6,0,0,1,2.05-.57c2.1-.06,4.21.08,6.3,0,.52,0,1-.76,1.5-1.18-.49-.51-.92-1.35-1.5-1.47a18.61,18.61,0,0,0-3.34,0c-1.68,0-3.27-.66-3.49-2.41-.38-2.95-.37-6-.46-8.94,0-.41.33-.83.51-1.24l.64,0a18.07,18.07,0,0,1,.37,2.8c0,1.27.46,1.81,1.72,1.73.42,0,.84,0,1.26,0,4.18.08,4.16.07,4.42-4.11a10.93,10.93,0,0,1,.43-1.91h.84a21.9,21.9,0,0,1,.21,3.12c-.18,2.8-.22,2.81,2.59,2.84H376c3.51.08,3.51.08,3.88-3.33a2.76,2.76,0,0,1,.26-.78c.05-.11.2-.18.59-.5.27.55.7,1,.71,1.5,0,2.38.07,4.77-.11,7.13-.2,2.81-1.06,3.61-3.91,4a19.92,19.92,0,0,0-2.91.26c-.57.17-1.33.87-1.36,1.36a2.1,2.1,0,0,0,1.15,1.57,11.12,11.12,0,0,0,2.69.39c2.92.39,4.85,2.15,4.38,5.05-.7,4.24.48,7.86,2.16,11.58a39.43,39.43,0,0,1,1.79,6.23c.07.26-.15.61-.42,1.52a24.11,24.11,0,0,1-1.21-2.29c-1.09-2.88-2.19-5.75-3.18-8.66-.61-1.78-1.4-1.82-3.26-1.49-4.85.85-9.81,1.1-14.72,1.57a1.47,1.47,0,0,1-.77-.29c-.16-.1-.24-.31-.61-.82a20.71,20.71,0,0,1,2.42-.47c3.91-.28,7.82-.42,11.71-.83,1-.11,1.95-1,2.92-1.52-.92-.79-1.75-2.1-2.77-2.27-3.42-.57-6.91-.76-10.37-1-1.86-.15-3.74-.18-5.6-.27Zm8-14.68v-.05a17.48,17.48,0,0,0-2.29,0c-.41.06-1.1.39-1.12.64-.08,1.34-.57,3.23,1.07,3.63,1.84.46,3.87.08,5.82.06,0,0,.06-.12.09-.18a2.74,2.74,0,0,0-2.52-4.13Zm8.86,0,0-.19c-1.06.2-2.71.08-3,.68a5.52,5.52,0,0,0-.07,3.6c.1.42,1.37.68,2.14.76a9.87,9.87,0,0,0,2.47-.21c2.23-.36,1.8-2.22,1.76-3.62,0-.36-1.41-.72-2.19-1A3.28,3.28,0,0,0,376.33,268.46Z" transform="translate(-23.2 -124.21)"/><path d="M104.83,245.26c1-3.83,2.26-7.61,3.08-11.48s1.22-7.86,1.81-11.83c-2.35-.93-5,.72-7.44-1.76,1.67-.17,2.82-.38,4-.39,4.2,0,3.41.21,3.8-3.4.34-3.14.29-3.15-3-3.33-1.33-.07-2.66,0-4-.18a10.37,10.37,0,0,1-2-.58l0-.63a11.18,11.18,0,0,1,2-.51c1.19-.07,2.38,0,3.57,0,3.71,0,4.46-.88,3.64-4.54a1.74,1.74,0,0,0-1.23-1c-1.1-.15-2.24,0-3.35-.07a11.46,11.46,0,0,1-2.18-.62l0-.73a8,8,0,0,1,2.19-.49c4.74.32,9.5.51,14.19,1.18,5.61.8,6.57,6,4.63,10.35a7.69,7.69,0,0,0-.57,5.31q2.34,10.23,4.42,20.5c.2,1-.28,2.11-.44,3.18a12.79,12.79,0,0,1-1.4-2.79q-2.23-10.35-4.29-20.73c-.28-1.37-.75-1.64-2.14-1.23a62.37,62.37,0,0,1-7.52,1.69c-1.28.22-1.2,1-1.39,1.91-1.34,6.63-2.71,13.26-4.17,19.87a11,11,0,0,1-1.45,2.66Zm17.6-29.88c2.69-3.44,1.73-7.3-2-8.65a20.59,20.59,0,0,0-3.65-.85c-4.5-.74-4.81-.5-4.63,4,0,.55.83,1.52,1.31,1.55C117,211.56,120.24,212.24,122.43,215.38Zm-10.56,1.14c.44.86-1,3,1.32,2.84a30.78,30.78,0,0,0,6.69-1.56c1.38-.42,1.5-1.68.43-2.38a14.15,14.15,0,0,0-4.85-2.15C112.06,212.62,111.93,212.87,111.87,216.52Z" transform="translate(-23.2 -124.21)"/><path d="M464,162.76c.47,2.53.86,4.43,1.16,6.35s-.89,2.58-2.36,2.88a46.59,46.59,0,0,1-16.69.34c-3.81-.59-5.52-2.57-6.17-6.39-.14-.82-.19-1.65-.3-2.72-4.5-.33-9,2.36-13.49.49l0-.87c1.14-.08,2.29-.1,3.42-.24,2.57-.31,5.14-.65,7.69-1,2.78-.42,2.9-.63,2.39-3.68-2.13-.59-4.64,1.19-7-1.07,1.77-.35,3.24-.62,4.69-.93,2.85-.61,2.84-.61,2-3.74l-4.18.26-.12-.41a5.53,5.53,0,0,1,1.08-.7c3.53-1.27,7.25-2.15,9.9-5.15a1.65,1.65,0,0,1,1.51-.09c1.12.59,2.16,1.36,3.78,2.42l-9,2.33c-.07,1.23-.14,2.32-.2,3.52,2.9,1.16,6-2,8.86,0l.16.77c-1.87.5-3.74,1-5.63,1.49a12,12,0,0,1-2.06.35c-1.59.11-1.93,1-1.76,2.42.22,1.7,1.38,1,2.23.9,2.55-.4,5.09-.92,7.64-1.33,1.49-.23,3-.42,4.69,1.25-1.34.32-2.21.6-3.11.74-3.25.49-6.49,1-9.75,1.39-1.47.19-1.82.87-1.61,2.27.53,3.44,1.73,4.92,5.23,5.13a90.47,90.47,0,0,0,10.67-.1,5.68,5.68,0,0,0,5.21-4.19C463.14,164.66,463.48,164,464,162.76Z" transform="translate(-23.2 -124.21)"/><path d="M300,153.14c.52-2.95,4-4.13,2.59-6.82-.51-1-2-1.49-3.49-2.51-.15,3.32-.31,6-.38,8.69-.08,3.08,0,6.16-.14,9.23a3.39,3.39,0,0,0,1.34,3,15.58,15.58,0,0,1,5.72,8.79,6.35,6.35,0,0,1-.27,2c-.66-.39-1.56-.63-1.93-1.21-1-1.51-1.7-3.2-2.63-4.75a8.55,8.55,0,0,0-1.58-1.53c-2.05,2.54.26,6.11-2.93,8.11,0-1.26,0-2.51,0-3.76a9.76,9.76,0,0,0,.08-2.08,2.24,2.24,0,0,0-1-1.38c-.2-.12-1,.41-1.22.81-.6,1.25-.89,2.67-1.57,3.86-.4.7-1.33,1.09-2,1.62-.08-.81-.51-1.78-.21-2.39,1.54-3.2,3.31-6.28,4.9-9.44a8.73,8.73,0,0,0,1.14-3.45c.12-5.87.07-11.74.08-17.6a5.07,5.07,0,0,1,.14-1.66,10.44,10.44,0,0,1,1-1.76,16.88,16.88,0,0,0,1.37,1.31,31.69,31.69,0,0,0,3.87,2.71c.25.14,1.63-.9,1.57-1.24-.24-1.45-.89-2.83-1.26-4.27a12.74,12.74,0,0,1-.15-2.4c.7.32,1.74.46,2,1a25.83,25.83,0,0,1,1.55,4.46,3.27,3.27,0,0,1,0,1.46c-.9,4.46.9,8,3.66,11.29,1,1.2,1.3,3,1.74,4.58.1.35-.58.91-.91,1.38-.38-.34-.9-.62-1.12-1-1-2-1.79-4.12-3-6-1.41-2.22-2-2.14-3.95-.53A16.63,16.63,0,0,1,300,153.14Z" transform="translate(-23.2 -124.21)"/><path d="M293.15,327.3a6.28,6.28,0,0,1,1,1.37c.64,1.65,2,2,3.17,1.15s0-1.95-.62-2.8-1.25-1.51-1.78-2.33a1.21,1.21,0,0,1,0-1.11,1.13,1.13,0,0,1,1.08-.18,12.15,12.15,0,0,1,2.3,1.73c.9.9,1.59,1,2.36-.14s1.48-1.93,2.23-2.89l.68.28a11.15,11.15,0,0,1-.67,2.28c-.59,1.1-1.43,2.06-2,3.16a6.26,6.26,0,0,0-.3,2c.59.07,1.31.38,1.75.16a2.85,2.85,0,0,0,1-1.51,3.91,3.91,0,0,0,0-1.37l.71-.32c.55,1,1.64,2,1.54,2.89a28.53,28.53,0,0,1-1.73,6.12,2,2,0,0,1-1.52.93,2.18,2.18,0,0,0-2.41,2.09c-.25,1.51-.27,2.92,1.31,3.85a7.77,7.77,0,0,1,3.9,7.94c-.31,2.93,1.31,5,2.22,7.48.67,1.84,1.14,3.76,1.7,5.64l-1,.42c-2.49-2-2.32-5.65-4.26-8.19-1.25,1.46-2.42,2.8-3.58,4.15l-.7-.39a11.19,11.19,0,0,1,.41-2,29,29,0,0,0,1.58-3.64,4,4,0,0,0-.42-2.77c-.36-.54-1.48-.59-2.26-.85l-.65.53a29.75,29.75,0,0,1-.71-3.93c-.16-2.73-.18-5.46-.19-8.19,0-1.06-.26-1.81-1.5-1.74-1.95.11-2.88-1.11-3.1-2.75-.3-2.23-.3-4.5-.42-6.75Zm5,6.07a14.28,14.28,0,0,0-2.48-1.45c-.21-.07-.66.58-1,.9a6.12,6.12,0,0,0,1.46,1.42C296.43,334.39,297,333.88,298.15,333.37Zm4.67-1.79-2.77,1.61c.33.36.65,1,1,1C302.18,334.22,303,333.72,302.82,331.58Z" transform="translate(-23.2 -124.21)"/><path d="M103.61,370.23c-.66-9.39.24-18.58,4.62-27.48l-5.17-.57v-1c1.27-.08,2.55-.23,3.82-.22s2.17-.25,2.46-1.67c.53-2.55.29-2.87-2.39-2.88a23.69,23.69,0,0,1-2.92,0c-.44-.07-.83-.56-1.23-.87.41-.27.82-.75,1.25-.78a25,25,0,0,1,3.77.08c1.65.13,1.72-.92,1.85-2.12s-.32-1.95-1.69-2-2.74-.23-4.11-.35l-.06-.85a9.51,9.51,0,0,1,2.4-.53c4.12.17,8.25.33,12.35.7,5.87.52,8.11,4.36,6,9.91a5,5,0,0,0-.19,2.21c1,8.88,2.1,17.76,3.1,26.64a8,8,0,0,1-.44,2.31l-.83.05c-.2-1.27-.45-2.53-.59-3.8-.89-7.84-1.78-15.68-2.62-23.53-.17-1.52-.8-1.92-2.36-1.73a81.82,81.82,0,0,1-8.57.55,2.74,2.74,0,0,0-2.76,2c-3.42,7.57-4.4,15.53-4.16,23.73a11.94,11.94,0,0,1-.43,2.42Zm19.15-32c1.57-3.37.52-6-2.67-6.73a62.29,62.29,0,0,0-6.86-.75c-1-.12-1.9-.07-1.79,1.29.1,1.12-.63,2.67,1.47,2.82C116.47,335.11,120,335.42,122.76,338.24Zm-1.54,1.87.09-.78c-1.55-2.22-4-2.37-6.42-2.61-3.65-.35-3.65-.33-4.06,3.33,0,.11.1.24.31.7Z" transform="translate(-23.2 -124.21)"/><path d="M195.53,288.79a19.52,19.52,0,0,0,2.93-10.74c0-.5,0-1.31.33-1.44a2.14,2.14,0,0,1,1.54.26c2.54,1.25,2.84,2.38,1.64,5s-2.47,5.48-3.52,8.28a2.41,2.41,0,0,0,.77,2,35.12,35.12,0,0,0,14.68,7.78c1.12.27,2.21.69,3.28,1-.07.37-.05.58-.13.63-4.13,2.49-11.18,1.83-14.53-1.44a70.35,70.35,0,0,1-4.83-5.24c-1-1.2-1.71-1.28-2.82-.09a21.48,21.48,0,0,1-15,7,14.42,14.42,0,0,1-1.47,0,8.09,8.09,0,0,1-1.26-.39c1.17-.39,1.8-.65,2.46-.81a26.12,26.12,0,0,0,13-8.05c1.11-1.22,1.29-2.07,0-3.3-2.19-2.12-3.85-4.86-7.12-5.63-.26-.06-.41-.61-.61-.94.33-.2.75-.64,1-.55a18.21,18.21,0,0,1,4.67,1.92A48.7,48.7,0,0,1,195.53,288.79Z" transform="translate(-23.2 -124.21)"/><path d="M116.13,270.06a11.17,11.17,0,0,1,.31,1.88,3.42,3.42,0,0,1-.4,1.19c-1.63,4.22-1.16,5.47,3.1,7.22,3.51,1.45,6.91,3,9.38,6.31a18,18,0,0,0,1.77-3.13,4.52,4.52,0,0,0-3.3-5.7c-2.26-.69-4.62-1.07-6.92-1.65a4.65,4.65,0,0,1-1.26-.83c.49-.29,1-.8,1.45-.84a16,16,0,0,1,9.26,2.16c3.66,2.09,4.43,7.66,1.54,11a3.66,3.66,0,0,0-.78,3.94c1.62,5.5,1.7,11.17,1.37,16.85a6.31,6.31,0,0,1-.71,1.78l-.89,0a41.06,41.06,0,0,1-.33-4.43,44.32,44.32,0,0,0-1.89-15c-5.76,3.11-11,1.31-16.15-1.43a4.26,4.26,0,0,1-1.56-1.81c5.4,0,10.5,3.57,16.67.76a53.86,53.86,0,0,0-4.82-4.11,26.93,26.93,0,0,0-4.74-2.2c-3.9-1.58-4.59-2.55-3.84-6.65A33.38,33.38,0,0,1,115.3,270Z" transform="translate(-23.2 -124.21)"/><path d="M48.83,269.34a9.22,9.22,0,0,1,1.79.81c1.45,1.18,2.87,2.41,4.27,3.66a8,8,0,0,1,2.71,5.69,40.78,40.78,0,0,0,1.13,6.07,45.46,45.46,0,0,1,.38,18.87,8.24,8.24,0,0,1-.42,1.14l-.68,0c-.09-1.19-.21-2.38-.26-3.56-.2-4.79-.37-9.58-.57-14.75L47.8,297.4l-.69-.54c.64-1.07,1.25-2.17,1.92-3.22,1.83-2.87,3.76-5.68,5.48-8.61a2.58,2.58,0,0,0-.08-2.43c-2.37-2-4.92-3.83-7.43-5.68-.17-.12-.52,0-.89,0l-1.68,11.18c-2-2.08-1.43-17.34.86-21.26a21.16,21.16,0,0,1,1,3.27c.12,1-.14,2.09-.05,3.12a2.32,2.32,0,0,0,.77,1.63c2.68,1.54,5.44,2.95,8.4,4.53.31-2.51-1.6-3.77-3-5.22S49,272.13,48.83,269.34Z" transform="translate(-23.2 -124.21)"/><path d="M53,214.48c1.85-1.72,2.1-5.44.61-8-.49-.84-1.1-1.61-1.61-2.44-.27-.46-.44-1-.89-2,4.67,3.37,7.63,8.84,4.06,13.88a4.76,4.76,0,0,0-.36,3.11c.53,3.72,1.23,7.42,1.82,11.13a10.71,10.71,0,0,1-.19,2.11c-1.41-4.21-2.61-7.82-4-11.89l-3.87,3.39-.41-.34c.52-.76,1.05-1.52,1.55-2.29,2.21-3.42,2-4.71-1.05-7.28-1-.83-2.08-1.56-3.47-2.59V243.4c-2.17-3.83-3.19-37.68-1.4-40.91,1.43,1.46,1.17,3.33,1.14,4.9a2.92,2.92,0,0,0,2,3.13A61.81,61.81,0,0,1,53,214.48Z" transform="translate(-23.2 -124.21)"/><path d="M299.68,258.86V269c2.26-.26,4.41.08,5.63-.83,1.05-.78,1-3,1.59-5a6.82,6.82,0,0,1,.77,1.62c.72,5.68.29,9.12-5.46,11.95-1.58.78-3.08,1.53-2.54,3.71a3.89,3.89,0,0,0,.45,1.16q2.47,3.84,5,7.65a3.7,3.7,0,0,0,.67.53c3.23-3.4.58-7.26.73-10.83l.64-.27a10.43,10.43,0,0,1,1.29,2.25c1,3.69,1.1,7.17-1.43,10.56-.67.88.33,3.09.71,4.65a26.67,26.67,0,0,0,1.16,3.16l-.73.33c-.55-1-1.14-2.05-1.65-3.1-1.28-2.66-1.27-2.66-3.87-1.59-.56.23-1.16.39-1.74.58l-.48-.54c.95-.8,1.95-1.57,2.84-2.44.4-.39,1-1.16.82-1.45-1.13-2.33-2.41-4.58-3.65-6.86l-.65.23c-.32,1.47-.65,2.95-1,4.42l-.84-.06c0-2.2,0-4.4,0-6.61a18.67,18.67,0,0,1,.24-2.08c.21-1.65-.32-2.58-2.06-3.23-3.87-1.45-4.37-2.35-4.25-6.53.08-2.46.39-4.91.59-7.36h.88a30.24,30.24,0,0,1,0,3.81c-.23,1.74.41,2.46,2.13,2.47,2.65,0,3.12-.27,3.13-2.43,0-1.82-.18-3.63-.2-5.45a23.06,23.06,0,0,1,.29-2.59Zm.25,18.1a40,40,0,0,0,5-3.9c.67-.72.63-2.11.91-3.19a22.36,22.36,0,0,0-2.69-.3,5.63,5.63,0,0,0-2,.39c-.46.18-1.12.63-1.14,1C299.86,272.71,299.93,274.47,299.93,277Zm-1.9-1.23c1.13-4.37.55-5.35-3.25-5.56-.06,0-.16-.05-.2,0-.55.45-1.47.83-1.58,1.38C292.41,274.36,294.53,276.07,298,275.73Z" transform="translate(-23.2 -124.21)"/><path d="M192.72,170.42c-1.38-.74-2.69-5.49-2.8-8.64,6.5-.31,6.78-.48,6.84-4l-4.23-.43v-.76c1.51-.27,3-.49,4.54-.82,2.31-.51,4.61-1.11,6.92-1.65a5.17,5.17,0,0,1,1.85-.23,5.41,5.41,0,0,1,1.55.79c-.43.36-.81.92-1.29,1-2,.5-4.09.87-5.9,1.24l-2.39,3.9c3.39-.69,6.5-1.33,9.62-1.93a8.39,8.39,0,0,1,2.28-.2c2.36.2,3.44,2.09,2.69,4.31-.38,1.11-.32,2.37-.71,3.47a44,44,0,0,1-2.45,5.63,2.14,2.14,0,0,1-1.94,0,28.73,28.73,0,0,1-2.17-3.72c1.2-.28,3.13-.32,3.26-.83.49-1.89,1-4.24.25-5.79-.46-.93-3.27-.71-5.36-1.06.25,3.75,0,6.93-1.53,9.81l-.76-.09c.19-1.93.28-3.86.59-5.76.45-2.79-.36-3.59-3-2.59a2.3,2.3,0,0,0-1,1.64,31.52,31.52,0,0,1-.64,4.64c-1.84-1.63-.57-3.88-1.3-5.68-2.89.23-2.89.23-2.89,3Z" transform="translate(-23.2 -124.21)"/><path d="M103.86,174.93a9.43,9.43,0,0,1-.42-2.18c.35-8.73.74-17.45,1.12-26.17.07-1.47.14-2.94.17-4.41,0-1.83.61-4-2.63-3.94,1.48-1.36,6.23-2.21,7.27-1.3a3.45,3.45,0,0,1,.86,2.4c-.13,6.29-.48,12.57-.56,18.86,0,4,.26,8,.41,11.93a26.86,26.86,0,0,1,.08,3.35c0,.46-.61.87-.94,1.31-.33-.38-.86-.72-.94-1.15a13.61,13.61,0,0,1-.15-2.71q.08-13.53.16-27a27.84,27.84,0,0,0-.1-3.77,6.2,6.2,0,0,0-.88-1.79c-.28.58-.78,1.14-.8,1.73-.49,10.82-.91,21.64-1.38,32.46a16.23,16.23,0,0,1-.42,2.36Z" transform="translate(-23.2 -124.21)"/><path d="M184.66,149.45c-2.54,2.86-4.62,5.82-7.86,7.47l-.44-.37c.61-.85,1.25-1.68,1.83-2.54,2.52-3.76,5.13-7.46,7.47-11.32.82-1.35,1-3.1,1.58-5.11a23.86,23.86,0,0,1,3,1.56c.28.19.31,1.15.1,1.57a21.94,21.94,0,0,1-1.94,3c-1.55,2.1-1.87,4.09-1.58,6.94.57,5.64-.2,11.42-.52,17.14a8.61,8.61,0,0,1-1.17,2.51c-2-1.75-1.81-3.53-1.53-5.56.62-4.54,1-9.12,1.42-13.69A5.59,5.59,0,0,0,184.66,149.45Z" transform="translate(-23.2 -124.21)"/><path d="M127.27,151.39c-.16-2.34-.24-4.7-.54-7-.1-.79-.63-2-1.19-2.15a12,12,0,0,0-4.1-.08c-.2,0-.42,1.1-.41,1.69,0,2.37.25,4.74.25,7.12,0,.53-.57,1.07-.87,1.61-.29-.51-.79-1-.82-1.53-.14-2.23-.11-4.47-.22-6.7-.05-1.07.12-2.4-1.58-2.41-2.48,0-3.89.8-3.93,2.45,0,2,.14,4,.2,6.08,0,.33-.12.66-.72,1.24a5.91,5.91,0,0,1-1-1.8,36.91,36.91,0,0,1-.29-4.82c0-3.21,1.3-4.43,4.59-4.65a6.93,6.93,0,0,0,2.18-1,8.81,8.81,0,0,0-2.15-1.38,14.78,14.78,0,0,0-2.49,0,9.72,9.72,0,0,1-1.92-.61l.07-.71c.75-.09,1.5-.23,2.25-.26,4-.12,8-.26,11.94-.27.67,0,1.35.6,2,.93a5.94,5.94,0,0,1-1.86.94c-1.24.14-2.53-.11-3.76.05a7,7,0,0,0-2.07,1c.62.42,1.23.85,1.86,1.27,0,0,.13,0,.2,0,5.2.44,5.21.44,5.83,5.61a21.46,21.46,0,0,1,.22,3.75,5.75,5.75,0,0,1-.94,1.91Z" transform="translate(-23.2 -124.21)"/><path d="M191.14,144.37c1.88,1.18,4.22,1.08,7.48-.13,1.09-3.65-2.32-3-4.59-4.3,1.7-.46,2.83-.79,4-1.08,2.16-.55,4.31-1.17,6.5-1.57.56-.11,1.25.46,1.88.72-.48.44-.88,1.05-1.44,1.26-1.36.53-2.8.88-4.18,1.29,0,.17-.14.31-.11.42.64,2.92.64,2.93,3.57,2.25,1.09-.25,2.17-.54,3.25-.84,1.79-.5,4.86.42,5.82,1.92a1.58,1.58,0,0,1-.5,1.47c-1.43.69-3,1.18-4.69,1.83l.5-3.49-8.2,1.19v8.54l-.71,0c-1.78-2.34-.17-5.3-1.12-8a29.87,29.87,0,0,0-4.9.9c-.69.24-1.07,1.36-1.58,2.09-.6.89-.51,2.88-2.06,2.27-1.22-.47-.66-2-.14-3.15A37.76,37.76,0,0,0,191.14,144.37Z" transform="translate(-23.2 -124.21)"/><path d="M58,350.05a17.18,17.18,0,0,1-.69-2.29c-.29-1.72-.53-3.45-.69-5.19-.25-2.63-1.73-4.27-4-5.49-1.47-.79-2.56-1.07-3.22.87a3.22,3.22,0,0,1-1.15,1.25c.47-2.91,1.68-6.12-3.06-6.76V351h-.63c-1.71-8.06-1.2-16.16-.5-24.26l.77-.09a7.25,7.25,0,0,1,.31,1.7c-.07,1.65,2.68,4.2,4.23,3.73a1.57,1.57,0,0,0,.81-1.24,44.82,44.82,0,0,0-.71-4.88,11.43,11.43,0,0,0-.75-2l.65-.44c.56.66,1.47,1.25,1.62,2a20.66,20.66,0,0,1,.6,6.32,3.1,3.1,0,0,0,1.34,3.46,20.09,20.09,0,0,1,3.92,3.95C58.24,341.16,59,347.73,58,350.05Z" transform="translate(-23.2 -124.21)"/><path d="M436.25,245.13a5.94,5.94,0,0,1-1.32-5.3c.71-3.58.92-7.27,1.33-10.91l-.59-.21-8.39,5.75c1.7-2,3.65-4.11,5.48-6.37,2.23-2.75,4.69-5.38,5.09-9.18,0-.31.78-.87.9-.8a10.2,10.2,0,0,1,2.6,1.92c.2.23-.38,1.28-.75,1.85-.69,1.05-1.48,2-2.26,3s-1.52,1.88-.1,3c.27.22.27.91.25,1.38-.15,3.75-.28,7.51-.54,11.26a42.29,42.29,0,0,1-.79,4.7Z" transform="translate(-23.2 -124.21)"/><path d="M129.65,154.6l-8.36.69-.09.88a8.72,8.72,0,0,0,2.59.37c2.53-.37,4.36.54,4.75,3a26.48,26.48,0,0,1-.1,5.83c0,.4-.61.76-.93,1.14-.31-.41-.85-.8-.89-1.24-.1-1.24,0-2.5,0-3.76,0-2.35-.8-3.17-3.12-3.15s-4.46.15-6.69.11c-2.07,0-2.7,1.09-2.63,2.91,0,1.12.19,2.24.12,3.35a28,28,0,0,1-.56,3.27c-.6-.33-.91-.42-.92-.52-.09-3-.3-6-.1-8.92,0-.7,1.43-1.56,2.36-1.88a17.22,17.22,0,0,1,3.77-.42l.07-.71a8.08,8.08,0,0,0-1.85-.41c-1.6,0-3.21.23-4.81.21-.38,0-.75-.61-1.12-.94.39-.3.77-.85,1.16-.86,5.45-.09,10.9-.11,16.34-.11.34,0,.68.29,1,.45Z" transform="translate(-23.2 -124.21)"/><path d="M305,235.31l-3.68-5.23-.88.22v12.19l-.93.07a7.86,7.86,0,0,1-.5-1.9c0-2.37.19-4.75.2-7.12a16.31,16.31,0,0,0-.41-2.75c-.74.53-1.52,1-2.21,1.61-.85.71-1.63,1.51-2.45,2.27l-.68-.59a19.57,19.57,0,0,1,2.41-3.35c2.82-2.57,3.59-5.68,3.43-9.38-.18-4.26.11-8.53.23-12.79,0-.72.18-1.44.27-2.15l.81-.07a15.75,15.75,0,0,1,.41,2.52c0,4.47-.13,8.94-.21,13.41a12.35,12.35,0,0,0,3.42,9.36,13.58,13.58,0,0,1,1.75,3.13Z" transform="translate(-23.2 -124.21)"/><path d="M311.11,238.38c-.67-5.34-1.33-10.68-2-16.23l-2.45,1-.41-.28a16.72,16.72,0,0,1,1-1.94c1-1.54,1-2.84-.63-4a8.66,8.66,0,0,1-1.79-1.43,10.7,10.7,0,0,1-1.09-2,11.55,11.55,0,0,1,2.38.49,9.22,9.22,0,0,1,1.85,1.35c1.2,1,1.8.64,2.14-.82.58-2.44.81-4.81-.4-7.15a8.46,8.46,0,0,1-.32-1.78c.74.48,1.24.63,1.44,1,1.39,2.28,2.39,4.85,1.21,7.34-1.95,4.09-1.3,8.08-.63,12.26.63,4,.72,8,1.05,12Z" transform="translate(-23.2 -124.21)"/><path d="M365.31,221c2.74,2,3.33,3.52,2.34,6.68a35.14,35.14,0,0,0-1.17,13.87,20.78,20.78,0,0,1-.24,3.42l-.83,0a6.4,6.4,0,0,1-.63-1.81c-.22-5-.72-10,1.1-14.92a8.81,8.81,0,0,0,.35-2.68c0-1.58-.54-2.7-2.81-2.84-.54,1.83-1,3.82-1.71,5.73s.91,4.25-2.25,5.88c.14-2.4-.13-4.41.45-6.14a71.71,71.71,0,0,1,3.56-7.47c.66-1.39,1.23-2.83,1.84-4.26C367.38,217.33,367.46,218.22,365.31,221Z" transform="translate(-23.2 -124.21)"/><path d="M121.11,344.81c.78,3.82.93,7.65-.59,11.39-.22.54-1,.9-1.6,1.22a3.69,3.69,0,0,1-1.41.33c-5.38.46-7.06-1.1-7.05-6.57,0-1.68,0-3.36.06-5,0-.5.56-1,.86-1.44.28.48.9,1.05.8,1.42-.77,2.66.82,2.76,2.69,2.66.42,0,.84,0,1.26,0,3.2,0,3.19,0,3.79-3.12a3.81,3.81,0,0,1,.54-1Zm-5,5.95c-4,0-4.47.43-3.72,3.53.59,2.42,2.62,1.91,4.26,1.9,2.46,0,3.15-1,3-3.9-.09-2.28-1.83-1.29-3-1.52A3.3,3.3,0,0,0,116.07,350.76Z" transform="translate(-23.2 -124.21)"/><path d="M121.3,162.15c-2.25.13-2.89,1.25-2.9,3,0,3.15-.05,6.29-.14,9.44a16.89,16.89,0,0,1-.39,2.31h-.63a26.12,26.12,0,0,1-.41-3.15c0-3.08,0-6.15.06-9.23a6,6,0,0,1,.19-1.45c.5-1.78,1.83-2.94,3.53-2.57a4,4,0,0,1,2.44,2.6c.78,3.68,1.22,7.43,1.67,11.17.08.61-.43,1.29-.67,1.94-.43-.61-1.15-1.18-1.23-1.82-.4-3.26-.6-6.54-.94-9.81A16.28,16.28,0,0,0,121.3,162.15Z" transform="translate(-23.2 -124.21)"/><path d="M287.73,247.77c.24-3,.41-6,.74-9,.44-3.9,1-7.78,1.52-11.67l-.71-.36c-.88.48-1.75,1-2.63,1.45s-1.69.9-2.53,1.35l-.44-.62a4.5,4.5,0,0,1,.92-1.13c1.86-1.11,3.74-2.19,5.66-3.19a1.85,1.85,0,0,1,1.55-.09c.29.18.34,1,.28,1.45q-1.2,9.33-2.48,18.65c-.16,1.14-.42,2.27-.64,3.4Z" transform="translate(-23.2 -124.21)"/><path d="M41.66,354.82a29.28,29.28,0,0,1,.78,4c.11,1.84.81,2.58,2.63,2l.21,0c5.23-.68,5.23-.68,5.22-6a4.37,4.37,0,0,1,.45-2.32,3.46,3.46,0,0,1,.46,1.13c0,3.12,0,6.24-.23,9.34a3,3,0,0,1-1.72,2c-4.42,1.57-8.5.51-8.32-5.5a33.91,33.91,0,0,0-.41-4.47ZM43,362.51c1.11,2.06,2.82,1.77,4.17,1.77A4.35,4.35,0,0,0,50,363.07c.64-.68,0-1.46-1-1.34C47.15,361.94,45.29,362.2,43,362.51Z" transform="translate(-23.2 -124.21)"/><path d="M444.93,139.68a32.39,32.39,0,0,1-5.85.53,2.63,2.63,0,0,0-2.92,1.27,8.57,8.57,0,0,1-5.51,3.76,25,25,0,0,0,2.17-2.88,31.47,31.47,0,0,0,2.8-5.75c.72-2.3.73-2.48,2.94-1.35.3.16.56.38,1,.66L438,138.65c2.38.92,4.73-2,6.86,0Z" transform="translate(-23.2 -124.21)"/><path d="M449.55,133.93l3.64,1.46-1.89,3.09,4.59-.83a15.6,15.6,0,0,1,2.66-.46c.52,0,1,.49,1.56.76-.39.41-.74,1.1-1.19,1.17a22,22,0,0,1-6,.53,3.28,3.28,0,0,0-3.47,1.4,17.89,17.89,0,0,1-4.48,3.66C446.58,141.2,449.82,138.55,449.55,133.93Z" transform="translate(-23.2 -124.21)"/><path d="M294,205.85c-.31,3.32-.22,6.2-1,8.84-.46,1.63-2.09,3-3.42,4.28a13.89,13.89,0,0,1-3.53,2.2,4.57,4.57,0,0,1-1.82.07,4.66,4.66,0,0,1,.83-1.47,49,49,0,0,0,4.62-3.53,6.91,6.91,0,0,0,1.48-3.45c.41-2.18.49-4.42.83-6.62a6.54,6.54,0,0,1,.93-1.82Z" transform="translate(-23.2 -124.21)"/><path d="M177.79,281.32c1.31-1.22,2.64-2.3,3.77-3.55,2-2.2,4.26-4.26,4.87-7.43,0-.27,1.41-.65,1.89-.42.94.47,2.85,1.18,1.76,2.43-3.29,3.78-6.73,7.51-11.72,9.17C178.26,281.55,178.11,281.44,177.79,281.32Z" transform="translate(-23.2 -124.21)"/><path d="M199,267.12c3.06,1.2,6.14,2.35,9.17,3.65a2.71,2.71,0,0,1,1.39,1.7,9,9,0,0,1-.29,2.74c-.83-.13-1.88,0-2.47-.44-2.82-2.18-5.52-4.53-8.26-6.81Z" transform="translate(-23.2 -124.21)"/><path d="M430,220.73c3.2-3.93,6.8-7.46,7.56-13.26a35.52,35.52,0,0,1,3,2.17,1.26,1.26,0,0,1,.08,1.26c-2.9,3.56-5.71,7.23-9.77,9.61A3.28,3.28,0,0,1,430,220.73Z" transform="translate(-23.2 -124.21)"/><path d="M361.37,205.15a23.13,23.13,0,0,1,4.68,1.74c1.77,1.12,1.94,3.67.28,5.55a46,46,0,0,1-5.58,4.92c-.38.31-1.08.22-1.63.32l-.33-.7,3.2-2.28a14.5,14.5,0,0,0,2.16-1.62c2.33-2.48,1.8-4.67-1.34-6a15.8,15.8,0,0,1-1.83-1Z" transform="translate(-23.2 -124.21)"/><path d="M58.62,162.14a4,4,0,0,1,0-1c.19-.69.46-1.35.7-2,.61.23,1.45.29,1.77.73a3.53,3.53,0,0,1,.52,2.17,6.82,6.82,0,0,1-.74,2.33,7.54,7.54,0,0,1-1,1.33c-.4-.47-1-.88-1.17-1.42a7.2,7.2,0,0,1,0-2.08Z" transform="translate(-23.2 -124.21)"/><path d="M451.61,142.06a24.18,24.18,0,0,1,4.05,2.09c.44.33.21,1.55.28,2.37-.74-.12-1.7,0-2.17-.42a28.85,28.85,0,0,1-2.79-3.24Z" transform="translate(-23.2 -124.21)"/><path d="M35.75,163.92c-1.7-.68-2.59-3.15-1.6-4.38a1.5,1.5,0,0,1,1.4-.33c.54.4,1.2,1.12,1.18,1.67A12.7,12.7,0,0,1,35.75,163.92Z" transform="translate(-23.2 -124.21)"/><path d="M36.55,155.2a12.26,12.26,0,0,1-1.06-3.39c0-.59,1-1.19,1.62-1.78.42.43,1.14.81,1.21,1.29C38.52,152.81,38.64,154.41,36.55,155.2Z" transform="translate(-23.2 -124.21)"/><path d="M436.12,143a16.29,16.29,0,0,1,3.21,1.85c.37.33,0,1.46,0,2.22-.6-.17-1.39-.17-1.77-.56a22.11,22.11,0,0,1-2-2.75Z" transform="translate(-23.2 -124.21)"/><path d="M58.83,155v-3.47l.54-.28c.51.68,1.35,1.34,1.41,2.07s-.77,1.34-1.2,2Z" transform="translate(-23.2 -124.21)"/><path d="M202.42,147c1.36-.53,2.61-.92,3.52.48a1.68,1.68,0,0,1-.35,1.34A2.82,2.82,0,0,1,202.42,147Z" transform="translate(-23.2 -124.21)"/><path d="M202.86,150l2.9,1.49c-.19.38-.35,1.06-.59,1.1a2.38,2.38,0,0,1-2.75-1.74Z" transform="translate(-23.2 -124.21)"/><path d="M116.51,147.76l1.95,1.46c-.56.3-1.15.85-1.69.82s-1.22-.6-1.82-.94Z" transform="translate(-23.2 -124.21)"/><path d="M196.75,151.22,193,149C195.61,147.9,196.57,148.39,196.75,151.22Z" transform="translate(-23.2 -124.21)"/><path d="M192.2,152.94c1.81-1.15,2.88-1.07,3.71,0,.18.25-.2.92-.32,1.39Z" transform="translate(-23.2 -124.21)"/><path d="M124.32,148.17l1.61,1.3a7.18,7.18,0,0,1-2.14.74c-.48,0-1-.6-1.45-.94Z" transform="translate(-23.2 -124.21)"/><path d="M122.7,144.55l2.87.58c-.07.31-.16.88-.23.88-1,0-1.89-.12-2.84-.2Z" transform="translate(-23.2 -124.21)"/><path class="cls-1" d="M370.38,158.22c4,.59,5.37,1.84,5.9,5.21.07.46-.34,1.42-.53,1.42a42.79,42.79,0,0,1-4.93-.31c-.17,0-.42-.53-.42-.82C370.36,161.94,370.38,160.15,370.38,158.22Z" transform="translate(-23.2 -124.21)"/><path class="cls-1" d="M361.27,164.63a7,7,0,0,1,3.1-5.85c1.33-1,2.49-.36,2.69,1.28.59,4.87.58,4.88-4.39,4.75A13.79,13.79,0,0,1,361.27,164.63Z" transform="translate(-23.2 -124.21)"/><path class="cls-1" d="M377.11,147.63c-1.88-.3-3.76-.59-5.62-.94a.93.93,0,0,1-.6-.69c0-.25.31-.73.51-.75a28.36,28.36,0,0,1,5-.09c.48.05.85,1.11,1.28,1.71Z" transform="translate(-23.2 -124.21)"/><path class="cls-1" d="M375.3,150.46c-1.38.4-2.75.85-4.15,1.16-.19,0-.78-.64-.75-.94,0-.53.41-1.48.66-1.48a38.27,38.27,0,0,1,4.13.32Z" transform="translate(-23.2 -124.21)"/><path class="cls-1" d="M191.81,361.66a6,6,0,0,1,.05-2.08c.25-.63.86-1.46,1.42-1.56,2.89-.5,5.81-.86,8.73-1.14,2.4-.24,3,.51,2.65,2.94-.07.41-.17.82-.27,1.23-.8,3.33-.85,3.36-4.25,3.76-1.94.23-3.92.32-5.82.73s-2.43-.27-2.34-2a13.28,13.28,0,0,0-.12-1.88Z" transform="translate(-23.2 -124.21)"/><path class="cls-1" d="M202.07,341c-.42,2-.72,3.63-1.12,5.23a1.29,1.29,0,0,1-.78.84c-2.31.3-4.63.5-7.37.78.68-2.23,1.16-4,1.76-5.63.12-.32.75-.6,1.17-.65C197.66,341.32,199.6,341.18,202.07,341Z" transform="translate(-23.2 -124.21)"/><path class="cls-1" d="M195.45,339.82v-5.44c1.72-.15,3.93-.4,6.15-.49a1.66,1.66,0,0,1,1.16,1,3.19,3.19,0,0,1-2.67,4.53C198.58,339.56,197.07,339.67,195.45,339.82Z" transform="translate(-23.2 -124.21)"/><path class="cls-1" d="M447.39,340.55c.31-1.5.28-3.36.81-3.54a17.72,17.72,0,0,1,5.12-.47c.17,0,.58.82.48,1.15-.2.74-.52,1.86-1,2A39.32,39.32,0,0,1,447.39,340.55Z" transform="translate(-23.2 -124.21)"/><path class="cls-1" d="M454.42,350.63c-.08,2.05-.84,3.11-2.93,3A22.82,22.82,0,0,0,448,354c-1-2.93-.75-3.31,2.16-3.5,1.18-.08,2.37-.1,3.56-.12A2.6,2.6,0,0,1,454.42,350.63Z" transform="translate(-23.2 -124.21)"/><path class="cls-1" d="M453.88,345.85c.29.28,1.17.7,1.34,1.33.33,1.22-.68,1.44-1.67,1.5-1.53.09-3.06.3-4.59.28-.49,0-1-.58-1.45-.9.41-.52.73-1.38,1.24-1.5A45.12,45.12,0,0,1,453.88,345.85Z" transform="translate(-23.2 -124.21)"/><path class="cls-1" d="M445.14,337.15c.61,3.41.47,3.65-2,3.88-3.19.29-3.19.29-3.23-2.84Z" transform="translate(-23.2 -124.21)"/><path class="cls-1" d="M454.37,215.77a4.48,4.48,0,0,1-.63-1.77c.17-2.8,2.6-1.41,4-1.94.91-.35,1.53.2,1.49,1.34C459.15,215.2,458.08,215.83,454.37,215.77Z" transform="translate(-23.2 -124.21)"/><path class="cls-1" d="M458.39,217.32c-.25,3.44-.47,3.61-4.39,3.75C453,217.6,453.93,216.81,458.39,217.32Z" transform="translate(-23.2 -124.21)"/><path class="cls-1" d="M194.46,220.27c.42-2.1.77-3.87,1.14-5.63,0-.19.18-.5.3-.51,2.48-.29,4.95-.55,7.44-.74.13,0,.47.7.44,1a31.92,31.92,0,0,1-.65,4.35c-.09.37-.76.69-1.23.88a4.94,4.94,0,0,1-1.45.21C198.59,220,196.72,220.12,194.46,220.27Z" transform="translate(-23.2 -124.21)"/><path class="cls-1" d="M196,206.1c2.3-.26,4.95-.61,7.61-.81.36,0,1.11.71,1.12,1.1a21.47,21.47,0,0,1-.36,3.91,1.19,1.19,0,0,1-.79.81c-2.46.25-4.92.42-7.3.6Z" transform="translate(-23.2 -124.21)"/><path class="cls-1" d="M447.38,275v-2.72c0-4,.57-4.55,4.57-4.44a1.89,1.89,0,0,1,1.29.44c.76.89-.67,5.65-1.81,6S448.88,274.69,447.38,275Z" transform="translate(-23.2 -124.21)"/><path class="cls-1" d="M445.21,269.21c0,1.89.32,3.71-.14,5.3-.21.75-1.86,1.21-2.95,1.5-.34.09-1.25-.72-1.37-1.25C439.53,269.56,438.24,270,445.21,269.21Z" transform="translate(-23.2 -124.21)"/><path class="cls-1" d="M375.84,225.61c.52-.9,1-2.54,1.57-2.56,1.93-.09,2,1.64,1.9,3,0,.73-.4,1.83-.94,2.08C376.71,229,376.18,228.3,375.84,225.61Z" transform="translate(-23.2 -124.21)"/><path class="cls-1" d="M374.35,229c-1.3-.72-3-1.38-2.9-1.67a23.87,23.87,0,0,1,1.67-4.25c.41.33,1.14.64,1.18,1C374.44,225.44,374.35,226.82,374.35,229Z" transform="translate(-23.2 -124.21)"/><path class="cls-1" d="M380.21,212.2a19.68,19.68,0,0,1-3.12,0,1.47,1.47,0,0,1-.88-1.13,1.54,1.54,0,0,1,1-1C378.5,209.63,379.52,210.36,380.21,212.2Z" transform="translate(-23.2 -124.21)"/><path class="cls-1" d="M379.48,215.06a13.31,13.31,0,0,1-2.26,1.34c-.19.07-.93-.64-1-1.07-.16-.86,0-1.72,1.29-1.47.63.13,1.25.34,1.88.51Z" transform="translate(-23.2 -124.21)"/><path class="cls-1" d="M380.42,344.19c2.36.25,4.3,0,4.56,2.48.13,1.24-.27,1.89-1.64,1.5a25.57,25.57,0,0,0-2.8-.72c-1.36-.21-1.85-1.05-1.43-2.17C379.33,344.69,380.21,344.35,380.42,344.19Z" transform="translate(-23.2 -124.21)"/><path class="cls-1" d="M375.3,339.24c-1.28-1-3-1.79-3-2.58,0-1.76,1.82-1.36,3.05-1.55,1.81-.26,2,1,1.83,2.2C377.07,337.89,376.19,338.35,375.3,339.24Z" transform="translate(-23.2 -124.21)"/><path class="cls-1" d="M380.9,334.29c1.16,1.14,2.48,1.84,2.5,2.56,0,1.74-1.62,1.46-2.82,1.57-1.54.14-1.83-1-1.62-2C379.1,335.77,380,335.28,380.9,334.29Z" transform="translate(-23.2 -124.21)"/><path class="cls-1" d="M383.18,350.58a13.46,13.46,0,0,1-2.86.84c-.47,0-1-.71-1.49-1.09.48-.5,1-1.41,1.43-1.41a11.61,11.61,0,0,1,3,.79Z" transform="translate(-23.2 -124.21)"/><path class="cls-1" d="M367.47,268.49h1a2.74,2.74,0,0,1,2.52,4.13c0,.06-.06.18-.09.18-1.95,0-4,.4-5.82-.06-1.64-.4-1.15-2.29-1.07-3.63,0-.25.71-.58,1.12-.64a17.48,17.48,0,0,1,2.29,0Z" transform="translate(-23.2 -124.21)"/><path class="cls-1" d="M376.33,268.46a3.28,3.28,0,0,1,1,0c.78.29,2.18.65,2.19,1,0,1.4.47,3.26-1.76,3.62a9.87,9.87,0,0,1-2.47.21c-.77-.08-2-.34-2.14-.76a5.52,5.52,0,0,1,.07-3.6c.33-.6,2-.48,3-.68Z" transform="translate(-23.2 -124.21)"/><path class="cls-1" d="M122.43,215.38c-2.19-3.14-5.44-3.82-9-4-.48,0-1.28-1-1.31-1.55-.18-4.47.13-4.71,4.63-4a20.59,20.59,0,0,1,3.65.85C124.16,208.08,125.12,211.94,122.43,215.38Z" transform="translate(-23.2 -124.21)"/><path class="cls-1" d="M111.87,216.52c.06-3.65.19-3.9,3.59-3.25a14.15,14.15,0,0,1,4.85,2.15c1.07.7,1,2-.43,2.38a30.78,30.78,0,0,1-6.69,1.56C110.86,219.52,112.31,217.38,111.87,216.52Z" transform="translate(-23.2 -124.21)"/><path class="cls-1" d="M298.15,333.37c-1.11.51-1.72,1-2,.87a6.12,6.12,0,0,1-1.46-1.42c.34-.32.79-1,1-.9A14.28,14.28,0,0,1,298.15,333.37Z" transform="translate(-23.2 -124.21)"/><path class="cls-1" d="M302.82,331.58c.19,2.14-.64,2.64-1.79,2.63-.33,0-.65-.66-1-1Z" transform="translate(-23.2 -124.21)"/><path class="cls-1" d="M122.76,338.24c-2.73-2.82-6.29-3.13-9.85-3.37-2.1-.15-1.37-1.7-1.47-2.82-.11-1.36.77-1.41,1.79-1.29a62.29,62.29,0,0,1,6.86.75C123.28,332.22,124.33,334.87,122.76,338.24Z" transform="translate(-23.2 -124.21)"/><path class="cls-1" d="M121.22,340.11l-10.08.64c-.21-.46-.32-.59-.31-.7.41-3.66.41-3.68,4.06-3.33,2.41.24,4.87.39,6.42,2.61Z" transform="translate(-23.2 -124.21)"/><path class="cls-1" d="M299.93,277c0-2.49-.07-4.25.05-6,0-.37.68-.82,1.14-1a5.63,5.63,0,0,1,2-.39,22.36,22.36,0,0,1,2.69.3c-.28,1.08-.24,2.47-.91,3.19A40,40,0,0,1,299.93,277Z" transform="translate(-23.2 -124.21)"/><path class="cls-1" d="M298,275.73c-3.5.34-5.62-1.37-5-4.19.11-.55,1-.93,1.58-1.38,0,0,.14,0,.2,0C298.58,270.38,299.16,271.36,298,275.73Z" transform="translate(-23.2 -124.21)"/><path class="cls-1" d="M116.07,350.76a3.3,3.3,0,0,1,.63,0c1.12.23,2.86-.76,3,1.52.11,2.88-.58,3.89-3,3.9-1.64,0-3.67.52-4.26-1.9C111.6,351.19,112.08,350.76,116.07,350.76Z" transform="translate(-23.2 -124.21)"/><path class="cls-1" d="M43,362.51c2.32-.31,4.18-.57,6-.78,1.06-.12,1.66.66,1,1.34a4.35,4.35,0,0,1-2.89,1.21C45.79,364.28,44.08,364.57,43,362.51Z" transform="translate(-23.2 -124.21)"/></svg>