<?xml version="1.0" encoding="utf-8"?>
<!-- Generator: Adobe Illustrator 26.0.2, SVG Export Plug-In . SVG Version: 6.00 Build 0)  -->
<svg version="1.1" id="Layer_1" xmlns="http://www.w3.org/2000/svg" xmlns:xlink="http://www.w3.org/1999/xlink" x="0px" y="0px"
	 viewBox="0 0 76.9 48.1" style="enable-background:new 0 0 76.9 48.1;" xml:space="preserve">
<g id="_5fsPr9.tif">
	<g>
		<path d="M55.4,8.9c0.5,0,0.9,0.1,1.3,0.1c3.2,0.3,6.4,1,9.3,2.4c2.5,1.2,4.5,3,6,5.4c0.8,1.2,1.2,2.6,1.6,3.9
			c0.7,2.9,0.6,5.7-0.7,8.4c-1,2.1-2.4,3.9-4.2,5.4c-1.8,1.5-3.8,2.5-6,3.3c-2,0.7-4.1,1.2-6.2,1.4c-0.4,0-0.7,0.1-1.1,0.1
			c0,0,0,0.1,0,0.1c0,1,0,1.9,0,2.9c0,0.3,0,0.6,0.1,0.9c0.2,1,0.9,1.6,1.8,1.9c0.7,0.2,1.4,0.2,2.1,0.2c0.6,0,1.1,0,1.7,0
			c0.5,0,0.7,0.2,0.7,0.7c0,0.3,0,0.7,0,1c0,0.3,0,0.4-0.4,0.4c-2.2,0-4.3-0.1-6.5-0.1c-3.4,0-6.8,0.1-10.2,0.1c-0.5,0-0.9,0-1.4,0
			c-0.2,0-0.3-0.1-0.3-0.3c0-0.4,0-0.8,0-1.2c0-0.5,0.2-0.6,0.6-0.6c0.8,0,1.7,0,2.5,0c0.5,0,1-0.1,1.5-0.3c1-0.3,1.6-1.1,1.7-2.1
			c0-0.3,0.1-0.6,0.1-0.9c0-0.8,0-1.6,0-2.4c0-0.1,0-0.1,0-0.2c-0.4,0-0.8-0.1-1.3-0.1c-3.4-0.4-6.7-1.2-9.7-2.9
			c-2.2-1.3-4.2-2.9-5.6-5.1c-1.6-2.3-2.2-4.9-2-7.7c0.2-2.4,1.1-4.6,2.5-6.5c1.9-2.8,4.5-4.8,7.5-6.2c2.5-1.2,5.2-1.9,8-2.2
			c0.2,0,0.4,0,0.6-0.1c0-0.1,0-0.1,0-0.1c0-1,0-2,0-3c0-0.3,0-0.6-0.1-1c-0.2-1-0.9-1.6-1.8-1.9c-0.7-0.2-1.4-0.2-2.1-0.2
			c-0.6,0-1.1,0-1.7,0c-0.5,0-0.7-0.2-0.7-0.7c0-0.4,0-0.7,0-1.1c0-0.3,0.1-0.3,0.3-0.3c2.2,0,4.5,0.1,6.7,0.1
			c3.5,0,6.9-0.1,10.4-0.1c0.3,0,0.7,0,1,0c0.2,0,0.3,0.1,0.3,0.3c0,0.4,0,0.8,0,1.2c0,0.5-0.2,0.6-0.6,0.6c-0.8,0-1.6,0-2.5,0
			c-0.5,0-1,0.1-1.5,0.3c-1.1,0.3-1.7,1.1-1.8,2.2c0,0.3-0.1,0.6-0.1,0.9c0,0.9,0,1.7,0,2.6C55.4,8.7,55.4,8.8,55.4,8.9z M49.5,37.3
			c0-8.8,0-17.6,0-26.4c-0.2,0-0.5,0.1-0.7,0.1c-2.2,0.3-4.2,0.8-6.2,1.8c-1,0.5-2,1.1-2.8,1.9c-1.3,1.4-2.1,3.1-2.7,4.9
			c-0.3,1.1-0.4,2.3-0.5,3.5c-0.1,1.7,0,3.5,0.4,5.1c0.4,1.6,1,3.1,2,4.3c1.1,1.4,2.5,2.4,4.1,3.2c1.5,0.7,3.1,1.2,4.8,1.4
			C48.5,37.2,49,37.2,49.5,37.3z M55.4,10.9c0,8.8,0,17.6,0,26.5c0.4,0,0.8-0.1,1.2-0.1c1.7-0.2,3.4-0.6,4.9-1.3
			c2.5-1.1,4.4-2.8,5.5-5.2c0.6-1.4,1-2.9,1.1-4.4c0.2-2,0.1-4-0.4-6c-0.5-2.1-1.5-4-3.2-5.5C61.9,12.5,58.8,11.4,55.4,10.9z"/>
	</g>
</g>
<g>
	<path d="M37.9,47.4L0.8,24c-0.3-0.3-0.3-0.9,0-1.1L36.6,0.8c0.6-0.6,1.4-0.1,1.4,0.6v3.4c0,0.1-0.1,0.4-0.3,0.6L6.4,22.9
		c-0.3,0.3-0.3,0.9,0,1.1l32.8,19c0.1,0.1,0.3,0.3,0.3,0.6v3.3C39.4,47.5,38.5,47.8,37.9,47.4z"/>
	<g>
		<rect x="3.3" y="22.3" width="25.8" height="1.8"/>
		<path d="M29.1,22.3c-8.5,1.1-17.3,2.4-25.8,2.4l2.5-2.6V24l-2.5-2.4l6.4,0.1c6.6,0.3,13,0.7,19.4,1.8l-0.6,0.6
			C28.8,23.6,29,23,29.1,22.3L29.1,22.3z M29.3,22.2c0,0.7,0,1.4,0,2.1h-0.1L3.3,24.4H3c0-0.4,0-2,0-2.4h0.3L29.3,22.2L29.3,22.2z"
			/>
	</g>
</g>
</svg>
