<svg id="Layer_1" data-name="Layer 1" xmlns="http://www.w3.org/2000/svg" viewBox="0 0 76.9 48.1"><defs><style>.cls-1{fill:none;stroke:#000;stroke-miterlimit:10;stroke-width:0.1px;}</style></defs><ellipse class="cls-1" cx="38.45" cy="24.05" rx="38.4" ry="24"/><path d="M32.65,44.88,6.86,28.36a.56.56,0,0,1,0-.79L31.74,12a.56.56,0,0,1,.95.4v2.4a.59.59,0,0,1-.16.4L10.78,27.63a.57.57,0,0,0,0,.8l22.67,13.4a.54.54,0,0,1,.17.4l0,2.25A.56.56,0,0,1,32.65,44.88Z" transform="translate(-1.35 -2.95)"/><rect x="8.02" y="27.17" width="18.54" height="1.32" transform="translate(33.23 52.71) rotate(180)"/><path d="M33.28,12.83v-.89c.44,0,.87,0,1.29.11a14.5,14.5,0,0,1,1.83.38A4.82,4.82,0,0,1,39.3,15a9.37,9.37,0,0,1,1,3.5c.11,1.11.14,2.23.25,3.34.09.84.21,1.67.37,2.5a4.86,4.86,0,0,0,2,3,6.24,6.24,0,0,0,2.92,1.15c.69.1,1.4.12,2.1.18h.19a1.34,1.34,0,0,0,0-.19c0-3.51,0-7,0-10.51A23.58,23.58,0,0,0,48,15.6a2.34,2.34,0,0,0-1.78-2,8.58,8.58,0,0,0-2.41-.36h-.42v-.87h14v.85c-.34,0-.68,0-1,.06a13.28,13.28,0,0,0-1.8.32,2.36,2.36,0,0,0-1.85,2.32c-.06.87-.11,1.75-.11,2.62,0,3.32,0,6.64,0,10v.2l.07,0a10,10,0,0,0,3.63-.52A5.34,5.34,0,0,0,59.93,24a29.58,29.58,0,0,0,.44-4.08,13.25,13.25,0,0,1,.76-4.18,5.38,5.38,0,0,1,2.19-2.8A6.74,6.74,0,0,1,66,12c.48,0,1-.07,1.46-.11v.9l-.4.06a1.9,1.9,0,0,0-1.65,1.77c-.13.88-.18,1.77-.23,2.66,0,1.05,0,2.1-.1,3.15a16.93,16.93,0,0,1-.6,3.6,7.31,7.31,0,0,1-3.08,4.13A12.33,12.33,0,0,1,56.89,30a22.77,22.77,0,0,1-3.77.41l-.48,0c0,.07,0,.13,0,.19,0,2.58,0,5.16,0,7.74,0,.76.08,1.53.14,2.3a2.34,2.34,0,0,0,1.62,2.06,5.85,5.85,0,0,0,1.9.39c.37,0,.73,0,1.11.06V44h-14a.68.68,0,0,1,0-.14v-.69c.5,0,1-.05,1.46-.11a7.93,7.93,0,0,0,1.29-.24A2.38,2.38,0,0,0,48,40.57c.07-.94.14-1.89.15-2.84,0-2.36,0-4.72,0-7.08v-.23c-.51,0-1,0-1.48-.08a17,17,0,0,1-5.51-1.15A8.75,8.75,0,0,1,37,25.86,8.31,8.31,0,0,1,36,23a26.76,26.76,0,0,1-.43-4.73c0-1-.08-2-.14-3a5.32,5.32,0,0,0-.14-.78,1.94,1.94,0,0,0-1.76-1.58Z" transform="translate(-1.35 -2.95)"/></svg>