<?xml version="1.0" encoding="utf-8"?>
<!-- Generator: Adobe Illustrator 26.0.2, SVG Export Plug-In . SVG Version: 6.00 Build 0)  -->
<svg version="1.0" id="Layer_1" xmlns="http://www.w3.org/2000/svg" xmlns:xlink="http://www.w3.org/1999/xlink" x="0px" y="0px"
	 viewBox="0 0 16 16" style="enable-background:new 0 0 16 16;" xml:space="preserve">
<style type="text/css">
	.st0{fill:#FFFFFF;stroke:#000000;stroke-width:0.75;stroke-miterlimit:10;}
</style>
<path class="st0" d="M15,6.1c-0.2-0.3-0.5-0.5-0.8-0.5l-1.4-0.2l-0.1-0.5c0-0.1,0-0.2,0.1-0.2l0.8-0.8c0.1-0.1,0.1-0.4-0.1-0.4
	l-1.1-0.2c-0.1,0-0.2-0.1-0.2-0.1l-0.5-1c-0.1-0.2-0.4-0.2-0.4,0l-0.5,1c0,0.1-0.1,0.1-0.2,0.1L9.8,3.4L9,1.7C8.8,1.3,8.4,1.1,8,1.1
	h0c-0.4,0-0.8,0.2-1,0.6L5.8,4.2h-2v1l-2,0.3C1.5,5.6,1.2,5.7,1,6.1C0.8,6.5,0.9,7,1.2,7.3l2.6,2.6l-0.6,3.6
	c-0.1,0.4,0.1,0.8,0.4,1.1c0.3,0.2,0.8,0.3,1.1,0.1L8,12.9l3.2,1.7c0.2,0.1,0.3,0.1,0.5,0.1c0.3,0,0.5-0.1,0.8-0.3
	c0.2-0.2,0.4-0.7,0.3-1l-0.6-3.6l2.6-2.6C15.1,7,15.2,6.5,15,6.1z M3.8,7.7L3.1,6.9l0.8-0.1V7.7z M5.9,6.5L5.9,6.5
	c0.4-0.1,0.7-0.3,0.8-0.6L8,3.3L8.8,5L5.9,8.1V6.5z M7.5,11.4l-1.6,0.8v-1.7l1.2-1.2l1.3,2C8.1,11.2,7.8,11.3,7.5,11.4z M10.9,8.9
	c-0.3,0.2-0.4,0.6-0.3,1l0.2,1.3L8.5,7.9l1.4-1.5c0.1,0,0.1,0,0.2,0l2.9,0.4L10.9,8.9z"/>
<g>
</g>
<g>
</g>
<g>
</g>
<g>
</g>
<g>
</g>
<g>
</g>
</svg>
