<?xml version="1.0" encoding="utf-8"?>
<!-- Generator: Adobe Illustrator 26.0.2, SVG Export Plug-In . SVG Version: 6.00 Build 0)  -->
<svg version="1.0" id="Layer_1" xmlns="http://www.w3.org/2000/svg" xmlns:xlink="http://www.w3.org/1999/xlink" x="0px" y="0px"
	 viewBox="0 0 16 16" style="enable-background:new 0 0 16 16;" xml:space="preserve">
<style type="text/css">
	.st0{fill:#FFFFFF;stroke:#000000;stroke-width:0.25;stroke-miterlimit:10;}
</style>
<path class="st0" d="M15.4,5.9c-0.2-0.3-0.5-0.6-0.9-0.6L13,5.1l-0.1-0.5c0-0.1,0-0.2,0.1-0.2l0.9-0.8C14,3.3,13.9,3,13.7,3
	l-1.2-0.2c-0.1,0-0.2-0.1-0.2-0.2l-0.5-1.1c-0.1-0.2-0.4-0.2-0.5,0l-0.5,1.1c0,0.1-0.1,0.1-0.2,0.2L9.7,3L8.8,1.1
	C8.6,0.7,8.2,0.4,7.8,0.4h0c-0.4,0-0.9,0.3-1.1,0.7L5.4,3.9H3.2V5L1,5.3C0.7,5.4,0.3,5.6,0.1,5.9C-0.1,6.4,0,7,0.4,7.4l2.9,2.8
	l-0.7,4c-0.1,0.5,0.1,0.9,0.5,1.2c0.4,0.3,0.8,0.3,1.2,0.1l3.5-1.9l3.5,1.9c0.2,0.1,0.4,0.1,0.5,0.1c0.3,0,0.6-0.1,0.8-0.3
	c0.2-0.2,0.4-0.7,0.3-1.1l-0.7-3.9l2.9-2.8C15.6,7,15.6,6.4,15.4,5.9z M3.2,7.7L2.4,6.9l0.9-0.1V7.7z M5.5,6.4L5.5,6.4
	c0.4-0.1,0.7-0.3,0.9-0.7l1.4-2.9l0.9,1.8L5.5,8.2V6.4z M7.2,11.8l-1.7,0.9v-1.8l1.3-1.3l1.4,2.2C7.9,11.7,7.5,11.7,7.2,11.8z
	 M10.9,9.1c-0.3,0.3-0.4,0.7-0.3,1.1l0.2,1.5L8.3,8l1.6-1.6c0.1,0,0.1,0,0.2,0l3.1,0.5L10.9,9.1z"/>
<g>
</g>
<g>
</g>
<g>
</g>
<g>
</g>
<g>
</g>
<g>
</g>
</svg>
