<?xml version="1.0" encoding="utf-8"?>
<!-- Generator: Adobe Illustrator 26.0.2, SVG Export Plug-In . SVG Version: 6.00 Build 0)  -->
<svg version="1.0" id="Layer_1" xmlns="http://www.w3.org/2000/svg" xmlns:xlink="http://www.w3.org/1999/xlink" x="0px" y="0px"
	 viewBox="0 0 80 53" style="enable-background:new 0 0 80 53;" xml:space="preserve">
<g id="_x35_fsPr9.tif_00000111162738113523349300000009945773540005283255_">
	
		<image style="overflow:visible;" width="1030" height="1122" id="Layer_0_00000118384397175878628170000002722557513163906457_" xlink:href="30CFC6D6248DB5A5.png"  transform="matrix(-2.912621e-02 0 0 -2.912621e-02 47.5085 43.2589)">
	</image>
</g>
<path d="M42.9,10.4l25.8,16.5c0.2,0.2,0.2,0.6,0,0.8L43.8,43.3c-0.4,0.4-1,0.1-1-0.4v-2.4c0-0.1,0.1-0.3,0.2-0.4l21.7-12.5
	c0.2-0.2,0.2-0.6,0-0.8L42.1,13.4c-0.1-0.1-0.2-0.2-0.2-0.4l0-2.3C41.9,10.3,42.5,10,42.9,10.4z"/>
<g>
	<rect x="48.9" y="26.8" width="18.5" height="1.3"/>
	<path d="M49,28c6.1-0.8,12.4-1.7,18.5-1.7c0,0-1.8,1.8-1.8,1.8s0-1.3,0-1.3l1.8,1.8l-4.6-0.1c-4.7-0.2-9.3-0.5-13.9-1.3
		c0,0,0.4-0.4,0.4-0.4C49.2,27.1,49.1,27.5,49,28L49,28z M48.9,28.2c0-0.5,0-1,0-1.5c0,0,0.1,0,0.1,0l18.5-0.1c0,0,0.2,0,0.2,0
		c0,0.3,0,1.4,0,1.7c0,0-0.2,0-0.2,0L48.9,28.2L48.9,28.2z"/>
</g>
<g>
</g>
<g>
</g>
<g>
</g>
<g>
</g>
<g>
</g>
<g>
</g>
<g>
</g>
<g>
</g>
<g>
</g>
<g>
</g>
<g>
</g>
<g>
</g>
<g>
</g>
<g>
</g>
<g>
</g>
</svg>
