<?xml version="1.0" encoding="utf-8"?>
<!-- Generator: Adobe Illustrator 26.0.2, SVG Export Plug-In . SVG Version: 6.00 Build 0)  -->
<svg version="1.1" id="Layer_1" xmlns="http://www.w3.org/2000/svg" xmlns:xlink="http://www.w3.org/1999/xlink" x="0px" y="0px"
	 viewBox="0 0 80 53" style="enable-background:new 0 0 80 53;" xml:space="preserve">
<g id="_5fsPr9.tif">
	<g>
		<path d="M27.1,10.2c0.5,0,1,0.1,1.5,0.1c3.5,0.4,6.8,1.1,10,2.6c2.7,1.3,4.9,3.3,6.5,5.8c0.8,1.3,1.3,2.7,1.7,4.2
			c0.8,3.1,0.6,6.2-0.8,9.1c-1.1,2.3-2.6,4.2-4.6,5.9c-1.9,1.6-4.1,2.7-6.4,3.5c-2.2,0.8-4.4,1.3-6.7,1.5c-0.4,0-0.8,0.1-1.1,0.1
			c0,0.1,0,0.1,0,0.1c0,1,0,2,0,3.1c0,0.3,0,0.6,0.1,1c0.2,1.1,0.9,1.7,2,2c0.7,0.2,1.5,0.2,2.3,0.2c0.6,0,1.2,0,1.8,0
			c0.6,0,0.7,0.2,0.7,0.7c0,0.4,0,0.7,0,1.1c0,0.3,0,0.4-0.4,0.4c-2.3,0-4.6-0.1-7-0.1c-3.7,0-7.3,0.1-11,0.1c-0.5,0-1,0-1.5,0
			c-0.3,0-0.3-0.1-0.3-0.3c0-0.4,0-0.8,0-1.2c0-0.5,0.2-0.7,0.7-0.7c0.9,0,1.8,0,2.7,0c0.6,0,1.1-0.1,1.7-0.3
			c1.1-0.3,1.7-1.1,1.9-2.3c0-0.3,0.1-0.6,0.1-0.9c0-0.9,0-1.7,0-2.6c0-0.1,0-0.1,0-0.2c-0.5,0-0.9-0.1-1.3-0.1
			C15.8,42.7,12.3,41.8,9,40c-2.4-1.4-4.5-3.2-6.1-5.5c-1.7-2.5-2.4-5.3-2.2-8.3c0.2-2.6,1.2-4.9,2.6-7c2.1-3,4.8-5.1,8.1-6.6
			c2.7-1.2,5.6-2,8.6-2.3c0.2,0,0.4-0.1,0.7-0.1c0-0.1,0-0.1,0-0.2c0-1.1,0-2.1,0-3.2c0-0.3,0-0.7-0.1-1c-0.2-1.1-0.9-1.8-2-2
			c-0.7-0.2-1.5-0.2-2.3-0.2c-0.6,0-1.2,0-1.8,0c-0.6,0-0.7-0.2-0.7-0.7c0-0.4,0-0.8,0-1.1c0-0.3,0.1-0.3,0.3-0.3
			c2.4,0,4.8,0.1,7.2,0.1c3.7,0,7.5-0.1,11.2-0.1c0.4,0,0.7,0,1.1,0c0.2,0,0.3,0.1,0.3,0.3c0,0.4,0,0.8,0,1.3c0,0.5-0.2,0.7-0.7,0.7
			c-0.9,0-1.8,0-2.6,0c-0.5,0-1.1,0.1-1.6,0.3c-1.2,0.4-1.8,1.2-2,2.4c0,0.3-0.1,0.6-0.1,0.9c0,0.9,0,1.8,0,2.8
			C27.1,10,27.1,10.1,27.1,10.2z M20.8,40.8c0-9.5,0-18.9,0-28.4c-0.3,0-0.5,0.1-0.7,0.1c-2.3,0.3-4.5,0.8-6.6,1.9
			c-1.1,0.5-2.1,1.2-3,2c-1.4,1.5-2.3,3.3-2.9,5.2c-0.4,1.2-0.5,2.5-0.5,3.8c-0.1,1.9,0,3.7,0.4,5.5c0.4,1.7,1,3.3,2.1,4.7
			c1.2,1.5,2.7,2.6,4.5,3.4c1.6,0.8,3.4,1.3,5.2,1.5C19.7,40.7,20.3,40.7,20.8,40.8z M27.1,12.4c0,9.5,0,19,0,28.5
			c0.4,0,0.9-0.1,1.3-0.1c1.8-0.2,3.6-0.6,5.3-1.4c2.7-1.2,4.7-3,5.9-5.6c0.7-1.5,1-3.1,1.2-4.7c0.2-2.2,0.1-4.4-0.5-6.5
			c-0.6-2.3-1.6-4.3-3.4-6C34.1,14.1,30.8,12.9,27.1,12.4z"/>
	</g>
</g>
<path d="M40.2,2.4L79,27.2c0.3,0.3,0.3,0.9,0,1.2L41.6,51.9c-0.3,0.4-0.8,0.4-1.2,0.2c-0.2-0.2-0.4-0.5-0.3-0.8v-3.6
	c0-0.2,0.1-0.4,0.2-0.6l32.8-18.8c0.3-0.3,0.3-0.9,0-1.2L39,7c-0.2-0.2-0.2-0.4-0.2-0.6V3c0-0.5,0.4-0.9,0.9-0.8
	C39.9,2.1,40.1,2.2,40.2,2.4z"/>
<rect x="49.4" y="27" width="27.9" height="2"/>
<path d="M49.5,28.9c9.2-1.4,18.5-2.3,27.8-2.6L74.6,29v-2l2.7,2.7l-7-0.1c-7-0.2-13.9-0.9-20.8-2L50,27c-0.1,0.5-0.3,1.1-0.5,1.9
	L49.5,28.9z M49.3,29.1c0-0.7,0-1.5,0-2.3h0.2l27.9-0.1h0.3c0,0.4,0,2.2,0,2.6h-0.3l-28-0.2H49.3z"/>
</svg>
