<?xml version="1.0" encoding="utf-8"?>
<!-- Generator: Adobe Illustrator 26.0.2, SVG Export Plug-In . SVG Version: 6.00 Build 0)  -->
<svg version="1.0" id="Layer_1" xmlns="http://www.w3.org/2000/svg" xmlns:xlink="http://www.w3.org/1999/xlink" x="0px" y="0px"
	 viewBox="0 0 30 30" style="enable-background:new 0 0 30 30;" xml:space="preserve">
<g id="_x30_L68m2_00000164499635051474936740000009133739728931679625_">
	<g>
		<path d="M12.9,19.2c0,2.1,0,4.2,0,6.3c-0.3,0-0.5,0-0.7,0c-1.8,0-3.7,0-5.5,0c-0.7,0-1.1-0.4-1.1-1.1c0-2.6,0-5.1,0-7.7
			c0-0.2,0.1-0.3,0.2-0.4c3.1-2.5,6.1-5,9.1-7.5c0,0,0.1-0.1,0.1-0.1c0.4,0.3,0.8,0.7,1.3,1c2.7,2.2,5.4,4.4,8,6.6
			c0.1,0.1,0.2,0.2,0.2,0.3c0,2.6,0,5.1,0,7.7c0,0.7-0.4,1.1-1.1,1.1c-2,0-4,0-6,0c-0.1,0-0.1,0-0.2,0c0-2.1,0-4.2,0-6.3
			C15.7,19.2,14.3,19.2,12.9,19.2z"/>
		<path d="M20.2,8.3c0-0.1,0-0.2,0-0.3c0-0.9,0-1.9,0-2.8c0-0.4,0.2-0.6,0.6-0.6c1,0,2,0,3.1,0c0.3,0,0.5,0.2,0.5,0.6
			c0,2.1,0,4.2,0,6.4c0,0.2,0.1,0.3,0.2,0.5c1.1,0.9,2.2,1.8,3.3,2.7c0.3,0.3,0.4,0.5,0.1,0.9c-0.3,0.4-0.6,0.7-0.9,1.1
			c-0.3,0.3-0.6,0.3-0.9,0.1c-1.5-1.3-3-2.5-4.5-3.8c-2.2-1.9-4.4-3.7-6.7-5.6c0,0-0.1,0-0.1-0.1c-0.4,0.3-0.8,0.6-1.1,0.9
			c-2.2,1.8-4.3,3.6-6.5,5.4c-1.2,1-2.4,2-3.6,3c-0.4,0.3-0.6,0.3-0.9-0.1c-0.3-0.4-0.6-0.7-0.9-1c-0.3-0.3-0.2-0.6,0.1-0.9
			c2.9-2.4,5.7-4.8,8.6-7.1c1-0.9,2.1-1.7,3.1-2.6c0.7-0.6,1.8-0.6,2.5,0C17.5,6,18.7,7,20,8C20,8.1,20.1,8.2,20.2,8.3z"/>
	</g>
</g>
<g>
</g>
<g>
</g>
<g>
</g>
<g>
</g>
<g>
</g>
<g>
</g>
</svg>
