<?xml version="1.0" standalone="no"?>
<!DOCTYPE svg PUBLIC "-//W3C//DTD SVG 20010904//EN"
 "http://www.w3.org/TR/2001/REC-SVG-20010904/DTD/svg10.dtd">
<svg version="1.0" xmlns="http://www.w3.org/2000/svg"
 width="912.000000pt" height="912.000000pt" viewBox="0 0 912.000000 912.000000"
 preserveAspectRatio="xMidYMid meet">
<metadata>
Created by potrace 1.14, written by Peter Selinger 2001-2017
</metadata>
<g transform="translate(0.000000,912.000000) scale(0.100000,-0.100000)"
fill="#000000" stroke="none">
<path d="M2108 7875 c-1 -2 -32 -5 -68 -6 -63 -3 -140 -14 -170 -26 -8 -3 -19
-7 -25 -7 -73 -8 -305 -148 -305 -184 0 -5 -6 -12 -13 -15 -13 -5 -90 -131
-93 -154 -2 -8 -6 -22 -10 -31 -10 -24 -14 -43 -16 -74 0 -15 -4 -26 -7 -24
-3 2 -7 -34 -8 -80 -1 -46 3 -86 8 -89 5 -4 9 -18 9 -33 0 -15 7 -48 15 -75 8
-26 15 -51 16 -55 5 -21 16 -52 79 -212 93 -239 99 -255 127 -340 13 -41 28
-84 33 -95 9 -21 69 -233 75 -263 2 -9 4 -17 6 -17 1 0 3 -9 4 -20 1 -11 8
-40 15 -65 7 -25 14 -54 16 -65 5 -28 23 -115 30 -145 3 -14 7 -36 9 -50 2
-14 6 -36 9 -50 9 -46 35 -247 42 -320 21 -239 21 -497 -1 -745 -2 -16 -3 -30
-4 -30 -1 0 -4 -20 -6 -45 -5 -64 -15 -150 -21 -185 -3 -16 -8 -41 -9 -55 -2
-14 -7 -41 -11 -60 -3 -19 -7 -50 -8 -67 0 -18 -3 -33 -6 -33 -3 0 -6 -8 -7
-17 -1 -10 -4 -29 -7 -43 -2 -14 -9 -49 -15 -79 -6 -30 -15 -70 -21 -90 -5
-20 -11 -47 -14 -61 -3 -14 -8 -36 -11 -50 -3 -14 -8 -36 -11 -50 -3 -14 -9
-38 -14 -55 -8 -27 -15 -61 -25 -122 -1 -11 -6 -30 -9 -41 -4 -11 -9 -33 -11
-48 -2 -16 -6 -40 -9 -54 -11 -49 -29 -145 -31 -170 -2 -14 -4 -26 -5 -27 -1
-2 -3 -11 -4 -20 -1 -10 -6 -43 -11 -73 -4 -30 -10 -71 -11 -90 -1 -19 -3 -35
-4 -35 -11 0 -32 -315 -32 -475 1 -120 13 -295 21 -295 1 0 4 -16 6 -35 9 -76
44 -210 71 -275 9 -22 21 -51 27 -65 6 -14 10 -28 9 -33 -1 -4 3 -7 9 -7 5 0
8 -4 5 -9 -4 -5 -3 -11 1 -13 5 -1 18 -23 31 -48 31 -61 100 -153 167 -222 51
-52 182 -148 203 -148 4 0 14 -6 21 -12 6 -7 15 -13 19 -13 4 -1 23 -8 42 -17
55 -26 148 -57 154 -50 3 3 6 0 6 -7 0 -7 3 -10 8 -7 4 2 32 -2 62 -10 30 -8
75 -17 100 -20 25 -3 52 -7 60 -9 116 -29 601 -23 780 10 19 4 46 8 60 10 14
3 36 7 50 10 14 3 36 8 50 11 94 19 295 101 389 159 78 48 261 224 261 251 0
8 4 14 9 14 7 0 89 146 90 160 0 3 2 12 5 20 18 57 33 120 32 143 -1 15 1 27
5 27 8 0 3 242 -5 290 -12 66 -28 135 -36 160 -9 27 -16 49 -20 65 -25 88
-118 264 -208 399 -37 54 -71 106 -77 115 -5 8 -23 34 -40 57 -16 23 -37 52
-45 64 -8 12 -27 40 -42 61 -16 21 -28 41 -28 44 0 3 -11 18 -25 33 -14 15
-25 32 -25 39 0 6 -3 13 -7 15 -5 2 -30 35 -56 73 -97 142 -262 385 -272 402
-6 10 -50 78 -98 150 -48 73 -87 137 -87 142 0 5 -4 11 -8 13 -12 5 -117 186
-157 273 -21 44 -41 87 -46 96 -7 15 -25 78 -36 124 -10 44 -12 117 -4 138 5
12 9 27 10 32 4 19 46 57 81 72 46 21 150 24 207 7 51 -15 134 -76 173 -125
14 -18 30 -37 36 -43 5 -6 19 -27 30 -46 10 -19 24 -40 30 -47 18 -19 250
-492 245 -501 -1 -1 12 -29 29 -62 17 -33 28 -60 25 -60 -2 0 4 -17 14 -37 11
-21 36 -78 56 -128 34 -85 42 -105 65 -157 5 -13 36 -86 69 -163 58 -138 128
-297 179 -405 14 -30 25 -58 24 -62 -1 -5 3 -8 8 -8 6 0 10 -5 10 -12 0 -6 45
-100 99 -208 110 -219 120 -237 140 -262 8 -10 11 -18 7 -18 -4 0 2 -12 13
-26 12 -15 21 -33 21 -40 0 -8 5 -14 10 -14 6 0 10 -6 10 -13 0 -11 167 -264
194 -293 6 -7 22 -27 36 -45 179 -237 514 -539 742 -669 93 -53 318 -155 318
-144 0 2 12 -2 28 -10 15 -8 41 -17 57 -20 17 -3 54 -12 83 -20 30 -9 72 -18
95 -21 23 -4 44 -8 47 -10 6 -3 88 -13 197 -24 104 -10 398 -4 398 9 0 1 16 3
35 6 19 2 42 7 50 10 16 7 45 14 73 16 9 1 17 7 17 12 0 5 3 6 7 3 3 -4 12 -2
19 3 6 6 22 13 34 15 13 2 30 10 39 17 9 7 32 22 51 32 73 39 185 144 237 223
52 78 67 101 96 156 36 68 88 183 91 201 1 6 5 16 8 22 12 19 54 171 64 234 3
19 8 38 10 41 5 9 21 109 28 179 3 19 7 58 10 85 22 201 37 448 40 632 0 51 5
93 10 93 5 0 3 6 -3 13 -6 8 -8 17 -4 20 10 10 11 827 1 833 -4 3 -6 9 -3 14
11 18 -25 140 -56 190 -5 8 -13 25 -19 37 -24 56 -171 175 -233 190 -121 28
-182 32 -267 19 -77 -11 -140 -26 -155 -34 -5 -4 -16 -7 -23 -8 -18 -3 -78
-31 -227 -106 -104 -52 -218 -101 -265 -114 -8 -2 -55 -15 -105 -29 -49 -14
-90 -24 -90 -24 0 0 -16 -2 -35 -5 -97 -16 -121 -18 -192 -20 -43 0 -78 -5
-78 -9 0 -5 -5 -5 -10 -2 -6 4 -36 8 -68 10 -83 5 -185 15 -201 21 -8 2 -30 7
-50 10 -20 3 -47 9 -61 14 -14 6 -36 12 -50 14 -14 3 -26 5 -27 7 -2 1 -6 2
-10 3 -5 1 -13 4 -19 8 -6 4 -22 9 -35 11 -26 5 -168 67 -227 99 -18 10 -39
18 -47 18 -8 0 -15 4 -15 8 0 5 -12 14 -27 21 -36 16 -218 137 -247 165 -147
137 -211 209 -229 259 -6 15 -3 17 21 13 94 -17 215 -36 253 -40 24 -2 44 -5
44 -6 0 -2 66 -7 195 -15 83 -5 336 -9 350 -5 3 0 43 3 90 5 47 2 110 7 140
10 30 4 69 9 85 10 52 6 184 30 213 39 9 3 28 7 42 10 14 2 45 10 70 17 25 7
50 13 55 14 6 0 15 3 20 6 9 6 70 22 70 19 0 -4 258 106 300 128 114 59 255
144 255 154 0 5 4 7 8 4 5 -3 19 4 30 15 12 11 22 16 22 12 0 -4 4 -3 8 2 4 6
25 24 47 40 46 34 72 55 90 73 8 6 16 12 19 12 7 0 195 187 240 240 21 25 59
74 84 110 26 36 49 67 53 70 3 3 14 21 24 40 10 19 21 37 25 40 3 3 34 61 68
130 64 129 125 301 137 386 4 27 10 53 13 58 3 5 7 32 9 60 7 97 9 111 15 122
4 5 3 16 -2 24 -5 9 -5 19 2 27 7 9 7 13 -2 13 -10 0 -10 3 0 15 10 12 10 15
0 15 -10 0 -10 3 0 15 7 8 8 15 3 15 -5 0 -10 17 -11 38 -3 55 -14 124 -35
207 -8 32 -51 149 -57 155 -3 3 -17 30 -32 60 -30 61 -58 108 -73 126 -5 6
-28 33 -50 60 -46 55 -51 60 -129 132 -73 66 -168 128 -276 180 -78 36 -216
85 -272 96 -13 2 -34 7 -48 10 -141 33 -247 41 -540 41 -275 0 -426 -8 -570
-31 -19 -3 -51 -7 -70 -10 -29 -3 -68 -11 -155 -30 -191 -41 -346 -117 -470
-230 -32 -30 -95 -110 -95 -122 0 -6 -4 -12 -8 -14 -23 -10 -92 -197 -108
-293 -22 -139 -17 -410 10 -580 4 -22 9 -60 12 -85 2 -25 6 -56 9 -70 22 -118
25 -214 9 -267 -6 -24 -9 -43 -6 -43 3 0 1 -5 -6 -12 -7 -7 -12 -18 -12 -25 0
-29 -79 -106 -140 -135 -60 -30 -62 -30 -165 -30 -128 0 -225 21 -317 68 -15
8 -30 14 -33 14 -3 0 -30 15 -60 35 -31 19 -58 35 -61 35 -10 0 -157 110 -218
163 -104 90 -256 249 -256 268 0 5 -4 9 -8 9 -4 0 -15 12 -24 28 -9 15 -26 38
-37 52 -35 42 -35 42 -108 165 -26 44 -56 98 -67 120 -11 22 -24 42 -28 43 -4
2 -8 10 -8 17 0 7 -9 30 -19 52 -18 36 -53 113 -71 158 -42 103 -84 188 -120
242 -17 24 -30 46 -30 48 0 24 -190 207 -270 261 -98 66 -243 135 -310 148 -3
1 -11 5 -17 9 -7 5 -13 6 -13 2 0 -3 -9 -1 -20 5 -20 11 -49 16 -145 25 -33 3
-65 8 -72 10 -6 2 -13 2 -15 0z"/>
</g>
</svg>
