<?xml version="1.0" encoding="utf-8"?>
<!-- Generator: Adobe Illustrator 26.0.1, SVG Export Plug-In . SVG Version: 6.00 Build 0)  -->
<svg version="1.1" id="Layer_1" xmlns="http://www.w3.org/2000/svg" xmlns:xlink="http://www.w3.org/1999/xlink" x="0px" y="0px"
	 viewBox="0 0 256 150" enable-background="new 0 0 256 150" xml:space="preserve">
<rect x="26.21" y="12.99" fill="none" width="203.59" height="86.21"/>
<text transform="matrix(1 0 0 1 26.2065 99.0888)" fill="#1D1D1B" font-family="'Bizantheum'" font-size="123px">TRU</text>
<g>
	<g>
		<path fill="#1D1D1B" d="M40.42,103.65c-0.22,0.51-0.33,0.76-0.55,1.26c-1.51-0.66-2.26-0.99-3.76-1.68
			c-1.7,3.7-2.54,5.56-4.24,9.26c-0.64-0.29-0.96-0.44-1.6-0.74c1.72-3.69,2.59-5.54,4.31-9.23c-1.49-0.7-2.24-1.05-3.72-1.78
			c0.24-0.49,0.36-0.74,0.61-1.24C35.02,101.25,36.81,102.08,40.42,103.65z"/>
		<path fill="#1D1D1B" d="M44.65,108.82c0.62,0.25,0.92,0.37,1.54,0.62c-0.4,0.42-1.29,1.4-2.69,2.91
			c-1.06,1.13-1.94,2.05-2.63,2.75c-1.65,1.65-2.75,2.61-3.28,2.9c-0.53,0.29-1.22,0.26-2.06-0.1c-0.2-0.09-0.36-0.16-0.46-0.23
			c-0.1-0.06-0.23-0.15-0.37-0.26c0.21-0.47,0.31-0.71,0.51-1.18c0.22,0.17,0.39,0.29,0.5,0.35c0.11,0.06,0.2,0.11,0.29,0.15
			c0.27,0.12,0.48,0.16,0.64,0.13c0.16-0.03,0.31-0.08,0.44-0.16c0.04-0.03,0.22-0.18,0.54-0.47c0.32-0.29,0.55-0.5,0.7-0.65
			c0.08-3.73,0.14-5.59,0.32-9.3c0.63,0.27,0.94,0.41,1.57,0.68c-0.2,2.9-0.29,4.36-0.43,7.27C41.75,112.09,42.73,111,44.65,108.82z
			"/>
		<path fill="#1D1D1B" d="M47.25,109.89c0.54,0.21,0.82,0.32,1.36,0.52c-0.16,0.42-0.24,0.63-0.4,1.04
			c0.42-0.25,0.83-0.41,1.24-0.48c0.58-0.12,1.2-0.06,1.84,0.18c0.95,0.35,1.63,0.98,2.05,1.91c0.42,0.93,0.41,2.03-0.03,3.31
			c-0.61,1.73-1.53,2.8-2.78,3.19c-0.79,0.25-1.61,0.22-2.45-0.09c-0.65-0.24-1.15-0.58-1.5-1c-0.2-0.24-0.4-0.61-0.58-1.09
			c-0.61,1.61-0.92,2.41-1.53,4.02c-0.59-0.23-0.89-0.34-1.47-0.57C44.69,116.46,45.54,114.27,47.25,109.89z M50.28,118.08
			c0.64-0.36,1.14-1.06,1.51-2.1c0.23-0.63,0.32-1.21,0.29-1.74c-0.06-1.01-0.57-1.68-1.54-2.04c-0.98-0.36-1.82-0.16-2.53,0.62
			c-0.38,0.42-0.72,1-1,1.76c-0.23,0.61-0.33,1.16-0.3,1.66c0.06,0.96,0.6,1.62,1.6,1.99C48.98,118.5,49.64,118.44,50.28,118.08z"/>
		<path fill="#1D1D1B" d="M62.17,115.94c0.54,0.93,0.62,2.06,0.21,3.41c-0.39,1.3-1.06,2.27-2.01,2.91
			c-0.95,0.64-2.16,0.73-3.6,0.26c-1.21-0.39-2.04-1.08-2.5-2.07c-0.45-0.98-0.46-2.1-0.03-3.35c0.46-1.34,1.19-2.28,2.18-2.83
			c0.99-0.55,2.09-0.63,3.3-0.24C60.81,114.38,61.62,115.01,62.17,115.94z M59.6,121.02c0.57-0.57,0.99-1.27,1.24-2.1
			c0.23-0.75,0.29-1.4,0.19-1.95c-0.17-0.87-0.75-1.45-1.73-1.77c-0.87-0.28-1.61-0.18-2.21,0.32c-0.61,0.5-1.06,1.18-1.36,2.07
			c-0.29,0.85-0.32,1.63-0.11,2.33c0.22,0.7,0.77,1.2,1.66,1.49C58.25,121.71,59.03,121.58,59.6,121.02z"/>
		<path fill="#1D1D1B" d="M69.89,117.65c0.22,0.25,0.43,0.58,0.63,1c0.11-0.41,0.16-0.62,0.27-1.03c0.53,0.14,0.8,0.21,1.33,0.35
			c-0.77,2.97-1.15,4.45-1.92,7.42c-0.27,1.04-0.65,1.81-1.14,2.32c-0.91,0.94-2.25,1.18-3.99,0.7c-0.97-0.27-1.73-0.7-2.27-1.28
			s-0.73-1.3-0.56-2.15c0.61,0.18,0.91,0.27,1.52,0.44c-0.03,0.38,0.03,0.71,0.19,0.96c0.25,0.4,0.74,0.7,1.47,0.91
			c1.15,0.32,2.01,0.15,2.56-0.49c0.33-0.38,0.63-1.13,0.91-2.26c-0.41,0.34-0.85,0.55-1.32,0.64c-0.47,0.09-1.06,0.04-1.75-0.15
			c-0.96-0.27-1.71-0.82-2.24-1.65s-0.58-1.96-0.16-3.4c0.4-1.35,1.07-2.3,1.99-2.86c0.92-0.56,1.87-0.7,2.86-0.42
			C68.93,116.88,69.47,117.2,69.89,117.65z M69.67,119.16c-0.31-0.61-0.8-1-1.48-1.19c-1.01-0.28-1.83-0.03-2.47,0.76
			c-0.34,0.42-0.62,1.02-0.84,1.8c-0.26,0.91-0.27,1.66,0,2.26c0.26,0.59,0.74,0.98,1.42,1.17c1.06,0.3,1.94,0.06,2.61-0.72
			c0.37-0.44,0.65-0.99,0.83-1.66C70,120.57,69.98,119.77,69.67,119.16z"/>
		<path fill="#1D1D1B" d="M74.31,118.44c0.55,0.14,0.82,0.2,1.37,0.34c-0.14,0.57-0.21,0.85-0.34,1.42
			c0.18-0.25,0.54-0.52,1.07-0.81s1.09-0.37,1.66-0.24c0.03,0.01,0.07,0.02,0.13,0.04s0.17,0.06,0.32,0.11
			c-0.13,0.58-0.2,0.87-0.33,1.46c-0.08-0.03-0.16-0.06-0.23-0.09c-0.07-0.02-0.15-0.04-0.24-0.06c-0.73-0.17-1.35-0.08-1.85,0.27
			c-0.5,0.35-0.82,0.82-0.96,1.4c-0.46,1.89-0.68,2.83-1.14,4.71c-0.6-0.14-0.9-0.22-1.5-0.37
			C73.09,123.35,73.49,121.72,74.31,118.44z"/>
		<path fill="#1D1D1B" d="M83.69,123.95c0.35,0.03,0.6-0.06,0.76-0.27c0.09-0.11,0.16-0.28,0.2-0.51c0.09-0.47-0.02-0.85-0.33-1.14
			c-0.31-0.28-0.8-0.49-1.46-0.63c-0.76-0.16-1.34-0.08-1.75,0.24c-0.22,0.18-0.41,0.47-0.56,0.89c-0.55-0.12-0.82-0.18-1.37-0.3
			c0.25-1.01,0.76-1.64,1.51-1.89c0.75-0.25,1.56-0.29,2.44-0.11c1.02,0.21,1.81,0.56,2.37,1.05c0.56,0.49,0.77,1.13,0.62,1.91
			c-0.36,1.91-0.54,2.86-0.91,4.77c-0.03,0.14-0.02,0.27,0.03,0.37c0.05,0.1,0.17,0.17,0.38,0.21c0.07,0.01,0.14,0.02,0.23,0.03
			c0.08,0.01,0.18,0.01,0.27,0.02c-0.08,0.41-0.11,0.62-0.19,1.03c-0.25,0.02-0.43,0.02-0.56,0.02c-0.13-0.01-0.3-0.03-0.51-0.07
			c-0.52-0.1-0.87-0.34-1.03-0.73c-0.09-0.2-0.12-0.48-0.11-0.82c-0.38,0.31-0.88,0.55-1.51,0.7c-0.63,0.16-1.29,0.16-1.99,0.02
			c-0.83-0.18-1.46-0.56-1.89-1.14c-0.42-0.58-0.55-1.22-0.4-1.91c0.17-0.76,0.56-1.3,1.16-1.6c0.6-0.31,1.32-0.42,2.17-0.35
			C82.24,123.83,82.73,123.87,83.69,123.95z M79.78,127.05c0.27,0.3,0.62,0.49,1.05,0.58c0.53,0.11,1.06,0.1,1.6-0.02
			c0.91-0.21,1.45-0.74,1.61-1.6c0.09-0.45,0.13-0.67,0.22-1.12c-0.2,0.07-0.45,0.12-0.75,0.13c-0.3,0.01-0.59,0.01-0.87-0.02
			c-0.37-0.03-0.55-0.05-0.92-0.08c-0.55-0.04-0.98-0.03-1.28,0.06c-0.51,0.14-0.82,0.48-0.93,1.01
			C79.43,126.41,79.51,126.76,79.78,127.05z"/>
		<path fill="#1D1D1B" d="M88.76,121.57c0.57,0.1,0.85,0.15,1.42,0.25c-0.08,0.44-0.11,0.66-0.19,1.1c0.36-0.33,0.73-0.56,1.11-0.71
			c0.54-0.23,1.15-0.29,1.81-0.18c0.98,0.16,1.76,0.65,2.35,1.47c0.58,0.83,0.78,1.91,0.59,3.26c-0.26,1.82-0.96,3.05-2.1,3.67
			c-0.72,0.4-1.52,0.52-2.39,0.39c-0.68-0.11-1.23-0.34-1.64-0.69c-0.24-0.2-0.5-0.52-0.76-0.95c-0.29,1.7-0.44,2.55-0.73,4.24
			c-0.61-0.11-0.92-0.16-1.54-0.27C87.51,128.51,87.93,126.2,88.76,121.57z M93.24,129.01c0.55-0.48,0.9-1.26,1.07-2.35
			c0.1-0.66,0.08-1.25-0.05-1.76c-0.24-0.98-0.87-1.54-1.88-1.7c-1.02-0.16-1.79,0.2-2.34,1.1c-0.29,0.48-0.51,1.12-0.64,1.92
			c-0.11,0.64-0.1,1.2,0.03,1.69c0.24,0.93,0.89,1.48,1.93,1.64C92.06,129.67,92.69,129.49,93.24,129.01z"/>
		<path fill="#1D1D1B" d="M98.52,119.86c0.58,0.08,0.87,0.12,1.44,0.19c-0.22,1.71-0.33,2.57-0.55,4.28
			c0.4-0.38,0.75-0.63,1.05-0.77c0.51-0.24,1.12-0.31,1.82-0.23c1.27,0.15,2.08,0.66,2.44,1.56c0.2,0.49,0.26,1.15,0.17,1.97
			c-0.22,2.15-0.33,3.23-0.55,5.38c-0.63-0.06-0.94-0.1-1.57-0.17c0.23-2.11,0.35-3.17,0.58-5.28c0.07-0.62,0.03-1.08-0.1-1.38
			c-0.22-0.49-0.69-0.77-1.43-0.86c-0.61-0.07-1.19,0.06-1.74,0.4c-0.55,0.34-0.9,1.06-1.04,2.18c-0.23,1.77-0.34,2.66-0.57,4.43
			c-0.61-0.08-0.91-0.12-1.52-0.2C97.59,126.75,97.9,124.45,98.52,119.86z"/>
		<path fill="#1D1D1B" d="M107.65,120.94c0.59,0.05,0.88,0.08,1.47,0.13c-0.06,0.64-0.08,0.96-0.14,1.6
			c-0.59-0.05-0.89-0.08-1.49-0.13C107.56,121.9,107.59,121.58,107.65,120.94z M107.35,124.1c0.6,0.06,0.9,0.08,1.5,0.13
			c-0.29,3.34-0.43,5.02-0.72,8.36c-0.62-0.05-0.93-0.08-1.55-0.14C106.88,129.11,107.04,127.44,107.35,124.1z"/>
		<path fill="#1D1D1B" d="M116.81,125.18c0.6,0.49,0.94,1.3,1.01,2.44c-0.58-0.03-0.87-0.04-1.45-0.07
			c-0.06-0.52-0.24-0.96-0.54-1.33c-0.29-0.36-0.79-0.56-1.48-0.6c-0.94-0.06-1.65,0.34-2.12,1.19c-0.3,0.55-0.49,1.25-0.55,2.08
			c-0.06,0.84,0.08,1.57,0.42,2.17c0.34,0.6,0.93,0.93,1.75,0.98c0.63,0.04,1.14-0.11,1.53-0.45s0.67-0.82,0.84-1.43
			c0.59,0.03,0.88,0.04,1.47,0.07c-0.22,1.11-0.68,1.91-1.38,2.39c-0.7,0.48-1.59,0.69-2.65,0.63c-1.19-0.07-2.11-0.54-2.76-1.4
			c-0.64-0.86-0.91-1.89-0.82-3.09c0.12-1.47,0.59-2.59,1.4-3.36c0.81-0.77,1.79-1.11,2.94-1.04
			C115.42,124.42,116.21,124.69,116.81,125.18z"/>
		<path fill="#1D1D1B" d="M124.47,121.85c2.2,0.04,3.3,0.04,5.5,0.02c0.91-0.01,1.65,0.11,2.25,0.35c1.13,0.47,1.71,1.36,1.75,2.69
			c0.02,0.69-0.12,1.26-0.4,1.71c-0.29,0.45-0.7,0.81-1.24,1.09c0.48,0.17,0.84,0.41,1.09,0.7c0.25,0.29,0.4,0.78,0.44,1.45
			c0.04,0.62,0.06,0.93,0.1,1.55c0.03,0.44,0.08,0.77,0.14,0.98c0.11,0.36,0.3,0.6,0.56,0.69c0,0.1,0,0.16,0.01,0.26
			c-0.83,0.02-1.25,0.03-2.08,0.05c-0.06-0.1-0.11-0.23-0.14-0.38c-0.04-0.16-0.07-0.46-0.1-0.91c-0.06-0.77-0.08-1.16-0.14-1.93
			c-0.05-0.76-0.36-1.26-0.92-1.5c-0.32-0.14-0.82-0.2-1.49-0.2c-1.51,0.01-2.26,0.01-3.77,0c-0.02,1.98-0.03,2.98-0.04,4.96
			c-0.68-0.01-1.02-0.01-1.69-0.02C124.36,128.79,124.39,126.48,124.47,121.85z M129.84,127.17c0.77-0.01,1.38-0.16,1.83-0.46
			s0.66-0.84,0.64-1.6c-0.02-0.82-0.34-1.38-0.96-1.67c-0.33-0.15-0.78-0.23-1.33-0.22c-1.58,0.01-2.37,0.01-3.95,0
			c-0.01,1.58-0.02,2.37-0.03,3.95C127.55,127.19,128.31,127.19,129.84,127.17z"/>
		<path fill="#1D1D1B" d="M141.59,124.83c0.6,0.24,1.07,0.58,1.41,1c0.32,0.4,0.55,0.9,0.7,1.44c0.1,0.37,0.2,1,0.26,1.84
			c-2.62,0.18-3.94,0.26-6.56,0.37c0.06,0.85,0.31,1.53,0.73,2.03c0.43,0.5,1.07,0.73,1.92,0.68c0.8-0.04,1.42-0.32,1.86-0.84
			c0.25-0.3,0.42-0.64,0.51-1.02c0.59-0.04,0.89-0.06,1.49-0.1c-0.02,0.31-0.12,0.66-0.32,1.06c-0.2,0.4-0.43,0.72-0.69,0.98
			c-0.44,0.45-1,0.76-1.67,0.95c-0.36,0.1-0.78,0.17-1.24,0.19c-1.14,0.06-2.12-0.28-2.93-1.01c-0.82-0.73-1.24-1.79-1.29-3.16
			c-0.05-1.35,0.3-2.46,1.04-3.34c0.74-0.87,1.71-1.34,2.95-1.4C140.38,124.48,140.99,124.59,141.59,124.83z M142.34,128.1
			c-0.1-0.61-0.27-1.09-0.51-1.44c-0.45-0.66-1.15-0.96-2.1-0.91c-0.68,0.04-1.24,0.3-1.68,0.79c-0.44,0.49-0.66,1.1-0.66,1.82
			C139.37,128.28,140.36,128.23,142.34,128.1z"/>
		<path fill="#1D1D1B" d="M146.76,130.03c0.08,0.47,0.24,0.82,0.47,1.05c0.42,0.42,1.11,0.59,2.05,0.51
			c0.56-0.05,1.05-0.21,1.45-0.48c0.4-0.27,0.58-0.64,0.53-1.12c-0.04-0.36-0.24-0.62-0.59-0.77c-0.23-0.09-0.67-0.18-1.33-0.27
			c-0.49-0.07-0.73-0.1-1.22-0.17c-0.78-0.11-1.36-0.26-1.74-0.45c-0.67-0.33-1.04-0.83-1.09-1.51c-0.06-0.8,0.19-1.46,0.75-2
			c0.56-0.54,1.34-0.85,2.35-0.95c1.32-0.12,2.3,0.15,2.97,0.83c0.42,0.43,0.65,0.92,0.7,1.46c-0.56,0.06-0.84,0.09-1.4,0.15
			c-0.06-0.32-0.21-0.59-0.44-0.83c-0.38-0.34-0.98-0.46-1.82-0.39c-0.56,0.05-0.97,0.19-1.24,0.42c-0.27,0.23-0.39,0.51-0.36,0.84
			c0.03,0.37,0.25,0.64,0.65,0.83c0.23,0.11,0.57,0.2,1.01,0.26c0.4,0.06,0.6,0.08,1.01,0.14c1.1,0.14,1.84,0.31,2.23,0.5
			c0.62,0.3,0.97,0.83,1.06,1.6c0.08,0.75-0.15,1.42-0.71,2.03c-0.55,0.61-1.46,0.97-2.72,1.09c-1.35,0.13-2.34-0.08-2.94-0.6
			c-0.61-0.52-0.96-1.2-1.06-2.04C145.89,130.1,146.18,130.08,146.76,130.03z"/>
		<path fill="#1D1D1B" d="M159.21,123.05c0.62,0.2,1.12,0.49,1.49,0.89c0.35,0.38,0.62,0.86,0.81,1.38
			c0.13,0.37,0.28,0.98,0.41,1.82c-2.61,0.39-3.91,0.57-6.53,0.89c0.13,0.85,0.43,1.5,0.89,1.96c0.47,0.46,1.13,0.64,1.97,0.53
			c0.79-0.1,1.39-0.43,1.79-0.98c0.23-0.32,0.37-0.67,0.43-1.06c0.59-0.08,0.89-0.13,1.48-0.22c0.01,0.31-0.07,0.67-0.24,1.08
			c-0.16,0.41-0.37,0.75-0.61,1.03c-0.4,0.48-0.94,0.84-1.59,1.08c-0.35,0.13-0.76,0.23-1.23,0.29c-1.13,0.15-2.14-0.11-3.01-0.78
			s-1.38-1.68-1.54-3.05c-0.15-1.34,0.11-2.48,0.77-3.41c0.66-0.93,1.6-1.47,2.83-1.63C157.97,122.8,158.59,122.86,159.21,123.05z
			 M160.22,126.25c-0.15-0.6-0.36-1.06-0.63-1.4c-0.5-0.62-1.22-0.86-2.16-0.74c-0.68,0.09-1.21,0.4-1.62,0.92
			c-0.4,0.52-0.57,1.15-0.52,1.87C157.26,126.67,158.25,126.54,160.22,126.25z"/>
		<path fill="#1D1D1B" d="M168.23,124.73c0.33-0.1,0.53-0.28,0.61-0.53c0.04-0.14,0.04-0.32,0-0.55c-0.09-0.47-0.33-0.79-0.72-0.94
			c-0.39-0.15-0.92-0.16-1.58-0.05c-0.77,0.13-1.27,0.42-1.53,0.87c-0.14,0.25-0.21,0.59-0.19,1.03c-0.55,0.09-0.83,0.14-1.38,0.22
			c-0.14-1.03,0.1-1.8,0.7-2.31c0.6-0.51,1.34-0.84,2.22-1c1.02-0.18,1.88-0.15,2.59,0.11c0.7,0.25,1.13,0.77,1.28,1.55
			c0.37,1.91,0.55,2.86,0.91,4.77c0.03,0.14,0.08,0.25,0.16,0.33c0.08,0.08,0.22,0.09,0.43,0.05c0.07-0.01,0.14-0.03,0.22-0.06
			c0.08-0.02,0.17-0.05,0.26-0.09c0.08,0.41,0.12,0.62,0.2,1.03c-0.22,0.11-0.39,0.18-0.51,0.22c-0.12,0.04-0.29,0.08-0.5,0.12
			c-0.52,0.1-0.93,0-1.23-0.3c-0.16-0.16-0.29-0.4-0.4-0.72c-0.24,0.43-0.62,0.83-1.15,1.21c-0.53,0.38-1.14,0.63-1.84,0.74
			c-0.84,0.14-1.56,0.02-2.17-0.36c-0.6-0.38-0.96-0.93-1.07-1.63c-0.12-0.77,0.04-1.41,0.49-1.92s1.07-0.88,1.89-1.12
			C166.84,125.15,167.3,125.01,168.23,124.73z M165.74,129.05c0.36,0.18,0.75,0.23,1.19,0.16c0.53-0.09,1.03-0.29,1.48-0.61
			c0.77-0.53,1.07-1.22,0.91-2.08c-0.08-0.45-0.12-0.67-0.21-1.12c-0.16,0.14-0.38,0.27-0.65,0.4c-0.27,0.12-0.55,0.23-0.82,0.31
			c-0.35,0.11-0.53,0.16-0.88,0.27c-0.53,0.16-0.92,0.34-1.16,0.53c-0.42,0.32-0.58,0.75-0.5,1.28
			C165.17,128.58,165.38,128.87,165.74,129.05z"/>
		<path fill="#1D1D1B" d="M172.21,120.58c0.55-0.11,0.83-0.17,1.38-0.28c0.12,0.57,0.18,0.86,0.3,1.43c0.06-0.3,0.26-0.7,0.62-1.19
			c0.36-0.49,0.82-0.8,1.39-0.93c0.03-0.01,0.07-0.01,0.14-0.02c0.07-0.01,0.18-0.02,0.34-0.04c0.13,0.58,0.2,0.88,0.33,1.46
			c-0.09,0-0.17,0.01-0.25,0.02c-0.07,0.01-0.15,0.03-0.24,0.04c-0.73,0.16-1.25,0.51-1.55,1.04c-0.3,0.53-0.39,1.09-0.27,1.68
			c0.4,1.9,0.6,2.85,0.99,4.75c-0.6,0.13-0.9,0.19-1.51,0.31C173.21,125.54,172.88,123.89,172.21,120.58z"/>
		<path fill="#1D1D1B" d="M183.42,118.47c0.72,0.29,1.29,0.96,1.7,2.02c-0.57,0.15-0.85,0.22-1.42,0.37
			c-0.21-0.48-0.52-0.85-0.91-1.11c-0.39-0.26-0.92-0.3-1.6-0.13c-0.92,0.23-1.48,0.81-1.68,1.76c-0.13,0.62-0.1,1.34,0.09,2.15
			c0.19,0.82,0.54,1.47,1.05,1.95c0.51,0.47,1.17,0.61,1.97,0.42c0.62-0.15,1.07-0.45,1.34-0.89c0.27-0.44,0.4-0.98,0.38-1.62
			c0.57-0.15,0.86-0.22,1.43-0.37c0.12,1.12-0.09,2.02-0.62,2.69c-0.53,0.67-1.32,1.14-2.36,1.39c-1.17,0.28-2.19,0.11-3.07-0.51
			c-0.87-0.62-1.44-1.53-1.7-2.71c-0.33-1.44-0.21-2.65,0.35-3.62c0.55-0.97,1.39-1.59,2.52-1.87
			C181.86,118.15,182.7,118.18,183.42,118.47z"/>
		<path fill="#1D1D1B" d="M184.98,114.32c0.57-0.15,0.85-0.23,1.42-0.39c0.46,1.66,0.69,2.49,1.15,4.16
			c0.23-0.5,0.45-0.88,0.68-1.12c0.38-0.42,0.92-0.72,1.6-0.92c1.23-0.36,2.19-0.2,2.88,0.49c0.37,0.38,0.68,0.96,0.92,1.75
			c0.63,2.07,0.94,3.1,1.57,5.17c-0.61,0.19-0.91,0.28-1.52,0.46c-0.6-2.04-0.91-3.06-1.51-5.09c-0.18-0.59-0.38-1.01-0.63-1.23
			c-0.39-0.37-0.95-0.44-1.67-0.24c-0.6,0.17-1.08,0.52-1.46,1.04c-0.38,0.53-0.42,1.33-0.12,2.41c0.48,1.72,0.71,2.59,1.19,4.31
			c-0.6,0.16-0.89,0.25-1.49,0.41C186.79,121.04,186.18,118.8,184.98,114.32z"/>
		<path fill="#1D1D1B" d="M200.13,109.69c0.94,2.7,1.41,4.05,2.35,6.75c0.28,0.79,0.67,1.4,1.17,1.81c0.76,0.62,1.71,0.73,2.84,0.32
			c1.36-0.49,2.13-1.27,2.29-2.3c0.09-0.56-0.02-1.23-0.32-2.01c-1.02-2.67-1.52-4.01-2.54-6.68c0.62-0.24,0.93-0.36,1.55-0.6
			c0.94,2.42,1.41,3.63,2.35,6.05c0.52,1.33,0.72,2.42,0.6,3.29c-0.21,1.58-1.33,2.76-3.35,3.49c-2.02,0.73-3.62,0.55-4.79-0.53
			c-0.64-0.59-1.19-1.56-1.65-2.91c-0.84-2.46-1.25-3.69-2.09-6.15C199.2,110.01,199.51,109.91,200.13,109.69z"/>
		<path fill="#1D1D1B" d="M210.79,109.04c0.53-0.21,0.79-0.32,1.32-0.54c0.18,0.44,0.27,0.66,0.45,1.11
			c0.21-0.62,0.49-1.12,0.84-1.5c0.35-0.38,0.8-0.68,1.33-0.91c1.17-0.5,2.12-0.46,2.87,0.13c0.41,0.32,0.78,0.87,1.13,1.65
			c0.87,1.98,1.31,2.97,2.18,4.95c-0.58,0.26-0.87,0.38-1.46,0.63c-0.84-1.95-1.26-2.93-2.1-4.88c-0.2-0.47-0.44-0.82-0.72-1.05
			c-0.46-0.38-1.01-0.42-1.66-0.15c-0.33,0.14-0.59,0.28-0.77,0.44c-0.34,0.27-0.59,0.62-0.75,1.06c-0.13,0.35-0.17,0.68-0.13,0.98
			c0.04,0.3,0.17,0.71,0.38,1.22c0.67,1.63,1,2.45,1.67,4.09c-0.58,0.24-0.87,0.35-1.45,0.59
			C212.68,113.74,212.05,112.17,210.79,109.04z"/>
		<path fill="#1D1D1B" d="M218.24,102.47c0.55-0.25,0.83-0.37,1.38-0.63c0.27,0.58,0.4,0.88,0.67,1.46
			c-0.55,0.25-0.83,0.38-1.39,0.63C218.63,103.35,218.5,103.05,218.24,102.47z M219.54,105.36c0.56-0.25,0.84-0.38,1.4-0.64
			c1.4,3.05,2.1,4.57,3.5,7.62c-0.58,0.27-0.87,0.4-1.45,0.66C221.61,109.95,220.92,108.42,219.54,105.36z"/>
		<path fill="#1D1D1B" d="M222.23,101.48c0.55-0.26,0.82-0.39,1.37-0.65c0.41,0.85,0.61,1.27,1.02,2.12
			c0.52-0.25,0.78-0.38,1.29-0.63c0.2,0.42,0.31,0.62,0.51,1.04c-0.52,0.25-0.78,0.38-1.3,0.63c0.96,1.98,1.43,2.97,2.39,4.96
			c0.13,0.26,0.31,0.39,0.55,0.39c0.13,0,0.33-0.06,0.58-0.19c0.07-0.03,0.14-0.07,0.22-0.11c0.08-0.04,0.17-0.09,0.26-0.15
			c0.2,0.4,0.3,0.6,0.49,1c-0.14,0.12-0.3,0.23-0.46,0.34c-0.17,0.1-0.35,0.21-0.56,0.3c-0.66,0.32-1.18,0.38-1.56,0.19
			c-0.38-0.19-0.69-0.53-0.92-1.02c-0.96-2.02-1.43-3.03-2.39-5.04c-0.44,0.21-0.66,0.31-1.11,0.52c-0.2-0.42-0.29-0.63-0.49-1.05
			c0.44-0.21,0.66-0.31,1.1-0.52C222.83,102.76,222.63,102.33,222.23,101.48z"/>
	</g>
</g>
</svg>
