<svg id="Layer_1" data-name="Layer 1" xmlns="http://www.w3.org/2000/svg" viewBox="0 0 726.11 873.15"><path d="M801.87,832.38c-5.29,3.45-9.23,4.88-11.47,7.68-7.63,9.52-17.54,10.94-29,12.28-7.48.87-14.15,8.66-21.56,13.61-8.07-16,1.25-31.86,6.34-46.15-9.07-.81-18.71-3-28-2-5.78.61-11,6.05-16.32,9.19-4.91-12.74-3.2-18.25,7-29.16,5.84-6.22,10-14.06,16.52-23.62l-27.18-2.82c0-1.06-.63-3,.1-4.13C706,755.93,741.49,744.74,755,747.6c27.22,5.79,54.6,13.29,81.31-3.36,8-5,18.1-6.65,26.79-10.76,4.91-2.33,10.53-5.68,12.93-10.13,2.92-5.44,2.78-12.51,4-18.88-5.51,1.53-11.09,2.83-16.49,4.65-4.81,1.63-9.42,3.83-14.61,6l8.34-26.82c-8.94-2.72-16.86-4.4-24-7.7-2.51-1.16-3.19-6.29-5.37-11C845,676,845,676,861.12,652.69l-22.64-8.63c7.68-3.74,14.85-5.28,19.07-9.67,9.61-10,20.82-12.45,33.62-10.76,12.17,1.61,24.23,4.39,36.44,5.24,7.45.52,15.08-1.62,22.63-2.57.29-2.26.59-4.52.88-6.78-12.29-4.43-24.79-8.35-36.76-13.5a47.89,47.89,0,0,1-16.2-11.44c-4.51-5-7.12-11.71-12.14-20.4-1,9.1-1.61,15.12-2.44,22.84-6.44-8.55-11.49-15.24-16-21.17L846,595.65l-4.27-1.57c12-17.41,3.85-31.41-6-45.75-3.38,3.85-6.94,7.9-11.58,13.2-.79-9.79-1.45-18.09-2.12-26.39-1.91,19-8.85,33.87-27.69,41.83C798,544,798,543.9,781.8,538.52c-1,8.81-2,17.91-3.34,30-14.84-22-34.4-26.94-65.88-19.47L720,563l-37.77,3.5c.56,14-9.18,27.87,6.38,39.11-18.24-4.06-34.21-11.18-47.46-26-3.25,15.79-30.32,11.2-24.58,34.46l-5.44-.49c-4.37-15.85-8.73-31.71-13.36-48.53-9,1.31-24.2-5.29-30.43,13.25-8.91-16.13,2-47.44,19.12-58.3-3.93-14.77-15-16.64-31.45-14,4.84-5.88,7-11.08,10.48-12.3,21.14-7.34,42.59-14.5,64-.43,2.93,1.93,5.91,5.27,8.92,5.34,26.3.59,53.72,5.22,76.83-11.82,10.94-8.06,21.06-15.89,34.55-20.06,15.39-4.75,28.11-14.3,29.31-33.25l-19.42,7.65c2.72-8.46,6.55-14.9,6.26-21.14-.25-5.32-5.25-10.41-8.14-15.61l-4,1L746.92,422l-8.68-13.52-3,.23c1.19,9.22,2.39,18.44,4.17,32.24l-28.8-27.56c-.87,12.57-1.57,22.78-2.23,32.35-7.08-3.43-7.08-3.43-19-38.25l-25.27-3.59c-.59-1.42-1.17-2.85-1.75-4.27,15.34-4,28.83-9.54,26.2-28.86l-20.77,11.43c2.18-12.37,10.78-23,2.75-32.22l-25.5,4.92c2.64-10.74,6.2-19.41,6.58-28.21.49-11.6-8.8-15.69-18.49-19-12.76-4.42-19.5-14.35-21.44-26.39l-27.18-9.81c-3,2.56-6.92,5.88-11,9.33-1.7-12.45,9.33-32.21,22.8-42.21-4.25-5.43-7.64-12.06-13-16s-12.58-5-18.91-7.25c5.29-8.95,22.51-13.69,47.78-12.73,4.86-10.93,3.36-20.09-11.06-27.41,23.79-6.85,36,8.07,50.68,16.7,13.79-4.26,8.06-13.62,3.35-23.74,12.36,2.33,22.46,3.69,22.49,18.35,0,3.57,2.58,7.3,4.49,10.66,5.67,10,5.22,18.69-2.9,27.54a20.21,20.21,0,0,0-4.75,13.77c1.91,22.6,12.47,39,33.83,49.31,13,6.3,24,16.74,36.09,25.1,3.46,2.4,7.27,5.21,11.22,5.81a206.92,206.92,0,0,0,30.14,2.33c3,0,6.54-3.09,8.75-5.69.73-.86-1.91-4.6-3.24-7.54,3.42-4.1,7.53-9.25,11.9-14.16,2-2.24,4.21-5.09,6.83-5.8,9.8-2.66,20-3.92,29.67-6.91,8.5-2.63,16.5-6.87,26.8-11.28-16.23-11-17.3-10.55-26.7,9,0-11.58-.29-20,.08-28.32s1.42-16.43,2.21-25.11c15.18,16.28,19.56,17.35,34.22,8.84-16.25-16.22-42.53-17.71-63.56-3.69-5.82,3.88-11.47,8.27-17.78,11.16-26.43,12.12-46-2.53-43.73-30.62,5.58,5.4,11,14.53,18.51,16.86,8.13,2.52,18.23-1.31,29.59-2.62-5.64-6.68-9.24-10.46-12.26-14.66a27.69,27.69,0,0,1-5.35-13.83c5.66,3.62,10.92,8.42,17.1,10.54,7.62,2.62,16.56,5.52,24,3.9,22-4.83,40.64.92,57.84,14.63,4-14.26-1.1-25.65-12.64-29-8-2.31-16.26-3.7-17.52,7.38-24.5-4.5-18.14-27.57-25.05-42.85-.62-1.38,5.22-7.56,8.9-8.61,7.07-2,14.71-2.46,22.15-2.71,11.48-.39,22-.28,30.38-11.47,3.22-4.3,13.73-3.91,21-4.25,20.77-1,41.38-1.7,55-21.1.9-1.28,2.8-1.85,4.49-2.91,1.64,1.27,4,2.17,4.16,3.35,1.85,14.59,13.73,18.44,24,25.5,9.05,6.23,15.37,17.26,21.17,27.18,7.15,12.23,12.31,25.73,34.12,25.19l-16.55,10.35,20.37,36-18.12,2.49L1052.67,258c-7.08,14.06-6,30.09-.42,33.66l-7.39,62.43c-14.26,4.19-30.1,34.13-25.68,58.15l-23.67-20.83c.73,11.36,1.35,20.91,2,31.39l-10.76,1.94c-2.93,21.09-1.44,25.45,13.26,38.45l-6.53,5.38c12.61,15.25,12.45,21.55,46.31,11.33l-19.33,23.38c.69,36.93,28.37,56.74,55.85,76,7.92,5.57,18.39,7.57,27.79,10.94,7.81,2.81,16.62,3.86,23.44,8.15,10.85,6.82,21.12,7.32,32.23,2.12,1.24,11.43,2.45,22.58,3.75,34.61l-9.26-4.3c2.19,21,14.26,30.89,34.77,28.74,28-2.94,46.69-26,49.65-59.09,3.53-39.63-15.94-70-38.3-99.34-1.31-1.73-4.5-3.26-6.58-3-13.42,1.7-21.6-5.9-28.26-15.7-14.54-21.41-33-37.14-59.13-43.6h37.92c-5.61-7.3-10.65-13.77-15.6-20.3-18-23.67-28.94-49.9-30.46-79.93a27.08,27.08,0,0,0-5.46-14.17c-9.27-12.06-11.3-25.44-9.23-39.88,2.43-17,1.53-18.48-14.86-22.53,11-13.41,23.77-12.43,34.55.57,14.14-2.44,26.85-6.4,39.57-6.45,24.09-.1,28.75-4,26.75-28.24,15.07,6.17,16.27,11.37,8.83,39.7,15.91,8.3,30.1,6.11,43.75-8.8-.26,4.57.56,7.92-.68,9.1-12.68,12.05-8.11,26.67-6.74,40.9a16.72,16.72,0,0,1-2.43,10.32c-1.71-3.7-3.54-7.34-5.12-11.09-6.22-14.69-17.76-21.62-33.18-20.9-4.46.21-9.23,4.16-12.93,7.44-4.17,3.7-6.53,9.71-11,12.73-11.42,7.68-24.92,12.63-26.22,29.69-.37,4.79-4.95,9.25-7.6,13.87l-6.06-1.79q13.27,27.78,26.57,55.56l3.92-1.33c-4.34-18.49-3.61-35.58,11.1-48.42.9,9.85,1.79,19.6,2.82,30.78l15.28-10.6c0,9.9-.47,19.6.13,29.24s1.43,19.25,3.72,28.5c1.71,7,4.53,14.53,9.21,19.71,17.93,19.85,36.81,38.84,56.07,58.91l6.87-7.58c4.2,12.62,8.34,25.06,12.57,37.79l19.78-11.49c1,.71,1.92,1.42,2.89,2.12-10.52,9.27-7.36,19.9-6.09,31.06,2,17.41,2.53,35-8.69,50.7-3.08,4.31-2.89,10.89-4.48,16.35-12.74,43.84-54.49,68.53-99.35,58.79-4.68-1-9.35-2.09-14.44-3.23-8,16.1-2.84,30.22,5,43.85,5.52,9.61,18.17,15.32,22.46,10,6.84-8.43,1.27-15.32-5.46-21.3l1.5-3.84,25,7.8c19.63-12.69,32.58-12.4,43.06,1.51l-21.25,12.39,17.47,19.51-23.15,4c0,1.37.07,2.75.11,4.12l17.92,4.17-18.86,21.58c4.93,7.81,9.21,14.57,13.48,21.34-17.55-6.12-29.47-.1-48.24,24.9l8.82,5.45a16.28,16.28,0,0,1-1.7,2.94c-13.26,13-27,25.59-39.47,39.31-2.65,2.92-1.14,10-.83,15.15,1.21,20-5.15,27.67-24.77,31.64a62.2,62.2,0,0,0-20.16,8.48c-13.5,8.45-25.46,20.21-39.9,26-10.74,4.31-22.32,5-27.25,18.46-9.18-18.58-5.48-44.17,6.53-58.15-4.66,1.87-9.42,3.53-14,5.65-7.71,3.6-15,6.87-23.53,1.17-2.12-1.42-7.46-.16-10,1.68-3.39,2.45-5.49,6.68-9.06,11.35-9.68-25.5,11.45-36.88,17.54-55.56-4.88-11.19-16.31-6.74-26.47-8.34,23.22-20.51,48.63-28.46,78.84-9.69l.72-4.21-11.33-11.88h51c5.3-16.78,12-33.94,16-51.7,4-17.55-5.73-27.54-30.71-33.41l8.29,18.57-20-6.11L1047,812.23l-5.11-1c12.47-17.15,2.45-30.62-4.21-44.72l-20.61,15.14-2.79-2.5c13.09-12.08,12.08-27,10.88-42.52-1.1-14.31-.23-28.78-.23-44.73a71.31,71.31,0,0,0-48.33,17c-4.48,3.75-6.8,12.63-6.36,18.9.37,5,6.38,9.7,9.89,14.53,4.39-4.59,9-9,13-13.89,1-1.24.43-3.86.6-6.3,15.46,10,15.4,21.52,1.49,39.89l13.09-6.65c-.11,13.6-6,18.65-27.25,22.91.82,8.37,1.65,16.8,2.53,25.7L948.24,781.5v31.64l-24.63-26.32c1.95,13.07,3.3,22.09,5,33.48-8.29-6.3-13.58-11.53-19.88-14.88-18.13-9.64-38.66-4.83-51.61,11.06-9.35,11.48-18.18,22.8-32.48,29.91C817,850.22,813.2,862,805.9,872.71,804.47,858.4,803.28,846.45,801.87,832.38Z" transform="translate(-555.03 -110.3)"/></svg>