<?xml version="1.0" encoding="utf-8"?>
<!-- Generator: Adobe Illustrator 26.0.2, SVG Export Plug-In . SVG Version: 6.00 Build 0)  -->
<svg version="1.1" id="Layer_1" xmlns="http://www.w3.org/2000/svg" xmlns:xlink="http://www.w3.org/1999/xlink" x="0px" y="0px"
	 viewBox="0 0 80 53" style="enable-background:new 0 0 80 53;" xml:space="preserve">
<path d="M25.8,43.9c0.2,0.1,0.4,0.3,0.6,0.5c0.4,0.5,0.9,0.8,1.5,0.7c0.4,0,0.7,0.5,1.1,0.8c0.4-1-0.1-1.9-0.3-2.8
	c0.5-0.1,1-0.1,1.5-0.1c0.3,0,0.6,0.4,0.9,0.6c0.3-0.8,0.2-1.1-0.4-1.8c-0.3-0.5-0.6-0.9-0.9-1.4l1.4-0.2c0-0.1,0-0.2,0-0.3
	c-0.8-0.8-1.9-1.2-3-1.2c-1.4,0.4-2.9,0.8-4.3-0.2c-0.5-0.2-0.9-0.5-1.4-0.6c-0.3-0.1-0.5-0.3-0.7-0.6c-0.1-0.4-0.2-0.8-0.2-1.1
	l0.9,0.3c0.3,0.1,0.5,0.2,0.8,0.4l-0.4-1.6c0.4-0.1,0.9-0.3,1.3-0.5c0.1-0.1,0.2-0.4,0.3-0.7c-0.9,0.4-0.9,0.4-1.8-1l1.2-0.5
	c-0.4-0.1-0.7-0.3-1-0.6c-0.4-0.6-1.1-0.8-1.8-0.6c-0.6,0.1-1.3,0.3-1.9,0.3c-0.4,0-0.8-0.1-1.2-0.2v-0.4c0.6-0.3,1.3-0.5,1.9-0.8
	c0.3-0.2,0.6-0.4,0.8-0.7c0.2-0.4,0.5-0.8,0.6-1.3l0.1,1.4l0.8-1.3l1.1,1.2l0.2-0.1c-0.6-1.1-0.2-1.9,0.3-2.8l0.6,0.8l0.1-1.6
	c0,1.1,0.6,2.1,1.5,2.5c-0.2-2-0.2-2,0.7-2.3l0.2,1.8c0.8-1.3,1.8-1.6,3.5-1.2L30,27.5l2,0.2c0,0.9,0.5,1.7-0.3,2.4
	c1-0.2,1.8-0.8,2.5-1.6c0.2,1,1.6,0.7,1.3,2.1h0.3l0.8-3c0.5,0.1,1.3-0.3,1.6,0.8c0.4-1.3,0-2.7-1-3.5c0.2-0.9,0.8-1,1.6-0.8
	c-0.3-0.4-0.4-0.7-0.5-0.7c-1.1-0.4-2.2-0.9-3.4,0c-0.2,0.1-0.3,0.3-0.5,0.3c-1.4,0-2.8,0.3-4-0.7c-0.5-0.5-1.1-1-1.8-1.3
	c-0.8-0.2-1.5-1-1.5-2l1,0.5c-0.2-0.4-0.3-0.8-0.3-1.3c0-0.3,0.3-0.6,0.4-0.9h0.2l0.4,1l0.5-0.8h0.2l-0.2,2l1.5-1.7l0.1,2
	c0.4-0.2,0.4-0.2,1-2.3l1.3-0.2l0.1-0.3c-0.8-0.2-1.5-0.6-1.4-1.8l1.1,0.7c-0.1-0.7-0.6-1.4-0.1-2l1.3,0.3c-0.2-0.6-0.3-1.1-0.3-1.7
	c0-0.7,0.5-1,1-1.2c0.6-0.2,1-0.9,1.1-1.6l1.4-0.6l0.6,0.6c0-1-0.5-2-1.2-2.5c0.2-0.4,0.4-0.7,0.7-1c0.3-0.2,0.6-0.3,1-0.4
	c-0.3-0.5-1.2-0.8-2.5-0.8c-0.3-0.7-0.2-1.3,0.6-1.7c-1.2-0.4-1.9,0.5-2.7,1c-0.7-0.3-0.4-0.8-0.2-1.4c-0.6,0.1-1.2,0.2-1.2,1.1
	c0,0.2-0.1,0.5-0.2,0.6c-0.3,0.5-0.3,1.2,0.2,1.7c0.2,0.2,0.3,0.5,0.3,0.8c0,1.3-0.7,2.5-1.8,3c-0.7,0.5-1.3,1-1.9,1.5
	c-0.2,0.2-0.4,0.3-0.6,0.4c-0.5,0.1-1.1,0.1-1.6,0.1c-0.2,0-0.4-0.2-0.5-0.3c0,0,0.1-0.3,0.2-0.5c-0.2-0.3-0.4-0.6-0.6-0.9
	c-0.1-0.2-0.2-0.3-0.4-0.4c-0.5-0.2-1.1-0.2-1.6-0.4c-0.5-0.2-0.9-0.4-1.4-0.7c0.8-0.7,0.9-0.6,1.4,0.5c0-0.7,0-1.2,0-1.7
	c0-0.5-0.1-1-0.1-1.5c-0.8,1-1,1.1-1.8,0.5c0.9-1,2.3-1.1,3.3-0.2c0.3,0.3,0.6,0.5,0.9,0.7c1.4,0.7,2.4-0.2,2.3-1.9
	c-0.3,0.3-0.6,0.9-1,1c-0.5,0.1-1,0-1.5-0.2c0.2-0.3,0.4-0.6,0.6-0.9c0.2-0.2,0.3-0.5,0.3-0.8c-0.3,0.3-0.6,0.5-0.9,0.6
	c-0.4,0.2-0.8,0.3-1.3,0.2c-1.1-0.3-2.2,0-3,0.9c-0.2-0.6,0-1.4,0.6-1.7c0,0,0,0,0.1,0c0.4-0.1,0.9-0.2,0.9,0.4
	c1.3-0.3,1-1.7,1.3-2.6c0-0.1-0.3-0.5-0.5-0.5c-0.4-0.1-0.8-0.2-1.2-0.2c-0.6,0.1-1.2-0.2-1.6-0.7c-0.2-0.3-0.7-0.2-1.1-0.3
	c-1.1,0-2.2-0.1-2.9-1.3c0-0.1-0.2-0.1-0.2-0.2s-0.2,0.1-0.2,0.2c-0.1,0.9-0.7,1.1-1.3,1.6c-0.5,0.5-0.8,1-1.1,1.7
	c-0.4,0.7-0.6,1.6-1.8,1.5l0.9,0.6l-1.1,2.2l1,0.2L12.6,9c0.4,0.9,0.3,1.8,0,2l0.4,3.8c1,0.8,1.6,2.1,1.3,3.5l1.2-1.3l-0.1,1.9
	l0.6,0.1c0.2,1.3,0.1,1.6-0.7,2.3l0.3,0.3c-0.7,0.9-0.6,1.3-2.4,0.7l1,1.4c0,2.2-1.5,3.4-2.9,4.6c-0.5,0.3-1,0.5-1.5,0.7
	c-0.4,0.1-0.8,0.3-1.2,0.5c-0.5,0.4-1.2,0.5-1.7,0.1L6.8,32l0.5-0.3c0,1-0.7,1.7-1.5,1.7c-0.1,0-0.2,0-0.3,0
	c-1.5-0.3-2.6-1.8-2.6-3.6c-0.2-2.4,0.8-4.3,2-6c0.1-0.1,0.2-0.2,0.3-0.2c0.6,0.1,1.2-0.3,1.5-1c0.7-1.3,1.8-2.3,3.1-2.6h-2l0.8-1.3
	c0.9-1.4,1.5-3.1,1.6-4.8c0-0.3,0.1-0.6,0.3-0.9c0.5-0.7,0.6-1.6,0.5-2.4c-0.1-1-0.1-1.1,0.8-1.4c-0.3-0.6-1-0.7-1.5-0.3
	C10.1,9,10,9.1,9.9,9.2C9.2,9,8.6,8.9,7.9,8.8c-1.3,0-1.5-0.2-1.4-1.7C5.7,7.5,5.6,7.8,6,9.5C5.2,10.1,4.2,9.8,3.7,9
	c0,0.3,0,0.5,0,0.6c0.7,0.7,0.4,1.6,0.4,2.5c0,0.2,0,0.4,0.1,0.6c0.1-0.2,0.2-0.5,0.3-0.7c0.3-0.8,1-1.4,1.7-1.3
	c0.3,0.1,0.5,0.2,0.7,0.4c0.2,0.2,0.3,0.6,0.6,0.8c0.6,0.5,1.3,0.8,1.4,1.8c0,0.3,0.3,0.6,0.4,0.8l0.3-0.1l-1.4,3.4L8,17.8
	c0.3-1,0.1-2.2-0.6-2.9l-0.1,1.9l-0.8-0.6c0,0.6,0,1.2,0,1.8c0,0.6-0.1,1.2-0.2,1.7C6.2,20,6,20.4,5.8,20.8
	c-0.9,1.2-1.9,2.4-2.9,3.6l-0.3-0.5l-0.7,2.3l-1-0.7l-0.2,0.1c0.5,0.6,0.4,1.2,0.3,1.9c-0.2,1.1-0.1,2.2,0.4,3.1
	c0.1,0.3,0.2,0.7,0.2,1c0.6,2.6,3,4.2,5.3,3.6L7.7,35c0.4,0.9,0.3,1.9-0.3,2.7c-0.3,0.6-1,0.9-1.2,0.6C6,37.9,6.2,37.3,6.5,37
	l-0.1-0.2l-1.3,0.5c-1-0.8-1.7-0.7-2.3,0.1l1.1,0.7L3,39.3l1.2,0.2v0.2L3.3,40l1,1.3l-0.7,1.3c0.9-0.4,1.5,0,2.5,1.5l-0.5,0.3
	c0,0.1,0.1,0.2,0.1,0.2c0.7,0.8,1.4,1.6,2.1,2.4c0.1,0.2,0.1,0.6,0,0.9c-0.1,1.2,0.3,1.7,1.3,1.9c0.4,0.1,0.8,0.3,1.1,0.5
	c0.7,0.6,1.4,1.1,2.1,1.6c0.6,0.3,1.2,0.3,1.4,1.1c0.5-1.2,0.3-2.5-0.4-3.5c0.3,0.1,0.5,0.2,0.7,0.3c0.4,0.3,0.9,0.4,1.2,0.1
	c0.2-0.1,0.4,0,0.5,0.1c0.2,0.2,0.3,0.4,0.5,0.7c0.5-1.6-0.6-2.2-0.9-3.4c0.3-0.7,0.9-0.4,1.4-0.5c-1.1-1.4-2.8-1.6-4.1-0.6v-0.3
	l0.6-0.7h-2.8c-0.3-1-0.6-2.1-0.8-3.1s0.3-1.7,1.6-2l-0.4,1.1l1.1-0.4l1,1.8l0.3-0.1c-0.7-1-0.1-1.9,0.2-2.7l1.1,0.9l0.1-0.2
	c-0.5-0.7-0.8-1.6-0.6-2.5c0.1-0.9,0-1.8,0-2.7c0.9,0,1.8,0.3,2.5,1c0.2,0.3,0.4,0.7,0.3,1.2c0,0.3-0.3,0.6-0.5,0.9
	c-0.2-0.3-0.5-0.5-0.7-0.8c-0.1-0.1,0-0.2,0-0.4c-0.8,0.6-0.8,1.3-0.1,2.4L15,39.2c0,0.8,0.3,1.1,1.4,1.4l-0.1,1.6l1.9-1.4v1.9
	l1.3-1.6l-0.3,2c0.3-0.3,0.7-0.6,1-0.9c0.9-0.6,2.1-0.3,2.7,0.7c0.4,0.7,1,1.4,1.7,1.8c0.4,0.2,0.6,0.9,1,1.6L25.8,43.9z"/>
<path d="M40.2,2.4L79,27.2c0.3,0.3,0.3,0.9,0,1.2L41.6,51.9c-0.3,0.4-0.8,0.4-1.2,0.2c-0.2-0.2-0.4-0.5-0.3-0.8v-3.6
	c0-0.2,0.1-0.4,0.2-0.6l32.8-18.8c0.3-0.3,0.3-0.9,0-1.2L39,7c-0.2-0.2-0.2-0.4-0.2-0.6V3c0-0.5,0.4-0.9,0.9-0.8
	C39.9,2.1,40.1,2.2,40.2,2.4z"/>
<rect x="49.4" y="27" width="27.9" height="2"/>
<path d="M49.5,28.9c9.2-1.4,18.5-2.3,27.8-2.6L74.6,29v-2l2.7,2.7l-7-0.1c-7-0.2-13.9-0.9-20.8-2L50,27c-0.1,0.5-0.3,1.1-0.5,1.9
	L49.5,28.9z M49.3,29.1c0-0.7,0-1.5,0-2.3h0.2l27.9-0.1h0.3c0,0.4,0,2.2,0,2.6h-0.3l-28-0.2H49.3z"/>
</svg>
