<?xml version="1.0" encoding="utf-8"?>
<!-- Generator: Adobe Illustrator 26.0.2, SVG Export Plug-In . SVG Version: 6.00 Build 0)  -->
<svg version="1.1" id="Layer_1" xmlns="http://www.w3.org/2000/svg" xmlns:xlink="http://www.w3.org/1999/xlink" x="0px" y="0px"
	 viewBox="0 0 80 53" style="enable-background:new 0 0 80 53;" xml:space="preserve">
<path d="M41.9,2.1c0.5,0,0.9,0.4,0.9,0.8v3.4c0,0.2-0.1,0.4-0.2,0.6L8.4,27.1C8,27.5,8,28,8.4,28.3l32.8,18.8
	c0.2,0.2,0.2,0.4,0.2,0.6v3.6c0,0.3-0.1,0.6-0.3,0.8c-0.4,0.3-0.9,0.2-1.2-0.2L2.5,28.4c-0.3-0.3-0.3-0.9,0-1.2L41.3,2.4
	C41.4,2.2,41.6,2.1,41.9,2.1z"/>
<rect x="4.2" y="27" width="27.9" height="2"/>
<path d="M31.9,28.9c-0.1-0.7-0.3-1.4-0.5-1.9l0.6,0.6c-6.9,1.1-13.9,1.8-20.8,2l-7,0.1L6.9,27v2l-2.7-2.7c9.3,0.3,18.6,1.1,27.8,2.6
	L31.9,28.9z M32.1,29.1l-28,0.2H3.8c0-0.4,0-2.2,0-2.6h0.3L32,26.8h0.2c0,0.8,0,1.5,0,2.3H32.1z"/>
<path d="M79.3,36.9c0,0.2-0.1,0.3-0.2,0.5c-0.3,0.6-1,1-1.7,0.7c-0.4-0.1-0.7-0.2-1.1-0.4c-0.2-0.1-0.5-0.2-0.7-0.3
	c-0.5-0.2-1-0.4-1.5-0.8c-2.5-1.7-5-3.3-7.5-5c-1.3-0.8-2.7-1.6-4.1-2.4c-2.3-1.3-4.5-2.9-6.4-4.7l-0.1-0.1
	c-0.2,0.1-0.3,0.3-0.3,0.5c-0.1,0.3-0.2,0.6-0.3,0.9c-0.2,0.6-0.4,1.1-0.6,1.6c-0.4,1.1-0.9,2.1-1.5,3l-0.7,1.1
	c-0.4,0.6-0.8,1-1.3,1.5c-1,0.9-2.1,1.9-3.1,2.8c-0.4,0.4-0.9,0.7-1.2,1c-0.4,0.3-0.7,0.6-1.1,1c-0.5,0.5-1.1,1.1-1.7,1.6
	c-1.2,1-2.4,2.1-3.5,3.1c0,0-0.1,0.1-0.1,0.1c-0.3,0.1-0.6,0.3-0.9,0.5l-0.3,0.3c-0.3,0.3-0.6,0.5-1,0.6h-0.1c0,0,0-0.1,0-0.1
	c-0.1-0.1-0.1-0.2,0-0.3c0.1-0.1,0.1-0.1,0.2-0.2l1.3-1.3c2.3-2.3,4.5-4.8,6.6-7.3c1.1-1.3,2.1-2.7,3.1-4.2c1.6-2.5,2.7-5.2,3.5-8
	c0.1-0.3,0.1-0.5,0.2-0.8l-0.4,0.1c-1.1,0.4-2.2,0.9-3.3,1.3c-0.9,0.3-1.8,0.7-2.7,1c-1.3,0.5-2.6,1.1-3.9,1.9l-2,1.2
	c-0.1,0.1-0.2,0.1-0.4,0.2c-0.5,0.1-0.9,0-1.3-0.3c-0.5-0.4-0.9-0.9-1.2-1.4v-0.3c0.1-0.3,0.3-0.5,0.6-0.6c1.7-1,3.4-2,5.2-2.8
	c0.8-0.4,1.6-0.7,2.4-1c0.5-0.2,1-0.3,1.5-0.5c0.1,0,0.3-0.1,0.4-0.2c0.2-0.1,0.3-0.4,0.2-0.6c-0.1-0.1-0.2-0.3-0.2-0.4
	c-0.5-1-1.1-2.1-1.7-3.1c-0.2-0.3-0.4-0.7-0.6-1c-0.1-0.2-0.3-0.3-0.5-0.4c-0.4-0.1-0.8-0.3-1.2-0.4c-0.3-0.1-0.6-0.3-0.9-0.5
	c-0.1-0.1-0.1-0.1-0.2-0.2c-0.1-0.3,0-0.6,0.3-0.7c0.3-0.1,0.5-0.2,0.8-0.2c0.5,0,1.1,0,1.6,0.1c0.8,0.2,1.7,0,2.4-0.5
	c0.6-0.5,1.4-1,2.1-1.3c0.6-0.3,1.3-0.6,1.9-1c0.5-0.3,1-0.5,1.6-0.7c0.4-0.1,0.7-0.5,0.7-0.9c0-0.4,0-0.8,0-1.2c0-0.6,0-1.3,0-1.9
	c0-0.3-0.1-0.6-0.1-1C54,4.4,53.9,4.2,53.8,4c-0.1-0.2-0.2-0.4-0.3-0.6c-0.3-0.7,0.2-0.9,0.6-0.9c0.6,0,1.1,0.3,1.5,0.6
	c0.6,0.4,1.1,1.1,1.3,1.8c0.1,0.3,0.1,0.7,0.2,1c0.1,0.4,0.1,0.8,0.1,1.2c0,0.1,0.1,0.3,0.2,0.4l0.2-0.1c0.7-0.3,1.4-0.7,2.1-1
	c0.7-0.3,1.4-0.5,2.1-0.7c0,0,0,0,0,0c1.3-0.2,2.5,0.6,2.7,1.9c0.1,0.8,0.2,1.7,0.1,2.5c-0.1,0.7-0.2,1.4-0.3,2.1
	c-0.1,0.5-0.1,1.2-0.2,1.6S64,14.6,64,15c0,0.3,0,0.5,0,0.8c0,0.3,0.2,0.3,0.4,0.3c1.3-0.1,2.7-0.3,3.9-0.3c1.2-0.1,2.4-0.1,3.5-0.1
	c0.1,0,0.1,0,0.2,0c0.8,0.4,1.6,1,2.1,1.7c0.3,0.3,0.3,0.7,0.1,1.1c-0.1,0.3-0.5,0.6-0.9,0.5c-0.1,0-0.2,0-0.3-0.1
	c-0.4-0.2-0.8-0.3-1.2-0.3c-0.7,0-1.5,0.1-2.2,0.1c-0.5,0-1.1,0.1-1.6,0.1c-0.8,0.1-1.6,0.2-2.4,0.3c-1.8,0.3-3.5,0.6-5.3,0.9
	c-0.9,0.2-1.8,0.3-2.6,0.5c-0.4,0.1-0.8,0.2-1.2,0.4c-0.1,0-0.1,0.1-0.1,0.1c-0.1,0.6-0.2,1.1-0.3,1.7c0,0,0,0.1,0,0.1
	c0,0.8-0.1,0.6,0.6,0.9c0.5,0.2,1,0.4,1.5,0.6c0.2,0.1,0.4,0.3,0.7,0.4c0.3,0.2,0.6,0.4,1,0.6c1.5,0.8,3,1.7,4.5,2.5
	c1,0.5,2,1.2,2.9,1.9c0.7,0.5,1.4,1,2.1,1.3c1.3,0.7,2.5,1.4,3.7,2.1c0.9,0.5,1.8,0.9,2.8,1.2c0.5,0.2,1.1,0.4,1.5,0.8
	c0.3,0.2,0.5,0.4,0.8,0.6c0.4,0.2,0.7,0.6,0.8,1.1V36.9z M61.9,16.4l-0.1-0.1c-0.6-0.5-0.9-1.4-0.7-2.2c0.1-0.5,0.2-1,0.3-1.6
	c0.1-1.1,0.2-2.2,0.4-3.4c0-0.5-0.2-0.7-0.7-0.4c-0.3,0.1-0.5,0.3-0.8,0.4l-1.5,0.7c-0.1,0.1-0.3,0.1-0.4,0.2
	c-0.5,0.3-0.9,0.8-0.8,1.4c0,1.8,0,3.7,0,5.5c0,0.3,0.1,0.4,0.4,0.4H58c0.4-0.1,0.7-0.2,1.1-0.2l1.5-0.2
	C61,16.8,61.5,16.6,61.9,16.4z M54.4,12.3c-0.2,0.1-0.3,0.1-0.5,0.1c-0.8,0.3-1.6,0.7-2.4,1.2c-0.8,0.5-1.5,1-2.3,1.5
	c-0.2,0.1-0.4,0.3-0.5,0.4c-0.1,0.1-0.1,0.3,0,0.4c0,0.1,0.1,0.1,0.1,0.2l1.5,2.9c0,0.1,0.1,0.1,0.2,0.1l1.4-0.3
	c0.4-0.1,0.8-0.2,1.2-0.4c0.4-0.2,0.7-0.6,0.7-1.1c0-0.3,0.1-0.6,0.1-0.9c0.2-1,0.4-2,0.4-3C54.4,13.1,54.4,12.7,54.4,12.3z"/>
</svg>
