<?xml version="1.0" encoding="utf-8"?>
<!-- Generator: Adobe Illustrator 26.0.2, SVG Export Plug-In . SVG Version: 6.00 Build 0)  -->
<svg version="1.1" id="Layer_1" xmlns="http://www.w3.org/2000/svg" xmlns:xlink="http://www.w3.org/1999/xlink" x="0px" y="0px"
	 viewBox="0 0 62.3 35" style="enable-background:new 0 0 62.3 35;" xml:space="preserve">
<path d="M35.9,35c-0.3,0-0.6-0.3-0.5-0.6v-2.2c0-0.2,0.1-0.3,0.2-0.4l22.7-13.4c0.2-0.2,0.2-0.6,0-0.8L36.5,5.2
	c-0.1-0.1-0.2-0.3-0.2-0.4V2.4c0-0.1,0.1-0.3,0.2-0.4c0.2-0.2,0.6-0.2,0.8,0l24.9,15.6c0.2,0.2,0.2,0.6,0,0.8L36.4,34.9
	C36.2,35,36.1,35,35.9,35z"/>
<rect x="42.4" y="17.1" width="18.5" height="1.3"/>
<path d="M42.5,17.2c0.1,0.5,0.2,0.9,0.3,1.2l-0.4-0.4c4.6-0.8,9.2-1.2,13.9-1.4l4.6-0.1l-1.8,1.8v-1.3L61,19
	C54.8,18.8,48.6,18.2,42.5,17.2L42.5,17.2z M42.4,17.1L61,17h0.2c0,0.3,0,1.4,0,1.7H61l-18.5-0.1h-0.1
	C42.4,18.1,42.4,17.6,42.4,17.1L42.4,17.1z"/>
<path d="M5.2,21.2c0-0.7,0-0.7-0.7-0.7H0.5c-0.2,0-0.3-0.1-0.5-0.2c0-0.2,0.1-0.3,0.2-0.5c6.1-6.5,12.2-13,18.2-19.4
	c0.4-0.4,0.4-0.4,0.8,0L23,4.2l14.5,15.5c0.1,0.2,0.2,0.3,0.2,0.5c-0.2,0.1-0.3,0.1-0.5,0.2h-4c-0.7,0-0.7,0-0.7,0.7v13.1
	c0,0.7,0,0.7-0.6,0.7h-9c-0.7,0-0.7,0-0.7-0.7c0-3.7,0-7.4,0-11.1c0-0.5-0.1-0.6-0.6-0.6c-1.8,0-3.6,0-5.4,0c-0.7,0-0.7,0-0.7,0.7
	c0,3.7,0,7.4,0,11.1c0,0.6,0,0.6-0.6,0.6c-3.1,0-6.1,0-9.2,0c-0.5,0-0.6-0.2-0.6-0.6c0-2.2,0-4.4,0-6.6L5.2,21.2z"/>
</svg>
