<svg id="Layer_1" data-name="Layer 1" xmlns="http://www.w3.org/2000/svg" viewBox="0 0 472 414"><defs><style>.cls-1{fill:#fff;}</style></defs><path class="cls-1" d="M486,457H14V43H486ZM113,433c-3.22,1-6.4,2.74-9.68,3-7.77.63-15.59.54-23.38.81a34.83,34.83,0,0,0-4.38.74l0,1.81c2.3.22,4.6.51,6.91.67,11.72.78,24-2.34,34.77,5.14.18.13.61-.09,1.4-.25V431.11l-5.75,1.94c.36-1.27,1.11-2.56,1-3.79-.6-6.77,1.29-12.8,4.86-18.45A4.53,4.53,0,0,0,119,409c-5.69-2.26-5.8-2.56-3.2-7.9,1.2-2.46,2.34-5,3.86-8.18H105.24c2.19,5.14,4,9.44,5.89,13.81l-4.28,1.89c1.44,7.76,2.69,14.8,4.12,21.81C111.17,431.4,112.3,432.15,113,433ZM102.23,300.9c-7-4.51-4.79-12.89-8.79-19.56L80.29,292.63c6.65,4.71,15.27,4.65,18.3,12.62-8,2.25-13.41-4.15-20.79-6.11v17.92c4-2,6.88-3.75,10-4.89a95.36,95.36,0,0,1,9.57-2.52c-3.87,8-12.21,5.83-18.85,9.74l11.36,13.24c4.58-6.79,4.79-15.23,12.91-18.52.43,6,.83,11.64,1.23,17.27l2.1,0c2.29-5,.1-10.71,1.55-16.39,4.3,4.65,8.29,9,12.27,13.24l2-1.73-12.3-16.13,20.59-1.18v-2.42c-5.62-2-11.79-.19-18.12-1.4L125.36,293l-1.7-2L108,303c-2.66-9.15,3.19-15.85,6-23.75H96.45C99,286.92,104.93,292.53,102.23,300.9ZM274.69,61.18c-3.45,1.66-5.58,3.08-7.93,3.74a134.9,134.9,0,0,1-13.36,3c-2.39.42-4.1-.43-4.33-3.42-.1-1.24-1.48-2.38-2.27-3.57C246.17,62.28,245,63.65,245,65c-.17,9-.29,18,0,27,.2,7.27.17,14.32-5.12,20.14-.36.38-.27,1.17-.45,2.07h15.78l-3-6.53c8.76-3,14.69,3.63,22.38,6.06V96.28c-4.19,2.12-7.25,4.36-10.65,5.21a37.91,37.91,0,0,1-13.59,1.06c-.8-.1-.84-6.57-1.14-10.11a7.76,7.76,0,0,1,.31-2.1c9.4-3,16.81,2.26,25.15,6.09ZM409.88,167.26c.95,1.91,1.31,3.24,2.12,4.18,3.38,3.92,4.08,8.44,4,13.48-.24,10.49-.15,21,0,31.5,0,1.45,1.35,2.88,2.08,4.33.69-1.47,2-2.92,2-4.4.17-11.16.35-22.34,0-33.49-.18-5.93,2.68-9.9,6.36-14,4.31,4.7,6.71,9.49,6.41,15.9-.48,10.31-.21,20.66,0,31,0,1.68,1.23,3.34,1.88,5,.78-1.74,2.19-3.47,2.22-5.22.2-11.5.18-23,.08-34.5-.05-5.14,2.76-8.51,6.06-11.86,5.45,5.79,6,7.16,6,14,0,11.16-.05,22.33.11,33.5,0,1.37,1.22,2.72,1.87,4.08.76-1.39,2.16-2.76,2.19-4.16.21-8.83.31-17.67.06-26.5-.22-7.44-.24-14.67,5.35-20.56.37-.39.36-1.17.67-2.26Zm-324-57.68c-9.9-4.35-14.11-11.25-15.8-20.24l14.31-1.17,0-2.09a23,23,0,0,0-4.3-1.1c-3-.21-6,.06-9-.26-1.47-.16-3.69-.85-4.12-1.89-2.18-5.31-6.84-10.28-3-16.76a5,5,0,0,0-.19-3,59.08,59.08,0,0,0-7.76.26c-.38,0-.67,1.3-.9,2a1.38,1.38,0,0,0,.28.94c2.82,4.33.58,8.18-.87,12.28-2.13,6-3.49,8.13-12.23,4.36-3.28-1.42-6.41-3.2-10.55-5.3V95.75l17.51-7.59c-1.18,10.54-6.58,16.41-15,21.18l15.36,6.33,1.23-.6c-3.48-8.35-1.06-15.74,2.46-23.1,1.67-3.51,4.54-3.24,7.17-2.81,1.94.31,4.53,1.49,5.33,3.06,3.29,6.35,6.42,12.91,3.7,20.44-.3.83,0,1.85,0,3.61Zm34.32,84.8-5.91-2.84c-1.23,6.35-6.25,3.88-9.93,4.05-1.65.07-3.35-1.1-5-1.7,1.45-.79,2.91-1.55,4.34-2.37.25-.14.39-.5,1-1.38-6.46-5.7-6-13.55-6-21.41,0-1.39-1.46-2.78-2.25-4.17-.64,1.5-1.88,3-1.8,4.49.43,7.51-.21,14.6-5.55,20.51-.34.37-.17,1.19-.28,2.16,5.51-.6,5.82,2.52,5.92,6.75.18,8.43.21,16.64-5.87,23.44-.12.14.1.6.22,1.2h16.11c-1.93-3.07-4.09-5.14-4.58-7.54a42.3,42.3,0,0,1-.84-14c.14-.93,6.17-1.05,9.48-1.52.33-.05.8-.13,1,0,1.13,1.08,3,2.13,3.15,3.36.61,5.33.54,10.65-3.54,15-1,1.12-1.65,2.67-2.85,4.71h17.49c-6-7.15-8.29-14.19-5.82-22.8l9.82,5.79V189.48ZM417.39,340.43l1,1.14c8-4.32,16.13-8.53,24-13.12,1.05-.62,1.75-3.54,1.24-4.85-1.75-4.48-4.22-8.67-6.22-13.06-5.31-11.66-6.1-22.93,3-33.37,2.36-2.73,4.37-5.75,6.55-8.64l-1.16-1.21c-7.86,4.26-15.81,8.37-23.49,12.93-1.14.68-1.91,3.84-1.34,5.23,2.22,5.37,5.62,10.28,7.51,15.74,3.22,9.28,4.77,18.73-2.15,27.39C423.25,332.47,420.36,336.49,417.39,340.43ZM330.15,60c-3.49,1.7-5.89,3.32-8.52,4a98,98,0,0,1-13.9,2.69c-1,.12-2.37-1.59-3.25-2.71a28.93,28.93,0,0,1-2.33-4.15c-.67,1.68-1.88,3.34-1.92,5-.21,8.15-.29,16.32-.05,24.48s.4,16-5.43,22.57c-.13.15.09.61.21,1.27h14.85c-.74-1.67-1-2.86-1.68-3.71-4.22-5.26-4.19-11.45-3.57-17.6.13-1.32,2.33-3.55,3.4-3.45a69.5,69.5,0,0,1,13,2.56c2.89.85,5.52,2.58,9.21,4.38ZM431.6,436.2l-.69-1.78c3.44-3.3,6.79-6.68,10.32-9.88,7.74-7,14.18-15.49,24-20.07,3.31-1.53,6-4.52,9.11-7l-11.56-5.27.23,1.42c-2.79.74-5.56,2.09-8.36,2.12-9.94.12-20,1.09-29.54-3.23-.88-.4-3.46.57-3.51,1.06a63.5,63.5,0,0,0,.13,8.27c2-.09,4.17.33,5.92-.37,9.81-3.93,19.87-2,30.44-2.36-.66,1.66-1,2.58-1.39,3.44a12.26,12.26,0,0,1-2,3.44c-11.07,10.63-19.88,23.74-33.75,31.49l2.85,3.15c1.85-.9,3.34-2.29,4.77-2.23,12.55.55,25.32-2.13,37.63,2.47,6.54,2.45,7.57,1.57,7-5.41a15.2,15.2,0,0,0-.52-2.66ZM191.47,60.44l-1.53,1.06c9.63,8.2,6.26,18.87,6.71,28.78.22,4.66,0,9.33,0,14a67.83,67.83,0,0,0,.14,7,4.13,4.13,0,0,0,1.7,2.56c.33.22,1.65-.67,2.27-1.3,4.22-4.23,8.36-8.53,12.53-12.81l11.95-12.29C220,81.7,214.9,76,209.52,70.59c-2.85-2.85-6.06-5.2-2.68-10.15Zm54.4,292.26,8.74-7.65c-33.54-18.67-41.83-40.28-15.38-69.48L237,275l-31.57,30.4c6.68,7.18,12.57,14,19,20.27,7.38,7.22,15.46,13.76,18.87,24.07C243.51,350.31,244.14,350.73,245.87,352.7Zm35.88,52.47c8.72,3.59,17.45,4.06,21.47,12.57-4.83,6.2-11.69,10.91-16,17.68l1.76,1.66c5.91-5.51,11.82-11,17.93-16.72l17.66,16.58,1.78-1.74c-4.09-6.92-11.42-11.31-15.59-17.64,4-8.71,13.21-8.5,20.78-12.61l-12.54-13c-3.69,8.56-4,17.37-12.09,21.41-8.16-4.05-8.48-12.84-11.94-21.25Zm-59-11.27-2.05,0a36.14,36.14,0,0,0-.81,5c-.1,5.33,0,10.67-.05,16-.05,7.72,1.31,15.72-4.34,22.37-.12.15.11.6.23,1.18h34.22c-8.09-8.15-5.44-17.31-5.8-25.93-.19-4.66.12-9.34-.13-14-.09-1.52-1.23-3-1.89-4.47-.66,1.5-1.86,3-1.89,4.52-.19,9.33,0,18.66-.2,28-.06,2.52-1.2,5-1.84,7.53l-2.21-.05c-.66-2.4-1.71-4.77-1.9-7.21-.33-4.14,0-8.33-.24-12.48,0-1-1.21-2-1.86-3-.65,1-1.81,2-1.87,3-.23,4.32.12,8.68-.26,13-.21,2.33-1.47,4.56-2.26,6.84l-2.08-.18c-.58-2.43-1.62-4.86-1.67-7.3-.19-9.16,0-18.33-.1-27.49A30,30,0,0,0,222.72,393.9Zm64.34-224-1.33-1.17L273.08,180.2l-1-.81,6.17-10.77H262.58c1.83,5.15,5.37,10.16,4.67,14.48-.73,4.54-5.53,8.42-9,13.27,8.92,4.79,10.79,12.93,9.63,22.28a.8.8,0,0,0,0,.49c.69,1,1.4,1.88,2.1,2.82.69-1,1.82-1.86,2-2.91.39-2.64.33-5.35.51-9.18l13.26,12.2,1.35-1.21c-6.52-7.48-12.7-15.16-12.89-25.6S280.92,177.45,287.06,169.86ZM65.62,223.57a10.6,10.6,0,0,0-1.2-2.7c-4.27-4.46-4.91-9.87-4.68-15.72.09-2.17-.37-5.06-1.75-6.49-6.66-6.88-7.5-15.15-6.78-24a40.81,40.81,0,0,0-.09-8c-.13-1.16-1.3-2.2-2-3.29-.7,1.14-1.94,2.24-2,3.42A99.14,99.14,0,0,0,47,180.26a21.15,21.15,0,0,1-5.26,16.52c-1.44,1.65-2.92,4.12-2.8,6.12.45,7.25-.88,13.78-5.53,19.49-.12.15.13.59.28,1.18ZM171.19,428c-4.34-12.3-14.43-22.79-8.94-38.45L147,396.19l-.38,1.36c8.13,3.16,11.45,9.82,14.05,17.2,2,5.64,4.7,11,6.69,16.68a11.47,11.47,0,0,1,.21,6.59c-1.38,4.9-1.61,4.82,3.42,4.18.39-.05.83.39,1.26.55,3.76,1.41,3.72-.25,3.12-3.34a21.23,21.23,0,0,1-.06-8.55c.76-3.36,2.43-6.54,3.83-9.74,3.75-8.55,5.73-18.29,15.28-23,.2-.1.2-.58.55-1.7L179.57,390C185.52,405.73,175.08,415.87,171.19,428Zm215.06,16.45c-2-4.62-4.49-8.62-5.34-12.95-.88-4.49-.15-9.3-.13-14a36,36,0,0,0-.06-6.49c-.86-4.78,1.35-7.19,5.45-9.2,6.32-3.11,12.36-6.82,18.52-10.27-17.58,4.82-34.78,5.14-52.15-.46,3.72,2.71,7.38,5.48,11.5,6.93,10.14,3.57,13.5,10.1,12.39,20.78-.89,8.51.61,17.29-5.67,24.48-.11.12.17.58.34,1.14ZM239.64,267.58l-1.81,1.55c7.27,8.84,15.41,17.16,15.24,29.73C252.9,311.27,245.18,320,238,329c.53.41,1.07.81,1.61,1.21l32.57-31.35ZM387.18,84.31l-1.32-.11-1,7.09c-.92,6.34-3.58,11.37-10,13.69-3.11,1.11-4.81.55-4.73-3.14.11-5.65-.18-11.33.18-17,.77-12,7-18.23,19.1-19.84a15.82,15.82,0,0,0,2.82-.94L392,62.63c-6.38,0-12.77.25-19.14-.08-4.62-.24-6.15,1.38-5.95,6,.46,10.63.37,21.29.78,31.93.16,4.22-1.5,5.74-5.53,5.3-5-.54-10-1-15.6-1.49.14,2.2.3,4.51.49,7.36,2.62-1.06,4.4-2.25,6.28-2.43,4.22-.41,8.5-.32,12.75-.43-.37,3.48-.74,7-1.12,10.45,0,.16-.15.33-.12.48.24,1.18.29,3.24.79,3.36a14.18,14.18,0,0,0,5.73,0c.41-.08.72-2.31.53-3.46-.4-2.45-1.3-4.81-1.74-7.26-.51-2.85.57-4.48,3.78-4.2a68.06,68.06,0,0,0,9.45.47c1.3-.07,3.58-1.4,3.61-2.23C387.3,99.07,387.18,91.69,387.18,84.31ZM107.63,114l1.55.12a35.27,35.27,0,0,0,.95-5.23c.33-10,.37-20,.89-30,.18-3.29,1.51-6.52,2.32-9.78l2.27.42c-.76,5.21-1.53,10.42-2.3,15.7,4.41-1.23,12.22-7.23,13.87-10.89a4.54,4.54,0,0,0-.13-3.58c-5.27-9.34-16.33-12.75-27.47-8C111,78.38,103.76,97.06,107.63,114ZM58.43,291.76c-10.3-3.94-21.73,1.74-30.83-7.3v14.31l8.13-4.44c-1.39,12.15,3.31,23.95-5.53,34.42H58.91c-6.33-5.58-6.17-11.72-5.95-17.9.09-2.49,0-5,0-7.48C53.11,299,51.36,293.73,58.43,291.76ZM351,203.64c-3.38,1.64-5.63,3.09-8.09,3.85a127.3,127.3,0,0,1-12.8,3.19c-3.7.73-4.91-1.15-4.86-4.8.17-11.14.13-22.29,0-33.43,0-1.45-1.33-2.88-2-4.32-.71,1.48-2,2.93-2,4.42-.2,9.31-.26,18.63-.06,27.95.15,6.75.19,13.32-4.87,18.67-.46.49-.4,1.47-.59,2.25h15.74c-1.32-2.63-2.25-4.5-3.27-6.56,8.7-2.41,15,3.48,22.9,6.4ZM57.7,389c-11.78,9.86-22.84,9.64-34.29.09v18.52c2.91-2.18,4.86-3.63,6.79-5.11,2.57-1.95,4.76-1.9,5.64,1.55a92.39,92.39,0,0,1,2.91,14c.53,5.79.15,11.65.31,17.48a26.4,26.4,0,0,0,.95,4.66l2-.22c0-3.86,0-7.73,0-11.59,0-8.14-.49-16.3,3-24.07,1.52-3.39,3.1-4,6-1.72,1.87,1.49,3.85,2.84,6.69,4.91ZM174.24,115.71l1.44-1.19c-6.25-7.57-12.62-15-12.83-25.55-.21-10.78,6.83-18,13-25.71L174.23,62l-28,26.85ZM222,167.34c.29,10.92.79,20.81.71,30.69-.05,6.91-2.9,12.65-9.49,15.81-7.13,3.42-9.84,2-11.69-5.71-.28-1.16-.62-2.31-.94-3.46-.94,2.74-.75,5.4-1,8-.36,4,1.07,5.79,5.31,5.58a140.42,140.42,0,0,1,15.49,0c4.51.28,5.78-1.53,5.6-5.82-.63-14.72-2.56-29.54,2.78-44.72Zm-50.23,168c-1.17-2.13-1.62-3.43-2.45-4.38-3.51-4-4.23-8.72-4.09-13.92.26-10.14.16-20.29,0-30.44,0-1.57-1.39-3.12-2.13-4.68-.67,1.51-1.88,3-1.91,4.54-.2,8.31-.3,16.64-.05,24.95.24,8.06.37,16-5.42,22.54-.13.16.07.61.18,1.39Zm212.64-.09c-1.1-2.08-1.51-3.4-2.34-4.35-3.43-3.92-4-8.46-3.93-13.48.24-10.16.16-20.33,0-30.5,0-1.68-1.21-3.34-1.86-5-.78,1.74-2.15,3.46-2.22,5.23-.26,6.66-.11,13.33-.11,20,0,9.38,1.42,19-5.41,27.07-.07.08,0,.31.05,1Zm-4.41-166H362.11c8.05,7.28,7.77,15.55,7.53,23.92-.24,8.64-.11,17.3.05,25.94,0,1.16,1.23,2.3,1.89,3.44.74-1.1,2-2.15,2.12-3.32.32-3-.11-6,.21-9C375.37,196.74,369.59,182.28,380,169.26ZM302,305.9l-.12,1.89c1.68.2,3.37.35,5.05.6,7.8,1.15,14.88,4.39,15.84,12.76,1.12,9.78.28,19.78.25,29.69,0,1.86-.24,3.71-.36,5.57h7.12c-4.24-12.8-3.59-25-3.08-37.34.67-16,1.92-12.86-12.25-13.16C310.34,305.82,306.19,305.9,302,305.9Zm-221.2,101-4.71,1.93c2.07,8.1,4,15.79,6,23.47,1.44-4,1.21-8.13,2.16-12s3.07-7.44,4.66-11.13c-5.7-2.52-5.89-3.14-3.32-8.37,1.14-2.32,2.21-4.68,3.67-7.79H74.94Zm344-317.81-.22.16a29.63,29.63,0,0,0,1.77,2.64c8.75,10.46,8.66,19-.83,28.58-6.34,6.43-13.09,12.45-20.14,19.11l5.33,4.6c7.22-16.67,22.1-25.61,31.1-36.66ZM154.52,188c2.25,4.53,4.49,7.89,5.62,11.6s1.07,7.77,1.64,11.66c.53,3.58-1.25,7.64,2.46,10.83,1.55-11.53.16-23.6,9.51-34.09Zm13.27,93c3,8.64,2.49,17,.34,25.89a89.31,89.31,0,0,0,13.59-11.45,3.23,3.23,0,0,0,.19-3.08A30.54,30.54,0,0,0,167.79,281Zm211.77,26.53A37.9,37.9,0,0,0,394.84,295a2.91,2.91,0,0,0-.1-2.72c-3.8-4.78-8-9.08-14.26-11.43C383.41,289.49,383.32,297.91,379.56,307.57ZM114.29,114.39c4.51-4.23,8.69-8.07,12.73-12a3.32,3.32,0,0,0,.65-2.68c-.72-3.25-10.63-11-13.38-11.35ZM296.88,304.47c.08-.16-.46.36-.48.91-.23,6.81-.57,13.63-.37,20.43,0,1.08,2.49,2.86,3.94,3,4.63.38,9.3.19,14,.11,2.31,0,4.62-.29,6.65-.43-5.71-2.48-12.5-3.62-16.35-7.6S299.14,309.88,296.88,304.47Zm127-187,1.32-.41c-11.16-11.13-11.25-22.28-.67-33.22L408.3,100.44ZM154.65,169.58c2.62,5.79,4.67,10.64,7.1,15.3.26.51,3.51.43,3.83-.19,2.44-4.62,4.5-9.44,7.09-15.11ZM379.77,308.52c3.63,9.46,13,16,12.17,27.45l1.54.25,9.1-6.86.19-1.45C391.51,325.49,387.81,314.73,379.77,308.52Z" transform="translate(-14 -43)"/><path d="M102.23,300.9c2.7-8.37-3.23-14-5.78-21.68H114c-2.82,7.9-8.67,14.6-6,23.75l15.71-12,1.7,2-13.27,12.45c6.33,1.21,12.5-.6,18.12,1.4v2.42l-20.59,1.18,12.3,16.13-2,1.73c-4-4.29-8-8.59-12.27-13.24-1.45,5.68.74,11.42-1.55,16.39l-2.1,0c-.4-5.63-.8-11.26-1.23-17.27-8.12,3.29-8.33,11.73-12.91,18.52L78.47,319.39c6.64-3.91,15-1.74,18.85-9.74a95.36,95.36,0,0,0-9.57,2.52c-3.07,1.14-5.91,2.87-10,4.89V299.14c7.38,2,12.8,8.36,20.79,6.11-3-8-11.65-7.91-18.3-12.62l13.15-11.29C97.44,288,95.21,296.39,102.23,300.9Z" transform="translate(-14 -43)"/><path d="M274.69,61.18V96.43c-8.34-3.83-15.75-9.08-25.15-6.09a7.76,7.76,0,0,0-.31,2.1c.3,3.54.34,10,1.14,10.11A37.91,37.91,0,0,0,264,101.49c3.4-.85,6.46-3.09,10.65-5.21v17.48c-7.69-2.43-13.62-9-22.38-6.06l3,6.53H239.4c.18-.9.09-1.69.45-2.07,5.29-5.82,5.32-12.87,5.12-20.14-.25-9-.13-18,0-27,0-1.39,1.16-2.76,1.79-4.14.79,1.19,2.17,2.33,2.27,3.57.23,3,1.94,3.84,4.33,3.42a134.9,134.9,0,0,0,13.36-3C269.11,64.26,271.24,62.84,274.69,61.18Zm-1.11,17.07c-5.28-2.31-9.6-5.54-14.16-5.93-12-1-10-1.21-10.25,9.47-.06,2.65.88,3.73,3.7,4C260.5,86.51,266.58,83.35,273.58,78.25Z" transform="translate(-14 -43)"/><path d="M409.88,167.26h49.44c-.31,1.09-.3,1.87-.67,2.26-5.59,5.89-5.57,13.12-5.35,20.56.25,8.83.15,17.67-.06,26.5,0,1.4-1.43,2.77-2.19,4.16-.65-1.36-1.85-2.71-1.87-4.08-.16-11.17-.09-22.34-.11-33.5,0-6.83-.59-8.2-6-14-3.3,3.35-6.11,6.72-6.06,11.86.1,11.5.12,23-.08,34.5,0,1.75-1.44,3.48-2.22,5.22-.65-1.67-1.85-3.33-1.88-5-.17-10.33-.44-20.68,0-31,.3-6.41-2.1-11.2-6.41-15.9-3.68,4.11-6.54,8.08-6.36,14,.35,11.15.17,22.33,0,33.49,0,1.48-1.3,2.93-2,4.4-.73-1.45-2.05-2.88-2.08-4.33-.18-10.5-.27-21,0-31.5.12-5-.58-9.56-4-13.48C411.19,170.5,410.83,169.17,409.88,167.26Z" transform="translate(-14 -43)"/><path d="M85.88,109.58l-16.31,6.69c0-1.76-.26-2.78,0-3.61,2.72-7.53-.41-14.09-3.7-20.44-.8-1.57-3.39-2.75-5.33-3.06-2.63-.43-5.5-.7-7.17,2.81-3.52,7.36-5.94,14.75-2.46,23.1l-1.23.6-15.36-6.33c8.4-4.77,13.8-10.64,15-21.18L31.83,95.75V77.62c4.14,2.1,7.27,3.88,10.55,5.3,8.74,3.77,10.1,1.68,12.23-4.36,1.45-4.1,3.69-8,.87-12.28a1.38,1.38,0,0,1-.28-.94c.23-.72.52-2,.9-2a59.08,59.08,0,0,1,7.76-.26,5,5,0,0,1,.19,3c-3.85,6.48.81,11.45,3,16.76.43,1,2.65,1.73,4.12,1.89,3,.32,6,0,9,.26a23,23,0,0,1,4.3,1.1l0,2.09L70.08,89.34C71.77,98.33,76,105.23,85.88,109.58ZM59.72,76.7l-2.85,7.91,5.83-.28Z" transform="translate(-14 -43)"/><path d="M120.2,194.38l8.33-4.9v16.65l-9.82-5.79c-2.47,8.61-.22,15.65,5.82,22.8H107c1.2-2,1.8-3.59,2.85-4.71,4.08-4.35,4.15-9.67,3.54-15-.14-1.23-2-2.28-3.15-3.36-.18-.17-.65-.09-1,0-3.31.47-9.34.59-9.48,1.52a42.3,42.3,0,0,0,.84,14c.49,2.4,2.65,4.47,4.58,7.54H89.13c-.12-.6-.34-1.06-.22-1.2,6.08-6.8,6-15,5.87-23.44-.1-4.23-.41-7.35-5.92-6.75.11-1-.06-1.79.28-2.16,5.34-5.91,6-13,5.55-20.51-.08-1.46,1.16-3,1.8-4.49.79,1.39,2.26,2.78,2.25,4.17-.06,7.86-.47,15.71,6,21.41-.66.88-.8,1.24-1,1.38-1.43.82-2.89,1.58-4.34,2.37,1.67.6,3.37,1.77,5,1.7,3.68-.17,8.7,2.3,9.93-4.05Z" transform="translate(-14 -43)"/><path d="M417.39,340.43c3-3.94,5.86-8,8.95-11.82,6.92-8.66,5.37-18.11,2.15-27.39-1.89-5.46-5.29-10.37-7.51-15.74-.57-1.39.2-4.55,1.34-5.23,7.68-4.56,15.63-8.67,23.49-12.93l1.16,1.21c-2.18,2.89-4.19,5.91-6.55,8.64-9.08,10.44-8.29,21.71-3,33.37,2,4.39,4.47,8.58,6.22,13.06.51,1.31-.19,4.23-1.24,4.85-7.87,4.59-16,8.8-24,13.12Z" transform="translate(-14 -43)"/><path d="M330.15,60V95.39c-3.69-1.8-6.32-3.53-9.21-4.38a69.5,69.5,0,0,0-13-2.56c-1.07-.1-3.27,2.13-3.4,3.45-.62,6.15-.65,12.34,3.57,17.6.68.85.94,2,1.68,3.71H295c-.12-.66-.34-1.12-.21-1.27,5.83-6.57,5.67-14.5,5.43-22.57S300,73,300.23,64.89c0-1.7,1.25-3.36,1.92-5A28.93,28.93,0,0,0,304.48,64c.88,1.12,2.27,2.83,3.25,2.71A98,98,0,0,0,321.63,64C324.26,63.3,326.66,61.68,330.15,60ZM329,77.44c-4.58-2.29-8.11-4.52-12-5.89-9.44-3.34-13.21-.36-12.7,9.25.16,3.1,1.5,3.7,4.3,4C316.18,85.5,322,81.82,329,77.44Z" transform="translate(-14 -43)"/><path d="M431.6,436.2l41.17-3.4a15.2,15.2,0,0,1,.52,2.66c.54,7-.49,7.86-7,5.41-12.31-4.6-25.08-1.92-37.63-2.47-1.43-.06-2.92,1.33-4.77,2.23L421,437.48c13.87-7.75,22.68-20.86,33.75-31.49a12.26,12.26,0,0,0,2-3.44c.43-.86.73-1.78,1.39-3.44-10.57.33-20.63-1.57-30.44,2.36-1.75.7-3.94.28-5.92.37a63.5,63.5,0,0,1-.13-8.27c.05-.49,2.63-1.46,3.51-1.06,9.52,4.32,19.6,3.35,29.54,3.23,2.8,0,5.57-1.38,8.36-2.12l-.23-1.42,11.56,5.27c-3.15,2.48-5.8,5.47-9.11,7-9.87,4.58-16.31,13.06-24,20.07-3.53,3.2-6.88,6.58-10.32,9.88Z" transform="translate(-14 -43)"/><path d="M191.47,60.44h15.37c-3.38,5-.17,7.3,2.68,10.15C214.9,76,220,81.7,225.28,87.43L213.33,99.72c-4.17,4.28-8.31,8.58-12.53,12.81-.62.63-1.94,1.52-2.27,1.3a4.13,4.13,0,0,1-1.7-2.56,67.83,67.83,0,0,1-.14-7c0-4.67.18-9.34,0-14-.45-9.91,2.92-20.58-6.71-28.78Zm10.12,7.72v38.47C212.37,94.48,212.67,78.36,201.59,68.16Z" transform="translate(-14 -43)"/><path d="M245.87,352.7c-1.73-2-2.36-2.39-2.55-2.94-3.41-10.31-11.49-16.85-18.87-24.07-6.42-6.28-12.31-13.09-19-20.27L237,275l2.2.55c-26.45,29.2-18.16,50.81,15.38,69.48Z" transform="translate(-14 -43)"/><path d="M281.75,405.17,295,392.1c3.46,8.41,3.78,17.2,11.94,21.25,8.06-4,8.4-12.85,12.09-21.41l12.54,13c-7.57,4.11-16.75,3.9-20.78,12.61,4.17,6.33,11.5,10.72,15.59,17.64l-1.78,1.74L307,420.36c-6.11,5.71-12,11.21-17.93,16.72l-1.76-1.66c4.27-6.77,11.13-11.48,16-17.68C299.2,409.23,290.47,408.76,281.75,405.17Z" transform="translate(-14 -43)"/><path d="M222.72,393.9a30,30,0,0,1,1,5.32c.09,9.16-.09,18.33.1,27.49.05,2.44,1.09,4.87,1.67,7.3l2.08.18c.79-2.28,2.05-4.51,2.26-6.84.38-4.3,0-8.66.26-13,.06-1,1.22-2,1.87-3,.65,1,1.81,2,1.86,3,.24,4.15-.09,8.34.24,12.48.19,2.44,1.24,4.81,1.9,7.21l2.21.05c.64-2.51,1.78-5,1.84-7.53.23-9.33,0-18.66.2-28,0-1.52,1.23-3,1.89-4.52.66,1.49,1.8,2.95,1.89,4.47.25,4.65-.06,9.33.13,14,.36,8.62-2.29,17.78,5.8,25.93H215.7c-.12-.58-.35-1-.23-1.18,5.65-6.65,4.29-14.65,4.34-22.37,0-5.33-.05-10.67.05-16a36.14,36.14,0,0,1,.81-5Z" transform="translate(-14 -43)"/><path d="M287.06,169.86c-6.14,7.59-13.09,14.84-12.89,25.4s6.37,18.12,12.89,25.6l-1.35,1.21-13.26-12.2c-.18,3.83-.12,6.54-.51,9.18-.15,1-1.28,1.95-2,2.91-.7-.94-1.41-1.87-2.1-2.82a.8.8,0,0,1,0-.49c1.16-9.35-.71-17.49-9.63-22.28,3.51-4.85,8.31-8.73,9-13.27.7-4.32-2.84-9.33-4.67-14.48h15.66l-6.17,10.77,1,.81,12.65-11.51Z" transform="translate(-14 -43)"/><path d="M65.62,223.57H33.72c-.15-.59-.4-1-.28-1.18,4.65-5.71,6-12.24,5.53-19.49-.12-2,1.36-4.47,2.8-6.12A21.15,21.15,0,0,0,47,180.26a99.14,99.14,0,0,1,.07-13.46c.07-1.18,1.31-2.28,2-3.42.71,1.09,1.88,2.13,2,3.29a40.81,40.81,0,0,1,.09,8c-.72,8.87.12,17.14,6.78,24,1.38,1.43,1.84,4.32,1.75,6.49-.23,5.85.41,11.26,4.68,15.72A10.6,10.6,0,0,1,65.62,223.57Zm-16.48-1.82c6-5.31,8.11-11,6.3-18.06a3.84,3.84,0,0,0-2.51-2.35,21.55,21.55,0,0,0-6.94,0A4.05,4.05,0,0,0,43.25,204C42.35,210.77,43.09,217.18,49.14,221.75Z" transform="translate(-14 -43)"/><path d="M171.19,428c3.89-12.11,14.33-22.25,8.38-38l15.35,6.38c-.35,1.12-.35,1.6-.55,1.7-9.55,4.72-11.53,14.46-15.28,23-1.4,3.2-3.07,6.38-3.83,9.74a21.23,21.23,0,0,0,.06,8.55c.6,3.09.64,4.75-3.12,3.34-.43-.16-.87-.6-1.26-.55-5,.64-4.8.72-3.42-4.18a11.47,11.47,0,0,0-.21-6.59c-2-5.65-4.71-11-6.69-16.68-2.6-7.38-5.92-14-14.05-17.2l.38-1.36,15.3-6.66C156.76,405.19,166.85,415.68,171.19,428Z" transform="translate(-14 -43)"/><path d="M386.25,444.43H371.1c-.17-.56-.45-1-.34-1.14,6.28-7.19,4.78-16,5.67-24.48,1.11-10.68-2.25-17.21-12.39-20.78-4.12-1.45-7.78-4.22-11.5-6.93,17.37,5.6,34.57,5.28,52.15.46-6.16,3.45-12.2,7.16-18.52,10.27-4.1,2-6.31,4.42-5.45,9.2a36,36,0,0,1,.06,6.49c0,4.66-.75,9.47.13,14C381.76,435.81,384.27,439.81,386.25,444.43Z" transform="translate(-14 -43)"/><path d="M239.64,267.58l32.53,31.25L239.6,330.18c-.54-.4-1.08-.8-1.61-1.21,7.19-9,14.91-17.7,15.08-30.11.17-12.57-8-20.89-15.24-29.73Z" transform="translate(-14 -43)"/><path d="M387.18,84.31c0,7.38.12,14.76-.17,22.12,0,.83-2.31,2.16-3.61,2.23a68.06,68.06,0,0,1-9.45-.47c-3.21-.28-4.29,1.35-3.78,4.2.44,2.45,1.34,4.81,1.74,7.26.19,1.15-.12,3.38-.53,3.46a14.18,14.18,0,0,1-5.73,0c-.5-.12-.55-2.18-.79-3.36,0-.15.1-.32.12-.48.38-3.48.75-7,1.12-10.45-4.25.11-8.53,0-12.75.43-1.88.18-3.66,1.37-6.28,2.43-.19-2.85-.35-5.16-.49-7.36,5.58.53,10.6,1,15.6,1.49,4,.44,5.69-1.08,5.53-5.3-.41-10.64-.32-21.3-.78-31.93-.2-4.6,1.33-6.22,5.95-6,6.37.33,12.76.08,19.14.08l.16,1.46a15.82,15.82,0,0,1-2.82.94c-12.13,1.61-18.33,7.86-19.1,19.84-.36,5.64-.07,11.32-.18,17-.08,3.69,1.62,4.25,4.73,3.14,6.45-2.32,9.11-7.35,10-13.69l1-7.09Z" transform="translate(-14 -43)"/><path d="M107.63,114c-3.87-17,3.33-35.65-8-51.25,11.14-4.7,22.2-1.29,27.47,8a4.54,4.54,0,0,1,.13,3.58c-1.65,3.66-9.46,9.66-13.87,10.89.77-5.28,1.54-10.49,2.3-15.7l-2.27-.42c-.81,3.26-2.14,6.49-2.32,9.78-.52,10-.56,20-.89,30a35.27,35.27,0,0,1-.95,5.23Z" transform="translate(-14 -43)"/><path d="M58.43,291.76c-7.07,2-5.32,7.21-5.44,11.61-.07,2.49.06,5,0,7.48-.22,6.18-.38,12.32,5.95,17.9H30.2c8.84-10.47,4.14-22.27,5.53-34.42l-8.13,4.44V284.46C36.7,293.5,48.13,287.82,58.43,291.76ZM42.69,327.42l2.4,0c1.28-3.06,3.39-6,3.66-9.19.57-6.61.07-13.3.22-19.95.08-3.7-1.88-4.41-5-4.42s-5,.75-4.91,4.45c.18,6-.39,12,.2,18C39.61,320,41.48,323.7,42.69,327.42Z" transform="translate(-14 -43)"/><path d="M351,203.64v17.62c-7.93-2.92-14.2-8.81-22.9-6.4,1,2.06,1.95,3.93,3.27,6.56H315.64c.19-.78.13-1.76.59-2.25,5.06-5.35,5-11.92,4.87-18.67-.2-9.32-.14-18.64.06-27.95,0-1.49,1.31-2.94,2-4.42.71,1.44,2,2.87,2,4.32.17,11.14.21,22.29,0,33.43-.05,3.65,1.16,5.53,4.86,4.8a127.3,127.3,0,0,0,12.8-3.19C345.38,206.73,347.63,205.28,351,203.64Z" transform="translate(-14 -43)"/><path d="M57.7,389v18.54c-2.84-2.07-4.82-3.42-6.69-4.91-2.86-2.26-4.44-1.67-6,1.72-3.49,7.77-3,15.93-3,24.07,0,3.86,0,7.73,0,11.59l-2,.22a26.4,26.4,0,0,1-.95-4.66c-.16-5.83.22-11.69-.31-17.48a92.39,92.39,0,0,0-2.91-14c-.88-3.45-3.07-3.5-5.64-1.55-1.93,1.48-3.88,2.93-6.79,5.11V389C34.86,398.59,45.92,398.81,57.7,389Z" transform="translate(-14 -43)"/><path d="M174.24,115.71l-28-26.82,28-26.85,1.64,1.22c-6.19,7.7-13.23,14.93-13,25.71.21,10.55,6.58,18,12.83,25.55Z" transform="translate(-14 -43)"/><path d="M222,167.34l6.79.42c-5.34,15.18-3.41,30-2.78,44.72.18,4.29-1.09,6.1-5.6,5.82a140.42,140.42,0,0,0-15.49,0c-4.24.21-5.67-1.55-5.31-5.58.23-2.62,0-5.28,1-8,.32,1.15.66,2.3.94,3.46,1.85,7.75,4.56,9.13,11.69,5.71,6.59-3.16,9.44-8.9,9.49-15.81C222.82,188.15,222.32,178.26,222,167.34Z" transform="translate(-14 -43)"/><path d="M171.8,335.36H155.9c-.11-.78-.31-1.23-.18-1.39,5.79-6.57,5.66-14.48,5.42-22.54-.25-8.31-.15-16.64.05-24.95,0-1.53,1.24-3,1.91-4.54.74,1.56,2.1,3.11,2.13,4.68.19,10.15.29,20.3,0,30.44-.14,5.2.58,9.88,4.09,13.92C170.18,331.93,170.63,333.23,171.8,335.36Z" transform="translate(-14 -43)"/><path d="M384.44,335.27H368.6c0-.73-.12-1-.05-1,6.83-8,5.41-17.69,5.41-27.07,0-6.67-.15-13.34.11-20,.07-1.77,1.44-3.49,2.22-5.23.65,1.67,1.83,3.33,1.86,5,.18,10.17.26,20.34,0,30.5-.11,5,.5,9.56,3.93,13.48C382.93,331.87,383.34,333.19,384.44,335.27Z" transform="translate(-14 -43)"/><path d="M380,169.26c-10.44,13-4.66,27.48-6.12,41-.32,3,.11,6-.21,9-.13,1.17-1.38,2.22-2.12,3.32-.66-1.14-1.86-2.28-1.89-3.44-.16-8.64-.29-17.3-.05-25.94.24-8.37.52-16.64-7.53-23.92Z" transform="translate(-14 -43)"/><path d="M302,305.9c4.15,0,8.3-.08,12.45,0,14.17.3,12.92-2.81,12.25,13.16-.51,12.3-1.16,24.54,3.08,37.34H322.7c.12-1.86.35-3.71.36-5.57,0-9.91.87-19.91-.25-29.69-1-8.37-8-11.61-15.84-12.76-1.68-.25-3.37-.4-5.05-.6Z" transform="translate(-14 -43)"/><path d="M113,433c-.7-.83-1.83-1.58-2-2.51-1.43-7-2.68-14.05-4.12-21.81l4.28-1.89c-1.87-4.37-3.7-8.67-5.89-13.81h14.44c-1.52,3.22-2.66,5.72-3.86,8.18-2.6,5.34-2.49,5.64,3.2,7.9a4.53,4.53,0,0,1-.25,1.77c-3.57,5.65-5.46,11.68-4.86,18.45.11,1.23-.64,2.52-1,3.79Z" transform="translate(-14 -43)"/><path d="M80.84,406.89,74.94,393H89.29c-1.46,3.11-2.53,5.47-3.67,7.79-2.57,5.23-2.38,5.85,3.32,8.37-1.59,3.69-3.71,7.27-4.66,11.13s-.72,8-2.16,12c-2-7.68-3.92-15.37-6-23.47Z" transform="translate(-14 -43)"/><path d="M424.81,89.08l17,18.43c-9,11-23.88,20-31.1,36.66l-5.33-4.6c7.05-6.66,13.8-12.68,20.14-19.11,9.49-9.62,9.58-18.12.83-28.58a29.63,29.63,0,0,1-1.77-2.64Z" transform="translate(-14 -43)"/><path d="M154.52,188h19.23c-9.35,10.49-8,22.56-9.51,34.09-3.71-3.19-1.93-7.25-2.46-10.83-.57-3.89-.52-7.95-1.64-11.66S156.77,192.55,154.52,188Z" transform="translate(-14 -43)"/><path d="M112.91,433.05l5.75-1.94V444.9c-.79.16-1.22.38-1.4.25-10.75-7.48-23.05-4.36-34.77-5.14-2.31-.16-4.61-.45-6.91-.67l0-1.81a34.83,34.83,0,0,1,4.38-.74c7.79-.27,15.61-.18,23.38-.81,3.28-.26,6.46-2,9.68-3Z" transform="translate(-14 -43)"/><path d="M167.79,281a30.54,30.54,0,0,1,14.12,11.36,3.23,3.23,0,0,1-.19,3.08,89.31,89.31,0,0,1-13.59,11.45C170.28,298,170.75,289.68,167.79,281Z" transform="translate(-14 -43)"/><path d="M379.56,307.57c3.76-9.66,3.85-18.08.92-26.68,6.23,2.35,10.46,6.65,14.26,11.43a2.91,2.91,0,0,1,.1,2.72A37.9,37.9,0,0,1,379.56,307.57Z" transform="translate(-14 -43)"/><path d="M114.29,114.39V88.31c2.75.33,12.66,8.1,13.38,11.35a3.32,3.32,0,0,1-.65,2.68C123,106.32,118.8,110.16,114.29,114.39Z" transform="translate(-14 -43)"/><path d="M296.88,304.47c2.26,5.41,3.37,12.29,7.35,16.4s10.64,5.12,16.35,7.6c-2,.14-4.34.4-6.65.43-4.66.08-9.33.27-14-.11-1.45-.12-3.91-1.9-3.94-3-.2-6.8.14-13.62.37-20.43C296.42,304.83,297,304.31,296.88,304.47Z" transform="translate(-14 -43)"/><path d="M423.92,117.44l-15.62-17,16.27-16.63C414,94.75,414.08,105.9,425.24,117Z" transform="translate(-14 -43)"/><path d="M154.65,169.58h18c-2.59,5.67-4.65,10.49-7.09,15.11-.32.62-3.57.7-3.83.19C159.32,180.22,157.27,175.37,154.65,169.58Z" transform="translate(-14 -43)"/><path d="M379.77,308.52c8,6.21,11.74,17,23,19.39l-.19,1.45-9.1,6.86-1.54-.25C392.79,324.49,383.4,318,379.77,308.52Z" transform="translate(-14 -43)"/><path class="cls-1" d="M273.58,78.25c-7,5.1-13.08,8.26-20.71,7.54-2.82-.27-3.76-1.35-3.7-4,.24-10.68-1.74-10.47,10.25-9.47C264,72.71,268.3,75.94,273.58,78.25Z" transform="translate(-14 -43)"/><path class="cls-1" d="M59.72,76.7l3,7.63-5.83.28Z" transform="translate(-14 -43)"/><path class="cls-1" d="M329,77.44c-7,4.38-12.81,8.06-20.36,7.33-2.8-.27-4.14-.87-4.3-4-.51-9.61,3.26-12.59,12.7-9.25C320.88,72.92,324.41,75.15,329,77.44Z" transform="translate(-14 -43)"/><path class="cls-1" d="M201.59,68.16c11.08,10.2,10.78,26.32,0,38.47Z" transform="translate(-14 -43)"/><path class="cls-1" d="M49.14,221.75c-6-4.57-6.79-11-5.89-17.79A4.05,4.05,0,0,1,46,201.35a21.55,21.55,0,0,1,6.94,0,3.84,3.84,0,0,1,2.51,2.35C57.25,210.73,55.17,216.44,49.14,221.75Z" transform="translate(-14 -43)"/><path class="cls-1" d="M42.69,327.42c-1.21-3.72-3.08-7.39-3.45-11.19-.59-5.94,0-12-.2-18-.11-3.7,1.73-4.47,4.91-4.45s5.1.72,5,4.42c-.15,6.65.35,13.34-.22,19.95-.27,3.15-2.38,6.13-3.66,9.19Z" transform="translate(-14 -43)"/></svg>