<svg id="Layer_1" data-name="Layer 1" xmlns="http://www.w3.org/2000/svg" viewBox="0 0 460 399"><defs><style>.cls-1{fill:#fff;}</style></defs><path class="cls-1" d="M24,400.69V364.61c9.71-2.41,19.39-5,29.15-7.12,5.06-1.08,10.26-1.21,15.4-1.77l-.21-1.19L24,343.38V313.67l45.66-10.42c-6.4-2.33-12.88-2.26-19.17-3.59-8.91-1.86-17.67-4.76-26.49-7.21V267c2.39,0,4.85.45,7.16-.1,7.73-1.83,15.42-4,23.11-6.06,2-.53,3.94-1.16,7.87-2.33L24,247.88V171.47l23.19,33.84c-2.71-10.36-7.12-19.59-11.22-29-1.26-2.88-3.13-7.28-2.24-9.32,4.15-9.42,9.16-18.26,13.87-27.31l2.89-.18c2.45,21.28,4.9,42.55,7.66,66.5,2.67-25.17,5-47.45,7.51-70.9l-7.81,5.68-10.06-7.9c-8.32,12-16.06,23.19-23.79,34.37V50.5H350.12c-5.52,10.55-11.19,21-16.47,31.72-1.54,3.14-3.69,8.57-2.63,10.46,6.5,11.7,13.83,22.7,20.89,33.93l1.94-1.24c-4.31-9.48-8.72-18.88-12.85-28.48-1.35-3.14-3.56-7.86-2.62-10,4.55-10.35,10-20.06,15.2-30l2.2-.19.81,15.1,32.26-8.22L357,50.5h36c2.81,22.51,5.62,45,8.58,68.76.7-2.36,1.38-3.8,1.53-5.32q3-29.13,5.81-58.27a27,27,0,0,0-.47-5.17h58.36c-6.23,11.31-12.57,22.52-18.58,34-1.32,2.52-2.84,7.24-1.91,8.83,6.7,11.48,14,22.42,21.11,33.52a99.59,99.59,0,0,0-11-28.8c-3.59-6-3.08-9.46-.11-15.56,4.9-10,8.21-21.26,12.19-32h13.73c-6.4,11.06-12.94,22-19.11,33.26-1.33,2.43-2.68,7.19-1.72,8.85C468.64,105,476.41,117,484,129V449.5H24V421.91l35.62-10.63Zm329,14.4-20.08-5.47v16.22l20.92-9.52-1.43,9.34,20.16-7.25a53.73,53.73,0,0,0-17.23-8C354.88,410.3,353.79,413.46,353,415.09ZM266.22,146.33c-.26,2.89-.52,5.77-.9,9.94l19.94-7.39a51.26,51.26,0,0,0-16.39-8c-.69-.2-2.05,3.11-3.1,4.8l-20.58-5.47v16.18Zm125.11,80.29c.75,4.19,1.5,8.37,2.16,12.09l25.74-4.61-27.94-7.42,25.45-6-.26-1.24-32.33-6.13V228Zm-5,148.36-8.08,6.87-7.66-6.62c2.48,24,4.81,46.78,7.15,69.53l.79-.11C381.08,422.18,383.59,399.71,386.36,375ZM70.14,133.83c2.51,24.47,4.83,47,7.15,69.5l.8-.06C80.67,180.62,83.26,158,86,133.69l-8,7.23Zm269.52.56c2.5,24.65,4.82,47.44,7.13,70.24l.82,0c2.5-22.91,5-45.81,7.67-70.19l-8.12,6.8ZM238.28,447.17c2.65-25.64,5-48.38,7.47-72.4l-7.59,6L230.09,375C232.8,398.86,235.37,421.55,238.28,447.17Zm-116.54-80.3c2.71-25.54,5.1-48.14,7.65-72.12l-8,6.64-7.81-7.18C116.33,318.85,118.88,341.46,121.74,366.87Zm307-312.43c2.59,24.51,5,47.16,7.68,72.85,2.86-26,5.36-48.78,8.06-73.34l-7.79,7.66ZM79.47,294.66c2.68,24.23,5.17,46.83,8,72,2.69-25.24,5.1-47.83,7.65-71.74l-7.84,6.45Zm168.24,7L240,295c2.55,24.18,4.91,46.6,7.58,72,2.86-25.66,5.36-48.17,8-72Zm-169.44,74c-3.24,2.93-5.42,4.91-7.67,6.93l-8.08-6.16,7.86,71.3C73.14,422.43,75.6,400,78.27,375.64Zm29.51-160.5c2.51,24.08,4.84,46.36,7.48,71.7,2.92-25.77,5.47-48.29,8.16-72.07l-8.3,6.61Zm210.8,163c2.23,20.88,4.65,43.56,7.39,69.31,2.73-25.85,5.12-48.57,7.3-69.31ZM235,287.87c2.68-25.14,5.06-47.59,7.59-71.41l-8,6.55-7.67-6.67C229.65,240.49,232.17,262.85,235,287.87ZM138.5,55l7.66,71.77c2.81-25.44,5.3-47.93,7.92-71.67l-7.88,6.67ZM289.94,365.83l.68-.09c2.37-22.6,4.75-45.2,7.34-69.77l-7.15,7.22-8.12-6.12C285.18,320.71,287.56,343.27,289.94,365.83ZM405.26,206.08c2.9-25.29,5.44-47.52,8.16-71.27l-8,7-7.66-6.37C400.27,158.81,402.61,180.94,405.26,206.08Zm-213,80.51c2.74-25.29,5.13-47.43,7.33-67.76H185C187.19,239.21,189.55,261.29,192.24,286.59Zm19.6,86.73-2.18-1.4c-3.12,6.17-6,12.55-9.43,18.45C196.45,396.88,189,402.9,189,409.21s7.23,12.49,11,19c3.48,6,6.58,12.26,9.85,18.42.66-.47,1.33-.93,2-1.39-2.36-6.25-4.24-12.87-7.18-18.66-6-11.74-6.27-22.71.15-34.45C207.91,386.47,209.55,379.62,211.84,373.32ZM365.77,212.93l-1.39-.72C357.22,223.79,350,235.3,343,247c-.73,1.21-.59,4.35.19,5.61,6.9,11.17,14,22.12,21.1,33.13a82.86,82.86,0,0,0-7-22.2c-5.05-10.23-4.7-19.49.4-29.54C361,227.5,363.13,220,365.77,212.93ZM170.26,373.79l-2.13-1.34c-2.71,5.2-5.2,10.6-8.17,15.55-4.22,7-12.36,13.83-12.25,20.56.12,7.31,7.87,14.34,12.11,21.66,2.92,5,5.53,10.38,8.28,15.59l2.07-1.52c-2.51-6.57-4.58-13.48-7.65-19.62-5.2-10.43-5.37-20.15-.06-30.65C165.64,387.73,167.7,380.56,170.26,373.79ZM79.71,67.69l.08-.93L25,58.07c8.93,6.44,5.9,11.85,2.3,17.51Zm2.37,377.89,47-9.49-47-10c1.57,3.8,2.8,6.75,4.12,9.93Zm45.83-60.71.12-1.08-43-8.26v18.31Zm38-251.23-1.84-.66c-6.86,10.67-13.83,21.25-20.46,32.14-1.08,1.77-1.62,5.88-.72,7.37,6.88,11.44,14.18,22.5,21.35,33.67-1.85-9-4.29-18.07-8.78-25.15-5.31-8.37-5.93-14.29-.21-22.9C159.92,151.09,162.45,141.88,165.92,133.64ZM379,134l-2-1.09c-7,10.94-14.27,21.68-20.82,33-1.08,1.86.2,7,1.63,9.65,4,7.25,8.73,13.88,13,20.91,2,3.28,3.63,6.92,5.42,10.39l2.7-2.14c-4.3-9.33-8.17-19-13-27.88-3.11-5.66-3-9.49.1-15.08C370.83,152.92,374.68,143.26,379,134ZM135.67,363.84l44.49-9.66-44.49-8.67ZM225.92,206.3l1.77-1.4c-4.05-9.1-7.56-18.67-12.33-27.14-3.54-6.26-3.61-10.42,0-16.74,4.85-8.51,8.34-18.19,12.42-27.37-8.89,10.09-16.11,21.15-23,32.49a8.45,8.45,0,0,0-.05,6.53C211.59,184,218.8,195.13,225.92,206.3Zm-89.6,106,44.1-9.16L136.32,294ZM267.26,445.45l2.12-1.33c-4.31-9.28-8.25-18.86-13.05-27.72-2.81-5.18-3-8.55-.05-13.94,5-9,8.88-19,13.23-28.52l-2-1.32c-7,11.29-14.13,22.47-20.84,34-.87,1.51-.25,5.57.83,7.39C253.91,424.68,260.64,435,267.26,445.45ZM322.72,286l1.87-1.34c-4.08-9.11-7.47-18.85-12.45-27.14-3.9-6.49-3.22-10.48.21-16.6,4.81-8.62,8.42-18.28,12.55-27.5l-1.9-1.17c-7,11.34-14.16,22.59-21,34.12a8.5,8.5,0,0,0,0,6.55C308.75,264.07,315.78,275,322.72,286Zm18.92,7.72-2.1-1c-6.9,11-13.9,21.95-20.61,33.15-.93,1.55-1.26,5.2-.44,6.58,6.93,11.58,14.19,22.85,21.34,34.22l2-1.36c-4.56-9.79-8.73-19.91-13.83-29.24-2.69-4.91-2.87-7.91-.15-12.93C332.92,313.67,337.09,303.51,341.64,293.68ZM221.29,241.5H206.05c2.23,13.66,4.58,28,7.28,44.46C216.27,269.55,218.8,255.4,221.29,241.5Zm53.89-36.27,1.07-.07c2.33-14.29,4.65-28.57,6.8-41.77h-15C270.33,176.69,272.75,191,275.18,205.23ZM281,127.6c2.9-17,5.29-31.06,7.51-44H273.29C275.57,96.59,278,110.7,281,127.6Zm-26.62,80c3.06-16.85,5.66-31.15,8-44.23H247.3C249.46,176.89,251.72,191,254.37,207.58Zm136.78-96.15-36-9.56v18.57Zm-209.59,16c2.85-16.88,5.22-30.92,7.41-43.85h-15.2Zm20.54,57.23-35.19-8.71v18.46ZM341.81,323.44c2.33,13.43,4.78,27.49,7.74,44.49,2.82-17.31,5.14-31.57,7.24-44.49Zm-197.9-2.71V339l36.28-8.95Zm36-70.24-36-8.77v18.43ZM70.12,330.07l-35.4-9.59V339Zm21.1,90.4,35.62-9.24-35.62-9.17ZM175.67,57.8V76.23L211,67ZM363.91,323.91l7,44.93c3-17.16,5.43-31.53,7.73-44.93ZM124.63,169.52,88.89,160.7v18.42ZM70.87,252.65l35.19-9.39-35.19-9Zm95.4-88.14L202,154.9l-35.74-8.77Zm68.79,178.56L199.56,334v18.27Zm60.21-259c2.18,13.58,4.47,27.92,7.14,44.58,2.9-16.91,5.38-31.32,7.65-44.58ZM254.94,94.71l-35.73-9.48v18.39ZM196,84.07c2.07,13.44,4.29,27.79,7,45.11,3-17.59,5.41-31.79,7.67-45.11ZM34.54,126.46c2.89-17,5.35-31.35,7.6-44.51H27.29ZM391.16,86.28l-35.87-9.22V95.29Zm-80.4-19.15-35.58-9.24V76.17Zm-239.32,213L106.2,271l-34.76-9.44Zm-8.56-198H47.94c2.23,13.5,4.59,27.76,7.23,43.77C58,109.76,60.53,95.46,62.88,82.15ZM269.2,365.78c2.64-16.19,5-30.54,7.16-43.95h-14.9C263.79,335.07,266.32,349.44,269.2,365.78Zm110-58.83-35.5-9.09V316ZM75.38,126.63l7.24-44.08H67.84C70.2,96.34,72.58,110.22,75.38,126.63Zm27.27-38.76,35.83-9.39-35.83-8.81Zm.1,27.76L138.2,106l-35.45-8.71ZM420.48,172.5l35.78-9.36-35.78-8.86Zm-122,62.67-35-9.16v18.34Zm-98.86,71.25v18.17L235,315.46Zm100-41.45-35.75-9v18Zm156.82-74.22L420.66,182V200ZM305.06,160.48v18l35.86-9.09Zm-41,258,35.52-9.24L264,400.34ZM437.56,230.64l35.64-7.53-35.64-7.23Zm35.67,13.81L437.38,237c.17,4.92.35,9.73.52,14.6Zm-89.24-5v15l34.16-7.55Zm73,18.9c1.78,9.17,3.62,18.67,5.47,28.16l2.28,0c2-9.41,4-18.81,5.94-28.12Zm-48.19,28.16,2.41-.1c1.81-9.48,3.63-19,5.37-28.08h-13.3Zm31.36-28.21c1.93,9.95,3.84,19.79,5.76,29.62l1.89-.24q2.67-14.68,5.33-29.38Zm-48.19,28h2.27c1.73-9.44,3.47-18.89,5.13-27.92H386.55Q389.25,272.3,391.93,286.24Z" transform="translate(-24 -50.5)"/><path d="M24,167.23c7.73-11.18,15.47-22.35,23.79-34.37l10.06,7.9,7.81-5.68c-2.48,23.45-4.84,45.73-7.51,70.9-2.76-23.95-5.21-45.22-7.66-66.5l-2.89.18c-4.71,9.05-9.72,17.89-13.87,27.31-.89,2,1,6.44,2.24,9.32,4.1,9.43,8.51,18.66,11.22,29L24,171.47Z" transform="translate(-24 -50.5)"/><path d="M357,50.5l31.86,13.08L356.59,71.8l-.81-15.1-2.2.19c-5.16,9.94-10.65,19.65-15.2,30-.94,2.14,1.27,6.86,2.62,10,4.13,9.6,8.54,19,12.85,28.48l-1.94,1.24c-7.06-11.23-14.39-22.23-20.89-33.93-1.06-1.89,1.09-7.32,2.63-10.46,5.28-10.73,11-21.17,16.47-31.72Z" transform="translate(-24 -50.5)"/><path class="cls-1" d="M484,54.74v67.92c-4.82-9.83-9.84-19.53-14.31-29.61-.93-2.1-.52-6,.48-8.36C474.54,74.55,479.35,64.7,484,54.74Z" transform="translate(-24 -50.5)"/><path d="M408.48,50.5a27,27,0,0,1,.47,5.17q-2.81,29.14-5.81,58.27c-.15,1.52-.83,3-1.53,5.32-3-23.74-5.77-46.25-8.58-68.76Z" transform="translate(-24 -50.5)"/><path d="M24,292.45c8.82,2.45,17.58,5.35,26.49,7.21,6.29,1.33,12.77,1.26,19.17,3.59L24,313.67Z" transform="translate(-24 -50.5)"/><path d="M24,343.38l44.34,11.15.21,1.19c-5.14.56-10.34.69-15.4,1.77-9.76,2.09-19.44,4.71-29.15,7.12Z" transform="translate(-24 -50.5)"/><path d="M484,54.74c-4.65,10-9.46,19.81-13.83,29.95-1,2.31-1.41,6.26-.48,8.36,4.47,10.08,9.49,19.78,14.31,29.61V129c-7.59-12.08-15.36-24-22.55-36.42-1-1.66.39-6.42,1.72-8.85,6.17-11.26,12.71-22.2,19.11-33.26C482.86,51.91,483.43,53.33,484,54.74Z" transform="translate(-24 -50.5)"/><path d="M468.55,50.5c-4,10.73-7.29,22-12.19,32-3,6.1-3.48,9.53.11,15.56a99.59,99.59,0,0,1,11,28.8c-7.11-11.1-14.41-22-21.11-33.52-.93-1.59.59-6.31,1.91-8.83,6-11.48,12.35-22.69,18.58-34Z" transform="translate(-24 -50.5)"/><path d="M24,247.88l38.14,10.61c-3.93,1.17-5.89,1.8-7.87,2.33-7.69,2.06-15.38,4.23-23.11,6.06-2.31.55-4.77.09-7.16.1Z" transform="translate(-24 -50.5)"/><path d="M24,400.69l35.62,10.59L24,421.91Z" transform="translate(-24 -50.5)"/><path d="M386.36,375c-2.77,24.73-5.28,47.2-7.8,69.67l-.79.11c-2.34-22.75-4.67-45.49-7.15-69.53l7.66,6.62Z" transform="translate(-24 -50.5)"/><path d="M70.14,133.83,78,140.92l8-7.23c-2.77,24.29-5.36,46.93-7.94,69.58l-.8.06C75,180.81,72.65,158.3,70.14,133.83Z" transform="translate(-24 -50.5)"/><path d="M339.66,134.39l7.5,6.8,8.12-6.8c-2.67,24.38-5.17,47.28-7.67,70.19l-.82,0C344.48,181.83,342.16,159,339.66,134.39Z" transform="translate(-24 -50.5)"/><path d="M238.28,447.17c-2.91-25.62-5.48-48.31-8.19-72.18l8.07,5.78,7.59-6C243.27,398.79,240.93,421.53,238.28,447.17Z" transform="translate(-24 -50.5)"/><path d="M121.74,366.87c-2.86-25.41-5.41-48-8.19-72.66l7.81,7.18,8-6.64C126.84,318.73,124.45,341.33,121.74,366.87Z" transform="translate(-24 -50.5)"/><path d="M428.71,54.44l8,7.17L444.45,54c-2.7,24.56-5.2,47.3-8.06,73.34C433.68,101.6,431.3,79,428.71,54.44Z" transform="translate(-24 -50.5)"/><path d="M79.47,294.66l7.76,6.69,7.84-6.45c-2.55,23.91-5,46.5-7.65,71.74C84.64,341.49,82.15,318.89,79.47,294.66Z" transform="translate(-24 -50.5)"/><path d="M247.71,301.63l7.88-6.65c-2.65,23.87-5.15,46.38-8,72-2.67-25.38-5-47.8-7.58-72Z" transform="translate(-24 -50.5)"/><path d="M78.27,375.64c-2.67,24.39-5.13,46.79-7.89,72.07l-7.86-71.3,8.08,6.16C72.85,380.55,75,378.57,78.27,375.64Z" transform="translate(-24 -50.5)"/><path d="M107.78,215.14l7.34,6.24,8.3-6.61c-2.69,23.78-5.24,46.3-8.16,72.07C112.62,261.5,110.29,239.22,107.78,215.14Z" transform="translate(-24 -50.5)"/><path d="M318.58,378.09h14.69c-2.18,20.74-4.57,43.46-7.3,69.31C323.23,421.65,320.81,399,318.58,378.09Z" transform="translate(-24 -50.5)"/><path d="M235,287.87c-2.81-25-5.33-47.38-8-71.53L234.6,223l8-6.55C240,240.28,237.66,262.73,235,287.87Z" transform="translate(-24 -50.5)"/><path d="M138.5,55l7.7,6.77,7.88-6.67c-2.62,23.74-5.11,46.23-7.92,71.67Z" transform="translate(-24 -50.5)"/><path d="M289.94,365.83c-2.38-22.56-4.76-45.12-7.25-68.76l8.12,6.12L298,296c-2.59,24.57-5,47.17-7.34,69.77Z" transform="translate(-24 -50.5)"/><path d="M405.26,206.08c-2.65-25.14-5-47.27-7.46-70.68l7.66,6.37,8-7C410.7,158.56,408.16,180.79,405.26,206.08Z" transform="translate(-24 -50.5)"/><path d="M192.24,286.59c-2.69-25.3-5.05-47.38-7.22-67.76h14.55C197.37,239.16,195,261.3,192.24,286.59Z" transform="translate(-24 -50.5)"/><path d="M211.84,373.32c-2.29,6.3-3.93,13.15-7,18.79-6.42,11.74-6.11,22.71-.15,34.45,2.94,5.79,4.82,12.41,7.18,18.66-.67.46-1.34.92-2,1.39-3.27-6.16-6.37-12.46-9.85-18.42-3.78-6.49-11.07-12.72-11-19s7.46-12.33,11.24-18.84c3.43-5.9,6.31-12.28,9.43-18.45Z" transform="translate(-24 -50.5)"/><path d="M365.77,212.93c-2.64,7.07-4.73,14.57-8,21.11-5.1,10.05-5.45,19.31-.4,29.54a82.86,82.86,0,0,1,7,22.2c-7.07-11-14.2-22-21.1-33.13-.78-1.26-.92-4.4-.19-5.61,7-11.74,14.23-23.25,21.39-34.83Z" transform="translate(-24 -50.5)"/><path d="M170.26,373.79c-2.56,6.77-4.62,13.94-7.8,20.23-5.31,10.5-5.14,20.22.06,30.65,3.07,6.14,5.14,13.05,7.65,19.62l-2.07,1.52c-2.75-5.21-5.36-10.54-8.28-15.59-4.24-7.32-12-14.35-12.11-21.66-.11-6.73,8-13.53,12.25-20.56,3-4.95,5.46-10.35,8.17-15.55Z" transform="translate(-24 -50.5)"/><path d="M79.71,67.69,27.26,75.58c3.6-5.66,6.63-11.07-2.3-17.51l54.83,8.69Z" transform="translate(-24 -50.5)"/><path d="M82.08,445.58,86.21,436c-1.32-3.18-2.55-6.13-4.12-9.93l47,10Z" transform="translate(-24 -50.5)"/><path d="M127.91,384.87l-42.85,9V375.53l43,8.26Z" transform="translate(-24 -50.5)"/><path d="M165.92,133.64c-3.47,8.24-6,17.45-10.66,24.47-5.72,8.61-5.1,14.53.21,22.9,4.49,7.08,6.93,16.16,8.78,25.15-7.17-11.17-14.47-22.23-21.35-33.67-.9-1.49-.36-5.6.72-7.37,6.63-10.89,13.6-21.47,20.46-32.14Z" transform="translate(-24 -50.5)"/><path d="M379,134c-4.27,9.31-8.12,19-13,27.8-3.06,5.59-3.21,9.42-.1,15.08,4.87,8.86,8.74,18.55,13,27.88l-2.7,2.14c-1.79-3.47-3.42-7.11-5.42-10.39-4.28-7-9-13.66-13-20.91-1.43-2.61-2.71-7.79-1.63-9.65,6.55-11.36,13.8-22.1,20.82-33Z" transform="translate(-24 -50.5)"/><path d="M135.67,363.84V345.51l44.49,8.67Z" transform="translate(-24 -50.5)"/><path d="M225.92,206.3c-7.12-11.17-14.33-22.26-21.23-33.63a8.45,8.45,0,0,1,.05-6.53c6.91-11.34,14.13-22.4,23-32.49-4.08,9.18-7.57,18.86-12.42,27.37-3.59,6.32-3.52,10.48,0,16.74,4.77,8.47,8.28,18,12.33,27.14Z" transform="translate(-24 -50.5)"/><path d="M136.32,312.26V294l44.1,9.09Z" transform="translate(-24 -50.5)"/><path d="M267.26,445.45C260.64,435,253.91,424.68,247.52,414c-1.08-1.82-1.7-5.88-.83-7.39,6.71-11.55,13.84-22.73,20.84-34l2,1.32c-4.35,9.56-8.22,19.52-13.23,28.52-3,5.39-2.76,8.76.05,13.94,4.8,8.86,8.74,18.44,13.05,27.72Z" transform="translate(-24 -50.5)"/><path d="M322.72,286c-6.94-11-14-21.89-20.68-33.08a8.5,8.5,0,0,1,0-6.55c6.82-11.53,14-22.78,21-34.12l1.9,1.17c-4.13,9.22-7.74,18.88-12.55,27.5-3.43,6.12-4.11,10.11-.21,16.6,5,8.29,8.37,18,12.45,27.14Z" transform="translate(-24 -50.5)"/><path d="M341.64,293.68c-4.55,9.83-8.72,20-13.82,29.38-2.72,5-2.54,8,.15,12.93,5.1,9.33,9.27,19.45,13.83,29.24l-2,1.36c-7.15-11.37-14.41-22.64-21.34-34.22-.82-1.38-.49-5,.44-6.58,6.71-11.2,13.71-22.13,20.61-33.15Z" transform="translate(-24 -50.5)"/><path d="M221.29,241.5c-2.49,13.9-5,28.05-8,44.46-2.7-16.46-5.05-30.8-7.28-44.46Z" transform="translate(-24 -50.5)"/><path d="M275.18,205.23c-2.43-14.27-4.85-28.54-7.11-41.84h15c-2.15,13.2-4.47,27.48-6.8,41.77Z" transform="translate(-24 -50.5)"/><path d="M281,127.6c-3-16.9-5.42-31-7.7-44H288.5C286.28,96.54,283.89,110.58,281,127.6Z" transform="translate(-24 -50.5)"/><path d="M254.37,207.58c-2.65-16.57-4.91-30.69-7.07-44.23h15.11C260,176.43,257.43,190.73,254.37,207.58Z" transform="translate(-24 -50.5)"/><path d="M391.15,111.43l-36,9V101.87Z" transform="translate(-24 -50.5)"/><path d="M181.56,127.4l-7.79-43.85H189C186.78,96.48,184.41,110.52,181.56,127.4Z" transform="translate(-24 -50.5)"/><path d="M202.1,184.63l-35.19,9.75V175.92Z" transform="translate(-24 -50.5)"/><path d="M341.81,323.44h15c-2.1,12.92-4.42,27.18-7.24,44.49C346.59,350.93,344.14,336.87,341.81,323.44Z" transform="translate(-24 -50.5)"/><path d="M143.91,320.73l36.28,9.32L143.91,339Z" transform="translate(-24 -50.5)"/><path d="M179.93,250.49l-36,9.66V241.72Z" transform="translate(-24 -50.5)"/><path d="M70.12,330.07,34.72,339V320.48Z" transform="translate(-24 -50.5)"/><path d="M91.22,420.47V402.06l35.62,9.17Z" transform="translate(-24 -50.5)"/><path d="M175.67,57.8,211,67l-35.28,9.24Z" transform="translate(-24 -50.5)"/><path d="M363.91,323.91h14.76c-2.3,13.4-4.77,27.77-7.73,44.93Z" transform="translate(-24 -50.5)"/><path d="M124.63,169.52l-35.74,9.6V160.7Z" transform="translate(-24 -50.5)"/><path d="M70.87,252.65v-18.4l35.19,9Z" transform="translate(-24 -50.5)"/><path d="M166.27,164.51V146.13L202,154.9Z" transform="translate(-24 -50.5)"/><path d="M235.06,343.07l-35.5,9.2V334Z" transform="translate(-24 -50.5)"/><path d="M295.27,84.07h14.79c-2.27,13.26-4.75,27.67-7.65,44.58C299.74,112,297.45,97.65,295.27,84.07Z" transform="translate(-24 -50.5)"/><path d="M254.94,94.71l-35.73,8.91V85.23Z" transform="translate(-24 -50.5)"/><path d="M196,84.07h14.63c-2.26,13.32-4.68,27.52-7.67,45.11C200.29,111.86,198.07,97.51,196,84.07Z" transform="translate(-24 -50.5)"/><path d="M34.54,126.46,27.29,82H42.14C39.89,95.11,37.43,109.49,34.54,126.46Z" transform="translate(-24 -50.5)"/><path d="M391.16,86.28l-35.87,9V77.06Z" transform="translate(-24 -50.5)"/><path d="M310.76,67.13l-35.58,9V57.89Z" transform="translate(-24 -50.5)"/><path d="M71.44,280.11V261.59L106.2,271Z" transform="translate(-24 -50.5)"/><path d="M62.88,82.15c-2.35,13.31-4.86,27.61-7.71,43.77-2.64-16-5-30.27-7.23-43.77Z" transform="translate(-24 -50.5)"/><path d="M269.2,365.78c-2.88-16.34-5.41-30.71-7.74-43.95h14.9C274.17,335.24,271.84,349.59,269.2,365.78Z" transform="translate(-24 -50.5)"/><path d="M379.24,307,343.74,316V297.86Z" transform="translate(-24 -50.5)"/><path d="M75.38,126.63c-2.8-16.41-5.18-30.29-7.54-44.08H82.62Z" transform="translate(-24 -50.5)"/><path d="M102.65,87.87V69.67l35.83,8.81Z" transform="translate(-24 -50.5)"/><path d="M102.75,115.63V97.29L138.2,106Z" transform="translate(-24 -50.5)"/><path d="M420.48,172.5V154.28l35.78,8.86Z" transform="translate(-24 -50.5)"/><path d="M298.49,235.17l-35,9.18V226Z" transform="translate(-24 -50.5)"/><path d="M199.63,306.42l35.32,9-35.32,9.13Z" transform="translate(-24 -50.5)"/><path d="M299.65,265l-35.75,8.95V256Z" transform="translate(-24 -50.5)"/><path d="M456.47,190.75,420.66,200V182Z" transform="translate(-24 -50.5)"/><path d="M305.06,160.48l35.86,8.93-35.86,9.09Z" transform="translate(-24 -50.5)"/><path d="M264,418.5V400.34l35.52,8.92Z" transform="translate(-24 -50.5)"/><path d="M437.56,230.64V215.88l35.64,7.23Z" transform="translate(-24 -50.5)"/><path d="M473.23,244.45l-35.33,7.16c-.17-4.87-.35-9.68-.52-14.6Z" transform="translate(-24 -50.5)"/><path d="M384,239.41l34.16,7.45L384,254.41Z" transform="translate(-24 -50.5)"/><path d="M391.34,226.62,384.15,228V213.31l32.33,6.13.26,1.24-25.45,6Z" transform="translate(-24 -50.5)"/><path d="M457,258.31h13.69c-2,9.31-3.95,18.71-5.94,28.12l-2.28,0C460.57,277,458.73,267.48,457,258.31Z" transform="translate(-24 -50.5)"/><path d="M408.76,286.47l-5.52-28.18h13.3c-1.74,9.11-3.56,18.6-5.37,28.08Z" transform="translate(-24 -50.5)"/><path d="M440.12,258.26h13q-2.67,14.7-5.33,29.38l-1.89.24C444,278.05,442.05,268.21,440.12,258.26Z" transform="translate(-24 -50.5)"/><path d="M391.93,286.24q-2.69-14-5.38-27.93h12.78c-1.66,9-3.4,18.48-5.13,27.92Z" transform="translate(-24 -50.5)"/><path d="M265.77,145.63c1.05-1.68,2.41-5,3.1-4.79a51.26,51.26,0,0,1,16.39,8l-19.94,7.39c.38-4.17.64-7.05.9-9.94Z" transform="translate(-24 -50.5)"/><path d="M266.22,146.33l-21,10V140.17l20.58,5.46Z" transform="translate(-24 -50.5)"/><path d="M353.84,416.33l-20.92,9.51V409.62L353,415.09A9.64,9.64,0,0,1,353.84,416.33Z" transform="translate(-24 -50.5)"/><path d="M353,415.09c.79-1.63,1.88-4.79,2.34-4.66a53.73,53.73,0,0,1,17.23,8l-20.16,7.25c.59-3.85,1-6.6,1.43-9.33A9.64,9.64,0,0,0,353,415.09Z" transform="translate(-24 -50.5)"/><path d="M391.29,226.68l27.94,7.42-25.74,4.61c-.66-3.72-1.41-7.9-2.15-12.09Z" transform="translate(-24 -50.5)"/></svg>