<svg id="Layer_1" data-name="Layer 1" xmlns="http://www.w3.org/2000/svg" viewBox="0 0 62.3 35.02"><path d="M32.65,43.88,6.86,27.36a.56.56,0,0,1,0-.79L31.74,11a.56.56,0,0,1,.95.4v2.4a.59.59,0,0,1-.16.4L10.78,26.63a.57.57,0,0,0,0,.8l22.67,13.4a.54.54,0,0,1,.17.4l0,2.25A.56.56,0,0,1,32.65,43.88Z" transform="translate(-6.7 -9.02)"/><rect x="1.32" y="17.15" width="18.54" height="1.32"/><path d="M26.49,26.24A148,148,0,0,1,8,28L9.8,26.17l0,1.32L8,25.69l4.64.08a101.41,101.41,0,0,1,13.9,1.35l-.37.37c.08-.35.22-.76.3-1.25Zm.14-.15c0,.49,0,1,0,1.51h-.11L8,27.69h-.2c0-.28,0-1.44,0-1.72H8l18.61.12Z" transform="translate(-6.7 -9.02)"/><path d="M63.76,36.74c0,2.21,0,4.43,0,6.64,0,.46-.13.62-.58.62-3.06,0-6.11,0-9.17,0-.56,0-.59,0-.59-.64,0-3.71,0-7.42,0-11.13,0-.7,0-.7-.66-.7-1.81,0-3.61,0-5.42,0-.44,0-.58.15-.57.62,0,3.71,0,7.42,0,11.13,0,.73,0,.73-.69.73h-9c-.63,0-.65,0-.65-.68V30.18c0-.72,0-.72-.69-.72h-4a2.11,2.11,0,0,1-.51-.19,1.84,1.84,0,0,1,.23-.49L46,13.27l3.69-3.93c.4-.43.44-.43.84,0q9.13,9.71,18.25,19.43a1.58,1.58,0,0,1,.23.49,1.57,1.57,0,0,1-.48.18H64.44c-.68,0-.68,0-.68.74Z" transform="translate(-6.7 -9.02)"/></svg>