<svg id="Layer_1" data-name="Layer 1" xmlns="http://www.w3.org/2000/svg" viewBox="0 0 486.64 267.12"><defs><style>.cls-1,.cls-2{fill:#1d1d1b;}.cls-2{font-size:12px;font-family:MyriadPro-Regular, Myriad Pro;}.cls-3{letter-spacing:-0.01em;}.cls-4{letter-spacing:-0.03em;}.cls-5{letter-spacing:-0.03em;}</style></defs><g id="WldXUh"><path class="cls-1" d="M210.06,30.17l-15.19,2.77c-2.49.46-2.12,2.36-1.63,4.19Q196,47.57,198.92,58c1.89,6.8,3.86,13.56,5.77,20.35,1.33,4.77,2.66,9.54,3.91,14.33.55,2.14-.23,3.6-2.27,4a12.91,12.91,0,0,1-2.49.12q-30.42,0-60.83,0a31.93,31.93,0,0,1-3.32-.32c-1.32-9.48,11.38-29.84,20.72-32.23,18.38-4.72,15.24-7.29,36.12,1.6.18-.69.62-1.44.47-2-1.78-6.57-3.74-13.08-5.45-19.67-1-3.91-1.65-8-2.46-11.93a9.06,9.06,0,0,0-.63-2.62c-2-3.48-2-6.75.35-10.08S194.58,17,196.93,18C202.19,20.25,207.06,23.66,210.06,30.17Zm-67.4,61.9a16.22,16.22,0,0,0,2.7.58c18.66,0,37.31.08,56,0,3.9,0,4.18-.78,2.53-4.77-.4-1-.42-2.09-.75-3.09-1.88-5.51-3.18-11.43-7.82-15.16-4.87-3.91-10.86-4.34-16.45-5.74-3.44-.86-7,.65-10.53,1.74C155.62,69.51,148.13,78.87,142.66,92.07ZM202.94,28.6c-1.9-5.46-7.05-8.42-10.61-6.42-.81.46-1.32,2.33-1.32,3.55,0,1,1,2.69,1.57,2.74C195.93,28.74,199.32,28.6,202.94,28.6Z" transform="translate(-48.29 -15.09)"/><path class="cls-1" d="M521.05,240.39c-3.91-4.89-9-5-14.39-4.7a5.27,5.27,0,0,1-3.94-1.45c-2.18-2.53-4.67-3.1-7.63-2.91a35.48,35.48,0,0,1-8,0c-7.55-1.19-13.84,1.46-19.53,6.73-1,1-2.56,1.2-3.86,1.78-.34-1.69-.81-3.37-1-5.08-.41-3.54-.79-7.1-.93-10.67a29.88,29.88,0,0,1,.68-5.09c1.49.36,3.24.29,4.41,1.17,3.09,2.34,5.81,5.27,8.91,7.59a9.18,9.18,0,0,0,5,1.63c6.65.18,13.32-.07,20,.14a6.16,6.16,0,0,0,5.61-2.71c2.91-4,7.58-6.45,9.07-11.88.17-.62,1.69-1.1,2.58-1.11,5.43-.11,10.87-.06,15.88-.06,1.86,3.46-.08,5-1.54,6.2-4.57,3.68-6.37,8.31-5.66,14.55.3,2.59-.69,5.34-.88,8-.08,1.18.54,2.41.55,3.61q.06,18,0,36l-1.12.09c-.07-2.14-.25-4.29-.21-6.43.11-5.63-.85-6.87-5.94-6.9-8.5-.06-17,.12-25.48-.1a8.08,8.08,0,0,0-6.54,3.05c-2.34,2.54-4.8,4.94-7.74,7.93-.14-1.74-.2-3.34-.43-4.92a34.85,34.85,0,0,0-.84-3.46,12.39,12.39,0,0,0-3.47,1.2c-2.49,1.78-4.78,3.89-7.25,5.71a27.37,27.37,0,0,1-4.06,2V254.93c2.79,2.24,4.92,3.74,6.81,5.53s3.1,3.78,4.87,5.39a3.52,3.52,0,0,0,3.08.58c.52-.17.86-1.8.91-2.79.13-2.43,0-4.87,0-7.31l1.18-.63c2.31,2.75,4.63,5.49,6.93,8.25a7.64,7.64,0,0,0,6.53,3.06c8.49-.21,17,0,25.48-.09,4.68,0,5.9-1.45,5.91-6.53a36.29,36.29,0,0,1-.2-4.39c.75-5.9-.92-11-3.95-15.71.61-.18,1.74-.31,1.76-.54.43-5.13,1.56-10.4-1-15.23-.88-1.68-2.39-3-3.61-4.43-1.06,4.58-2.11,8.45.34,12.36C519.88,234.69,520.23,237.72,521.05,240.39Zm-55.73,35.8c2.77-2,4.72-3.12,6.2-4.73.82-.89,1.55-3.34,1.09-3.94a90.58,90.58,0,0,0-7.29-7.63Zm-.07-53.84v13.47l8.94-5.59Zm49.83.86-1.23-.33a42.91,42.91,0,0,0-4.2,4.33c-1.16,1.53-4,3-2.33,5.18,1,1.32,3.79,1.22,5.78,1.25.65,0,1.79-1.53,1.89-2.46C515.25,228.55,515.08,225.87,515.08,223.21Zm4.51-7.28c-.19.44-.37.88-.55,1.31,1.3,1.52,2.42,3.34,4,4.42,1,.68,3,.83,3.8.14,1.08-.94,1.43-2.9,2.09-4.42a13.2,13.2,0,0,0-3.42-1.38A50.28,50.28,0,0,0,519.59,215.93Zm-37.4,46.46-.92.63v11.35l5.26-6.65Z" transform="translate(-48.29 -15.09)"/><path class="cls-1" d="M264,15.09c-.48,3.5-.77,6.08-1.2,8.63a41.39,41.39,0,0,1-1.32,6.22c-1.36,4-.7,5.38,3.25,5.39,15.79.07,31.59,0,47.38,0h6.27c.16,3.19.56,5.65-.79,8.64-1.6,3.57-1.88,7.85-2.78,11.81-.67,2.92-1.33,5.85-2.12,8.72C310.85,71.29,308.8,78,307,84.78c-.95,3.6-1.49,7.33-2.19,11-.55,2.9-1.89,3.29-3.77,1.36-5.07-5.21-11-9.78-14.92-15.87-7.64-11.79-7.86-27.95,2.92-38.76.91-.92,1.22-2.58,1.81-3.89-1.31-.3-2.63-.92-3.92-.83-6.27.44-12.53,1.48-18.8,1.52-5.35,0-10.81,1-16.11-1.58-3.42-1.69-4.9-5.5-3.32-9.45a20.33,20.33,0,0,1,9.72-11A54.79,54.79,0,0,1,264,15.09Zm20.59,48.25c.25,2.9-.39,6.45.9,8.57A171.74,171.74,0,0,0,298.07,89.3c2.14,2.69,4.29,1.53,5.09-2,1-4.43,2.31-8.77,3.47-13.16,1.49-5.66,3-11.32,4.46-17,1.2-4.59,2.29-9.21,3.58-13.77.66-2.35.59-4.26-2-4.26-5.44,0-10.89.31-16.33.56a2.22,2.22,0,0,0-1.23.82C289.33,46.82,284.08,53.43,284.63,63.34Zm-34-31.8c1.26,1.51,1.89,2.79,2.84,3.23s2.83.27,3.06-.27c1.65-3.86,4.08-7.75,1.17-13.43C255.15,24.88,253,28.09,250.66,31.54Z" transform="translate(-48.29 -15.09)"/><path class="cls-1" d="M147.19,219.6c5.42-2,10.11-4.07,15-5.29a25.18,25.18,0,0,1,9.44,0,4.75,4.75,0,0,1,3,3.17c1,5.47,1.68,11,2.21,16.55.41,4.4,1.78,6.31,5.82,6.43s7.21,2.54,10.32,5.24c4.33,3.76,9.15,6.83,13.31,10.77,2.17,2.06,4.29,1.48,6.5,1.66,4.62.38,8.2,3.73,8.07,7.71a4.77,4.77,0,0,1-5.73,4.3,7.48,7.48,0,0,0-3.49-.05c-5.11,1-10.22,3-15.31,2.95s-10.06-2.74-15.17-3.27a70.59,70.59,0,0,0-16,.39c-4.07.52-7.82,2.83-12.23,1.06-2.68-1.07-3.77-2.53-3.75-5.48,0-7.16.2-14.34-.08-21.49-.14-3.34-1.55-6.61-1.77-10C147,229.33,147.19,224.37,147.19,219.6Zm69.59,43.68c-.31-.26-.67-.82-1-.83-8.51-.25-15.21-4.6-21.51-10.59-3.26-3.09-7.3-5.94-11.4-7-6.69-1.76-9.67-4.68-9.7-12.49,0-2.75.17-5.52-.09-8.25-.49-5.07-2.85-7.06-7.35-6.26-4.15.74-8.29,1.56-12.37,2.66a4.81,4.81,0,0,0-2.45,2.77c-.42,1.09-.15,2.52-.11,3.8.16,5.85-.5,11.93.81,17.46,1,4.16,1.41,8,.2,11.72-1.64,5.06.46,8.47,3.35,11.65a3.69,3.69,0,0,0,3.09,1,28.11,28.11,0,0,0,6.43-2.42c5.23-2.76,10.32-2.32,15.69-.26a59.08,59.08,0,0,0,11.82,2.86c8.54,1.37,16.15-3.84,24.41-4.63C216.65,264.44,216.69,263.8,216.78,263.28Z" transform="translate(-48.29 -15.09)"/><path class="cls-1" d="M328.09,216.12c-.48,3.21-1,5.75-1.2,8.31-.3,4.3.42,8.59-1.75,12.78-1,1.95-.11,5-.31,7.59-.62,7.9-1.26,15.8-2.15,23.67-.18,1.62-1.48,3.08-2.38,4.83-1.07-.87-1.87-1.46-2.6-2.12-6.06-5.44-12.61-6.11-19.61-2.53a2.32,2.32,0,0,1-1,.15c-13.57.26-27,3.61-40.63,2.31-2.14-.2-3.61-.56-3.34-3.36.58-5.88-1.33-11.95,1.68-17.72,1-1.82.37-4.68.3-7.06-.07-2.22,1.22-3.11,2.75-3.07,6.62.15,13.44-.45,19.83,1.07,7.38,1.76,14.68,1.32,22,1.78,3.2.2,5-1.23,7-3.83,5.7-7.29,11.77-14.22,17.82-21.17C325.43,216.8,327,216.61,328.09,216.12Zm-2.8,8.71c-1.67.11-3-.25-3.47.3-3.76,4.45-7.45,9-11,13.66-3.13,4.14-5.61,8.76-11.74,8.11-10.69-1.14-21.43-1.66-32.15-2.51a6.45,6.45,0,0,1-2.15-1c-4-2.13-7.37-.16-7.91,4.62-.57,5-1.31,10-1.74,15-.1,1.2.51,3.39,1.19,3.6,3.3,1,7.26,3.07,10,1.92,6-2.47,11.81-.84,17.65-1.53,1.48-.18,3.34.38,4.4-.42,3.21-2.43,6.7-1.61,10.12-1.81,1.65-.09,3.46.16,4.92-.49,4.42-2,8.44-2.87,12.2,1.65,1.39,1.68,3.13,1.2,3.61-1.37.69-3.71,1.46-7.42,1.84-11.18.83-8.11,1.38-16.26,2.18-24.38C323.37,227.85,324.27,226.84,325.29,224.83Z" transform="translate(-48.29 -15.09)"/><path class="cls-1" d="M175,185.48l6.4-11.46c-4.56,0-8.15.35-11.66-.08a95.46,95.46,0,0,1-13.56-2.72c-3.1-.85-5.94-2.9-9-3.56a10.31,10.31,0,0,0-6.61,1.12c-3.33,1.79-6.28,4.44-9.53,6.46-.93.57-2.34.21-3.53.27.41-1,.55-2.59,1.27-3.08,4.25-2.9,8.63-5.58,13-8.27a3.34,3.34,0,0,1,2.32-.6c3.59,1,7.08,2.5,10.68,3.4,7.32,1.82,14.37,4.89,22,5.21,4.2.17,7.48-.7,9.09-5.5.26-.75,1.19-1.21,2.13-2.11,1.93,3.6,4,2.92,6.79.92,5.55-4,11.39-7.54,17.08-11.34,1.9-1.28,2.16-4.74-.12-6.51a80.85,80.85,0,0,0-13.43-8.7,73.9,73.9,0,0,0-15.91-6c-2.53-.6-5.62,1-8.3,2.05q-6.85,2.74-13.48,6.15c-2,1-3.65,3-5.6,4.17-2.24,1.41-4.67,2.44-7,3.74-3.55,2-6.86,3.62-10.94.8-2.93-2-6.43-3.21-9.8-4.33-2-.65-2.59-1.69-1.72-3.45.21-.43,2-.27,3,.14,3.63,1.63,7.11,3.75,10.81,5.1A8.1,8.1,0,0,0,145,147c3.77-1.72,7.29-4.1,10.95-6.12,6.07-3.35,12.16-6.63,18.73-10.2-2.39-1-5-1.94-7.47-3.08a5.68,5.68,0,0,1-2-1.8,2,2,0,0,1,.26-1.46,4.67,4.67,0,0,1,2.67,0,90.56,90.56,0,0,0,16.89,6.16C194,132.91,203,136,210.55,142c2.73,2.15,4.33,6.17,6.08,9.56.36.7-.61,2.94-1.49,3.59-8.53,6.21-16.26,13.8-26.51,17-2.83.89-4.89,4.94-7.18,7.68-1,1.19-1.46,2.94-2.52,4C178.15,184.63,176.81,184.76,175,185.48Z" transform="translate(-48.29 -15.09)"/><path class="cls-1" d="M291,184.27c-6.14-4.1-7.57-10-4.79-16.26s6.39-12.14,8.06-18.69c.83-3.24,2.15-8.36.43-11.12-4.19-6.71-7.33-14.6-14.33-19.09-5.34,3.83-8.25,10-11.73,15.61-2,3.27-4.13,6.21-3.92,10.78.23,5.34,3.61,8.74,5.27,13.15s3.73,8.35,5.7,12.46a10.43,10.43,0,0,1-.09,10.21c-1.28,2.39-1.69,5.34-2.7,7.94-.34.88-1.34,1.46-2,2.18-.18-1.2-.78-2.56-.46-3.57,1.45-4.57,3.6-8.94,2.71-14a14.51,14.51,0,0,0-1.12-4c-3.28-6.52-6.68-13-10.34-20l-5.5,7.14c-2.22-4.26.52-6.39,1.59-8.76a155.43,155.43,0,0,1,7.41-13.84c3.35-5.71,6.64-11.51,10.47-16.81,2.88-4,5.62-3.45,9.23.06,5.66,5.51,9.17,12.75,13.4,19.42a5.09,5.09,0,0,1,.57,2.57c0,4-.39,8.07,3.4,10.74.58.41.34,2.22.54,3.86a12,12,0,0,1-2.32-.74c-3.82-2.4-4.24-2-5.66,2.67a80,80,0,0,1-4.61,11.17A13.4,13.4,0,0,0,290,179.7C290.67,181,290.68,182.74,291,184.27Z" transform="translate(-48.29 -15.09)"/><path class="cls-1" d="M500.91,158.64c-2.91,6.27-1.68,13.24-2.21,19.91h-1.37a67.21,67.21,0,0,0-.27-7.66,32.24,32.24,0,0,0-2-8.18c-1.55-3.56-3.7-6.8-5.54-10.21-2-3.67-3-3.57-5.39,0a62.88,62.88,0,0,1-5.18,6.13l.12.16c1.08-2.76,2.16-5.52,3.48-8.91-3.3,0-6.65-.11-10,.1-.57,0-1.08,1.41-1.61,2.16l.13-.13c-2.9-.64-4.15-2.52-3.73-6.08l9.44-.62c0-9.61-6.5-15.54-10.09-22.9l.92-1.43c3.16.57,6.33,1.08,9.48,1.73,2.43.5,4.59,1.15,7.13-.51a7.38,7.38,0,0,1,6.22-.33c4.56,2,8.76,2.52,13.26-.19,1.7-1,3.59-.07,3.06,2.5a48.52,48.52,0,0,1-2.72,7.9c-1.48,3.72-3.33,7.3-4.49,11.13-.35,1.14,1,2.94,1.56,4.23l5.6-1.93c-.38,2.67,1.47,5.64-1.76,6.48l.12.17c-.54-.76-1.06-2.15-1.63-2.18-4-.19-8-.1-13-.1,1.21,1.78,1.77,2.56,2.28,3.36.66,1,1.33,2.06,1.9,3.15,2.36,4.42,2.47,4.47,6.4,2.37ZM481,132.31c.45-2.12.89-4.24,1.42-6.78-2.43,0-4.74-.13-7,0-2.64.19-3.44,2-1.79,4.28a46.57,46.57,0,0,0,4.12,4.4l3.4-2.07c-.21,1.25,0,2.9-.71,3.67-2.64,3.09-1.47,6.34-1,9.51l16.26,1.53c.25-.92,1.42-2.95,1.13-4.67-.35-2.1-1.93-3.94-3-5.91-1.61-3.08-3.17-6.21-4.86-9.25-.36-.65-1.26-1.43-1.8-1.34a4.42,4.42,0,0,0-2.18,1.6C483.58,128.91,482.31,130.64,481,132.31ZM497,137l1.58-.25c1.38-2.51,2.89-4.94,4.09-7.55.8-1.72.29-3.42-1.69-3.54-3.19-.19-6.39,0-10.6,0C493.05,130.1,495.05,133.53,497,137Z" transform="translate(-48.29 -15.09)"/><path class="cls-1" d="M485.92,53.14c.36,6,.69,10.77.9,15.57a33.81,33.81,0,0,1-.19,6c-.1.78-1,1.43-1.58,2.13-.62-.65-1.72-1.24-1.79-2a70.92,70.92,0,0,1-.13-7.15c0-4-.08-8.09,0-12.13.05-2.33-.88-3.49-2.91-3.42-3.82.12-7.82-.34-11.38.82-2.33.75-4,3.9-6,6-.84.9-1.64,1.85-2.46,2.77l-1.06-.64c.47-3.74,1.39-7.48,1.29-11.19-.1-3.89-1.18-7.74-1.83-11.61l1.33-.83c1.75,2.2,3.4,4.5,5.27,6.55,1.49,1.63,3.13,3.93,4.93,4.23,3.74.6,7.63.17,11.44-.11.49,0,1.22-1.64,1.26-2.56.15-3.3.68-6.8-.11-9.86-.71-2.73-2.89-5-4.58-7.39-.69-1-2-1.44-2.62-2.43-1-1.51-2.64-3.87-2.19-4.83,1.27-2.71,2.86.25,4.35.41a53.05,53.05,0,0,0,12.34-.09c1.36-.17,2.89-2.63,4.21-.72,1.48,2.11-.65,3.58-1.79,5.05-4.27,5.52-7.17,11.54-6.91,19.15.09,2.74.79,3.67,3.06,3.65a85.73,85.73,0,0,0,9.49-.13,7.84,7.84,0,0,0,4.06-2.5c2-2.07,3.82-4.45,6.11-7.17a11.76,11.76,0,0,1,.88,2.92c-.09,4.75-.47,9.51-.37,14.25,0,1.8,1.08,3.58,2.07,6.63-1.89-1-3.21-1.34-4.14-2.21-1.88-1.76-3.52-3.84-5.33-5.71C497.32,50.28,489.77,49.9,485.92,53.14Zm-6.41-29.08-.31,1.26c1.34,1.67,2.51,3.61,4.11,4.89a3.34,3.34,0,0,0,3.47-.2c1.05-1,1.45-2.88,2.13-4.38-1.11-.52-2.18-1.36-3.32-1.5A49.3,49.3,0,0,0,479.51,24.06Zm27.28,22.86-1.34-.54c-.84,1.56-2.37,3.14-2.32,4.67,0,1.33,1.85,2.59,2.88,3.89l.78-.7Zm-39.33,2.84L463,45.44c.13,3.27.21,5.25.33,8.29Z" transform="translate(-48.29 -15.09)"/><path class="cls-1" d="M416.78,74.67c.31-4.94,2.18-9.3,4-13.73,2.18-5.38,4.3-10.8,6.12-16.33.59-1.8.14-4,.23-6,.12-2.63-1.09-3.53-3.35-3.52-7.49.07-15,0-22.49.08-6,.11-11.92.43-17.88.75s-11.73.77-17.59,1.15c-2.39.15-3,1.7-2.95,4.08.07,7.34,0,14.69,0,22a7.56,7.56,0,0,1-1.2,4.47,23.63,23.63,0,0,1-.57-3.6c0-7.35.05-14.7,0-22.05,0-4.68-.31-4.5-4.62-4.86s-7,2.51-11.26,5c-.18-3.9-.32-7.07-.49-10.76,1.1-.09,2.64-.72,3.16-.17,2.68,2.82,5.95,2,9,2,4.26,0,5.49-2.53,3.54-6.69a69.42,69.42,0,0,1-3-6.65c-.38-1.08-.07-2.46-.07-4h9.46c-1,2.9-1.9,5.49-2.74,8.12a17.89,17.89,0,0,0-1.17,4.53c-.17,4.34.08,4.63,4.18,4.64q28,.06,56,0a9.39,9.39,0,0,0,2-.1c1.69-.38,7.47-.46,8.82.18,1,.46,2.36,1.15,2.57,2a3.89,3.89,0,0,1-1.42,3c-6.28,4.61-7.88,12.09-10.32,19.22-2.07,6.06-5,11.78-7.5,17.65ZM429.4,35.41l-.14,1.44c.95.09,1.9.2,2.86.21.1,0,.22-.54.55-1.41ZM360.79,21.28l1.54.56.36-3.41-1.22-.21C361.24,19.24,361,20.26,360.79,21.28Zm-13,14.43-.34.86.78.37c.11-.28.36-.62.29-.84S348.08,35.84,347.82,35.71Z" transform="translate(-48.29 -15.09)"/><path class="cls-1" d="M419.11,218.3c.91-2.59,1.83-5.18,2.95-8.34,2.79-.38,6.25-1.74,8.49,2.67-2,4.6-3.84,9-3.77,14.36.22,16,.09,32,.07,47.93,0,1.43-.13,2.87-.21,4.62-12.14-5.73-24-11.36-35.87-16.88-2.35-1.09-5-1.5-7.3-2.63-1.2-.58-2.06-2-3.66-3.75-5.47,2.43-11.89,5-18.07,8.16-2.86,1.46-5.24,4.08-8,6.3a9.88,9.88,0,0,1-2.36-2.42c-.54-1.12-1-2.84-.58-3.81a4,4,0,0,1,3-1.89c6.34-.21,11.93-2.53,17.45-5.92,3-1.84,6.8-2.24,10.3-2.93,2.65-.52,4.58.6,6.83,2.83,3.4,3.38,7.82,5.62,12,7.89,5.79,3.14,11.74,5.94,17.69,8.73,4.75,2.23,7,.33,7-5.45,0-12.67.13-25.35-.13-38a36.51,36.51,0,0,0-2.24-10.42c-.26-.79-2.48-.8-3.8-1.16Zm7.1.07c.85-4.75.79-4.81-3.21-3.35C424.1,216.17,425.07,217.17,426.21,218.37Zm-71.83,46.57c-.22.2-.58.36-.62.59s.2.6.32.9l.87-.83Z" transform="translate(-48.29 -15.09)"/><path class="cls-1" d="M363,145.55l-4.11-2.64.27-1.23c6.14-.35,10.45-3.89,14.25-8.75,1.23-1.55,3.6-2,5.45-3l.18.21c-2.76,3.24-5.52,6.48-8.37,9.81,5.29,6,10.79,11.72,18,15.2,2.17,1.05,3.71,3.7,5.88,4.79,1.77.89,4.07.81,6.11.69,1.51-.08,3.68-1.83,4.34-1.23,1.64,1.52,2.66,3.91,3.78,6,.29.55,0,1.44,0,2.17l.12-.14a30.42,30.42,0,0,1-4-1.46c-2.89-1.47-3.93-.95-4,2.66-.13,5.68,0,11.36,0,17V191l-1.09.1c-.88-4.58-1.73-9.17-2.64-13.75-.44-2.24-1.12-4.44-1.39-6.7a4.87,4.87,0,0,1,.83-3.05c1.34-1.91,1.05-3.27-.72-4.43-4.33-2.84-8.6-5.79-13-8.45a132,132,0,0,0-12.56-6.85c-3.25-1.5-4.25.32-5.58,4-2.44,6.76-1.46,13.64-1.93,20.47,0,.42-.38.82-1,1.26-.68-7.81-.3-15.79-4.54-22.92,2.77-1,7.12.34,5.75-5.21l1.76-1.15-.62-.68Z" transform="translate(-48.29 -15.09)"/><path class="cls-1" d="M419,218.17c-1.33,5.8-5,10-8.09,14.64-2.33,3.49-4,7.28-3.79,11.78l.12-.15c-5.85-.22-11.86,1.66-17.48-1.8-.9-.56-2.29-.16-3.44-.25-3.7-.29-7.25-.31-11-1.65-4.52-1.6-9.86-.76-14.81-.42-2.65.18-3.67,2.64-3.61,5.6.09,4.46,0,8.94,0,13.41l-1.19.09q-1.35-8.28-2.71-16.55c-.08-.53-.24-1.44-.06-1.55,3.67-2.1,1.34-6.37,2.84-9.51a5.4,5.4,0,0,1,1.81.55c5.37,4.17,11.69,4.57,17.8,6.24s12,1.26,18,2.1c2.38.34,4.41,3.31,7.5,1.05-2-2.44-1.13-4.36,1.31-5.52,5-2.39,8-7.08,11.22-11.63a65.86,65.86,0,0,1,5.75-6.3ZM404.89,239a4.49,4.49,0,0,0-1.13-.51c-.11,0-.48.72-.42.79a5.77,5.77,0,0,0,1,.81Z" transform="translate(-48.29 -15.09)"/><path class="cls-1" d="M378.9,130c5.88-10,17.31-15.84,23.2-12.36-.55,2.55-1.07,5-1.81,8.44,3.58-1.9,5.3-1.76,6.75,1.69,1.15,2.73,3.67,4.86,5.84,6.93,2.75,2.65,6.3,4.36,8.47,9.25-1.82-.46-3.19-.33-3.72-1-4-5.11-9.19-8.47-14.34-11.89-.22-.15-.24-.66-.35-1l1.76-1.15-.62-.68c-.34.65-.69,1.29-1,1.94h-3.69c-.17,3-.46,5.88-.45,8.7s-.61,6.77.69,7.84c2.67,2.2-2.78,4.8.82,6l-2.18,3.55-1.1-.35c0-7.39-.08-14.78,0-22.17a25.94,25.94,0,0,0-1.86-10.34c-1.23-3.06-2.45-3-4.42-1.63-1.78,1.26-3.34,2.88-5.12,4.15-2.16,1.54-4.45,2.87-6.68,4.29Zm18.46-6.84L399,123l-.55-3.63-1.27.21C397.23,120.72,397.29,121.92,397.36,123.11Z" transform="translate(-48.29 -15.09)"/><path class="cls-1" d="M525.11,82V69.48c0-6.06,0-12.12,0-18.18a49.32,49.32,0,0,0-4-20.33,16.9,16.9,0,0,0-3.1-4.64,68,68,0,0,0-5.26-4.65l.87-1.58c2.41,0,4.92-.49,7.19.11,4.5,1.18,8.88,2.26,13.36-1l.78,1.44c-.55,1.43-.77,3.24-1.71,4.21-4.87,5.07-6.78,11-6.48,18.5.46,11.17.15,22.38.14,33.58,0,1.72-.15,3.44-.23,5.16Zm-3.4-57.66-.77.91c2.7.89.64,5.9,4.2,5.45,2.63-.34,3.44-3.22,3.64-6.36Z" transform="translate(-48.29 -15.09)"/><path class="cls-1" d="M508.31,151.2l17.93-16.57c1.8,4.32.44,8.49.16,12.58-.1,1.45-.85,2.94-.65,4.29.61,4.19,1.58,8.32,2.29,12.5a4.4,4.4,0,0,1-.49,2.84c-.25.39-1.55.24-2.21-.08a11.2,11.2,0,0,1-2.89-2C517.91,160.44,513.41,156.09,508.31,151.2Zm4.45-.24c6.52,8.19,8.75,9.89,10.89,9.28-.3-5.75-.59-11.34-.93-17.79C518.39,144.66,515.94,148,512.76,151Z" transform="translate(-48.29 -15.09)"/><path class="cls-1" d="M402.87,81.67c-2.61-2.71-5.35-5.3-7.8-8.18-3.47-4.07-6.35-8.77-11.85-10-1.71-.4-3.05-2.17-1.05-4.05,1.66-1.57,3.66-3.82,5.47-3.79,2.44.06,3.39,2.89,3.33,5.78a5.52,5.52,0,0,0,1.31,2.78c2.51,3.57,5.19,7,7.59,10.66a59,59,0,0,1,3.25,6.57ZM387.28,59l-1.61,1.42c.4.44.77,1.19,1.2,1.23s1-.54,1.53-.86C388.08,60.27,387.77,59.76,387.28,59Z" transform="translate(-48.29 -15.09)"/><path class="cls-1" d="M478.93,158.64v19.89c-3.37-4.27-4.09-9.05-3.75-14.06a9.33,9.33,0,0,0-2.6-7.71c-1-1-1-3.13-1.51-4.74l-.13.13c1.38,1.36,2.7,2.81,4.18,4a42.49,42.49,0,0,0,3.93,2.61Z" transform="translate(-48.29 -15.09)"/><path class="cls-1" d="M408.84,167.63c6,.89,8.33,6.57,11.76,10.8-5.27-1.84-8.82-5.92-11.64-10.94Z" transform="translate(-48.29 -15.09)"/><path class="cls-1" d="M405.09,83.63l4.43,4.12,3.35-1.93.24.25c-.7,2.08-1.4,4.16-2.43,7.26-2.53-3.71-6-5.11-5.78-9.48Z" transform="translate(-48.29 -15.09)"/><path class="cls-1" d="M407.1,244.59l6.38.71c-2.28.82-5,3.7-6.26-.86Z" transform="translate(-48.29 -15.09)"/><path class="cls-1" d="M505,152c0,3.2-.6,6-4,6.64l.13.13c-.15-3.3,1-5.62,4-6.6Z" transform="translate(-48.29 -15.09)"/><path class="cls-1" d="M414.94,79.29c-.74,2.21,1.45,5.4-1.83,6.78l-.24-.25a20.59,20.59,0,0,1,.35-4.12c.26-.9,1.18-1.56,1.81-2.32Z" transform="translate(-48.29 -15.09)"/><path class="cls-1" d="M417.22,75.15c-.68,1.43.41,4-2.28,4.14l.09.09,1.75-4.71Z" transform="translate(-48.29 -15.09)"/><path class="cls-1" d="M403.12,81.4l2,2.24-.19.21c-.68-.73-1.36-1.45-2-2.18Z" transform="translate(-48.29 -15.09)"/><path class="cls-1" d="M465.25,222.35l8.94,7.88" transform="translate(-48.29 -15.09)"/><path class="cls-1" d="M429.4,35.41l3.27.24c-.33.87-.45,1.41-.55,1.41-1,0-1.91-.12-2.86-.21Z" transform="translate(-48.29 -15.09)"/><path class="cls-1" d="M360.79,21.28c.23-1,.45-2,.68-3.06l1.22.21-.36,3.41Z" transform="translate(-48.29 -15.09)"/><path class="cls-1" d="M347.82,35.71c.26.13.67.19.73.39s-.18.56-.29.84l-.78-.37C347.6,36.28,347.71,36,347.82,35.71Z" transform="translate(-48.29 -15.09)"/><path class="cls-1" d="M426.21,218.37c-1.14-1.2-2.11-2.2-3.21-3.35C427,213.56,427.06,213.62,426.21,218.37Z" transform="translate(-48.29 -15.09)"/><path class="cls-1" d="M354.39,264.94l.56.66-.87.83c-.12-.3-.36-.63-.32-.9S354.16,265.14,354.39,264.94Z" transform="translate(-48.29 -15.09)"/><path class="cls-1" d="M363,145.55l1-1.94.62.68-1.76,1.15Z" transform="translate(-48.29 -15.09)"/><path class="cls-1" d="M404.89,239l-.53,1.09a5.77,5.77,0,0,1-1-.81c-.06-.07.31-.81.42-.79A4.49,4.49,0,0,1,404.89,239Z" transform="translate(-48.29 -15.09)"/><path class="cls-1" d="M397.36,123.11c-.07-1.19-.13-2.39-.2-3.58l1.27-.21L399,123Z" transform="translate(-48.29 -15.09)"/><path class="cls-1" d="M403,130.11c.35-.65.7-1.29,1-1.94l.62.68L402.94,130Z" transform="translate(-48.29 -15.09)"/><path class="cls-1" d="M387.28,59c.49.78.8,1.29,1.12,1.79-.52.32-1,.91-1.53.86s-.8-.79-1.2-1.23Z" transform="translate(-48.29 -15.09)"/></g><text class="cls-2" transform="translate(0 46.49)">Bi<tspan class="cls-3" x="9.31" y="0">r</tspan><tspan x="13.12" y="0">d</tspan></text><text class="cls-2" transform="translate(0.91 145.26)"><tspan class="cls-4">F</tspan><tspan x="5.53" y="0">ish</tspan></text><text class="cls-2" transform="translate(1.82 235.58)"><tspan class="cls-5">F</tspan><tspan x="5.47" y="0">eet</tspan></text></svg>