<svg id="Layer_1" data-name="Layer 1" xmlns="http://www.w3.org/2000/svg" viewBox="0 0 430.3 286.68"><defs><style>.cls-1{fill:#fff;}</style></defs><path d="M236.34,162.6c-3.18,1-3.86,3.44-3.8,6.54.13,6.87,0,13.74.1,20.6a36.8,36.8,0,0,0,1.18,6.14h-7.14c.48-1.6,1.56-3.7,1.66-5.85.25-5.63.09-11.28.06-16.92,0-1.14-.15-2.28-.23-3.42l-1-.18c-4.13,8.86-8.26,17.71-12.78,27.38-4.55-9.78-8.68-18.67-12.82-27.56l-.91,0v3.68c0,6.13-.13,12.27.09,18.39.06,1.67,1.16,3.29,1.7,4.73h-5.79c.51-1.57,1.6-3.43,1.65-5.33.21-7.23,0-14.47.12-21.7,0-2.93.1-5.68-3.57-6.57,6.16-1.71,9.38.44,11.45,6.29,2.37,6.72,6,13,9.5,20.36,2.72-5.78,5.09-10.78,7.44-15.79.57-1.22,1.14-2.45,1.59-3.71C226.76,164.43,229.24,160,236.34,162.6Z" transform="translate(-35.11 -100.86)"/><path d="M412.74,255.47H398.8v-4.35l11.32,1,.42-1.59c-.91-.57-1.8-1.2-2.75-1.69-6.54-3.3-9.16-8.94-7.65-16.56,1-5.19,7.2-10.4,13.05-10.82,6.86-.5,13.17.39,17.3,7a14.24,14.24,0,0,1-5.79,20.28,12.62,12.62,0,0,0-2.62,2.46,11.11,11.11,0,0,0,3.32.81c2.64-.21,5.25-.73,7.94-1.13v4.49h-13.2c.3-3.34.18-6.09,3.45-8.63,6.6-5.13,3.53-20.54-4.23-23.48-4.11-1.56-9.24.39-11.75,4.45-4.24,6.88-2.87,15,2.87,20.61C411.93,249.75,411.91,252.66,412.74,255.47Z" transform="translate(-35.11 -100.86)"/><path d="M264.72,251.4l1.8,4h-7.91l1.9-3.89c-8.16-.61-14.77-3.56-14.87-12.44-.09-9.09,7.23-11.17,14.64-12.51l1-1.46-3.62-2.75H268.5L264.1,226c2.45.72,3.89,1.24,5.38,1.56,6.56,1.38,10.3,6,10,12.39-.22,5.36-5.12,10.32-11,11.06C267.5,251.18,266.44,251.24,264.72,251.4Zm.28-1.24c7.65-.29,10.14-5.55,9.44-13.62-.49-5.57-3.95-8.49-9.44-8Zm-4.92-.16c.06-.94.18-1.88.18-2.83,0-6.2,0-12.41,0-18.53-5.2-1.31-9.32,3.54-9.63,8.59C250.13,245.4,253,249.62,260.08,250Z" transform="translate(-35.11 -100.86)"/><path d="M347.6,102.28H358c-3.43,1-3.73,3.59-3.75,6.49-.06,9.58-.09,9.62,9.28,9.56,8.68,0,7.32,1,7.45-7.34,0-1,0-2,0-2.94-.11-2.69-.47-5.23-4-5.64h12.39c-4.06.34-4.08,3.22-4.06,6.21,0,7.34.09,14.69,0,22-.05,3.09,1,4.91,4.24,5.39H366.68c3.53-.19,4.11-2.62,4.25-5.49.55-10.86.57-10.88-10.23-10.85-7.26,0-6.43-.89-6.48,6.44,0,1.35,0,2.7,0,4,0,2.8.28,5.49,4,6h-12c3.19-.74,3.83-2.85,3.76-5.85-.18-7.59.07-15.19-.16-22.78C349.74,105.8,348.39,104.1,347.6,102.28Z" transform="translate(-35.11 -100.86)"/><path d="M426.71,163.94H410.56v9.41c0,5.63-.17,11.28.1,16.9.1,2.1,1.27,4.15,1.86,6h-8.43c.65-2.48,1.81-5.11,1.94-7.8.3-6.11.08-12.25.1-18.38,0-3.25-.07-6.43-3.9-7.81h32.9c-3.7,1-3.92,3.85-3.88,7,.1,7-.15,14,.14,21,.09,2.16,1.48,4.27,2.14,6.06H422.71c3.45-.94,4.07-3.11,4-5.93C426.64,181.6,426.71,172.92,426.71,163.94Z" transform="translate(-35.11 -100.86)"/><path d="M119.34,101.81c6.7.4,13.41.6,20.07,1.28a7.65,7.65,0,0,1,7.11,6c.82,3.63,0,6.83-3.6,8.77a7.72,7.72,0,0,0-1.25,1.17c.89.49,1.59.92,2.32,1.26,5.16,2.45,6.27,9.44,1.77,13a13.35,13.35,0,0,1-6.95,2.88c-6.58.38-13.2.13-20-.09,3.85-.66,4.45-3.25,4.41-6.43-.1-7.23,0-14.46-.1-21.68,0-2.61-.56-5-4.23-5Zm7.79,25.07c0,8.06,0,8.06,7.73,7.82,4.8-.14,8.22-3.12,8.2-7.16,0-5-4.63-8.17-11.95-8.12-4,0-4,0-4,6.73Zm0-16.1c.23,7.93-1.75,7.08,7.54,7.11H135c4.53-.27,6.81-2.76,6.68-7.3-.13-4.17-4.25-7.18-9.77-7.14-4.62,0-4.82.29-4.82,6.24Z" transform="translate(-35.11 -100.86)"/><path d="M102.44,178.54c3.92-3.95,7.93-7.8,11.67-11.91.7-.77.3-2.54.44-4.24h7.67L106,177.59l20.14,18.58H114.78c0-1.32.57-3.14-.09-3.91-3.81-4.44-7.9-8.62-12.24-13.25-2.35,6.37-1.25,14.56,1.61,17.05h-8a65.37,65.37,0,0,0,1-7.38c.13-6.49,0-13,0-19.48,0-4.47,0-4.47-3.7-6.94H105c-7.05,3.86-2.1,10.41-3.94,15.47Z" transform="translate(-35.11 -100.86)"/><path d="M351.47,179.33c-1-10.9,8.79-17.82,16.08-17.65,10,.22,17.32,7.58,17.25,17.62s-7.69,17.95-17.14,17.9A16.23,16.23,0,0,1,351.47,179.33Zm28,1.07c-.5-3.15-.84-5.92-1.41-8.64-1.09-5.19-4.87-8.56-9.79-8.92-4.26-.3-8.85,3.11-10.4,7.79a27.72,27.72,0,0,0,0,17.23c1.42,4.65,4.91,7.59,9.11,7.89a10.13,10.13,0,0,0,10.34-6.1C378.53,186.66,378.83,183.32,379.47,180.4Z" transform="translate(-35.11 -100.86)"/><path d="M413.28,137c-8.56,1-16.35-7.31-16.5-17.65-.15-10.13,7.17-17.6,17-17.57s16.26,6.88,16.28,17.23C430.09,129.92,423.47,137,413.28,137Zm-11.16-18c.4,2.68.38,5.6,1.31,8.19,1.89,5.23,3.79,7.86,9,8.39,4.94.5,8.77-1.58,10.82-6.43a23.62,23.62,0,0,0-.6-20.26c-2.36-4.79-5.7-6.32-10.76-5.7-3.88.48-7.55,4-8.56,8.46C402.75,114,402.51,116.43,402.12,119Z" transform="translate(-35.11 -100.86)"/><path d="M362.29,239.41c0-4.31.3-8.71-.17-13-.16-1.5-2.22-2.81-3.18-3.93H369.4c-.64,1.34-2,3-2.17,4.79-.35,4-.11,8.05-.11,12,4.51.9,7.69-1.43,8.36-6,.23-1.57.1-3.19.27-4.77.48-4.38,2.05-6,6.41-6.78-.56,1.58-1.69,3.26-1.64,4.91.32,11.38-3,13.43-13,15.06v13.77h-5.75c.27-4.59.53-9,.79-13.6-2.21-.41-4-.69-5.75-1.07-5.42-1.15-7.75-4.38-8.1-10.63-.15-2.78-.79-5.53-1.19-8.15,3,0,5.28,2.08,5.63,5.84.2,2.07.31,4.15.68,6.19C354.62,238.17,357.41,240,362.29,239.41Z" transform="translate(-35.11 -100.86)"/><path d="M90.89,296c6.08,4.94,7.63,10.76,4.47,15.82S87,318.07,80,314.92c0,2.34.14,4.3,0,6.24s-.64,3.82-1,6l-3,.14c-.23-.44-.44-.64-.43-.84.19-8.66.43-17.32.61-26,.07-3.43-.08-6.85,0-10.27s1-6.93,4.52-8.59a11.13,11.13,0,0,1,11.19.84c3,1.94,3.67,7.64,1.29,10.88C92.57,294.21,91.78,295,90.89,296Zm-7.25.24.27-.84c1.82-.3,4.22,0,5.3-1.07s1.47-3.56,1.57-5.44c.22-4.26-2-7-5.2-7s-5.5,2.88-5.53,6.88c0,6.85.14,13.7-.08,20.53-.12,3.62,1.54,5.53,4.71,6.33,3,.75,6.08-1.17,7.22-4.28A13.79,13.79,0,0,0,91,300c-.92-1.84-2-4-5-2.87C85.45,297.32,84.45,296.51,83.64,296.19Z" transform="translate(-35.11 -100.86)"/><path d="M260.17,170.89c0,7.32-.09,14.64.1,22,0,1.09,1.32,2.15,2.06,3.26H256.2c.62-1.55,2-3.49,2.09-5.49a173.66,173.66,0,0,0,0-22c-.19-2.38-3.2-4.52-4.67-6.43,4.53-1.18,8.19,1.08,11.48,5.56,5,6.78,10.54,13.11,16.29,20.17a15.16,15.16,0,0,0,.62-2.81c0-5.88.09-11.76-.28-17.62-.12-1.83-1.56-3.58-2.31-5.17h7.88c-3.27,1.25-3.51,3.72-3.46,6.57.13,8,.05,15.92,0,23.88a7.37,7.37,0,0,1-1,3.91l-21.72-26.18Z" transform="translate(-35.11 -100.86)"/><path d="M310.66,222.42c-3.26,1.32-2.91,3.08-1.38,5.19,1.79,2.46,3.41,5,5.38,8,2.53-3.22,5-6,7-9.16.56-.86-.22-2.6-.4-4h8.79c-6.73,2.91-9.51,9.18-13.61,14.18-.33.4,0,1.66.4,2.26,3.73,5.53,7.54,11,11.36,16.53h-8c.28-6-4.92-9.05-7.35-14.75-3.17,5.36-8.09,8.54-9.51,14.78h-4.87c4-4.73,8.13-9.47,12.07-14.36a3.45,3.45,0,0,0,.27-3.17,132.72,132.72,0,0,0-8.36-11.6c-1.38-1.67-3.57-2.67-5.22-3.85Z" transform="translate(-35.11 -100.86)"/><path d="M64.74,221.8c6.15.43,12.42.23,18.4,1.47,5.32,1.11,6.76,4.71,5.93,10.52-.54,3.74-3.84,6.56-8.37,6.92-2.3.19-4.63,0-7.06,0v14.66H68.38c.11-5.41.25-10.8.33-16.19.05-3.68,0-7.35,0-11,0-2.92-.44-5.39-4.36-5.47Zm8.41,9.72a26.8,26.8,0,0,1,0,4c-.48,3.06,1.2,3.87,3.75,3.87,3.49,0,5.73-1.84,6.89-5,1.22-3.33-.13-8-3.07-9.32a13.79,13.79,0,0,0-6.64-.71c-.45.05-.65,3-.88,4.57A19.85,19.85,0,0,0,73.15,231.52Z" transform="translate(-35.11 -100.86)"/><path d="M328.8,129.75a43.88,43.88,0,0,1-.8,5,2.33,2.33,0,0,1-1.67,1.45c-8.65.1-17.31.07-26.76.07,4.06-5.77,7.71-10.89,11.31-16s7.06-10.2,10.65-15.41c-7.33-2.31-14.79-.92-17.72,3.26v-5.71h24.86l-22.26,32c6.16,0,11.73.36,17.2-.21C325.42,133.94,327,131.36,328.8,129.75Z" transform="translate(-35.11 -100.86)"/><path d="M358.94,387v-9.28c-9.67-4.25-12.63-8.25-11.73-15.6.61-5.06,4-8.41,10.14-9.52-6.15,4-6.94,9.52-5.41,15.69.85,3.39,2.24,6.42,6.92,7.21v-13a36,36,0,0,1,.08-4.41c.69-5.26,4.93-7.08,9.37-4.17s5.18,7.41,4.75,12.26-2.92,8.57-7.33,9.6c-4.63,1.08-5,3.59-4.69,7.26a23.68,23.68,0,0,1-.41,4.24Zm2.19-11.65c4.63-.36,7.42-2.71,8.08-6.32,1.06-5.76-.56-11.72-3.6-13.29-2.17-1.12-4.32-.08-4.42,2.54C361,363.92,361.13,369.54,361.13,375.38Z" transform="translate(-35.11 -100.86)"/><path d="M113.28,224.75c2.63,3.35,5.18,6.77,7.94,10,1.64,1.93,1.82,3.33,0,5.31-3.24,3.45-6.16,7.2-9.27,10.89,6.43,3.15,17.34,1,21.66-4.31-.52,3-1,5.76-1.51,8.75H106c4-4.72,7.42-9.1,11.18-13.19,1.72-1.87,1.65-3.1.14-4.94-3.84-4.7-7.53-9.53-11.68-14.83h25.69c.12,1.53.25,3.06.43,5.35-5.4-6.82-12.13-2.77-18-4.12Z" transform="translate(-35.11 -100.86)"/><path d="M281.12,102.16c.27,2.13.49,3.91.63,5-2.19-1.2-4.4-3-6.91-3.63s-5.61-.22-8.41,0c-.59.05-1.52,1.3-1.54,2-.16,3.88-.08,7.77-.08,11.55,8.69,2,12,.95,14-3.91V123c-1.51-1.07-3.14-3-5.13-3.48-2.4-.62-5.11-.2-7.66.06-.47,0-1.11,1.48-1.14,2.3-.13,3.3-.05,6.61-.05,9.92,0,1.9.76,3.05,2.85,2.93a14.42,14.42,0,0,1,1.47,0c6,.28,12,.83,15.34-6.08a58.94,58.94,0,0,1-2.6,6.29,3.38,3.38,0,0,1-2.56,1.33c-7.72.1-15.44.06-23.58-.28,5.15,0,4.57-3.38,4.55-6.49,0-7.11-.08-14.22,0-21.32.05-3-.28-5.49-4.08-6h24.9Z" transform="translate(-35.11 -100.86)"/><path d="M76.13,136.19H68a52.46,52.46,0,0,0,4-6.38c3.83-8.44,7.44-17,11.15-25.46.36-.83.82-1.61,1.6-3.13,2.33,5.52,4.34,10.3,6.34,15.08,1.93,4.61,3.69,9.3,5.83,13.82,1,2.18,2.76,4,4.09,5.92H91.3c.4-1.31,1.67-3.18,1.2-4.4-1.06-2.77-.71-7.06-5.53-7-1.46,0-2.93,0-4.4,0-7.53,0-5.92-.71-8.59,5.79C72.55,133.94,72.67,134.16,76.13,136.19ZM83.23,109c-2.26,5.25-4,9.41-6,14H89.13C87.19,118.41,85.44,114.24,83.23,109Z" transform="translate(-35.11 -100.86)"/><path d="M261.12,315.59c0-4.94,0-9.7,0-14.46a7.46,7.46,0,0,0-.06-2.55,34.5,34.5,0,0,0-2.06-3.95l-3,2.47a3.81,3.81,0,0,1,3.54-4.43c2,0,4,1.9,6.49,3.27a35.66,35.66,0,0,1,3.42-2.23c4.36-2.33,7.75-.93,8.53,3.9a77.7,77.7,0,0,1,.55,11.33c.08,6,0,11.95,0,18.26l-2.77.17a53,53,0,0,1-1.07-6.92c-.14-6.37,0-12.74-.06-19.11,0-2.72.11-5.69-3.73-6-3.35-.25-6.33,2.87-6.36,6.49,0,3.8-.12,7.6,0,11.39C264.67,315.71,263.67,316.33,261.12,315.59Z" transform="translate(-35.11 -100.86)"/><path d="M318.6,298c-1.14,4.74-1.79,8.71-3.09,12.45-1.15,3.32-3.37,5.89-7.36,6.22-4.32.35-6.9-2.42-8.16-5.64-3.57-9.11-3.95-18.34,1.67-26.92,3.34-5.11,10.17-4.9,12.76.58C316.44,289,317.33,293.81,318.6,298Zm-10.72.84a20,20,0,0,0-4,.07c-.77.17-2,1.18-2,1.61.76,4.5,1.17,9.19,2.87,13.34,1.29,3.16,5,2.76,6.47-.55a28.25,28.25,0,0,0,2.12-8.75C313.87,298.84,313.69,298.82,307.88,298.85Zm-.15-.67a24.34,24.34,0,0,0,4-.07c.65-.1,1.66-.86,1.69-1.36.23-4.63.23-9.3-2.47-13.34-1.84-2.76-4.51-2.91-6.16-.1a24.76,24.76,0,0,0-2.77,8.14C300.83,298.11,301,298.2,307.73,298.18Z" transform="translate(-35.11 -100.86)"/><path d="M209.13,136c5.11-11.61,10-22.82,15.47-35.18,5.1,12.29,9.75,23.53,14.58,35.18Zm14.75-25.89-1.22-.17c-3.52,8-7,16.1-10.69,24.44H233.7C230.31,126,227.09,118.1,223.88,110.15Z" transform="translate(-35.11 -100.86)"/><path d="M200.31,375.73c-.65,3.94-1.18,7.63-2,11.26-.06.3-1.77.24-2.46.33,0-8.22-.36-16.25.1-24.22.49-8.7,9.12-13.26,16-8.9,4.43,2.78,5.6,10.53,2.51,16.62-2.69,5.3-7.74,7.29-13.14,5.19A8.79,8.79,0,0,0,200.31,375.73Zm12.27-9.57c0-5.56-2.26-9.45-6.36-11-3.7-1.38-6.16,0-6.36,3.91a108,108,0,0,0,0,11.38c.21,3.75,3.2,5.78,6.94,5S212.58,371.62,212.58,366.16Z" transform="translate(-35.11 -100.86)"/><path d="M158.38,170.07c-3,8.38-8,16.05-9.06,25.78h-4.49c1.49-2.87,3.39-6,4.83-9.4,3.48-8.13,6.74-16.35,10.38-25.25,6.46,11.78,9.66,24.3,16.46,34.86H166.31c3-1.46,2.9-3.36,1.89-5.65-3-6.76-5.84-13.57-8.75-20.36Z" transform="translate(-35.11 -100.86)"/><path d="M439.87,375.25V353.08l1.43,0v22c3.53.2,4.85-1.66,5.33-4,.9-4.3,1.49-8.67,2.2-13,.66-4.08,1.91-5.08,5.57-4.88-1,5-1.64,10.32-3.38,15.19a13.8,13.8,0,0,1-6,7.23c-2.9,1.49-3.6,3-3.42,5.83a48.26,48.26,0,0,1-.24,5.75l-1.63-.07a51.24,51.24,0,0,0-.1-7.23c-.18-1.31-1.07-3.2-2.11-3.6-5.32-2-7.21-6.15-8-11.33-.56-3.88-1.48-7.72-2.26-11.63,2.81-.7,4.87.56,5.39,4.2.59,4.11.74,8.31,1.74,12.3.53,2.16,2.45,4,3.74,5.93Z" transform="translate(-35.11 -100.86)"/><path d="M194.36,222.34h13.27c-4.26,1.16-4.4,2.88-2.75,5.3,2.59,3.8,5,7.72,7.84,12.14,2.91-4.67,5.65-8.69,7.93-13,.55-1-.43-2.87-.71-4.39h7.81c-6.49,4.85-9.83,12.11-13.58,18.85-2.35,4.23-1.38,9.45.72,14.21h-6.74c1.53-6.36,2.17-12.4-2.1-18-2.65-3.5-4.76-7.39-7.34-11A33.84,33.84,0,0,0,194.36,222.34Z" transform="translate(-35.11 -100.86)"/><path d="M456.8,293.5h3.32a7.44,7.44,0,0,1,.35,1.46c0,5.39-.08,10.78.15,16.16.15,3.62,1.15,4.13,4.79,3.6-1.33.66-2.81,2.06-4,1.83-2-.38-3.73-1.8-6.17-3.09-2.43,2.08-5.71,4.84-11.42,1.66.81,3.63,1.53,6.12,1.86,8.66a5.52,5.52,0,0,1-1,3.18,2.14,2.14,0,0,1-2,.16,5.86,5.86,0,0,1-1.29-3.18c.33-8.89.84-17.77,1.28-26.65.06-1.2,0-2.41,0-3.73h3.07c.25,5.54.5,10.89.75,16.23.14,2.84,1.84,4.26,4.48,4.3s5.73-2.89,5.76-5.49C456.84,303.72,456.8,298.83,456.8,293.5Z" transform="translate(-35.11 -100.86)"/><path d="M413.09,380.85c-.67,1.62-1.06,3.43-2.06,4.81a4.19,4.19,0,0,1-7.34-1.1c-1.17-3.06-1.92-6.27-2.94-9.71-4.69,3.26-3.41,11.36-9.89,12.69l-1-.7c2.52-5.06,5-10.15,7.59-15.16,2-3.84,1.58-11.42-1.61-14.19-1.11-1-3.78-.16-6-.16a3.79,3.79,0,0,1,3.19-4.18c2.64-.6,4.21.92,4.92,3.29.8,2.65,1.42,5.36,2.18,8.26,4.72-2.93,2.93-11.23,10.77-11.5-2.9,5.66-5.59,10.82-8.19,16-1.31,2.61.42,11.47,2.49,13.44C407.73,385.12,410.22,384.45,413.09,380.85Z" transform="translate(-35.11 -100.86)"/><path d="M168.12,356.78c-4.77-.83-4.73-.82-5.26,4-.46,4.23-.85,8.49-1.65,12.66-.24,1.26-1.63,2.46-2.77,3.31-.4.29-2.39-.57-2.37-.84a15.44,15.44,0,0,1,.93-4.38c1.32-3.63,2.93-7.16,4.09-10.83.37-1.18-.33-2.7-.54-4.06a46.22,46.22,0,0,0-4.71,1.34c-.57.22-.9,1.05-1.55,1.89.34-4.31,2.33-6.42,6.09-6.5,5-.1,10.06-.11,15.08.06.93,0,1.82,1.13,3.09,2-1.12.66-1.34.91-1.52.88-4.32-.68-5.46,1.83-5.54,5.45a41.5,41.5,0,0,0,0,7,7.13,7.13,0,0,0,2.34,4.38c.63.46,2.65-1,4.4-1.72-1,1.58-1.6,3.62-3,4.62a5.58,5.58,0,0,1-4.7.35,4.85,4.85,0,0,1-2.28-3.62C168,367.54,168.12,362.32,168.12,356.78Z" transform="translate(-35.11 -100.86)"/><path d="M257.94,353.37c0,1.89,0,1.89-8,3.52l-1.3,1.27c1.17.57,2.55.89,3.47,1.73,3.68,3.37,4.5,9.17,2,12.68-2.87,4-9.13,5.59-13.47,3.43a12.79,12.79,0,0,1-5.27-18.12,9.78,9.78,0,0,1,8.38-4.47C248.33,353.24,253,353.37,257.94,353.37ZM252.22,367c-1.17-2.72-2.13-5.56-3.55-8.14-1.73-3.11-4.45-2.93-7.24-1.42-4.6,2.51-5.66,7.49-2.78,13,2.1,4,4.74,5.65,8,5C249.51,374.85,251.43,371.61,252.22,367Z" transform="translate(-35.11 -100.86)"/><path d="M149.93,229.19c-.28-7-.28-7,5.93-7H177.7l.39,6.7c-2.93-5-5.23-5.84-11.47-4.62v31.16h-5.39c.16-3.57.41-7.13.46-10.69.08-5.76-.11-11.52.08-17.28.1-2.93-.9-3.82-3.8-3.69C153.27,224,152.22,224.44,149.93,229.19Z" transform="translate(-35.11 -100.86)"/><path d="M50.7,299.65c1.71-6.43,1.71-6.43,5.46-5.94-1,4.26-2.18,8.49-3.07,12.76a10.66,10.66,0,0,0,.06,4.67c.65,2.52,1.79,2.82,5.49,2.28-1,1.08-2.46,3.22-2.78,3.06a20.68,20.68,0,0,1-3.93-3.13c-2.74,1.06-5.66,2.78-8.76,3.24a6.25,6.25,0,0,1-7.54-5.42,45.23,45.23,0,0,1-.29-11.57c.38-4.21,3.6-6.56,7.39-7.09,3.42-.48,5.43,2.17,6.62,5.23A12.2,12.2,0,0,0,50.7,299.65Zm-12.39,5.47c.54,2.73.68,5.49,1.66,7.92,1.36,3.36,4.28,3.57,6.59.81,3.83-4.57,4.1-12.82.57-17.52-2.35-3.14-5.56-3-7,.59C39.05,299.45,38.88,302.34,38.31,305.12Z" transform="translate(-35.11 -100.86)"/><path d="M86.38,356.74c-3-2.92-2.45-6-1.07-8.41-.93-2.21-1.93-3.83-2.18-5.55-.09-.67,1.54-1.58,2.2-2.2-.19,1.69-1,3.43-.38,4.35,1.27,2.05,2.61.66,4.14-.39a18,18,0,0,1,6.74-2.48c-.61,3.54-3,4.53-5.77,4.65-3.24.15-4.2,2.27-4.52,4.79-.39,3.15,1.91,4.58,4.94,3.73a23,23,0,0,1,7.57-.59c-1.93,3.48-5,2.68-7.75,2.63-5.06-.09-10.12,7.11-8.28,11.67a5.78,5.78,0,0,0,5.69,3.81c2.19.08,4.4-.29,6.6-.21,2.54.09,4.86.73,5.49,3.78,1,4.83-.11,8.35-3.25,10.06-2.78,1.52-5,1.2-7.63-1.69a28.94,28.94,0,0,1,4.8-.29c3,.36,4.94-1,5.1-3.84s-1.86-3.93-4.65-3.69c-1.58.13-3.18,0-4.78,0-4.52,0-7.93-1.95-9.23-5.26a11.25,11.25,0,0,1,2.73-11.44C84,359.1,85.11,358,86.38,356.74Z" transform="translate(-35.11 -100.86)"/><path d="M156.59,280.58c.07.36.32.88.17,1.05-3.44,3.91-3.4,4.16.62,7.46,3.75,3.07,8,5.78,11.05,9.42,4.74,5.54,1.57,15.09-5.31,17.6a9.82,9.82,0,0,1-11.5-3.2c-2.72-3.88-2.38-10.25.82-13.64a17.22,17.22,0,0,1,3.38-2.76,40.62,40.62,0,0,1,4.58-2.06c-1.62-1.55-3.05-2.93-4.5-4.29-4-3.75-3.77-6.65.69-9.57Zm10.57,25.86c-1.27-2.95-2.49-5.93-3.83-8.84-1-2.24-2.77-2-4.56-1-4,2.33-5,6-4.75,10.33.31,5,3.2,8.94,6.59,8.76C163.77,315.54,166.42,311.48,167.16,306.44Z" transform="translate(-35.11 -100.86)"/><path d="M372.64,302.2l11.28,13.36c-4.32,1.09-4.6,1-7.66-2.88a50.4,50.4,0,0,0-6.89-7.58v10.48l-3.69.25c-.41-7.19.7-14.27-2.17-21.2l5.4-2.34v9.84l1,.44c1.17-1.08,2.28-2.23,3.51-3.23a104,104,0,0,1,8.32-6.36c.76-.49,2.41.09,3.5.54.34.15.18,1.48.26,2.27-1.13,0-2.27,0-3.38.17-1.54.23-3.36.18-4.5,1C375.77,298.32,374.41,300.28,372.64,302.2Z" transform="translate(-35.11 -100.86)"/><path d="M137.9,364.72c-.15,7.43-4.89,12.36-11.69,12.17-5.85-.16-10.41-5.67-10.28-12.42.1-6.06,5.45-12,10.7-11.94C133.5,352.63,138,357.54,137.9,364.72Zm-3.51,1.43c-1.07-3.18-1.59-6.7-3.32-9.48-2.65-4.25-8.23-3.71-9.7,1a21.26,21.26,0,0,0-.19,10.66c1.31,5.55,4,7.5,7.48,7C132,374.9,133.7,371.83,134.39,366.15Z" transform="translate(-35.11 -100.86)"/><path d="M401.08,315.49c3-6.5,5.89-12.95,8.94-19.32a9.61,9.61,0,0,0-1.38-10.84c-2.12-2.33-3.91-1.83-6.93,2.34.35-1.59.27-2.89.88-3.61,1.08-1.3,2.66-3.21,3.89-3.11a5.68,5.68,0,0,1,4,3.28c2,6.89,3.54,13.92,5.27,20.88a31.86,31.86,0,0,0,1.41,4.54c1.7,4.07,3.64,4.53,7.32,1.69.42,2.73-.69,4.55-3.14,5s-4.29-.85-5-3.3c-1.19-4.18-2.25-8.39-3.68-13.79-2.4,5.22-4.6,9.36-6.2,13.71C405.47,315.87,404,316.46,401.08,315.49Z" transform="translate(-35.11 -100.86)"/><path d="M228.65,289.22c-1.15-2-2.43-3.54-2.83-5.28-.2-.81,1.3-2,2.7-2.51-.42.8-1.19,1.61-1.17,2.4,0,1,.51,2.39,1.21,2.72a3.89,3.89,0,0,0,3.17-.37c2.66-1.65,4.71-4.5,8.23-4.18l.81,1.27c-1.71,1.17-3.29,2.73-5.18,3.46-7.68,2.93-13.08,13-10.93,21.1.8,3,2.76,4.84,6.06,4.88,1.34,0,2.69,0,4,0,5.37,0,6.85,1.75,6.53,7.62-.25,4.49-3.43,7.52-7.6,7-.93-.12-1.74-1.22-2.6-1.87a21.26,21.26,0,0,1,2.92-1.14c1.66-.41,3.75-.17,4.93-1.12.86-.69,1.17-3.15.6-4.24s-2.46-1.84-3.89-2.08c-1.89-.32-3.89.13-5.83,0-6.35-.31-8-7.07-7.08-13.38a32.24,32.24,0,0,1,2.21-8.06A44.44,44.44,0,0,1,228.65,289.22Z" transform="translate(-35.11 -100.86)"/><path d="M178,136.16H166.54c3.89-.88,4.32-3.89,4.34-7.08,0-6.62.09-13.23,0-19.85-.05-2.91-.28-5.94-4.07-6.89h25.74v5.84c-4.48-7.32-11.25-4-17.54-4.82,0,10.08-.12,19.6.14,29.12C175.17,133.78,177.08,135,178,136.16Z" transform="translate(-35.11 -100.86)"/><path d="M63.41,162.21h12.8c-4.15,1.25-4.87,3.55-4.82,6.51.11,7.1,0,14.2.08,21.29a35.43,35.43,0,0,0,1.11,5.85H65.12c.51-1.36,1.89-3.41,2-5.51.28-6.84.08-13.7.11-20.56C67.23,166.59,67.7,163.21,63.41,162.21Z" transform="translate(-35.11 -100.86)"/><path d="M307.31,353.74c1.68-.26,3.53-1.08,5-.61a5,5,0,0,1,2.66,3.55c.44,3.38.23,6.84.34,10.27.05,1.58-.18,3.37.47,4.7s2.15,3.3,3.54,3.56a5.76,5.76,0,0,0,4.54-2c3.61-4.71,2.31-15.84-2.34-20.31a12.35,12.35,0,0,1,2.12.35c4.83,1.83,7.21,7.49,5.92,14-1.2,6-5.23,9.8-10.23,9.73-4.46-.06-7.39-2.81-7.52-7.25-.1-3.8.05-7.6-.07-11.4-.1-3.21-.75-3.63-4-3.14Z" transform="translate(-35.11 -100.86)"/><path d="M124.87,309.27c1.19-4.14,2.6-8.23,3.51-12.42.73-3.32,2.38-4.22,5.7-3.14-2.42,5.22-4.4,10.64-7.35,15.46-2.45,4-2.07,8.11-2.34,12.33-.12,1.93-1,3.81-1.71,5.69,0,.05-1.53-.23-1.54-.41-.14-1.86-.74-4,0-5.54,3.38-7.19,1.23-14.06-.91-20.87a6.45,6.45,0,0,0-4-3.81c-1-.24-2.65,2-4,3.08.25-1,.29-2.61,1.09-3.73s2.45-2.65,3.7-2.63a5,5,0,0,1,3.83,2.59,109.9,109.9,0,0,1,2.65,11.34c.15.66.37,1.31.55,2Z" transform="translate(-35.11 -100.86)"/><path d="M193.5,303.94c-3.59-1.74-5.29-3.84-4-7.29.94-2.48,6.21-5,9.42-4.28a17.38,17.38,0,0,1,5.08,1.9c.72.42,1,1.75,1.24,2.73.07.28-.87,1.17-1.1,1.09a4.86,4.86,0,0,1-2.48-1.47c-1.47-2.41-3.68-4-6-2.47a7.68,7.68,0,0,0-2.77,5.7c0,3,2.43,4.27,5.44,4.09,1-.06,2,0,3.06,0l0,1c-1-.1-2.1-.23-3.15-.28-3.09-.16-5.27,1-5.78,4.3-.46,2.95.37,5.48,3.35,6.55s5.07-.38,6.28-3.36a5.84,5.84,0,0,1,2.49-2.22c.2-.13,1.47.74,1.46,1.13a6,6,0,0,1-.78,3.37c-3.33,4.19-15.17,2.5-17.1-2.42-1-2.48,0-4.57,2-6.15A31.23,31.23,0,0,1,193.5,303.94Z" transform="translate(-35.11 -100.86)"/><path d="M290.28,371.66c-.33.82-.49,2.34-1.31,2.95-1.42,1-3.35,2.23-4.89,2-1.3-.17-3.28-2.16-3.36-3.44-.26-3.86.26-7.77.5-11.66.1-1.54.26-3.07.51-6l-7.92,3.09a5.61,5.61,0,0,1,5.58-5.29c3.42-.1,6.86-.14,10.27.05.95.06,1.84,1.05,3.41,2a12,12,0,0,1-2.12.9c-6.2.43-6.23.43-6.79,6.58a24.34,24.34,0,0,0-.13,5.84c.23,1.53.86,3.63,2,4.21C287,373.49,288.84,372.17,290.28,371.66Z" transform="translate(-35.11 -100.86)"/><path d="M52.06,377c-4.7-7-2.89-17.15-11-22.3l5.88-2.39c2.22,6.41,4.39,12.62,6.88,19.8,2.9-5.34,6.08-9.4,5.33-15-.1-.72-.39-1.6-.1-2.16a13.59,13.59,0,0,1,2.07-2.45c.7.93,2.1,2,1.95,2.76a28.58,28.58,0,0,1-2.45,7.25c-2.29,4.58-4.87,9-7.36,13.51C53,376.43,52.54,376.63,52.06,377Z" transform="translate(-35.11 -100.86)"/><path d="M306.25,168.43v-5.94H332.3v6.32C327.82,165.38,311.91,165.1,306.25,168.43Z" transform="translate(-35.11 -100.86)"/><path d="M333.56,187.89v8H304.89v-6c1.76.63,3.85,1.92,6,2.05,5.5.31,11,0,16.56.14C330.33,192.21,332.59,191.66,333.56,187.89Z" transform="translate(-35.11 -100.86)"/><path d="M346.54,316.1c-1.88.08-4,.72-5.55.06-1.11-.47-2-2.65-2.1-4.14-.3-3.65.06-7.34-.17-11a43.39,43.39,0,0,0-1.45-6.55l5-2.15c0,6.33,0,12.25,0,18.18,0,3.49.72,4.12,4.12,4.25Z" transform="translate(-35.11 -100.86)"/><path d="M310.45,174.8c4.18,4.64,14.15,4.38,17.53-.13v9.65c-3-4.24-13.63-4.51-17.53-.57Z" transform="translate(-35.11 -100.86)"/><path d="M156.59,280.59c2.42.14,4.86.17,7.26.48a5.2,5.2,0,0,1,3.25,1.37c.65.82.43,2.31.6,3.51a10.48,10.48,0,0,1-3.14-.59c-2.71-1.48-5.32-3.17-8-4.78Z" transform="translate(-35.11 -100.86)"/><path class="cls-1" d="M265,250.16V228.53c5.49-.48,8.95,2.44,9.44,8C275.14,244.61,272.65,249.87,265,250.16Z" transform="translate(-35.11 -100.86)"/><path class="cls-1" d="M260.08,250c-7-.38-9.95-4.6-9.44-12.77.31-5,4.43-9.9,9.63-8.59,0,6.12,0,12.33,0,18.53C260.26,248.12,260.14,249.06,260.08,250Z" transform="translate(-35.11 -100.86)"/><path class="cls-1" d="M127.13,126.88v-.73c0-6.7,0-6.7,4-6.73,7.32,0,11.94,3.08,11.95,8.12,0,4-3.4,7-8.2,7.16C127.13,134.94,127.13,134.94,127.13,126.88Z" transform="translate(-35.11 -100.86)"/><path class="cls-1" d="M127.13,110.78v-1.1c0-6,.2-6.21,4.82-6.24,5.52,0,9.64,3,9.77,7.14.13,4.54-2.15,7-6.68,7.3h-.37C125.38,117.86,127.36,118.71,127.13,110.78Z" transform="translate(-35.11 -100.86)"/><path class="cls-1" d="M379.47,180.4c-.64,2.92-.94,6.26-2.12,9.25a10.13,10.13,0,0,1-10.34,6.1c-4.2-.3-7.69-3.24-9.11-7.89a27.72,27.72,0,0,1,0-17.23c1.55-4.68,6.14-8.09,10.4-7.79,4.92.36,8.7,3.73,9.79,8.92C378.63,174.48,379,177.25,379.47,180.4Z" transform="translate(-35.11 -100.86)"/><path class="cls-1" d="M402.12,119c.39-2.54.63-5,1.17-7.35,1-4.46,4.68-8,8.56-8.46,5.06-.62,8.4.91,10.76,5.7a23.62,23.62,0,0,1,.6,20.26c-2,4.85-5.88,6.93-10.82,6.43-5.17-.53-7.07-3.16-9-8.39C402.5,124.57,402.52,121.65,402.12,119Zm17.31,5.52c0-3.47,0-6.27,0-9.08,0-.3-.18-.59,0,0-2.06.8-4,2.19-5.93,2.11s-4-1.56-5.76-2.32v9.33C410.76,120,416,119.84,419.43,124.49Z" transform="translate(-35.11 -100.86)"/><path class="cls-1" d="M83.64,296.19c.81.32,1.81,1.13,2.4.9,3-1.17,4.08,1,5,2.87a13.79,13.79,0,0,1,.86,11.29c-1.14,3.11-4.24,5-7.22,4.28-3.17-.8-4.83-2.71-4.71-6.33.22-6.83,0-13.68.08-20.53,0-4,2.41-6.88,5.53-6.88s5.42,2.79,5.2,7c-.1,1.88-.39,4.27-1.57,5.44s-3.48.77-5.3,1.07Z" transform="translate(-35.11 -100.86)"/><path class="cls-1" d="M73.15,231.52a19.85,19.85,0,0,1,0-2.56c.23-1.61.43-4.52.88-4.57a13.79,13.79,0,0,1,6.64.71c2.94,1.28,4.29,6,3.07,9.32-1.16,3.14-3.4,5-6.89,5-2.55,0-4.23-.81-3.75-3.87A26.8,26.8,0,0,0,73.15,231.52Z" transform="translate(-35.11 -100.86)"/><path class="cls-1" d="M361.13,375.38c0-5.84-.14-11.46.06-17.07.1-2.62,2.25-3.66,4.42-2.54,3,1.57,4.66,7.53,3.6,13.29C368.55,372.67,365.76,375,361.13,375.38Z" transform="translate(-35.11 -100.86)"/><path class="cls-1" d="M83.23,109c2.21,5.23,4,9.4,5.9,14H77.21C79.19,118.42,81,114.26,83.23,109Z" transform="translate(-35.11 -100.86)"/><path class="cls-1" d="M307.88,298.85c5.81,0,6,0,5.48,5.72a28.25,28.25,0,0,1-2.12,8.75c-1.46,3.31-5.18,3.71-6.47.55-1.7-4.15-2.11-8.84-2.87-13.34-.08-.43,1.19-1.44,2-1.61A20,20,0,0,1,307.88,298.85Z" transform="translate(-35.11 -100.86)"/><path class="cls-1" d="M307.73,298.18c-6.7,0-6.9-.07-5.7-6.73a24.76,24.76,0,0,1,2.77-8.14c1.65-2.81,4.32-2.66,6.16.1,2.7,4,2.7,8.71,2.47,13.34,0,.5-1,1.26-1.69,1.36A24.34,24.34,0,0,1,307.73,298.18Z" transform="translate(-35.11 -100.86)"/><path class="cls-1" d="M223.88,110.15c3.21,7.95,6.43,15.89,9.82,24.27H212c3.64-8.34,7.17-16.39,10.69-24.44Z" transform="translate(-35.11 -100.86)"/><path class="cls-1" d="M212.58,366.16c0,5.46-1.94,8.6-5.79,9.36s-6.73-1.3-6.94-5a108,108,0,0,1,0-11.38c.2-3.88,2.66-5.29,6.36-3.91C210.32,356.71,212.57,360.6,212.58,366.16Z" transform="translate(-35.11 -100.86)"/><path class="cls-1" d="M252.22,367c-.79,4.6-2.71,7.84-5.56,8.43-3.27.67-5.91-1-8-5-2.88-5.52-1.82-10.5,2.78-13,2.79-1.51,5.51-1.69,7.24,1.42C250.09,361.45,251.05,364.29,252.22,367Z" transform="translate(-35.11 -100.86)"/><path class="cls-1" d="M38.31,305.12c.57-2.78.74-5.67,1.78-8.2,1.48-3.61,4.69-3.73,7-.59,3.53,4.7,3.26,12.95-.57,17.52-2.31,2.76-5.23,2.55-6.59-.81C39,310.61,38.85,307.85,38.31,305.12Z" transform="translate(-35.11 -100.86)"/><path class="cls-1" d="M167.16,306.44c-.74,5-3.39,9.1-6.55,9.27-3.39.18-6.28-3.73-6.59-8.76-.26-4.32.78-8,4.75-10.33,1.79-1.05,3.52-1.26,4.56,1C164.67,300.51,165.89,303.49,167.16,306.44Z" transform="translate(-35.11 -100.86)"/><path class="cls-1" d="M134.39,366.15c-.69,5.68-2.42,8.75-5.73,9.22-3.5.49-6.17-1.46-7.48-7a21.26,21.26,0,0,1,.19-10.66c1.47-4.74,7-5.28,9.7-1C132.8,359.45,133.32,363,134.39,366.15Z" transform="translate(-35.11 -100.86)"/><path d="M419.43,124.49c-3.41-4.65-8.67-4.5-11.69,0V115.2c1.75.76,3.73,2.23,5.76,2.32s3.87-1.31,5.93-2.11c-.19-.59,0-.3,0,0C419.44,118.22,419.43,121,419.43,124.49Z" transform="translate(-35.11 -100.86)"/></svg>