<svg id="Layer_1" data-name="Layer 1" xmlns="http://www.w3.org/2000/svg" viewBox="0 0 857.34 803.43"><defs><style>.cls-1{fill:#fff;}</style></defs><path class="cls-1" d="M514.18,140.35V118c11,.83,21.82.91,32.39,2.64,15.39,2.53,30.89,5.24,45.8,9.69,33.94,10.11,56.76,33.43,72.8,64.22,14.38,27.58,21.74,57.18,24.71,87.83,2.69,27.82,3.55,55.83,6.32,83.64,2.1,21,5.23,41.93,9.18,62.65,6.12,32,24.75,56.1,50.46,75.34,21.76,16.29,46.54,25.11,73,28.88,17.43,2.49,35.13,3,52.71,4.42,1.47.12,2.95,0,4.78,0,.12-1.83.3-3.29.3-4.74,0-87.76.14-175.52-.34-263.27-.11-19.92-2-39.88-4.06-59.72-2.84-27.09-20.08-42.51-44.5-51-19.56-6.81-40.06-8.1-60.55-9-3.31-.15-6.64,0-10.35,0V127.82h351.95v21.23c-8.54.44-17.07.25-25.39,1.46-15.11,2.19-30.47,3.92-45.06,8.15-29.66,8.61-44.1,27.16-46.29,57.92-1.56,21.9-2.8,43.88-2.89,65.83-.33,83.09-.13,166.18-.14,249.28v4.87c.77.34,1.2.69,1.63.69,31,.09,61.78-2.08,91-13.19,48.79-18.58,80.35-52.43,90.41-104.81,6.48-33.77,9.26-67.9,10.93-102.16,1.73-35.71,6-71,18.94-104.62,11.18-29,27.83-53.72,55.07-70.11,20.92-12.6,43.89-19,67.92-21.8,12-1.39,24.15-1.86,36.61-2.77v22.47c-3.37.52-6.67.89-9.9,1.55-23.91,4.82-37.49,18.2-41.34,44.37-3.23,22-4.51,44.32-5.69,66.56-1.4,26.25-1.22,52.6-2.73,78.85a420.48,420.48,0,0,1-15,90.39c-12.54,44.34-39.27,77.88-77.17,103.31-34.73,23.31-73.25,36.77-114,44.73a591,591,0,0,1-94.27,10.26c-4,.13-7.92.41-12.11.64-.09,1.85-.23,3.31-.23,4.78,0,64.61-.23,129.23.22,193.83.14,19.27,2.1,38.53,3.49,57.78,1.9,26.22,17.85,41.7,40.55,51.56,15.16,6.58,31.4,8.63,47.71,9.88,9.11.7,18.26.93,27.75,1.39v21.07H766.93a29.54,29.54,0,0,1-.42-3.42c0-5.8,0-11.6,0-17.47,12.54-.85,24.68-1.17,36.68-2.65a203.51,203.51,0,0,0,32.29-6.14c28-8.19,45.26-26.23,47.45-56.15,1.74-23.73,3.4-47.51,3.6-71.28.51-59.11.17-118.23.17-177.34V581c-12.62-.66-24.75-1.09-36.85-2-47.35-3.42-94.08-10.23-138.15-29-42.25-17.95-78.29-43.95-103.27-83.41-14-22.16-21.21-46.84-26.37-72.22-8-39.16-9.8-78.87-10.75-118.68-.61-25.11-2-50.21-3.44-75.28-.38-6.59-2.1-13.12-3.53-19.61-5.19-23.65-20.85-35.75-44-39.47C518.36,141.07,516.39,140.72,514.18,140.35Z" transform="translate(-514.18 -117.79)"/></svg>