<svg id="Layer_1" data-name="Layer 1" xmlns="http://www.w3.org/2000/svg" viewBox="0 0 679.07 838.62"><defs><style>.cls-1{fill:#fff;}</style></defs><path class="cls-1" d="M796.6,884.84,146.14,468.17a14.12,14.12,0,0,1,0-20L773.59,54.54a14.12,14.12,0,0,1,24.11,10v60.71a14.12,14.12,0,0,1-4.14,10L245.07,449.92a14.14,14.14,0,0,0,0,20L816.93,808A14.14,14.14,0,0,1,821.07,818l-.35,56.9A14.13,14.13,0,0,1,796.6,884.84Z" transform="translate(-142 -50.38)"/><rect class="cls-1" x="175.4" y="438.1" width="467.6" height="33.4" transform="translate(676.4 859.22) rotate(180)"/></svg>