<svg id="Layer_1" data-name="Layer 1" xmlns="http://www.w3.org/2000/svg" viewBox="0 0 76.9 48.1"><defs><style>.cls-1{fill:none;stroke:#000;stroke-miterlimit:10;stroke-width:0.1px;}</style></defs><ellipse class="cls-1" cx="38.45" cy="24.05" rx="38.4" ry="24"/><path d="M32.65,44.88,6.86,28.36a.56.56,0,0,1,0-.79L31.74,12a.56.56,0,0,1,.95.4v2.4a.59.59,0,0,1-.16.4L10.78,27.63a.57.57,0,0,0,0,.8l22.67,13.4a.54.54,0,0,1,.17.4l0,2.25A.56.56,0,0,1,32.65,44.88Z" transform="translate(-1.35 -2.95)"/><rect x="8.02" y="27.17" width="18.54" height="1.32" transform="translate(33.23 52.71) rotate(180)"/><path d="M70,37.13a3.68,3.68,0,0,1-.15.47,1.1,1.1,0,0,1-1.4.61,6.81,6.81,0,0,1-.89-.34,4.85,4.85,0,0,0-.62-.27A4.67,4.67,0,0,1,65.71,37c-2.13-1.4-4.27-2.79-6.37-4.22-1.11-.75-2.28-1.39-3.43-2a24.14,24.14,0,0,1-5.38-4l-.12-.11a.67.67,0,0,0-.29.39,7.32,7.32,0,0,0-.23.8,7.47,7.47,0,0,1-.52,1.36,16.31,16.31,0,0,1-1.26,2.59l-.57.92a6.09,6.09,0,0,1-1.13,1.25c-.87.8-1.74,1.6-2.63,2.4-.33.3-.7.56-1.05.86s-.59.53-.89.81c-.48.45-1,.94-1.46,1.36-1,.84-2,1.75-3,2.62a.42.42,0,0,1-.12.08,1.78,1.78,0,0,0-.76.42l-.26.22a1.92,1.92,0,0,1-.86.5h-.11a.13.13,0,0,0,0-.09c-.13-.08-.09-.17,0-.27a.84.84,0,0,1,.15-.18c.35-.36.71-.7,1.06-1.07q2.9-3,5.55-6.17a31.14,31.14,0,0,0,2.61-3.55A24.39,24.39,0,0,0,47.54,25c.06-.22.11-.45.17-.7l-.34.1c-.93.36-1.85.73-2.79,1.08-.75.29-1.51.56-2.26.84a20.58,20.58,0,0,0-3.27,1.59l-1.66,1a1,1,0,0,1-.31.13A1.26,1.26,0,0,1,36,28.78a4.86,4.86,0,0,1-1-1.18v-.22a1.09,1.09,0,0,1,.51-.53c1.46-.81,2.88-1.67,4.4-2.37.66-.3,1.34-.55,2-.81.41-.15.83-.26,1.24-.4a1.14,1.14,0,0,0,.31-.16.37.37,0,0,0,.15-.5c-.06-.12-.14-.23-.2-.34-.49-.87-1-1.75-1.45-2.62-.16-.28-.34-.56-.5-.84a.72.72,0,0,0-.39-.34c-.32-.12-.65-.22-1-.33a1.8,1.8,0,0,1-.74-.41.48.48,0,0,1,.13-.81,2.26,2.26,0,0,1,.68-.17,4.45,4.45,0,0,1,1.36.11,2.47,2.47,0,0,0,2-.43,7.58,7.58,0,0,1,1.81-1.09,17.26,17.26,0,0,0,1.6-.83,13.28,13.28,0,0,1,1.33-.61.85.85,0,0,0,.6-.77c0-.33,0-.66,0-1,0-.53,0-1.06,0-1.58a4.27,4.27,0,0,0-.11-.81,1.86,1.86,0,0,0-.24-.49c-.09-.16-.2-.32-.28-.49-.23-.54.15-.76.54-.73A2.26,2.26,0,0,1,50,8.55,3,3,0,0,1,51.13,10a4.35,4.35,0,0,1,.13.88c.05.35.07.69.12,1a2,2,0,0,0,.14.35l.15-.07c.6-.29,1.18-.61,1.8-.86a15.75,15.75,0,0,1,1.76-.58,2,2,0,0,1,2.35,1.63,8.84,8.84,0,0,1,.07,2.12c-.06.59-.15,1.19-.22,1.79-.06.44-.11.88-.17,1.33s-.12.6-.17.91a3.07,3.07,0,0,0,0,.68c0,.2.13.26.33.24,1.1-.1,2.21-.22,3.32-.29s2,0,3-.06a.32.32,0,0,1,.14,0,5.08,5.08,0,0,1,1.92,1.38.8.8,0,0,1,.09.91.75.75,0,0,1-.73.44.67.67,0,0,1-.24-.07,1.91,1.91,0,0,0-1-.23c-.62,0-1.24,0-1.85.06-.44,0-.89,0-1.33.07-.66.07-1.33.14-2,.25-1.5.24-3,.51-4.48.76-.74.13-1.48.25-2.22.39-.36.08-.7.2-1.05.31a.16.16,0,0,0-.1.11c-.09.47-.17.94-.24,1.4a.31.31,0,0,0,0,.08c0,.7-.1.54.51.78.42.16.86.3,1.27.47a3.31,3.31,0,0,1,.55.37c.27.18.54.38.83.54,1.27.71,2.53,1.42,3.81,2.1A15.56,15.56,0,0,1,60,30.84,11.15,11.15,0,0,0,61.79,32c1.06.59,2.1,1.21,3.16,1.78a13.64,13.64,0,0,0,2.39,1,5.11,5.11,0,0,1,1.3.65c.24.16.46.33.69.48a1.3,1.3,0,0,1,.67.92ZM55.26,19.76l-.1-.09a2,2,0,0,1-.63-1.83c.07-.44.17-.88.22-1.32.12-1,.21-1.92.3-2.89,0-.46-.15-.58-.58-.38-.22.1-.43.24-.65.34l-1.27.58c-.12.05-.23.12-.35.18a1.23,1.23,0,0,0-.69,1.18c0,1.54,0,3.09,0,4.64,0,.24.07.3.31.3H52l.9-.15,1.3-.2A2.81,2.81,0,0,0,55.26,19.76Zm-6.32-3.51c-.16.05-.29.07-.42.12a12,12,0,0,0-2,1c-.66.4-1.29.85-1.93,1.28a2.49,2.49,0,0,0-.43.36c-.14.12-.13.23,0,.38a1,1,0,0,1,.1.17l1.29,2.47a.16.16,0,0,0,.2.09L47,21.87a3.54,3.54,0,0,0,1-.32,1,1,0,0,0,.56-.89,7,7,0,0,1,.1-.8A15.12,15.12,0,0,0,49,17.34C49,17,49,16.64,48.94,16.25Z" transform="translate(-1.35 -2.95)"/></svg>