<svg id="Layer_1" data-name="Layer 1" xmlns="http://www.w3.org/2000/svg" viewBox="0 0 77.05 50.1"><path d="M40.22,2.38,79,27.24a.84.84,0,0,1,0,1.19L41.59,51.91a.84.84,0,0,1-1.5-.6V47.7a.89.89,0,0,1,.24-.6l32.8-18.78a.86.86,0,0,0,0-1.19L39,7a.94.94,0,0,1-.24-.6V3a.86.86,0,0,1,.87-.85A.85.85,0,0,1,40.22,2.38Z" transform="translate(-2.22 -2.14)"/><rect x="47.17" y="24.91" width="27.89" height="1.99"/><path d="M49.46,28.89a225,225,0,0,1,27.79-2.57L74.57,29V27l2.71,2.71-7-.12a153.13,153.13,0,0,1-20.84-2L50,27a18.78,18.78,0,0,0-.45,1.88Zm-.21.21V26.85h.21l27.89-.14h.31V29.3h-.29l-28-.2Z" transform="translate(-2.22 -2.14)"/><path d="M2.22,36.57A1.51,1.51,0,0,1,3,35.49l.81-.57a6.17,6.17,0,0,1,1.54-.77A16,16,0,0,0,8.19,33c1.25-.68,2.48-1.41,3.73-2.11A13.3,13.3,0,0,0,14,29.52,18.4,18.4,0,0,1,17,27.65c1.52-.81,3-1.65,4.51-2.49.34-.19.66-.42,1-.63a3.54,3.54,0,0,1,.65-.44c.49-.2,1-.37,1.5-.56.72-.28.59-.09.61-.92v-.09c-.09-.55-.18-1.1-.29-1.66a.18.18,0,0,0-.12-.13,11.51,11.51,0,0,0-1.18-.36c-.87-.17-1.75-.31-2.62-.47-1.77-.29-3.55-.61-5.3-.9-.77-.13-1.56-.21-2.37-.29-.52,0-1.05-.06-1.57-.09-.72,0-1.45-.07-2.19-.07a2.22,2.22,0,0,0-1.18.28.9.9,0,0,1-.28.08.88.88,0,0,1-.87-.52,1,1,0,0,1,.11-1.08,5.86,5.86,0,0,1,2.13-1.66.22.22,0,0,1,.16,0c1.19,0,2.37,0,3.55.07s2.63.22,3.93.34c.23,0,.38,0,.39-.28a3.66,3.66,0,0,0,0-.81c-.06-.37-.14-.72-.2-1.07s-.13-1.06-.2-1.58c-.09-.71-.19-1.42-.26-2.11a10,10,0,0,1,.08-2.51,2.35,2.35,0,0,1,2.73-1.92h0a17.41,17.41,0,0,1,2.08.68c.73.29,1.42.67,2.13,1l.17.09a2.17,2.17,0,0,0,.17-.42c.06-.4.08-.8.14-1.18a6.06,6.06,0,0,1,.15-1,3.55,3.55,0,0,1,1.31-1.76,2.65,2.65,0,0,1,1.5-.6c.46,0,.91.22.64.87-.1.19-.23.38-.34.57a2.39,2.39,0,0,0-.28.58,5,5,0,0,0-.13,1V8.59A1,1,0,0,0,28,9.5a14.85,14.85,0,0,1,1.57.72,21.19,21.19,0,0,0,1.89,1,9,9,0,0,1,2.15,1.29,2.92,2.92,0,0,0,2.36.51,5.14,5.14,0,0,1,1.61-.13,2.48,2.48,0,0,1,.8.2.57.57,0,0,1,.31.74.54.54,0,0,1-.15.22,2.23,2.23,0,0,1-.88.48l-1.18.39a.86.86,0,0,0-.46.4c-.19.35-.4.66-.59,1-.57,1-1.19,2.06-1.72,3.09-.07.13-.16.26-.24.41a.44.44,0,0,0,.18.59,1.62,1.62,0,0,0,.37.19c.48.16,1,.29,1.47.47.79.31,1.59.6,2.36,1,1.8.82,3.48,1.84,5.2,2.8a1.29,1.29,0,0,1,.61.63v.26a5.85,5.85,0,0,1-1.19,1.39,1.48,1.48,0,0,1-1.29.34,1.14,1.14,0,0,1-.36-.15l-2-1.18A24.67,24.67,0,0,0,35,24.22c-.89-.33-1.79-.65-2.67-1-1.12-.41-2.2-.85-3.3-1.27l-.4-.12c.07.29.13.57.2.83a28.8,28.8,0,0,0,3.48,8,36.7,36.7,0,0,0,3.06,4.18q3.12,3.8,6.56,7.31l1.25,1.26a.91.91,0,0,1,.18.21c.07.12.12.22,0,.32a.17.17,0,0,0,0,.1h-.13a2.15,2.15,0,0,1-1-.59l-.31-.26a2.06,2.06,0,0,0-.89-.49l-.15-.1c-1.18-1-2.36-2.1-3.54-3.1-.61-.49-1.19-1.07-1.73-1.6q-.52-.51-1-1c-.36-.31-.85-.66-1.24-1C32.2,35,31.17,34,30.15,33.06a6.73,6.73,0,0,1-1.34-1.48l-.67-1.08a19.56,19.56,0,0,1-1.53-3A8.46,8.46,0,0,1,26,25.86c-.08-.32-.17-.63-.28-.94a.78.78,0,0,0-.34-.47l-.14.13a28.28,28.28,0,0,1-6.36,4.73c-1.36.78-2.75,1.54-4.06,2.37-2.48,1.69-5,3.33-7.53,5a5.23,5.23,0,0,1-1.46.77,5.22,5.22,0,0,0-.73.32,7.83,7.83,0,0,1-1,.4,1.31,1.31,0,0,1-1.66-.72c-.06-.17-.12-.34-.17-.51ZM20.91,16.83l1.54.23a6.52,6.52,0,0,1,1.06.18h.17c.28,0,.36-.07.36-.35V11.4a1.45,1.45,0,0,0-.81-1.4c-.14-.07-.27-.15-.42-.21l-1.5-.68c-.26-.12-.51-.29-.77-.41-.5-.23-.73-.09-.68.45.1,1.19.21,2.29.35,3.42.06.52.18,1,.26,1.56a2.39,2.39,0,0,1-.74,2.17l-.12.1A3.33,3.33,0,0,0,20.91,16.83Zm6.14-3.28a17.64,17.64,0,0,0,.4,3,7.47,7.47,0,0,1,.12.95,1.18,1.18,0,0,0,.66,1.05,4.4,4.4,0,0,0,1.18.38l1.43.34a.19.19,0,0,0,.24-.1l1.53-2.93a2,2,0,0,1,.11-.2c.13-.17.15-.3,0-.45a2.86,2.86,0,0,0-.5-.42c-.76-.51-1.51-1-2.29-1.52a14.86,14.86,0,0,0-2.36-1.18c-.16-.06-.31-.08-.5-.14C27.11,12.72,27.05,13.14,27.05,13.55Z" transform="translate(-2.22 -2.14)"/></svg>