<?xml version="1.0" encoding="utf-8"?>
<!-- Generator: Adobe Illustrator 26.0.2, SVG Export Plug-In . SVG Version: 6.00 Build 0)  -->
<svg version="1.1" id="Layer_1" xmlns="http://www.w3.org/2000/svg" xmlns:xlink="http://www.w3.org/1999/xlink" x="0px" y="0px"
	 viewBox="0 0 76.9 48.1" style="enable-background:new 0 0 76.9 48.1;" xml:space="preserve">
<style type="text/css">
	.st0{clip-path:url(#SVGID_00000053537887548972675330000001866419816121171593_);}
	.st1{clip-path:url(#SVGID_00000114784247672712757630000017125347746190776726_);}
	.st2{fill:#1D1D1B;}
</style>
<g>
	<defs>
		<rect id="SVGID_1_" x="8.4" y="-1.6" width="89.8" height="51.3"/>
	</defs>
	<clipPath id="SVGID_00000056404876497025185520000017084084431272054179_">
		<use xlink:href="#SVGID_1_"  style="overflow:visible;"/>
	</clipPath>
	<g style="clip-path:url(#SVGID_00000056404876497025185520000017084084431272054179_);">
		<g>
			<defs>
				<rect id="SVGID_00000073707035818275691820000015338201518644653447_" x="8.4" y="-1.6" width="89.8" height="51.3"/>
			</defs>
			<clipPath id="SVGID_00000011004234424685946710000015128016609045317515_">
				<use xlink:href="#SVGID_00000073707035818275691820000015338201518644653447_"  style="overflow:visible;"/>
			</clipPath>
			<g style="clip-path:url(#SVGID_00000011004234424685946710000015128016609045317515_);">
				<path class="st2" d="M46.2,24.1c0-4,3.2-7.2,7.1-7.3c3.9,0,7.1,3.2,7.1,7.2c0,4-3.2,7.2-7.1,7.3c0,0,0,0,0,0
					C49.4,31.3,46.2,28.1,46.2,24.1"/>
				<path class="st2" d="M50,15.6l3.3-15.2l3.1,15.2c-1-0.3-2.1-0.5-3.1-0.5C52.2,15.1,51,15.3,50,15.6"/>
				<path class="st2" d="M45,20.5L36.9,7.3l12.8,8.5c-1,0.5-1.9,1.1-2.6,1.9C46.2,18.5,45.5,19.5,45,20.5"/>
				<path class="st2" d="M44.9,27.4l-15-3.4l14.9-3.2c-0.3,1-0.5,2.1-0.5,3.2C44.4,25.1,44.6,26.3,44.9,27.4"/>
				<path class="st2" d="M49.7,32.3l-12.9,8.4l8.3-13c0.5,1,1.2,1.8,1.9,2.6C47.8,31.1,48.7,31.7,49.7,32.3"/>
				<path class="st2" d="M56.4,32.5l-3.3,15.2L50,32.5c1,0.3,2.1,0.5,3.1,0.5C54.2,33,55.4,32.8,56.4,32.5"/>
				<path class="st2" d="M61.6,27.6l8.1,13.2l-12.8-8.6c0.9-0.5,1.8-1.1,2.6-1.9C60.3,29.5,61,28.6,61.6,27.6"/>
				<path class="st2" d="M61.6,20.8l15,3.4l-15,3.2c0.3-1,0.5-2.1,0.5-3.2C62.1,23,61.9,21.9,61.6,20.8"/>
				<path class="st2" d="M56.9,15.8l12.8-8.5l-8.2,13.1c-0.5-1-1.1-1.8-1.9-2.6C58.8,17,57.9,16.3,56.9,15.8"/>
			</g>
		</g>
	</g>
</g>
<path d="M37.5,47.5L0.3,23.7c-0.3-0.3-0.3-0.8,0-1.1L36.2,0.1c0.3-0.3,0.8-0.3,1.1,0c0.1,0.1,0.2,0.4,0.2,0.6v3.5
	c0,0.2-0.1,0.4-0.2,0.6L6,22.7c-0.3,0.3-0.3,0.8,0,1.2l32.7,19.3c0.2,0.1,0.2,0.4,0.2,0.6V47c0,0.4-0.3,0.8-0.8,0.8
	C37.9,47.8,37.7,47.7,37.5,47.5z"/>
<rect x="2" y="22" width="26.7" height="1.9"/>
<path d="M28.6,22.1c-8.8,1.4-17.7,2.3-26.7,2.5L4.6,22v1.9L2,21.3l6.7,0.1c6.7,0.2,13.4,0.8,20,1.9l-0.5,0.5
	C28.3,23.4,28.5,22.8,28.6,22.1L28.6,22.1z M28.8,21.9c0,0.7,0,1.4,0,2.2h-0.2L2,24.2H1.7c0-0.4,0-2.1,0-2.5H2L28.8,21.9L28.8,21.9z
	"/>
</svg>
